<svg version="1.1" xmlns="http://www.w3.org/2000/svg" xmlns:xlink="http://www.w3.org/1999/xlink" width="743.52964" height="412.11836" viewBox="0,0,743.52964,412.11836"><g transform="translate(28.85288,24.1924)"><g stroke="none" stroke-miterlimit="10"><path d="M666.13677,-7.3879v31.93804h-670.57563v-31.93804z" fill="#9e9898" stroke-width="0"/><path d="M24.57503,-23.4424c0,-0.41421 0.33579,-0.75 0.75,-0.75c0.41421,0 0.75,0.33579 0.75,0.75c0,0.41421 -0.33579,0.75 -0.75,0.75c-0.41421,0 -0.75,-0.33579 -0.75,-0.75z" fill="#ffe2b1" stroke-width="0.5"/><path d="" fill="#000000" stroke-width="0.5"/><path d="" fill="#000000" stroke-width="0.5"/><path d="M469.96592,366.64844v-51.04752h170.03412v51.04752z" fill="#9e9898" stroke-width="0"/><path d="M43.9024,-7.3879v395.31386h-56.85456v-395.31384z" fill="#9e9898" stroke-width="0"/><path d="M651.53914,3.14016v238.34721h-76.55437v-238.34721z" fill="#9e9898" stroke-width="0"/><path d="M269.23185,310.08493v-34.10641h178.7176v34.10641z" fill="#9e9898" stroke-width="0"/><path d="M416.57891,204.00657v-97.25692h191.31833v97.25692z" fill="#9e9898" stroke-width="0"/><path d="M674.07658,259.83426v-67.96116h40.60017v67.96116z" fill="#ff0000" stroke-width="0"/><path d="M-28.85288,377.05324v-34.10641h277.62227v34.10641z" fill="#9e9898" stroke-width="0"/><path d="M83.80033,218.46205v-14.45548h178.7176v14.45548z" fill="#9e9898" stroke-width="0"/></g></g></svg>