<svg version="1.1" xmlns="http://www.w3.org/2000/svg" xmlns:xlink="http://www.w3.org/1999/xlink" width="79.58288" height="79.58288" viewBox="0,0,79.58288,79.58288"><g transform="translate(-200.20856,-140.20856)"><g stroke-miterlimit="10"><path d="M210.7779,180c0,-16.42571 13.08318,-29.74138 29.22211,-29.74138c16.13892,0 29.22211,13.31567 29.22211,29.74138c0,16.42571 -13.08318,29.74138 -29.22211,29.74138c-16.13892,0 -29.22211,-13.31567 -29.22211,-29.74138z" fill="#fff100" stroke="#a79b1c" stroke-width="2"/><path d="M215.27825,180c0,-16.42571 12.07575,-29.74138 26.97194,-29.74138c14.89619,0 26.97194,13.31567 26.97194,29.74138c0,16.42571 -12.07575,29.74138 -26.97194,29.74138c-14.89619,0 -26.97194,-13.31567 -26.97194,-29.74138z" fill="#fff100" stroke="#a79b1c" stroke-width="2"/><g fill="#a79b1c" stroke="none" stroke-width="0.5"><path d="M235.32983,177.24956c-0.97206,0.64312 -1.55529,-0.42874 -1.55529,-0.42874l-0.63405,-1.1654c-0.1299,-0.25189 -0.85783,-2.26399 -1.21679,-3.32619c0.0374,1.47965 -1.00104,4.82444 -1.0948,5.27943c0,0 -0.25123,1.21892 -1.35664,0.94189c-1.10542,-0.27703 -0.85418,-1.49594 -0.85418,-1.49594c0.47064,-2.28319 1.02284,-10.56208 4.77144,-6.67758c0.97688,1.01229 1.03968,2.73332 1.70743,4.01508l0.62173,1.14247c0,0 0.58323,1.07186 -0.38883,1.71498z"/><path d="M253.67166,182.25765c-1.01392,0.55901 -1.52089,-0.55902 -1.52089,-0.55902l-0.29622,-0.65487c-1.24714,-2.5332 -2.19983,-5.11797 -3.16803,-7.78717c-0.39807,2.12518 -0.73804,4.2659 -1.35318,6.31662c0,0 -0.35848,1.18586 -1.43391,0.79057c-1.07544,-0.39529 -0.71695,-1.58114 -0.71695,-1.58114c0.82556,-2.7075 1.13725,-5.61126 1.77043,-8.3941l0.03636,-0.05442l-0.01769,-0.0071l0.40957,-1.24193c0.15121,-0.49429 0.57511,-0.85021 1.07438,-0.85021c0.45254,0 0.84314,0.2924 1.0249,0.7152l0.61691,1.3605l-0.23507,0.1296c1.6222,2.92736 2.46034,6.31603 3.98469,9.41057l0.33167,0.72985c0,0 0.50697,1.11804 -0.50696,1.67705z"/><g><path d="M239.5142,185.41512c-1.07767,-0.05095 -2.15139,-0.13403 -3.21843,-0.26371c0,0 -1.12667,-0.13804 -1.00148,-1.38039c0.12519,-1.24236 1.25185,-1.10432 1.25185,-1.10432c5.34789,0.66088 10.89045,0.22314 16.26902,0.22314c1.11627,0 4.77461,-0.47367 5.50507,0.44203c1.01934,1.27785 -0.68169,4.13396 -1.17506,4.95905c-2.09019,3.49552 -5.25799,5.10392 -8.87962,5.95853c-1.80826,0.39805 -6.15301,1.65031 -7.76125,-0.03764c-1.90619,-2.00067 -1.56659,-6.15029 -0.99012,-8.79669zM241.94064,185.48164c-0.02971,0.29361 -0.12892,0.50606 -0.25693,0.65977c-0.38666,1.77693 -0.76925,4.83387 0.28154,6.15864c0.73271,0.92375 4.98437,-0.30948 5.84304,-0.49922c2.11708,-0.48892 4.6649,-1.25636 6.18877,-3.09973c0.46081,-0.55741 0.87625,-1.16197 1.25676,-1.78874c0.31413,-0.51743 0.50716,-1.11939 0.81813,-1.63734c-1.45511,0.61569 -4.31869,0.11482 -5.52398,0.11482c-2.84833,0 -5.73452,0.12091 -8.60733,0.0918z"/><path d="M243.60608,194.13981c-0.80158,0.88388 -1.60315,0 -1.60315,0l-0.23175,-0.28245c-2.02627,-3.31199 -1.41724,-7.25113 1.06894,-10.02444c0,0 0.80158,-0.88388 1.60316,0c0.80158,0.88388 0,1.76776 0,1.76776c-1.67864,1.82485 -2.2985,4.60726 -0.81473,6.82302l-0.02246,-0.05166c0,0 0.80158,0.88388 0,1.76776z"/><path d="M248.99271,193.04271c-0.85312,0.82313 -1.5996,-0.11759 -1.5996,-0.11759l-0.97308,-1.41738c-0.61626,-2.56697 -0.23545,-4.79303 0.18763,-7.36072c0,0 0.20279,-1.22984 1.3181,-1.00623c1.11532,0.22361 0.91253,1.45344 0.91253,1.45344c-0.35689,2.16296 -0.78533,4.09632 -0.23096,6.25571l0.492,0.42891c0,0 0.74648,0.94072 -0.10664,1.76385z"/><path d="M256.73134,184.46989c0.18315,0.33769 0.18315,0.70849 0.18315,0.70849l-0.00465,0.92092c-0.24012,0.7569 -0.02376,2.04046 -0.72035,2.2707c-4.03176,1.33259 -2.51893,-3.68367 -1.31386,-4.87067c0,0 0.89481,-0.76743 1.59078,0.21926c0.19094,0.27071 0.26214,0.52492 0.26494,0.7513z"/></g></g><path d="M200.20856,219.79144v-79.58288h79.58288v79.58288z" fill="none" stroke="none" stroke-width="0"/></g></g></svg>