<svg version="1.1" xmlns="http://www.w3.org/2000/svg" xmlns:xlink="http://www.w3.org/1999/xlink" width="79.58288" height="79.58288" viewBox="0,0,79.58288,79.58288"><g transform="translate(-200.20856,-140.20856)"><g stroke-miterlimit="10"><path d="M240.40545,210.19277c-3.1441,0 -6.35378,0.19471 -9.11992,-1.11365c-9.2411,-4.37094 -15.59175,-16.2483 -15.59175,-29.08384c0,-11.67995 5.1224,-23.12877 13.06262,-28.15181c3.3975,-2.14928 7.55929,-2.04568 11.64905,-2.04568c13.64788,0 24.71167,13.51988 24.71167,30.19749c0,16.67761 -11.0638,30.19749 -24.71167,30.19749z" fill="#fff100" stroke="#a79b1c" stroke-width="2"/><path d="M235.36791,209.78734c-11.31357,0 -20.48502,-13.31567 -20.48502,-29.74138c0,-16.42571 9.17146,-29.74138 20.48502,-29.74138c11.31357,0 20.48502,13.31567 20.48502,29.74138c0,16.42571 -9.17146,29.74138 -20.48502,29.74138z" fill="#fff100" stroke="#a79b1c" stroke-width="2"/><path d="M200.20856,219.79144v-79.58288h79.58288v79.58288z" fill="none" stroke="none" stroke-width="0"/></g></g></svg>