<svg version="1.1" xmlns="http://www.w3.org/2000/svg" xmlns:xlink="http://www.w3.org/1999/xlink" width="198.83334" height="198.83334" viewBox="0,0,198.83334,198.83334"><g transform="translate(-220.58334,-80.58334)"><g fill="#9e9898" stroke="#686868" stroke-miterlimit="10"><path d="M228.33335,180c0,-50.6261 41.04056,-91.66666 91.66667,-91.66666c50.6261,0 91.66667,41.04056 91.66667,91.66667c0,50.6261 -41.04057,91.66667 -91.66667,91.66667c-50.6261,0 -91.66666,-41.04057 -91.66666,-91.66667z" stroke-width="15.5"/><g stroke-width="4"><g><path d="M320.46571,174.88205c0,11.84351 -3.22448,21.44456 -7.20211,21.44456c-3.97763,0 -7.20214,-9.60107 -7.20214,-21.44456c0,-11.84351 3.22451,-21.44456 7.20214,-21.44456c3.97763,0 7.20211,9.60105 7.20211,21.44456z"/><path d="M312.77795,229.53768c-1.86996,0.02052 -3.35792,0.95326 -4.71639,-1.49321c-1.88812,-3.40032 -3.32725,-11.37854 -3.42229,-20.03325c-0.16342,-14.88169 2.60071,-22.81963 6.3589,-25.23834c5.88459,-3.78729 9.66125,10.17894 9.82464,25.06063c0.08255,7.51822 -0.99527,15.34967 -2.49575,18.90742c-1.46956,3.48455 -3.3379,2.77248 -5.54916,2.79675z"/><g><path d="M313.32936,232.26434c-5.99525,0.06583 -10.7583,0.28182 -10.78833,-2.45283c-0.03003,-2.73468 4.80573,-5.00493 10.80096,-5.07076c5.99525,-0.06583 10.87968,2.09769 10.90971,4.83234c0.03003,2.73468 -4.9271,2.62539 -10.92232,2.69122z"/><path d="M324.70609,231.91017c0.04013,3.655 -1.69258,7.78015 -3.53323,7.80036c-1.84065,0.02021 -3.36531,-2.92637 -3.40544,-6.58135c-0.04013,-3.655 1.41944,-6.63433 3.26009,-6.65454c1.84063,-0.02021 3.63845,1.78055 3.67858,5.43555z"/><path d="M305.37943,226.64646c1.84065,-0.02021 3.36531,2.92637 3.40544,6.58135c0.04013,3.655 -1.41944,6.63433 -3.26009,6.65454c-1.84065,0.02021 -3.66354,-4.06589 -3.70368,-7.72089c-0.04013,-3.655 1.71768,-5.49481 3.55833,-5.51502z"/></g></g><path d="M378.27338,169.73877c0,19.76829 -18.63286,8.9484 -50.81635,8.9484c-32.18349,0 -65.73038,10.81989 -65.73038,-8.9484c0,-19.76829 26.08988,-35.79364 58.27336,-35.79364c32.18349,0 58.27334,16.02535 58.27334,35.79366z"/><path d="M368.43011,160.79034c0,4.94208 -11.21774,8.94842 -25.05555,8.94842c-13.83779,0 -25.05555,-4.00636 -25.05555,-8.94842c0,-4.94208 -3.69627,-8.05355 10.14152,-12.82606c3.2669,-1.12672 11.09106,-0.98466 16.12539,-1.07535c5.22918,-0.0942 11.14503,1.02737 14.97264,2.34318c7.24321,2.49003 8.87155,9.13227 8.87155,11.5582z"/><path d="M332.79946,159.81112c0,3.0223 -1.0792,5.47236 -2.41043,5.47236c-1.33124,0 -2.41043,-2.45006 -2.41043,-5.47236c0,-3.0223 1.0792,-5.47236 2.41043,-5.47236c1.33124,0 2.41043,2.45006 2.41043,5.47236z"/><path d="M362.1156,159.48538c0,2.48262 -0.8167,4.49516 -1.82412,4.49516c-1.00743,0 -1.82412,-2.01254 -1.82412,-4.49516c0,-2.48262 0.8167,-4.49516 1.82412,-4.49516c1.00743,0 1.82412,2.01254 1.82412,4.49516z"/><g><path d="M315.9093,137.85866c-0.46885,0.01232 -0.18551,-0.89299 -0.23353,-1.53967c-0.1997,-2.68923 -1.40111,-20.47248 -1.40111,-20.47248l9.81625,-0.72897c0,0 1.34485,16.64571 1.56511,19.61168c0.06133,0.82574 0.72505,2.20568 0.06954,2.40045c-0.59399,0.17651 -1.00235,0.28259 -1.55129,0.32335c-1.138,0.0845 -4.6708,0.35232 -6.77807,0.50881c-0.727,0.05399 -0.0134,0.15878 -1.48686,-0.10322z"/><path d="M349.34017,115.75c0,3.29472 -7.54527,5.96561 -16.85285,5.96561c-9.30758,0 -16.85285,-2.67089 -16.85285,-5.96561c0,-3.29472 7.54527,-5.96561 16.85285,-5.96561c9.30758,0 16.85285,2.67089 16.85285,5.96561z"/><path d="M308.12749,109.78439c9.30758,0 16.85285,2.67089 16.85285,5.96561c0,3.29472 -7.54529,5.96561 -16.85285,5.96561c-9.30758,0 -16.85285,-2.67089 -16.85285,-5.96561c0,-3.29472 7.54527,-5.96561 16.85285,-5.96561z"/></g><g><path d="M294.04295,185.21524c0,11.84351 -3.22448,21.44456 -7.20211,21.44456c-3.97763,0 -7.20214,-9.60107 -7.20214,-21.44456c0,-11.84351 3.22451,-21.44456 7.20214,-21.44456c3.97763,0 7.20211,9.60105 7.20211,21.44456z"/><path d="M286.35512,239.87087c-1.86996,0.02052 -3.35792,0.95326 -4.71639,-1.49321c-1.88812,-3.40032 -3.32725,-11.37854 -3.42229,-20.03325c-0.16342,-14.88169 2.60071,-22.81963 6.3589,-25.23834c5.88459,-3.78729 9.66125,10.17894 9.82464,25.06063c0.08255,7.51822 -0.99527,15.34967 -2.49575,18.90742c-1.46956,3.48455 -3.3379,2.77248 -5.54916,2.79675z"/><g><path d="M286.9066,242.59754c-5.99525,0.06583 -10.7583,0.28182 -10.78833,-2.45283c-0.03003,-2.73468 4.80573,-5.00493 10.80096,-5.07076c5.99525,-0.06583 10.87968,2.09769 10.90971,4.83234c0.03003,2.73468 -4.9271,2.62539 -10.92232,2.69122z"/><path d="M298.28333,242.24336c0.04013,3.655 -1.69258,7.78015 -3.53323,7.80036c-1.84065,0.02021 -3.36531,-2.92637 -3.40544,-6.58135c-0.04013,-3.655 1.41944,-6.63433 3.26009,-6.65454c1.84063,-0.02021 3.63845,1.78055 3.67858,5.43555z"/><path d="M278.9566,236.97966c1.84065,-0.02021 3.36531,2.92637 3.40544,6.58135c0.04013,3.655 -1.41944,6.63433 -3.26009,6.65454c-1.84065,0.02021 -3.66354,-4.06589 -3.70368,-7.72089c-0.04013,-3.655 1.71768,-5.49481 3.55833,-5.51502z"/></g></g></g></g></g></svg>