<svg version="1.1" xmlns="http://www.w3.org/2000/svg" xmlns:xlink="http://www.w3.org/1999/xlink" width="86.91154" height="178.22849" viewBox="0,0,86.91154,178.22849"><g transform="translate(-196.54423,-81.31114)"><g stroke="none" stroke-miterlimit="10"><path d="" fill="#000000" stroke-width="0.5"/><path d="" fill="#000000" stroke-width="0.5"/><path d="" fill="#000000" stroke-width="0.5"/><path d="" fill="#000000" stroke-width="0.5"/><path d="" fill="#000000" stroke-width="0.5"/><path d="" fill="#000000" stroke-width="0.5"/><path d="" fill="#000000" stroke-width="0.5"/><path d="" fill="#000000" stroke-width="0.5"/><path d="" fill="#000000" stroke-width="0.5"/><path d="M283.45577,238.17278v21.36684h-47.65436" fill-opacity="0" fill="#9e9898" stroke-width="0"/><path d="M223.61157,259.53959h-27.06734v-56.47871" fill-opacity="0" fill="#9e9898" stroke-width="0"/><path d="M196.54423,183.39941v-82.93897h86.91154v125.66828" fill-opacity="0" fill="#9e9898" stroke-width="0"/><path d="M242.28393,155.90712c-1.01553,-0.60147 -1.82258,-1.42531 -2.50912,-2.36097c0,5.72276 0,11.44551 0,17.16825c0,5.2307 0.39871,10.76008 -0.19314,15.95946c-0.31823,2.79566 -1.06341,5.6865 -1.73971,8.50651c0.98773,3.72196 3.32856,6.60563 4.16666,10.41558c1.32158,6.00786 1.54121,12.80359 3.77465,18.51509c1.33658,3.41797 3.65626,6.43994 4.80847,9.91618c1.57042,4.73802 1.72122,9.99592 1.70069,14.92298l-0.56581,2.91692c0,0 -0.49029,2.47336 -2.94174,1.97868c-2.45145,-0.49467 -1.96116,-2.96804 -1.96116,-2.96804l0.49305,-2.42466c-0.02127,-4.23409 -0.13589,-8.7803 -1.47588,-12.8533c-1.10703,-3.36486 -3.4414,-6.3462 -4.72123,-9.66967c-2.29701,-5.96485 -2.68712,-12.96135 -3.99028,-19.23216c-0.16968,-0.81649 -0.41681,-1.59654 -0.70988,-2.35608c0.0401,3.15271 0.00299,6.30727 0.00226,9.46134c-0.00031,1.32994 0.07828,5.0504 -0.2328,6.40815c-0.87079,3.80069 -3.68084,6.37673 -4.82819,10.03159c-1.91987,6.1157 -1.77972,11.76841 -1.84573,18.10883c0.15984,0.54207 0.31969,1.08415 0.47953,1.62622c0.41278,0.62177 0.96157,1.89988 -0.30522,3.178c-1.76777,1.78357 -3.53554,0 -3.53554,0l-0.81252,-1.26868c-0.25931,-0.94527 -0.51862,-1.89056 -0.77793,-2.83583c-0.05649,-7.06088 -0.15622,-13.55043 2.03674,-20.35064c1.10034,-3.41208 3.95554,-6.10005 4.7015,-9.55426c0.54097,-2.50502 0.12015,-5.46512 0.12015,-8.01415c0,-4.05438 0.05158,-8.09675 -0.17262,-12.14575c0,0 -0.08705,-1.5809 1.11823,-2.30724c0.7347,-3.44745 1.85469,-7.09834 2.24763,-10.5872c0.5636,-5.00409 0.1598,-10.34286 0.1598,-15.37788c0,-6.29237 0,-12.58473 0,-18.87711c-0.25245,0.35267 -0.5628,0.73583 -0.94722,1.16912c-3.78529,4.26655 -12.24387,4.51533 -16.86658,1.43685c-3.12047,-2.07807 -3.40488,-6.69159 -4.02042,-9.94101c-1.07549,-5.24891 -1.30559,-11.42509 -0.74077,-16.78633c0.47046,-4.46564 3.08945,-8.45921 2.48091,-13.09451c-0.08913,-0.67887 -0.90761,-5.16478 -1.81964,-5.1988c-3.51561,-0.13113 -6.69723,4.71311 -8.22287,7.23924c0,0 -1.31025,2.14816 -3.43939,0.82621c-2.12915,-1.32194 -0.81891,-3.47013 -0.81891,-3.47013c3.1571,-5.13351 11.61738,-14.36362 17.27807,-6.65053c0.05088,0.06934 0.35886,1.00549 0.71722,2.15349c0.21903,-0.65205 0.47748,-1.28674 0.78197,-1.89953c4.18766,-8.42763 15.67207,-8.21462 23.02597,-5.44289c2.73962,1.45922 5.31895,2.6579 7.43108,4.81369c2.54342,-3.54265 8.17529,-5.58674 11.90699,-3.57781c2.36723,1.27437 3.18956,4.17272 4.16096,6.37415l0.05667,3.26317c0,0 0,2.52235 -2.5,2.52235c-2.5,0 -2.5,-2.52235 -2.5,-2.52235l0.05666,-2.19522c-0.20423,-0.43646 -1.08387,-2.63927 -1.74093,-3.05401c-1.01702,-0.64196 -3.61592,0.33839 -4.92976,1.53466c0.05617,0.28832 0.05617,0.48915 0.05617,0.48915c-0.00491,5.00197 1.88126,7.98956 3.33398,12.66195c1.18067,3.79739 0.85194,7.98695 0.84653,11.90093c-0.01065,7.70835 -0.53566,18.72283 -8.97586,21.95332c-1.10318,0.42225 -2.31876,0.4421 -3.47814,0.66313c-1.20785,-0.36613 -2.53592,-0.45423 -3.62355,-1.09841zM252.38794,142.59835c0.29109,-3.19153 0.75159,-6.28969 0.94566,-9.41899c-0.39776,1.32174 -0.94531,2.56779 -1.68289,3.58503c-1.99749,2.75485 -8.0026,6.33715 -11.36893,7.03491c-0.03472,0.00719 -0.07219,0.01394 -0.11226,0.02024c1.22405,0.66382 1.22405,2.23073 1.22405,2.23073l-0.31461,-0.48063c1.36371,2.47666 2.17922,5.52739 5.06358,6.3968c5.06441,-1.15809 5.83296,-4.84621 6.2454,-9.36813zM231.69443,144.20379c0,0 0.06047,-0.21355 0.20834,-0.49582c-4.67397,-0.59302 -10.38121,-1.2083 -12.90876,-5.66666c-1.55387,-2.74089 -1.69278,-7.2324 -1.69508,-10.78918c-0.05088,0.32809 -0.09374,0.65964 -0.12694,0.99528c-0.4808,4.86086 -0.3427,10.50358 0.67104,15.26323c0.17212,0.91494 0.51385,5.99476 1.97976,6.79599c4.76052,2.60196 10.87735,1.21035 11.44181,-4.47638zM232.55899,138.72773c0.4384,-0.10665 0.78173,-0.08934 0.78173,-0.08934c4.43678,0.22482 6.11921,0.24107 9.91563,-1.97759c0.26101,-0.15254 3.80898,-2.0831 4.34918,-2.86149c1.82489,-2.6296 1.63881,-6.3736 1.6403,-9.37871c0.00242,-4.86938 0.20527,-11.39555 -4.02229,-14.78305c-0.68399,-0.54807 -4.5123,-2.54797 -5.09213,-2.85869c-4.61381,-1.75422 -13.88085,-2.75388 -16.50462,3.10365c-2.04214,4.55905 -1.31958,10.41055 -1.32309,15.25031c-0.00224,3.0905 -0.20208,7.72116 1.1333,10.59453c1.10694,2.38182 6.25892,2.72637 9.12198,3.00038z" fill="#000000" stroke-width="0.5"/><path d="M252.77828,108.43692c0,4.92233 -1.34014,8.91266 -2.9933,8.91266c-1.65316,0 -2.99331,-3.99034 -2.99331,-8.91266c0,-4.92233 1.34015,-8.91266 2.99331,-8.91266c1.65316,0 2.9933,3.99033 2.9933,8.91266z" fill="#c3dce2" stroke-width="0"/><g fill="#c3dce2" stroke-width="0"><path d="M264.44112,128.56498c-1.66748,1.85172 -2.94221,3.36893 -3.78684,2.60833c-0.84465,-0.76061 -0.1776,-2.87831 1.48988,-4.73002c1.66748,-1.85171 3.70397,-2.73623 4.54861,-1.97562c0.84465,0.76061 -0.58417,2.2456 -2.25165,4.09731z"/><path d="M267.53529,124.98659c1.1289,1.01658 1.90251,2.7076 1.39056,3.27611c-0.51195,0.56851 -1.84211,0.20527 -2.971,-0.81131c-1.12889,-1.01658 -1.62904,-2.30154 -1.11709,-2.87005c0.51195,-0.56851 1.56864,-0.61133 2.69754,0.40525z"/><path d="M260.48548,129.41447c0.51195,-0.56851 1.84211,-0.20528 2.971,0.8113c1.1289,1.01658 1.62904,2.30155 1.11709,2.87006c-0.51195,0.56851 -2.2745,-0.02431 -3.40339,-1.04089c-1.12889,-1.01658 -1.19665,-2.07196 -0.6847,-2.64047z"/></g><g fill="#c3dce2" stroke-width="0"><path d="M203.22208,124.67373c0.84464,-0.7606 2.88112,0.1239 4.54861,1.97562c1.66748,1.85171 2.33453,3.96941 1.48988,4.73002c-0.84464,0.7606 -2.11935,-0.75662 -3.78684,-2.60833c-1.66748,-1.85171 -3.0963,-3.3367 -2.25165,-4.09731z"/><path d="M205.0771,124.78739c0.51195,0.56852 0.0118,1.85348 -1.11709,2.87006c-1.12889,1.01658 -2.45905,1.37982 -2.971,0.81131c-0.51195,-0.56851 0.26166,-2.25953 1.39056,-3.27611c1.1289,-1.01658 2.18559,-0.97376 2.69754,-0.40526z"/><path d="M208.74468,132.261c-1.12889,1.01658 -2.89144,1.6094 -3.40339,1.04089c-0.51195,-0.56851 -0.01181,-1.85348 1.11709,-2.87006c1.1289,-1.01658 2.45905,-1.37982 2.971,-0.81131c0.51195,0.56851 0.4442,1.6239 -0.6847,2.64048z"/></g><path d="M211.24638,108.82475c-0.73749,-8.18282 9.46419,-15.78963 22.7861,-16.99029c13.32191,-1.20067 24.71932,4.45948 25.45681,12.64229c0.73749,8.18281 -13.55244,4.9556 -26.87435,6.15626c-13.32191,1.20067 -20.63107,6.37455 -21.36857,-1.80827z" fill="#c3dce2" stroke-width="0"/><path d="M220.37091,102.53334c1.64649,-0.14839 3.33941,3.70553 3.78126,8.60799c0.44184,4.90245 -0.53471,8.99698 -2.1812,9.14537c-1.64649,0.14839 -3.3394,-3.70553 -3.78125,-8.60799c-0.44184,-4.90246 0.5347,-8.99698 2.18119,-9.14537z" fill="#c3dce2" stroke-width="0"/><path d="M209.31193,132.08714c-0.67385,-0.62501 -1.44779,-0.9276 -0.92699,-2.41056c0.53173,-1.51413 2.38707,-4.22568 4.5121,-6.51676c4.20632,-4.53499 9.26915,-7.77914 10.02277,-4.97001c0.48131,1.79404 -0.88471,5.00932 -5.09103,9.54431c-2.44627,2.6374 -5.11733,4.69122 -6.6481,5.21055c-1.10138,0.37365 -1.2989,-0.329 -1.86874,-0.85754z" fill="#c3dce2" stroke-width="0"/><g fill="#c3dce2" stroke-width="0"><path d="M205.77037,128.89376c0.77296,-0.83336 2.88062,-0.13521 4.70759,1.55935c1.82696,1.69456 2.68141,3.74383 1.90845,4.57719c-0.77295,0.83335 -2.17872,-0.56331 -4.00569,-2.25788c-1.82696,-1.69456 -3.38331,-3.0453 -2.61035,-3.87865z"/><path d="M204.97782,129.48621c1.03309,-1.11381 2.08936,-1.16601 2.65027,-0.64575c0.56091,0.52026 0.17813,1.84493 -0.85496,2.95874c-1.03308,1.11381 -2.32527,1.59498 -2.88618,1.07472c-0.56091,-0.52026 0.05778,-2.2739 1.09087,-3.38771z"/><path d="M211.95172,135.95467c-1.03308,1.11381 -2.7353,1.86245 -3.29622,1.34219c-0.56091,-0.52026 -0.17814,-1.84494 0.85495,-2.95875c1.03308,-1.11381 2.32527,-1.59497 2.88618,-1.07471c0.56091,0.52026 0.58816,1.57746 -0.44492,2.69127z"/></g><path d="M253.70604,108.68462c0.44184,4.90246 -0.5347,8.99698 -2.18119,9.14537c-1.64649,0.14839 -3.33941,-3.70554 -3.78126,-8.60799c-0.44184,-4.90246 0.53471,-8.99698 2.1812,-9.14537c1.64649,-0.14839 3.3394,3.70553 3.78125,8.60799z" fill="#c3dce2" stroke-width="0"/><path d="M264.40454,128.35466c-1.59897,-0.23726 -4.59421,-1.78039 -7.47262,-3.9379c-4.94939,-3.70981 -6.8683,-6.62902 -6.71553,-8.48021c0.23921,-2.89862 5.80049,-0.61199 10.7499,3.09782c2.50044,1.8742 4.8107,4.21032 5.6046,5.60497c0.77756,1.36595 0.0702,1.80204 -0.48104,2.53746c-0.46616,0.62192 -0.53487,1.34856 -1.6853,1.17785z" fill="#c3dce2" stroke-width="0"/><g fill="#c3dce2" stroke-width="0"><path d="M267.12856,127.68453c-1.49454,1.99391 -2.62792,3.61943 -3.53742,2.93772c-0.90952,-0.68172 -0.43525,-2.85075 1.05928,-4.84466c1.49454,-1.99392 3.44341,-3.05765 4.35291,-2.37594c0.90952,0.68172 -0.38024,2.28897 -1.87477,4.28289z"/><path d="M267.16602,123.68136c0.45884,-0.61216 1.50742,-0.74966 2.72302,0.16148c1.21558,0.91114 2.13787,2.52589 1.67902,3.13806c-0.45885,0.61217 -1.81626,0.3698 -3.03184,-0.54135c-1.21559,-0.91114 -1.82906,-2.14602 -1.37021,-2.7582z"/><path d="M263.26514,128.88566c0.45885,-0.61217 1.81624,-0.36979 3.03183,0.54135c1.21559,0.91114 1.82906,2.14603 1.37021,2.7582c-0.45885,0.61217 -2.2675,0.17995 -3.48308,-0.73119c-1.21559,-0.91114 -1.37781,-1.95619 -0.91895,-2.56836z"/></g><g stroke-width="0"><path d="M247.6519,102.06528c0.17124,2.46626 -5.28797,4.85424 -12.1935,5.33372c-6.90552,0.47947 -12.64238,-1.13115 -12.81361,-3.5974c-0.17124,-2.46626 -2.12361,-3.89092 4.61656,-6.75203c1.59126,-0.67547 5.50069,-0.87567 8.00984,-1.09537c2.60626,-0.2282 5.59734,0.12653 7.55303,0.65053c3.70087,0.99164 4.74363,4.24992 4.82768,5.46053z" fill="#000000"/><path d="M227.78994,102.20114c0.12269,1.76701 -0.4088,3.24326 -1.18712,3.29731c-0.77832,0.05404 -1.50874,-1.3346 -1.63142,-3.1016c-0.12269,-1.76701 0.40881,-3.24326 1.18713,-3.2973c0.77832,-0.05404 1.50873,1.3346 1.63141,3.10161z" fill="#0091ff"/><path d="M244.91661,100.82064c0.10078,1.45148 -0.295,2.66127 -0.884,2.70217c-0.58901,0.04089 -1.14818,-1.1026 -1.24896,-2.55408c-0.10078,-1.45148 0.295,-2.66127 0.884,-2.70217c0.58901,-0.04089 1.14818,1.1026 1.24896,2.55408z" fill="#ff0000"/></g><g stroke-width="0"><path d="M235.87178,93.30178c-0.60014,0.16342 -0.30867,0.09342 -0.61161,0.0982c-0.87811,0.01384 -2.35046,0.03478 -2.82467,0.04225c-0.22875,0.00361 -0.40174,-0.02507 -0.6542,-0.07597c-0.27861,-0.05617 -0.05535,-0.65213 -0.06077,-0.99623c-0.01948,-1.23594 -0.0838,-8.17638 -0.0838,-8.17638l4.0905,-0.06447c0,0 0.16613,7.40595 0.1838,8.52657c0.00425,0.26948 0.15531,0.63365 -0.03923,0.64604z" fill="#797979"/><path d="M227.96216,82.29932c3.85274,-0.34724 7.07565,0.47685 7.19856,1.84065c0.12292,1.3638 -2.9007,2.75087 -6.75345,3.09811c-3.85274,0.34724 -7.07565,-0.47685 -7.19856,-1.84065c-0.12292,-1.3638 2.9007,-2.75087 6.75345,-3.09811z" fill="#c9c9c9"/><path d="M245.24414,83.23118c0.12292,1.3638 -2.9007,2.75087 -6.75345,3.09811c-3.85273,0.34724 -7.07565,-0.47685 -7.19856,-1.84065c-0.12292,-1.3638 2.9007,-2.75087 6.75345,-3.09811c3.85274,-0.34724 7.07565,0.47685 7.19856,1.84065z" fill="#c9c9c9"/></g></g></g></svg>