<svg version="1.1" xmlns="http://www.w3.org/2000/svg" xmlns:xlink="http://www.w3.org/1999/xlink" width="79.58288" height="79.58288" viewBox="0,0,79.58288,79.58288"><g transform="translate(-200.20856,-140.20856)"><g stroke-miterlimit="10"><path d="M229.37711,179.99528c0,-16.67761 4.67926,-30.19749 10.45142,-30.19749c1.7297,0 3.48986,-0.1036 4.92678,2.04568c3.35819,5.02304 5.52463,16.47186 5.52463,28.15181c0,12.83554 -2.68591,24.7129 -6.59429,29.08384c-1.1699,1.30836 -2.52738,1.11365 -3.85713,1.11365c-5.77215,0 -10.45142,-13.51988 -10.45142,-30.19749z" fill="#fff100" stroke="#a79b1c" stroke-width="2"/><path d="M233.29525,180.04596c0,-16.42571 3.87892,-29.74138 8.66382,-29.74138c4.78489,0 8.66382,13.31567 8.66382,29.74138c0,16.42571 -3.87892,29.74138 -8.66382,29.74138c-4.78489,0 -8.66382,-13.31567 -8.66382,-29.74138z" fill="#fff100" stroke="#a79b1c" stroke-width="2"/><g fill="#a79b1c" stroke="none" stroke-width="0.5"><path d="M239.73614,177.29552c-0.31224,0.64312 -0.49958,-0.42874 -0.49958,-0.42874l-0.20367,-1.1654c-0.04173,-0.25189 -0.27555,-2.26399 -0.39085,-3.32619c0.01202,1.47965 -0.32155,4.82444 -0.35167,5.27943c0,0 -0.0807,1.21892 -0.43577,0.94189c-0.35508,-0.27703 -0.27437,-1.49594 -0.27437,-1.49594c0.15118,-2.28319 0.32855,-10.56208 1.53266,-6.67758c0.31379,1.01229 0.33396,2.73332 0.54845,4.01508l0.19971,1.14247c0,0 0.18734,1.07186 -0.1249,1.71498z"/><path d="M245.62783,182.30361c-0.32569,0.55901 -0.48854,-0.55902 -0.48854,-0.55902l-0.09515,-0.65487c-0.4006,-2.5332 -0.70662,-5.11797 -1.01762,-7.78717c-0.12787,2.12518 -0.23707,4.2659 -0.43466,6.31662c0,0 -0.11515,1.18586 -0.4606,0.79057c-0.34545,-0.39529 -0.2303,-1.58114 -0.2303,-1.58114c0.26518,-2.7075 0.3653,-5.61126 0.56869,-8.3941l0.01168,-0.05442l-0.00568,-0.0071l0.13156,-1.24193c0.04857,-0.49429 0.18473,-0.85021 0.34511,-0.85021c0.14536,0 0.27083,0.2924 0.32921,0.7152l0.19816,1.3605l-0.07551,0.1296c0.52108,2.92736 0.7903,6.31603 1.27995,9.41057l0.10654,0.72985c0,0 0.16285,1.11804 -0.16284,1.67705z"/><g><path d="M241.08023,185.46108c-0.34616,-0.05095 -0.69106,-0.13403 -1.03381,-0.26371c0,0 -0.3619,-0.13804 -0.32169,-1.38039c0.04021,-1.24236 0.40211,-1.10432 0.40211,-1.10432c1.71783,0.66088 3.49819,0.22314 5.22587,0.22314c0.35856,0 1.53368,-0.47367 1.76832,0.44203c0.32743,1.27785 -0.21897,4.13396 -0.37745,4.95905c-0.6714,3.49552 -1.68895,5.10392 -2.85227,5.95853c-0.58084,0.39805 -1.97644,1.65031 -2.49304,-0.03764c-0.6123,-2.00067 -0.50322,-6.15029 -0.31804,-8.79669zM241.85964,185.5276c-0.00954,0.29361 -0.04141,0.50606 -0.08253,0.65977c-0.1242,1.77693 -0.2471,4.83387 0.09044,6.15864c0.23536,0.92375 1.60106,-0.30948 1.87688,-0.49922c0.68004,-0.48892 1.49844,-1.25636 1.98793,-3.09973c0.14802,-0.55741 0.28147,-1.16197 0.40369,-1.78874c0.1009,-0.51743 0.16291,-1.11939 0.26279,-1.63734c-0.46741,0.61569 -1.38723,0.11482 -1.77439,0.11482c-0.91493,0 -1.84202,0.12091 -2.76481,0.0918z"/><path d="M242.39461,194.18577c-0.25748,0.88388 -0.51496,0 -0.51496,0l-0.07444,-0.28245c-0.65087,-3.31199 -0.45524,-7.25113 0.34336,-10.02444c0,0 0.25748,-0.88388 0.51496,0c0.25748,0.88388 0,1.76776 0,1.76776c-0.53921,1.82485 -0.73832,4.60726 -0.2617,6.82302l-0.00722,-0.05166c0,0 0.25748,0.88388 0,1.76776z"/><path d="M244.12487,193.08867c-0.27404,0.82313 -0.51382,-0.11759 -0.51382,-0.11759l-0.31257,-1.41738c-0.19795,-2.56697 -0.07563,-4.79303 0.06027,-7.36072c0,0 0.06514,-1.22984 0.4234,-1.00623c0.35826,0.22361 0.29312,1.45344 0.29312,1.45344c-0.11464,2.16296 -0.25226,4.09632 -0.07419,6.25571l0.15804,0.42891c0,0 0.23978,0.94072 -0.03425,1.76385z"/><path d="M246.61065,184.51585c0.05883,0.33769 0.05883,0.70849 0.05883,0.70849l-0.00149,0.92092c-0.07713,0.7569 -0.00763,2.04046 -0.23139,2.2707c-1.29507,1.33259 -0.80912,-3.68367 -0.42203,-4.87067c0,0 0.28743,-0.76743 0.51099,0.21926c0.06133,0.27071 0.0842,0.52492 0.0851,0.7513z"/></g></g><path d="M200.20856,219.79144v-79.58288h79.58288v79.58288z" fill="none" stroke="none" stroke-width="0"/></g></g></svg>