<svg version="1.1" xmlns="http://www.w3.org/2000/svg" xmlns:xlink="http://www.w3.org/1999/xlink" width="67.64706" height="67.64706" viewBox="0,0,67.64706,67.64706"><g transform="translate(-206.17647,-146.17647)"><g stroke="none" stroke-miterlimit="10"><path d="M206.17647,213.82353v-67.64706h67.64706v67.64706z" fill="#00a9ff" stroke-width="0"/><g fill="#003753" stroke-width="0.5"><path d="M252.43946,163.40128c0,-1.06048 0.85969,-1.92016 1.92016,-1.92016c1.06048,0 1.92016,0.85969 1.92016,1.92016c0,1.06048 -0.85969,1.92016 -1.92016,1.92016c-1.06048,0 -1.92016,-0.85969 -1.92016,-1.92016z"/><path d="M220.91583,163.54077c0,-1.06048 0.85969,-1.92016 1.92016,-1.92016c1.06048,0 1.92016,0.85969 1.92016,1.92016c0,1.06048 -0.85969,1.92016 -1.92016,1.92016c-1.06048,0 -1.92016,-0.85969 -1.92016,-1.92016z"/><path d="M261.39501,194.92299c-0.41655,1.87444 -2.29098,1.4579 -2.29098,1.4579l-0.97563,-0.23812c-2.86161,-0.20968 -6.87147,-0.42188 -9.16703,-2.38014c-0.80502,-0.68674 -1.44943,-1.408 -1.95072,-2.15363c-5.59429,3.62303 -12.53791,1.81474 -17.38326,-2.47413c-0.12033,0.66554 -0.29764,1.33866 -0.53643,2.01774c-1.1735,3.33716 -4.68721,5.22077 -7.4216,7.0438l-1.2046,0.32249c0,0 -1.92016,0 -1.92016,-1.92016c0,-1.22965 0.78744,-1.67184 1.3538,-1.83086c1.96305,-1.24545 4.85408,-2.69312 5.60969,-4.99769c1.64881,-5.02882 -1.341,-9.53674 -5.34194,-12.40629c0,0 -1.54843,-1.13552 -0.41291,-2.68394c1.13552,-1.54843 2.68394,-0.41291 2.68394,-0.41291c3.17432,2.36883 5.77206,5.51521 6.8498,9.10024c0.50159,0.23832 0.80404,0.6416 0.80404,0.6416c3.38445,4.52508 10.60936,8.16209 15.54618,3.92085c-0.70906,-6.11801 5.38202,-12.7246 10.37443,-15.22654c0,0 1.71746,-0.85873 2.57618,0.85872c0.85872,1.71745 -0.85873,2.57617 -0.85873,2.57617c-4.51567,2.25223 -7.13287,4.15508 -7.59377,9.3279c-0.03476,0.39016 -0.07271,0.78853 -0.09632,1.18701c0.19986,0.53141 0.0842,1.07525 0.00063,1.34528c0.08508,1.04872 0.41976,2.03133 1.34917,2.78852c1.66117,1.35336 4.9919,1.38528 7.01323,1.52544l1.5351,0.31981c0,0 1.87444,0.41655 1.4579,2.29099z"/></g></g></g></svg>