<svg version="1.1" xmlns="http://www.w3.org/2000/svg" xmlns:xlink="http://www.w3.org/1999/xlink" width="808.95474" height="374.0362" viewBox="0,0,808.95474,374.0362"><g transform="translate(114.59337,7.38801)"><g stroke="none" stroke-miterlimit="10"><path d="M392.92247,-7.38801v31.93804h-507.51584v-31.93804z" fill="#9e9898" stroke-width="0"/><path d="M-107.56481,366.64819v-51.04752h801.92618v51.04752z" fill="#9e9898" stroke-width="0"/><path d="M87.71413,3.14005v238.34721h-193.24059v-238.34721z" fill="#9e9898" stroke-width="0"/><path d="M664.61532,21.60635v216.93723h-150.46415v-216.93723z" fill="#9e9898" stroke-width="0"/><path d="M259.08914,229.85674v-159.32962h150.46415v159.32962z" fill="#9e9898" stroke-width="0"/><path d="M664.61532,-7.38801v31.93804h-292.19319v-31.93804z" fill="#9e9898" stroke-width="0"/><path d="M326.97842,182.47841l16.36508,-77.92036l63.55207,13.34741l-16.36508,77.92036z" fill="#be9c62" stroke-width="0"/><text transform="translate(343.77265,115.60271) rotate(10.2351) scale(0.21307,0.21307)" font-size="40" xml:space="preserve" fill="#ffe2b1" stroke-width="1" font-family="Sans Serif" font-weight="normal" text-anchor="start"><tspan x="0" dy="0">Para agarrar </tspan><tspan x="0" dy="48px">cosas</tspan><tspan x="0" dy="48px">Presione G</tspan><tspan x="0" dy="48px">y para soltar</tspan><tspan x="0" dy="48px">Presione H</tspan></text><g fill="#5d5d5d" stroke-width="0.5"><path d="M380.33618,84.41793c-0.88389,0.88389 -1.76776,0 -1.76776,0l-0.54885,-0.54885c-3.17054,-3.17939 -7.49015,-5.02167 -10.21631,-8.64543c0.01765,0.04146 0.02814,0.07973 0.0272,0.11085c-0.02001,0.66223 -0.74334,2.48018 -0.89121,3.03191c-0.62637,2.33705 -0.32403,4.96829 -0.32403,7.36303c0,0 0,1.25 -1.25,1.25c-1.25,0 -1.25,-1.25 -1.25,-1.25c0,-3.43552 -0.01043,-6.36667 0.9646,-9.67989c0.24905,-0.84631 0.63296,-3.45115 1.77235,-3.5969c1.71931,-0.21994 3.18552,1.86022 4.28634,2.83203c2.7781,2.45254 6.0226,4.19712 8.64884,6.81664l0.54885,0.54885c0,0 0.88389,0.88388 0,1.76777z"/><path d="M378.32093,104.26884c-0.0195,0.25156 -0.1648,1.18846 -1.24698,1.18846c-1.25,0 -1.25,-1.25 -1.25,-1.25l0.10107,-0.67535c2.32558,-5.10795 -0.91425,-14.17496 -5.39881,-17.12835c0,0 -1.04007,-0.69338 -0.34669,-1.73344c0.69338,-1.04006 1.73344,-0.34668 1.73344,-0.34668c5.49728,3.70298 8.84833,13.53897 6.40797,19.94536z"/></g><g><path d="M347.78496,185.49405c0,0 -0.1413,-4.64697 0.40818,-7.55189c0.27965,-1.4784 0.63784,-4.28669 0.98071,-6.76164c0.60166,-4.34299 1.07718,-8.63821 1.07718,-8.63821c0,0 7.34548,0.65648 10.91352,1.06161c4.06913,0.46203 12.19613,1.56236 12.19613,1.56236c0,0 -1.31427,8.34211 -1.72062,12.22215c-0.38857,3.71032 -0.6665,10.57169 -0.6665,10.57169c0,0 -4.94029,-1.04948 -8.20217,-1.39637c-1.83931,-0.19561 -5.16027,-0.26608 -8.05416,-0.46146c-3.74375,-0.25277 -6.93227,-0.60823 -6.93227,-0.60823z" fill="#ffe2b1" stroke-width="0"/><g fill="#be9c62" stroke-width="0.5"><path d="M365.1657,169.89642c0.03866,-0.36352 0.36469,-0.62687 0.72821,-0.58821c0.36352,0.03866 0.62687,0.36469 0.58821,0.72821c-0.03866,0.36352 -0.36469,0.62687 -0.72821,0.58821c-0.36352,-0.03866 -0.62687,-0.36469 -0.58821,-0.72821z"/><path d="M354.3547,168.79505c0.03866,-0.36352 0.36469,-0.62687 0.72821,-0.58821c0.36352,0.03866 0.62687,0.36469 0.58821,0.72821c-0.03866,0.36352 -0.36469,0.62687 -0.72821,0.58821c-0.36352,-0.03866 -0.62687,-0.36469 -0.58821,-0.72821z"/><path d="M367.08643,181.02816c-0.21112,0.62735 -0.83847,0.41623 -0.83847,0.41623l-0.32575,-0.11719c-0.97328,-0.1762 -2.34008,-0.39511 -3.05558,-1.15007c-0.25092,-0.26475 -0.44552,-0.53548 -0.59017,-0.80935c-2.04973,1.03799 -4.364,0.165 -5.86858,-1.48181c-0.06551,0.22375 -0.15083,0.44803 -0.25744,0.6721c-0.52392,1.10116 -1.79704,1.61875 -2.80082,2.14398l-0.42468,0.06663c0,0 -0.65821,-0.07 -0.58821,-0.72821c0.04483,-0.42151 0.33087,-0.54438 0.53081,-0.57824c0.71831,-0.35536 1.7621,-0.74621 2.10512,-1.50865c0.74852,-1.66371 -0.11202,-3.31797 -1.37888,-4.44747c0,0 -0.48939,-0.44569 -0.0437,-0.93508c0.44569,-0.48939 0.93508,-0.0437 0.93508,-0.0437c1.00176,0.92773 1.77754,2.10097 2.01628,3.36916c0.16325,0.09998 0.25223,0.24924 0.25223,0.24924c0.99519,1.67452 3.33921,3.18463 5.18611,1.91075c-0.02003,-2.12303 2.30877,-4.16564 4.11131,-4.84128c0,0 0.62003,-0.23175 0.85178,0.38827c0.23175,0.62003 -0.38828,0.85178 -0.38828,0.85178c-1.63002,0.60742 -2.59654,1.16428 -2.9431,2.92066c-0.02614,0.13247 -0.05367,0.26765 -0.07629,0.40338c0.04914,0.18945 -0.01034,0.37165 -0.04883,0.46117c-0.00907,0.36259 0.06984,0.71162 0.36082,1.00506c0.52009,0.52447 1.66066,0.65684 2.34844,0.77857l0.51456,0.16559c0,0 0.62735,0.21112 0.41623,0.83847z"/></g></g><path d="M269.85937,159.29061l-6.71157,-68.47993l55.85243,-5.47397l6.71157,68.47993z" fill="#be9c62" stroke-width="0"/><text transform="translate(263.97729,97.16089) rotate(-7.22319) scale(0.1531,0.1531)" font-size="40" xml:space="preserve" fill="#ffe2b1" stroke-width="1" font-family="Sans Serif" font-weight="normal" text-anchor="start"><tspan x="0" dy="0">Cuando cambias</tspan><tspan x="0" dy="48px">a robot, el humano</tspan><tspan x="0" dy="48px">se queda ahi</tspan></text><g fill="#ffe2b1" stroke-width="0"><path d="M290.99668,153.26878c-8.28091,0.77953 -14.67371,1.51694 -14.96761,-1.60519c-0.2939,-3.12214 6.18084,-6.28507 14.46174,-7.0646c8.28091,-0.77953 15.23217,1.11952 15.52608,4.24165c0.2939,3.12213 -6.73931,3.6486 -15.0202,4.42814z"/><path d="M276.42463,155.86542l-0.67451,-7.16523l29.9878,-2.82295l0.67451,7.16523z"/></g><path d="M291.64856,135.74191c-0.51506,0.0633 -0.57836,-0.45176 -0.57836,-0.45176l-0.02643,-0.2151c-0.15526,-1.26337 -0.27016,-2.50311 -0.62653,-3.72844c-0.33957,-1.16759 -0.76664,-2.32001 -1.18287,-3.47631c0.16017,1.37305 0.34176,2.7447 0.51026,4.11492c0.06055,0.09742 0.07442,0.20591 0.0739,0.28715c0.00182,0.00623 0.00266,0.00967 0.00266,0.00967c0.37482,1.53852 1.19863,2.83909 1.70501,4.33391c0.8016,2.36626 1.26278,4.86223 1.56655,7.33415c0.01096,0.08918 0.02192,0.17836 0.03288,0.26754c0.10211,0.10435 0.18364,0.27097 0.09582,0.51817c-0.17373,0.48899 -0.66272,0.31526 -0.66272,0.31526l-0.43266,-0.45814c-0.02114,-0.17208 -0.04229,-0.34416 -0.06344,-0.51623c-0.29575,-2.40664 -0.74257,-4.82942 -1.52148,-7.13387c-0.29864,-0.88357 -0.70324,-1.69915 -1.06532,-2.53505c-0.15218,1.49538 -0.15263,3.03008 -0.29017,4.50385c-0.18005,1.9292 -0.50023,3.86139 -0.54259,5.79703c0.02008,0.15985 0.04016,0.3197 0.06025,0.47956l0.02643,0.2151c0,0 0.0633,0.51506 -0.45176,0.57836c-0.51506,0.0633 -0.57836,-0.45177 -0.57836,-0.45177l-0.02643,-0.21509c-0.02221,-0.1843 -0.04442,-0.36861 -0.06663,-0.55291c0.03508,-1.98904 0.36125,-3.9711 0.54629,-5.95277c0.19885,-2.12952 0.13502,-4.35869 0.59682,-6.44997c-0.00909,-0.03505 -0.01185,-0.05757 -0.01185,-0.05757l-0.02114,-0.17208c-0.27357,-2.22615 -0.59083,-4.45804 -0.77839,-6.69231c-0.00849,-0.10116 -0.01365,-0.20143 -0.01631,-0.30102c-0.41243,1.52374 -0.90345,3.02821 -1.25901,4.56741c-0.55815,2.41624 -0.65508,5.08367 -0.72956,7.56372l0.05451,0.39416c0,0 0.0633,0.51506 -0.45176,0.57835c-0.51506,0.0633 -0.57836,-0.45176 -0.57836,-0.45176l-0.06178,-0.55227c0.07839,-2.55208 0.18563,-5.27744 0.75549,-7.76485c0.52784,-2.30401 1.3733,-4.52823 1.78779,-6.85809c0,0 0.0019,-0.0107 0.00671,-0.02872c-0.30735,-0.16124 -0.59303,-0.34276 -0.86597,-0.54094c-0.19455,-0.04472 -0.38773,-0.09394 -0.57625,-0.15902c-1.47172,-0.50812 -2.35312,-1.77921 -2.93114,-3.15358c-0.38524,-0.91599 -0.87312,-2.24107 -0.18649,-3.18129c0.91954,-1.25916 3.20827,-1.31627 4.60538,-1.38645c1.16297,0.074 2.80967,0.24254 3.70375,1.08715c0.29696,0.28052 0.64992,0.90969 0.8414,1.24743c0.95767,1.68918 1.25352,4.69079 -0.67936,5.8704c-0.63203,0.38572 -1.55873,0.44887 -2.38604,0.49671c0.02238,0.23778 0.02633,0.47115 0.02212,0.70268c0.54373,2.55452 1.69308,4.99289 2.42183,7.49451c0.37223,1.27779 0.4968,2.5697 0.65865,3.88673l0.02643,0.21509c0,0 0.06329,0.51506 -0.45176,0.57836zM288.09191,121.77702c0.07735,0.03878 0.15619,0.07603 0.23666,0.11166c0.72324,-0.11615 1.85542,-0.01095 2.48622,-0.40563c1.04407,-0.65324 0.91583,-1.78211 0.78993,-2.8092c-0.12063,-0.98419 -0.39432,-1.94065 -1.12855,-2.67551c-0.29409,-0.29435 -0.41166,-0.24757 -0.8064,-0.36203c-0.74866,-0.21707 -1.40568,-0.38687 -2.18451,-0.43561c-0.90918,0.04721 -1.83376,0.11926 -2.70081,0.41238c-0.24624,0.08325 -0.84644,0.26775 -1.05306,0.53851c-0.43952,0.57592 0.08202,1.67063 0.29697,2.17427c0.19966,0.46782 0.43509,0.93515 0.73274,1.34783c0.21315,-0.18239 0.50821,-0.07756 0.50821,-0.07756l0.28025,0.15026c0.48449,0.47349 0.94768,0.93254 1.45566,1.33131c0.23773,0.05272 0.4764,0.10232 0.70998,0.17005c0,0 0.4212,0.12232 0.3767,0.52927z" fill="#ffe2b1" stroke-width="0.5"/><path d="M282.44117,146.58537v-33.02082h18.04065v33.02082z" fill-opacity="0" fill="#9e9898" stroke-width="0"/><g stroke-width="0"><g fill="#d8bc8d"><path d="M306.60707,115.97268c0,1.22317 -0.33302,2.21474 -0.74382,2.21474c-0.4108,0 -0.74382,-0.99158 -0.74382,-2.21474c0,-1.22317 0.33302,-2.21474 0.74382,-2.21474c0.4108,0 0.74382,0.99157 0.74382,2.21474z"/><path d="M310.34414,117.78921c0,0.19314 0.09464,0.34786 -0.15956,0.48538c-0.3533,0.19113 -1.17885,0.33071 -2.07274,0.33071c-1.53704,0 -2.35367,-0.29446 -2.59919,-0.68531c-0.38445,-0.61201 1.06215,-0.98619 2.59919,-0.98619c0.77651,0 1.58405,0.12019 1.94977,0.27918c0.35819,0.15572 0.28253,0.34785 0.28253,0.57624z"/><path d="M310.62635,117.73536c0,0.61921 0.01691,1.11135 -0.26554,1.11135c-0.28245,0 -0.51142,-0.50197 -0.51142,-1.12118c0,-0.61921 0.22897,-1.12118 0.51142,-1.12118c0.28245,0 0.26554,0.51181 0.26554,1.13102z"/><path d="M310.60268,116.56006c0.3775,0 0.80155,0.18362 0.80155,0.37373c0,0.19011 -0.30603,0.34422 -0.68353,0.34422c-0.3775,0 -0.68353,-0.15411 -0.68353,-0.34422c0,-0.19011 0.18801,-0.37373 0.56551,-0.37373z"/><path d="M310.03717,118.54999c0,-0.19011 0.30603,-0.34422 0.68353,-0.34422c0.3775,0 0.68353,0.15411 0.68353,0.34422c0,0.19011 -0.42405,0.37373 -0.80155,0.37373c-0.3775,0 -0.56551,-0.18362 -0.56551,-0.37373z"/></g><path d="M315.3062,114.39717c0,2.04162 -1.92436,0.92417 -5.24819,0.92417c-3.32383,0 -6.78848,1.11745 -6.78848,-0.92417c0,-2.04162 2.6945,-3.69668 6.01834,-3.69668c3.32383,0 6.01833,1.65506 6.01833,3.69669z" fill="#ffe2b1"/><g fill="#ffe2b1"><path d="M308.86538,111.10467c-0.04842,0.00127 -0.01916,-0.09223 -0.02412,-0.15901c-0.02063,-0.27774 -0.1447,-2.11435 -0.1447,-2.11435l1.0138,-0.07529c0,0 0.13889,1.71913 0.16164,2.02545c0.00633,0.08528 0.07488,0.2278 0.00718,0.24791c-0.06135,0.01823 -0.10352,0.02919 -0.16021,0.0334c-0.11753,0.00873 -0.48239,0.03639 -0.70002,0.05255c-0.07508,0.00558 -0.00138,0.0164 -0.15356,-0.01066z"/><path d="M312.31805,108.82134c0,0.34027 -0.77926,0.61611 -1.74052,0.61611c-0.96126,0 -1.74052,-0.27584 -1.74052,-0.61611c0,-0.34027 0.77926,-0.61611 1.74052,-0.61611c0.96126,0 1.74052,0.27584 1.74052,0.61611z"/><path d="M308.0617,108.20523c0.96126,0 1.74052,0.27584 1.74052,0.61611c0,0.34027 -0.77926,0.61611 -1.74052,0.61611c-0.96126,0 -1.74052,-0.27584 -1.74052,-0.61611c0,-0.34027 0.77926,-0.61611 1.74052,-0.61611z"/></g><g fill="#ffe2b1"><path d="M309.74947,115.94144c0,1.22317 -0.33302,2.21474 -0.74382,2.21474c-0.4108,0 -0.74382,-0.99158 -0.74382,-2.21474c0,-1.22317 0.33302,-2.21474 0.74382,-2.21474c0.4108,0 0.74382,0.99157 0.74382,2.21474z"/><path d="M313.48653,117.75797c0,0.19314 0.09464,0.34786 -0.15955,0.48538c-0.3533,0.19113 -1.17885,0.33071 -2.07274,0.33071c-1.53704,0 -2.35367,-0.29446 -2.59919,-0.68531c-0.38445,-0.61201 1.06215,-0.98619 2.59919,-0.98619c0.77651,0 1.58405,0.12019 1.94977,0.27918c0.35819,0.15572 0.28253,0.34785 0.28253,0.57624z"/><path d="M313.76875,117.70412c0,0.61921 0.01691,1.11135 -0.26554,1.11135c-0.28245,0 -0.51142,-0.50197 -0.51142,-1.12118c0,-0.61921 0.22897,-1.12118 0.51142,-1.12118c0.28245,0 0.26554,0.51181 0.26554,1.13102z"/><path d="M313.74507,116.52883c0.3775,0 0.80155,0.18362 0.80155,0.37373c0,0.19011 -0.30603,0.34422 -0.68353,0.34422c-0.3775,0 -0.68353,-0.15411 -0.68353,-0.34422c0,-0.19011 0.18801,-0.37373 0.56551,-0.37373z"/><path d="M313.17957,118.51875c0,-0.19011 0.30603,-0.34422 0.68353,-0.34422c0.3775,0 0.68353,0.15411 0.68353,0.34422c0,0.19011 -0.42405,0.37373 -0.80155,0.37373c-0.3775,0 -0.56551,-0.18362 -0.56551,-0.37373z"/></g></g></g></g></svg>