<svg version="1.1" xmlns="http://www.w3.org/2000/svg" xmlns:xlink="http://www.w3.org/1999/xlink" width="245.04187" height="198.83334" viewBox="0,0,245.04187,198.83334"><g transform="translate(-220.58333,-80.58333)"><g stroke-miterlimit="10"><path d="M228.33333,179.99999c0,-50.6261 41.04056,-91.66666 91.66667,-91.66666c50.6261,0 91.66667,41.04056 91.66667,91.66667c0,50.6261 -41.04057,91.66667 -91.66667,91.66667c-50.6261,0 -91.66666,-41.04057 -91.66666,-91.66667z" fill="#9e9898" stroke="#686868" stroke-width="15.5"/><path d="M313.27761,247.18255c0.04111,-1.06644 0.11584,-2.11944 0.2158,-3.16207c-3.77169,9.26482 -7.83237,18.42002 -11.70809,27.64905c-3.3992,0.5879 -6.81178,1.41855 -10.20284,1.46728c-0.44848,0.00644 -0.89696,0.01229 -1.34544,0.01759c-0.26691,-0.06589 -0.53368,-0.13235 -0.80029,-0.1994c7.60455,-18.56514 16.35163,-36.68569 22.25567,-55.88499c0,0 0.03359,-0.10916 0.10685,-0.29106c-3.00052,-2.07669 -5.74878,-4.33723 -8.34283,-6.75535c-1.97274,-0.71617 -3.9256,-1.47741 -5.80935,-2.39832c-14.70617,-7.18959 -22.27372,-21.58404 -26.54304,-36.66713c-2.84541,-10.05262 -6.23733,-24.50572 2.13352,-33.43655c11.21037,-11.96034 35.16698,-9.62136 49.83612,-8.56203c12.04096,2.26355 29.00846,6.13402 37.25532,16.09419c2.73909,3.30814 5.6155,10.32629 7.18052,14.09618c7.82739,18.8551 7.06539,50.55686 -14.61738,60.38763c-7.09001,3.21456 -16.84124,2.6852 -25.53576,2.12348c-0.07141,2.50998 -0.32941,4.95032 -0.67025,7.36102c1.23852,14.12707 4.20235,28.13799 7.3847,42.10937c-7.10601,0.00553 -14.21232,-0.05301 -21.31843,-0.05369c0.06677,-7.97459 0.21868,-15.94295 0.5252,-23.89519zM319.57435,209.18489c0.75741,0.50387 1.53236,0.99373 2.32642,1.46872c7.69617,-0.28451 19.37577,2.26501 26.46439,-1.04458c11.73279,-5.47788 11.84219,-17.42226 11.84555,-28.3016c0.00323,-10.42491 -1.62618,-20.75671 -8.34567,-29.36667c-2.69145,-3.44867 -3.97829,-3.11138 -7.95064,-4.81191c-7.534,-3.22526 -14.17242,-5.83968 -22.23715,-7.3471c-9.54796,-0.6732 -19.28863,-1.10703 -28.7123,0.83982c-2.6763,0.55291 -9.17615,1.70867 -11.67952,4.26902c-5.32504,5.44622 -1.28645,17.53849 0.31073,23.06985c1.48354,5.13781 3.341,10.31649 5.91787,15.00451c2.45815,-1.63 5.40269,-0.15772 5.40269,-0.15772l2.73179,1.92735c4.44856,5.56225 8.69337,10.94646 13.48291,15.7592c2.4131,0.85503 4.84019,1.67873 7.19075,2.68496c0,0 4.23849,1.8165 3.25223,6.00615z" fill="#686868" stroke="none" stroke-width="0.5"/><path d="M458.30162,268.22482c2.31893,0.00513 4.63786,0.00743 6.95676,0.00353c0.12227,0.02566 0.24454,0.05126 0.36681,0.07679c-2.52284,0.18939 -5.06617,0.43639 -7.59029,0.75864c0.08843,-0.27995 0.17733,-0.55961 0.26672,-0.83896z" fill="#000000" stroke="none" stroke-width="0.5"/><path d="M228.33333,179.99999c0,-50.6261 41.04056,-91.66666 91.66667,-91.66666c50.6261,0 91.66667,41.04056 91.66667,91.66667c0,50.6261 -41.04057,91.66667 -91.66667,91.66667c-50.6261,0 -91.66666,-41.04057 -91.66666,-91.66667z" fill="none" stroke="#686868" stroke-width="15.5"/></g></g></svg>