<svg version="1.1" xmlns="http://www.w3.org/2000/svg" xmlns:xlink="http://www.w3.org/1999/xlink" width="551.77241" height="390.84071" viewBox="0,0,551.77241,390.84071"><g transform="translate(55.42504,24.19251)"><g stroke="none" stroke-miterlimit="10"><path d="M491.90849,-7.388v31.93804h-507.51584v-31.93804z" fill="#9e9898" stroke-width="0"/><path d="M-11.16847,366.6482v-51.04752h507.51584v51.04752z" fill="#9e9898" stroke-width="0"/><path d="M-14.86757,320.77941v-328.90724h31.61844v328.90724z" fill="#9e9898" stroke-width="0"/><path d="M495.60758,3.14006v238.34721h-60.66516v-238.34721z" fill="#9e9898" stroke-width="0"/><path d="M140.14361,317.15455v-90.58496h17.24159v90.58496z" fill="#9e9898" stroke-width="0"/><path d="M157.38519,24.55004v140.61061h-17.24159v-140.61061z" fill="#9e9898" stroke-width="0"/><path d="M242.58946,164.68844v-95.30463h154.21831v95.30463z" fill="#9e9898" stroke-width="0"/><path d="M356.7011,230.76205v-89.87177h19.45677v89.87177z" fill="#9e9898" stroke-width="0"/><path d="M356.7011,241.48727v-16.61422h80.21337v16.61422z" fill="#9e9898" stroke-width="0"/><path d="M248.67653,233.18017v-80.63048h31.61844v80.63048z" fill="#9e9898" stroke-width="0"/><path d="M251.4255,141.91203l13.04269,-62.10122l50.64994,10.63766l-13.04269,62.10122z" fill="#be9c62" stroke-width="0"/><text transform="translate(263.30753,89.40628) rotate(12.15291) scale(0.19682,0.19682)" font-size="40" xml:space="preserve" fill="#ffe2b1" stroke-width="1" font-family="Sans Serif" font-weight="normal" text-anchor="start"><tspan x="0" dy="0">Para Moverte</tspan><tspan x="0" dy="48px">Usa wasd o </tspan><tspan x="0" dy="48px">las flechas</tspan></text><path d="M329.57383,148.43351l0.13095,-56.48513l46.06943,0.10681l-0.13095,56.48512z" fill="#be9c62" stroke-width="0"/><text transform="translate(330.13577,98.78777) rotate(0.70223) scale(0.17298,0.17298)" font-size="40" xml:space="preserve" fill="#ffe2b1" stroke-width="1" font-family="Sans Serif" font-weight="normal" text-anchor="start"><tspan x="0" dy="0">Para cambiar</tspan><tspan x="0" dy="48px">entre el robot</tspan><tspan x="0" dy="48px">y el humano</tspan><tspan x="0" dy="48px">presiona C</tspan></text><path d="M-55.42504,-23.44251c0,-0.41421 0.33579,-0.75 0.75,-0.75c0.41421,0 0.75,0.33579 0.75,0.75c0,0.41421 -0.33579,0.75 -0.75,0.75c-0.41421,0 -0.75,-0.33579 -0.75,-0.75z" fill="#ffe2b1" stroke-width="0.5"/><g fill="#ffe2b1" stroke-width="0.5"><path d="M340.41655,130.51798c2.27077,-0.76681 4.59445,-1.32756 6.796,-2.29074c0.78909,-0.34523 2.82892,-1.69352 3.67904,-1.60374c1.06104,0.11207 2.76815,2.07654 3.57204,2.72763c1.27355,1.16731 2.56764,2.31861 3.92126,3.3934c0.4571,0.36294 1.39753,0.91869 1.30763,1.62681c-0.10615,0.83619 -1.9248,1.31111 -2.54654,1.54598c-2.80432,1.05938 -5.49666,2.60523 -8.31784,3.51144c-1.36129,0.42938 -5.02162,1.86275 -6.39158,1.26428c-0.81788,-0.35729 -1.14621,-1.83122 -1.42321,-2.54082c-0.64935,-1.6635 -1.41799,-3.30717 -2.19393,-4.91309c-0.21208,-0.43894 -0.87924,-1.28441 -0.63028,-1.79249c0.22544,-0.46008 1.39929,-0.69134 1.90188,-0.81713c0.00172,-0.0006 0.00344,-0.0012 0.00516,-0.0018l0.04135,-0.03794c0,0 0.12009,-0.06005 0.27902,-0.07181zM339.33784,131.96468c0.02249,0.06037 0.55995,0.4716 0.67035,0.70048c0.35181,0.72934 0.66271,1.48256 1.01799,2.21311c0.37063,0.76213 1.28936,4.38998 1.92126,4.59756c1.07614,0.3535 4.3465,-0.94648 5.48078,-1.30511c2.28312,-0.72761 4.57666,-1.93383 6.81385,-2.86026c0.75569,-0.31293 1.50279,-0.63523 2.26771,-0.93372c0.27777,-0.1084 1.16136,-0.10262 0.87502,-0.18578c-1.7054,-0.49523 -3.48604,-2.65087 -4.78289,-3.83976c-0.47941,-0.38789 -2.28238,-2.35203 -2.80714,-2.41115c-0.47611,-0.05364 -2.50014,1.2547 -3.05455,1.49726c-2.5108,1.09848 -5.17458,1.68107 -7.74383,2.62802c0,0 -0.38388,0.14143 -0.65855,-0.10063z"/><path d="M363.287,139.33134c0,0.36453 -0.29552,0.66004 -0.66005,0.66004c-0.22377,0 -0.42154,-0.11135 -0.5409,-0.28168c-0.118,-0.05952 -0.19162,-0.13314 -0.19162,-0.13314l-0.22831,-0.2537c-1.00933,-1.64413 -2.38432,-2.96239 -3.2994,-4.68858c0,0 -0.30883,-0.58335 0.27452,-0.89217c0.58334,-0.30883 0.89217,0.27452 0.89217,0.27452c0.89792,1.69848 2.25854,2.9955 3.25698,4.61439l0.03749,0.0121c0,0 0.0314,0.0314 0.06977,0.08606c0.22954,0.10335 0.38936,0.3341 0.38936,0.60217z"/><path d="M336.64004,139.30718c-0.64034,-0.16009 -0.48025,-0.80042 -0.48025,-0.80042l0.07796,-0.27712c0.167,-0.38674 0.30446,-0.78744 0.41191,-1.19476c0,0 0.04683,-0.17561 0.18349,-0.31796c0.5441,-1.62153 1.00412,-3.53305 1.21846,-5.09851c0,0 0.09335,-0.65341 0.74676,-0.56007c0.65341,0.09334 0.56007,0.74676 0.56007,0.74676c-0.28283,1.91278 -0.86865,4.2451 -1.54555,6.09793c-0.00676,0.08544 -0.04067,0.31535 -0.21083,0.47157c-0.04787,0.12604 -0.09819,0.25111 -0.15096,0.37504l-0.01063,0.07728c0,0 -0.16009,0.64034 -0.80043,0.48025z"/><path d="M341.22278,146.93159c-0.60089,-0.27312 -0.32776,-0.87402 -0.32776,-0.87402l0.18463,-0.38424c0.43996,-1.64984 1.11692,-3.38022 0.99807,-5.102c0,0 -0.0439,-0.65858 0.61468,-0.70249c0.65858,-0.04391 0.70249,0.61468 0.70249,0.61468c0.12168,1.88366 -0.55876,3.72636 -1.03972,5.52997l-0.25838,0.59035c0,0 -0.27312,0.60088 -0.87401,0.32776z"/></g><path d="M345.39948,136.77846c0.13607,0.02018 0.43348,0.10839 0.43348,0.49402c0,0.5 -0.5,0.5 -0.5,0.5l-0.28826,-0.05279c-1.68778,-0.84458 -1.95944,-1.67629 -1.95653,-3.51721c0.61012,-4.90936 7.88584,-5.24879 9.44357,-0.64431c0,0 0.15811,0.47434 -0.31623,0.63246c-0.47434,0.15811 -0.63246,-0.31623 -0.63246,-0.31623c-1.1782,-3.59856 -7.0144,-3.44175 -7.49682,0.39022c0.00255,1.4551 0.06585,1.87326 1.31325,2.51384z" fill="#ffe2b1" stroke-width="0.5"/><path d="M270.96216,140.35717c-0.17512,1.86996 -0.32936,3.74295 -0.48669,5.61386c-0.64432,-0.13378 -1.28658,-0.27208 -1.92526,-0.41853c0.2817,-3.39713 0.5525,-6.80297 0.97923,-10.17862c0.02395,-0.18942 0.05367,-0.37591 0.08774,-0.56017c-1.35478,2.64196 -2.84665,5.21775 -4.10286,7.91042c-0.27351,0.58626 -0.51941,1.3826 -0.76575,1.99097c-0.59589,-0.21185 -1.43672,-0.17268 -2.04641,-0.43476c0.25864,-0.64147 0.75486,-1.76078 1.04233,-2.37989c1.87234,-4.03232 4.29782,-7.79361 5.97172,-11.91784c0,0 0.00768,-0.01893 0.02357,-0.05021c-0.50238,-0.41686 -0.95694,-0.86256 -1.38156,-1.33393c-0.34042,-0.15838 -0.67658,-0.32448 -0.99795,-0.51796c-2.50885,-1.51049 -3.63319,-4.19376 -4.159,-6.94836c-0.35044,-1.83589 -0.72971,-4.46455 0.9013,-5.92572c2.18427,-1.95683 6.4173,-1.16665 9.01508,-0.74926c2.11063,0.59105 5.07421,1.54526 6.38873,3.44885c0.4366,0.63226 0.83986,1.92783 1.06002,2.62408c1.10114,3.48229 0.47131,9.1202 -3.54614,10.53431c-1.31365,0.4624 -3.04325,0.2161 -4.584,-0.0195c-0.05184,0.44621 -0.13585,0.8771 -0.23417,1.30141c0.00107,4.75615 1.08916,9.53403 1.48707,14.2689c-0.66474,-0.13219 -1.32994,-0.26284 -1.99397,-0.39589c-0.18166,-1.95052 -0.46516,-3.90529 -0.73302,-5.86218zM271.24377,128.70019c0.12714,0.1016 0.25761,0.20098 0.39172,0.298c1.37603,0.06923 3.4178,0.70561 4.73269,0.22626c2.17635,-0.79341 2.38199,-2.9204 2.55213,-4.85923c0.16303,-1.85784 0.03366,-3.72455 -1.02969,-5.3637c-0.42592,-0.65655 -0.66051,-0.6165 -1.34195,-0.98147c-1.29242,-0.69221 -2.43477,-1.26159 -3.84855,-1.65592c-1.69112,-0.26877 -3.42032,-0.49788 -5.13011,-0.29778c-0.48558,0.05683 -1.66197,0.16151 -2.14801,0.5788c-1.03388,0.88762 -0.50259,3.10561 -0.30415,4.11629c0.18433,0.93877 0.43465,1.89064 0.82084,2.76628c0.46348,-0.25218 0.96531,0.05609 0.96531,0.05609l0.45682,0.38605c0.70613,1.06061 1.37872,2.08632 2.1573,3.01868c0.41673,0.18999 0.83644,0.37461 1.23967,0.59057c0,0 0.72706,0.38979 0.486,1.12108z" fill="#ffe2b1" stroke-width="0.5"/><path d="" fill="#000000" stroke-width="0.5"/><path d="" fill="#000000" stroke-width="0.5"/><path d="M179.01976,247.0549l37.49801,-154.59649l84.46247,20.48672l-37.498,154.59649z" fill-opacity="0" fill="#9e9898" stroke-width="0"/><path d="M286.54946,249.9192l16.36508,-77.92036l63.55207,13.34741l-16.36508,77.92036z" fill="#be9c62" stroke-width="0"/><text transform="translate(303.34371,183.0435) rotate(10.23486) scale(0.21308,0.21308)" font-size="40" xml:space="preserve" fill="#ffe2b1" stroke-width="1" font-family="Sans Serif" font-weight="normal" text-anchor="start"><tspan x="0" dy="0">Para agarrar </tspan><tspan x="0" dy="48px">cosas</tspan><tspan x="0" dy="48px">Presione G</tspan><tspan x="0" dy="48px">y para soltar</tspan><tspan x="0" dy="48px">Presione H</tspan></text></g></g></svg>