<svg version="1.1" xmlns="http://www.w3.org/2000/svg" xmlns:xlink="http://www.w3.org/1999/xlink" width="67.64706" height="67.64706" viewBox="0,0,67.64706,67.64706"><g transform="translate(-206.17647,-146.17647)"><g stroke="none" stroke-miterlimit="10"><path d="M206.17647,213.82353v-67.64706h67.64706v67.64706z" fill="#00a9ff" stroke-width="0"/><g fill="#003753" stroke-width="0.5"><path d="M227.14891,191.84464c-0.96027,0.80023 -1.76051,-0.16004 -1.76051,-0.16004l-0.64723,-0.78404c-2.80056,-4.02618 -5.48939,-8.17326 -7.96059,-12.4096c0,0 -0.62984,-1.07972 0.44989,-1.70956c1.07972,-0.62984 1.70956,0.44988 1.70956,0.44988c2.43782,4.17911 5.09004,8.27025 7.85336,12.24156l0.51557,0.61131c0,0 0.80023,0.96027 -0.16004,1.7605z"/><g><g><path d="M224.3021,164.84575c-1.18586,0.39529 -1.58114,-0.79057 -1.58114,-0.79057l-0.27243,-0.84782c-0.36578,-1.83861 -1.25959,-3.94794 -1.53555,-5.95454c-0.25027,0.74246 -0.51559,1.46783 -0.82231,2.18929l0.23455,0.07819l-0.57228,1.71684c-0.15708,0.51078 -0.63267,0.88206 -1.19497,0.88206c-0.44076,0 -0.82825,-0.22813 -1.05081,-0.57276l-0.68692,-1.03038l0.02513,-0.01675l-0.07458,-0.06387c-0.49733,-1.07069 -1.62671,-3.30943 -1.8327,-5.12437c-0.16814,0.26907 -0.33779,0.53797 -0.46951,0.8231c-1.06593,2.30733 -1.66453,4.76279 -2.52656,7.13896c0,0 -0.42718,1.17474 -1.60192,0.74756c-1.17474,-0.42718 -0.74756,-1.60192 -0.74756,-1.60192c1.12472,-3.08515 1.67796,-7.11891 3.85054,-9.67713c0.60004,-0.70655 1.33016,-2.04173 2.19484,-1.70766c1.27508,0.49264 2.01118,3.51936 2.60556,5.84674c0.36089,-1.47705 1.18071,-3.02356 1.62739,-4.18615l0.32578,-0.15039l-0.08052,-0.10353l1.03771,-0.80711c0.21322,-0.16914 0.48292,-0.27015 0.77622,-0.27015c0.69036,0 1.25,0.55964 1.25,1.25v2.13819c0.58365,2.65602 1.18548,5.30637 1.71991,7.9655l0.19269,0.54754c0,0 0.39529,1.18585 -0.79057,1.58114z"/><path d="M237.00759,152.76839c1.24034,-0.15505 1.39539,1.08531 1.39539,1.08531l0.12593,1.08527c-0.00149,2.89451 -0.21228,10.45302 -4.35989,11.00889c-1.58835,0.21287 -3.20368,-1.58264 -4.02795,-2.55232c-2.23855,-2.63347 -3.34852,-5.96764 -3.86506,-9.31301c0,0 -0.19007,-1.23547 1.04539,-1.42553c1.23547,-0.19007 1.42553,1.04539 1.42553,1.04539c0.45495,2.96858 1.41888,5.75641 3.34424,8.12884c0.50843,0.62649 0.98448,1.72615 1.786,1.63372c0.38189,-0.04404 0.82731,-1.27817 0.8782,-1.38979c1.07665,-2.36192 1.27493,-4.55564 1.27354,-7.13619l-0.10663,-0.77519c0,0 -0.15504,-1.24034 1.08531,-1.39539z"/><path d="M252.71992,162.33525c-0.25396,-1.16998 -0.49671,-2.35524 -0.83301,-3.57901l-0.24684,-1.10425c0,0 -0.27117,-1.22024 0.94907,-1.4914c1.22024,-0.27116 1.4914,0.94907 1.4914,0.94907l0.21828,0.98878c0.79083,2.91947 1.01507,5.6367 2.26189,8.42588c0,0 0.50768,1.14226 -0.63459,1.64993c-1.14227,0.50768 -1.64993,-0.63459 -1.64993,-0.63459c-0.40747,-0.92165 -0.71218,-1.8314 -0.96457,-2.74048c-1.00503,0.0805 -2.01719,0.06217 -3.02575,0.01746c-0.0086,0.27042 -0.01317,0.54339 -0.01277,0.81999c0,0 0,1.25 -1.25,1.25c-1.25,0 -1.25,-1.25 -1.25,-1.25c0.00244,-1.78252 0.18869,-3.41148 0.35012,-5.17292l-0.00128,-1.22243c0,0 0,-1.25 1.25,-1.25c1.25,0 1.25,1.25 1.25,1.25l-0.00128,1.33571c-0.05357,0.59351 -0.11178,1.172 -0.16497,1.74652c0.75455,0.03519 1.51135,0.05362 2.26425,0.01173z"/><path d="M258.2381,159.61324c0.00489,-1.0463 0.02311,-2.18918 0.08171,-2.3278c1.56458,-3.70083 7.35906,-1.64424 8.49629,1.27046c1.29558,3.32056 0.20377,8.26937 -4.31722,7.37624c-2.10379,-0.4156 -3.13614,-1.91666 -4.27974,-3.53314l-0.31275,-1.67314c0,0 -0.11306,-0.67837 0.33172,-1.11262zM260.69453,161.64778c2.40292,2.94478 5.00214,1.83649 3.79138,-2.18621c-0.39344,-1.30721 -2.47251,-1.64648 -3.6076,-1.61608c-0.40805,0.01093 -0.14011,3.39028 -0.14011,3.48883c0,0 0,0.1336 -0.04368,0.31346z"/><path d="M267.7793,163.90056c-0.12438,-1.2438 1.11942,-1.36818 1.11942,-1.36818l0.35291,0.29707c2.63353,-2.49805 -3.44678,-1.99876 -1.64067,-5.75694c0.32126,-0.6685 1.26643,-0.77237 1.89964,-1.15855c0,0 1.11804,-0.55902 1.67705,0.55902c0.55901,1.11803 -0.55902,1.67705 -0.55902,1.67705c-2.03487,0.54078 1.02931,0.44003 1.65452,2.27135c0.78222,2.29123 0.00897,2.6269 -1.163,4.06898l-1.97267,0.52962c0,0 -1.2438,0.12438 -1.36818,-1.11942z"/><g><path d="M247.36612,155.8692c0,1.25 -1.25,1.25 -1.25,1.25h-1.27907c-0.54707,-0.00024 -3.39565,-0.22618 -3.56079,0.11475c-0.75919,1.56726 0.53155,5.26873 0.73137,6.8523c0,0 0.15505,1.24034 -1.0853,1.39539c-1.24034,0.15505 -1.3954,-1.0853 -1.3954,-1.0853c-0.28351,-2.2916 -1.77536,-6.62117 -0.19886,-8.7291c1.07385,-1.43583 3.99459,-1.04743 5.50897,-1.04805h1.27907c0,0 1.25,0 1.25,1.25z"/><path d="M239.48252,163.23674c0,-1.25 2.79639,-0.01288 2.79639,-0.01288l1.14285,0.04404c0.42636,0.11628 0.85271,0.23256 1.27907,0.34884c0,0 1.20595,0.3289 0.87706,1.53485c-0.32889,1.20595 -1.53485,0.87706 -1.53485,0.87706c-0.42636,-0.11628 -0.85271,-0.23256 -1.27907,-0.34884l-2.80465,-0.21368c0,0 -0.4768,-0.97938 -0.4768,-2.22938z"/></g></g><g><path d="M230.76509,170.79762c0.46424,1.1606 -0.69636,1.62484 -0.69636,1.62484l-1.18126,0.47233c-3.53747,1.28053 -6.99277,2.49379 -9.67816,5.18118c0,0 -0.42358,0.42358 -0.97752,0.39105c0.11417,3.06618 0.19179,6.1239 0.06328,9.13066c0,0 -0.05676,1.24871 -1.30547,1.19195c-1.24871,-0.05676 -1.19195,-1.30547 -1.19195,-1.30547c0.29817,-6.15138 -0.35013,-12.56246 -0.35013,-18.78045l0.25683,-1.40794c0,0 0.24515,-1.22573 1.47087,-0.98058c1.22573,0.24515 0.98058,1.47088 0.98058,1.47088l-0.20829,0.91764c0,2.30605 0.08299,4.6333 0.17468,6.96311c2.83732,-2.52154 6.28474,-3.7971 9.87375,-5.10767l1.14432,-0.4579c0,0 1.1606,-0.46424 1.62483,0.69636z"/><path d="M241.19792,186.58314c-0.02777,0.2854 -0.19825,1.16127 -1.24459,1.16127c-1.25,0 -1.25,-1.25 -1.25,-1.25l0.07526,-0.54346c3.1016,-7.30349 16.26117,1.49512 8.85106,6.46308c-0.69124,0.46343 -3.01175,0.9283 -3.93022,1.1363c-2.99717,0.01106 -6.48064,0.59373 -8.97516,-1.45311c-4.47525,-3.67207 -2.98549,-8.45692 -1.03535,-12.95754c0.01685,-0.03888 1.65285,-3.79032 1.82636,-3.90167c2.14306,-1.37541 5.96395,0.98721 7.58807,2.08681c0,0 1.03005,0.70816 0.32189,1.73821c-0.70816,1.03005 -1.73821,0.32189 -1.73821,0.32189c-0.3207,-0.22456 -4.16661,-2.64956 -4.73751,-2.09924c-0.72036,0.69439 -0.56649,1.92447 -0.96434,2.84251c-1.54969,3.57599 -3.09516,7.0335 0.36,10.06572c1.7427,1.52938 4.94663,0.86347 7.07135,0.87248c0.31973,-0.07555 2.59571,-0.59589 2.81396,-0.72416c4.1359,-2.43082 -3.90439,-6.62621 -5.03257,-3.75909z"/></g></g></g></g></g></svg>