<svg version="1.1" xmlns="http://www.w3.org/2000/svg" xmlns:xlink="http://www.w3.org/1999/xlink" width="670.57563" height="390.84071" viewBox="0,0,670.57563,390.84071"><g transform="translate(4.43888,24.19242)"><g stroke="none" stroke-miterlimit="10"><path d="M666.13675,-7.38792v31.93804h-670.57563v-31.93804z" fill="#9e9898" stroke-width="0"/><path d="M0,366.64829v-51.04752h640v51.04752z" fill="#9e9898" stroke-width="0"/><path d="M-4.39516,320.77941v-328.90724h31.61844v328.90724z" fill="#9e9898" stroke-width="0"/><path d="M651.53911,3.14014v238.34721h-76.55437v-238.34721z" fill="#9e9898" stroke-width="0"/><path d="M651.53911,156.32581v85.16154h-288.69626v-85.16154z" fill="#9e9898" stroke-width="0"/><path d="M296.698,15.4892v181.41737h-129.55437v-181.41737z" fill="#9e9898" stroke-width="0"/><path d="M24.575,-23.44242c0,-0.41421 0.33579,-0.75 0.75,-0.75c0.41421,0 0.75,0.33579 0.75,0.75c0,0.41421 -0.33579,0.75 -0.75,0.75c-0.41421,0 -0.75,-0.33579 -0.75,-0.75z" fill="#ffe2b1" stroke-width="0.5"/><path d="" fill="#000000" stroke-width="0.5"/><path d="" fill="#000000" stroke-width="0.5"/></g></g></svg>