<svg version="1.1" xmlns="http://www.w3.org/2000/svg" xmlns:xlink="http://www.w3.org/1999/xlink" width="192.20995" height="192.20995" viewBox="0,0,192.20995,192.20995"><g transform="translate(-223.89534,-83.53625)"><g stroke="none" stroke-miterlimit="10"><path d="M238.01954,245.90062c0,-30.8641 0,-105.00321 0,-126.60788c0,-13.21353 11.34833,-21.27321 21.78659,-21.27321c19.94449,0 83.66436,0 117.50539,0c11.40336,0 24.66894,9.95605 24.66894,18.86447c0,19.33687 0,96.28908 0,128.72022c0,10.02925 -14.26956,16.37624 -26.57406,16.37624c-21.98198,0 -89.78843,0 -119.74578,0c-8.17069,0 -17.64108,-6.23027 -17.64108,-16.07984z" fill="#07436b" stroke-width="0"/><path d="M248.45659,237.51072c0,-26.93474 0,-91.6351 0,-110.48924c0,-11.5313 9.90355,-18.56489 19.0129,-18.56489c17.40533,0 73.01293,0 102.54561,0c9.95158,0 21.5283,8.68853 21.5283,16.46281c0,16.87506 0,84.03038 0,112.33266c0,8.75241 -12.45288,14.29135 -23.19088,14.29135c-19.18342,0 -78.35733,0 -104.50077,0c-7.13047,0 -15.39517,-5.43708 -15.39517,-14.03269z" fill="#00aaff" stroke-width="0"/><text transform="translate(251.70852,188.94879) scale(0.77563,0.77563)" font-size="40" xml:space="preserve" fill="#ffffff" stroke-width="1" font-family="&quot;Audiowide-Regular&quot;, Sans Serif" font-weight="normal" text-anchor="start"><tspan x="0" dy="0">Tutorial</tspan></text><path d="M223.89534,275.7462v-192.20995h192.20995v192.20995z" fill="none" stroke-width="0"/></g></g></svg>