<svg version="1.1" xmlns="http://www.w3.org/2000/svg" xmlns:xlink="http://www.w3.org/1999/xlink" width="86.91154" height="159.07915" viewBox="0,0,86.91154,159.07915"><g transform="translate(-196.54423,-100.46043)"><g stroke="none" stroke-miterlimit="10"><path d="M241.47303,231.68254l-0.00935,-0.06236c0.01031,-0.0156 0.02073,-0.03134 0.03127,-0.04723z" fill="#000000" stroke-width="0.5"/><path d="" fill="#000000" stroke-width="0.5"/><path d="" fill="#000000" stroke-width="0.5"/><path d="" fill="#000000" stroke-width="0.5"/><path d="M234.86743,240.74696l-0.13443,0.18588c0.04298,-0.07567 0.08606,-0.1513 0.12925,-0.22687z" fill="#000000" stroke-width="0.5"/><path d="M234.57478,241.21887l-0.00816,0.00815c0.0056,-0.00995 0.01121,-0.01989 0.01681,-0.02984z" fill="#000000" stroke-width="0.5"/><path d="M211.34073,252.79529c-0.35486,0.51336 -1.42913,1.72551 -3.22283,0.86368c-2.23607,-1.07439 -1.11803,-3.22317 -1.11803,-3.22317l0.99599,-1.25246c4.75514,-3.16244 7.51773,-7.01347 11.14727,-11.30608c10.80136,-12.77465 18.51121,-27.51354 18.51121,-44.20778c0,0 0,-1.72156 1.51653,-2.25c-0.01546,-1.7256 -0.03112,-3.45119 -0.00654,-5.1763c-0.05405,-0.01416 -0.10809,-0.02817 -0.16211,-0.04205c-0.00175,-2.68562 -0.0163,-5.3745 -0.02936,-8.06471c-0.04654,-0.08516 -0.08754,-0.18404 -0.12359,-0.29402l0.00001,-0.00001c-0.10809,-0.26483 -0.16866,-0.55256 -0.17164,-0.85352c-0.1583,-1.34387 -0.00647,-3.14713 -0.00011,-3.39128c0.02462,-0.94533 0.13495,-1.85363 0.2742,-2.75411c0.00187,-3.7649 0.03197,-7.52894 0.12948,-11.28672c0.02278,-0.11767 0.0451,-0.2352 0.06694,-0.35266c-0.51667,-3.31577 -1.14762,-6.40213 -0.67241,-10.85623c0.06843,-0.64141 -0.56479,-3.87319 -0.12213,-6.31529c-0.01728,-0.01166 -0.03454,-0.02334 -0.05178,-0.03504c-0.04155,-0.05842 -0.08784,-0.11231 -0.13821,-0.1623c-0.31534,-0.3994 -0.7577,-0.7011 -1.26928,-0.84952c-0.75781,-0.57632 -1.48197,-1.17904 -2.18165,-1.8058c-0.90394,-0.31535 -1.79877,-0.65054 -2.66193,-1.05606c-6.73859,-3.16579 -10.20615,-9.50406 -12.16242,-16.14558c-1.30381,-4.42645 -2.85804,-10.79057 0.97761,-14.72306c5.13676,-5.26648 16.11404,-4.23655 22.83566,-3.7701c5.51735,0.9967 13.29211,2.70099 17.07095,7.08673c1.25509,1.45667 2.57311,4.54696 3.29022,6.20695c3.58663,8.30244 3.23747,22.26162 -6.6979,26.5904c-2.66548,1.16134 -6.15181,1.21292 -9.5181,1.05742l-0.16401,-0.0394l-0.10933,-0.05252l-0.01394,-0.02343l-0.06966,-0.01673l-0.0623,-0.02994l-0.56076,-0.11974l-0.55728,-0.13387h-0.06966l-0.07009,-0.01496l-0.02337,0.01496h-0.46273l-1.25,0.3003l-0.04898,0.08237l-0.09857,0.00526l-0.40089,0.44946l-0.00669,0.00128l-0.01598,0.02412l-0.31651,0.35486c-0.13963,3.97503 -0.60902,7.97199 -0.36919,11.89006c0.38657,6.3152 1.76505,7.93678 0.78971,15.18446c0.00042,3.90881 0.02381,7.81788 0.03258,11.72275c0.08945,0.18482 0.14798,0.41333 0.17499,0.70784c0.01018,0.08805 0.0154,0.17753 0.0154,0.26817c0.06565,2.4302 0.01085,4.86175 -0.00442,7.293c5.06826,1.74944 8.85524,5.36437 13.0951,8.65106c5.75912,4.46443 10.56941,9.25411 13.69365,15.82259c1.53523,3.22768 2.43671,6.79516 3.86842,10.07963c2.48847,5.70873 5.35581,11.49544 6.56388,17.59003c0.12472,0.83763 0.24944,1.67526 0.37416,2.5129l0.02513,1.04298c0,0 0,2.40241 -2.5,2.40241c-2.5,0 -2.5,-2.40241 -2.5,-2.40241l0.02513,-0.36347c-0.11921,-0.80324 -0.23842,-1.60649 -0.35763,-2.40973c-1.09127,-5.70212 -3.92007,-11.1815 -6.24255,-16.51665c-1.41151,-3.2425 -2.30034,-6.77809 -3.81544,-9.96244c-2.80195,-5.88902 -7.13037,-10.07108 -12.28512,-14.06471c-3.33685,-2.58522 -6.54007,-5.83346 -10.49768,-7.47931c-0.2838,0.51506 -0.6728,0.91286 -1.15981,1.08779c-1.25846,15.93395 -8.92898,30.163 -19.44276,42.61467c-3.79867,4.49885 -6.81446,8.52195 -11.68885,11.89513zM242.09816,138.81056c0.34706,0.22187 0.70215,0.43757 1.066,0.64672c3.5265,-0.12528 8.87827,0.99734 12.12638,-0.45996c5.37614,-2.41207 5.42627,-7.67152 5.42781,-12.462c0.00148,-4.59038 -0.74514,-9.13978 -3.82411,-12.93098c-1.23326,-1.51854 -1.82291,-1.37003 -3.6431,-2.11882c-3.45219,-1.42017 -6.49402,-2.57137 -10.1894,-3.23514c-4.37502,-0.29643 -8.83834,-0.48746 -13.15641,0.3698c-1.22632,0.24346 -4.20465,0.75237 -5.35173,1.87977c-2.44001,2.39813 -0.58947,7.7227 0.14238,10.15831c0.67978,2.26233 1.5309,4.54264 2.71166,6.60691c1.12636,-0.71774 2.47559,-0.06945 2.47559,-0.06945l1.25175,0.84866c2.0384,2.44922 3.98343,4.82003 6.17807,6.93923c1.10572,0.3765 2.21785,0.73919 3.29491,1.18226c0,0 1.94214,0.79986 1.49022,2.64468z" fill="#000000" stroke-width="0.5"/><path d="M219.86541,208.2821c-2.28087,-1.0425 -1.14822,-3.81211 -1.14822,-3.81211l1.1413,-2.7533c4.7083,-9.0859 8.37543,-18.23984 11.55436,-27.99719c2.85842,-8.7736 6.04904,-16.8979 8.06183,-25.92279c0,0 0.65196,-2.92246 3.11372,-2.45689c2.46176,0.46557 1.80981,3.38803 1.80981,3.38803c-2.06435,9.25117 -5.31938,17.59087 -8.24207,26.58148c-3.29286,10.12928 -7.12499,19.63998 -12.00225,29.0688l-0.87495,2.17687c0,0 -1.13266,2.76961 -3.41353,1.7271z" fill="#000000" stroke-width="0.5"/><path d="M207.59342,200.6266c-2.06323,-1.42559 -0.46334,-3.95422 -0.46334,-3.95422l1.60553,-2.51107c6.22575,-8.12168 11.43831,-16.49257 16.2758,-25.54299c4.34976,-8.13794 8.91297,-15.57847 12.47413,-24.11183c0,0 1.15335,-2.76325 3.49564,-1.87404c2.34229,0.88921 1.18894,3.65247 1.18894,3.65247c-3.65152,8.74712 -8.31584,16.38845 -12.76687,24.72881c-5.01475,9.39668 -10.4522,18.08994 -16.90431,26.51967l-1.24241,1.99015c0,0 -1.59989,2.52864 -3.66311,1.10305z" fill="#000000" stroke-width="0.5"/><path d="M196.54423,259.53959v-159.07915h86.91154v159.07915z" fill-opacity="0" fill="#9e9898" stroke-width="0"/></g></g></svg>