<svg version="1.1" xmlns="http://www.w3.org/2000/svg" xmlns:xlink="http://www.w3.org/1999/xlink" width="188.70923" height="177.14303" viewBox="0,0,188.70923,177.14303"><g transform="translate(-223.02044,-82.03141)"><g stroke="none" stroke-miterlimit="10"><g fill="#a8c0c5" stroke-width="0"><path d="M319.53275,109.08691c0,4.92233 -1.34014,8.91266 -2.9933,8.91266c-1.65316,0 -2.99331,-3.99034 -2.99331,-8.91266c0,-4.92233 1.34015,-8.91266 2.99331,-8.91266c1.65316,0 2.9933,3.99033 2.9933,8.91266z"/><path d="M316.33761,131.80256c-0.77718,0.00853 -1.3956,0.39619 -1.9602,-0.6206c-0.78473,-1.41322 -1.38285,-4.72908 -1.42235,-8.3261c-0.06792,-6.18504 1.08089,-9.48416 2.64285,-10.48941c2.44572,-1.57405 4.01535,4.23051 4.08326,10.41555c0.03431,3.12468 -0.41365,6.37954 -1.03727,7.85819c-0.61077,1.44823 -1.38728,1.15228 -2.30631,1.16237z"/><g><path d="M316.56677,132.9358c-2.49171,0.02736 -4.4713,0.11713 -4.48378,-1.01943c-0.01248,-1.13657 1.99733,-2.08012 4.48903,-2.10748c2.49171,-0.02736 4.52175,0.87183 4.53423,2.00839c0.01248,1.13657 -2.04777,1.09115 -4.53947,1.11851z"/><path d="M321.29511,132.7886c0.01668,1.51907 -0.70346,3.23354 -1.46846,3.24194c-0.765,0.0084 -1.39867,-1.21624 -1.41535,-2.7353c-0.01668,-1.51907 0.58994,-2.75732 1.35494,-2.76572c0.76499,-0.0084 1.51219,0.74002 1.52887,2.25909z"/><path d="M313.26268,130.60093c0.765,-0.0084 1.39867,1.21624 1.41535,2.7353c0.01668,1.51907 -0.58994,2.75732 -1.35494,2.76572c-0.765,0.0084 -1.52262,-1.68984 -1.5393,-3.20891c-0.01668,-1.51907 0.71389,-2.28372 1.47889,-2.29212z"/></g></g><g><path d="M223.02044,259.17444v-132.46h188.70923v132.46z" fill="#9700ff" stroke-width="0"/><g fill="#55008f" stroke-width="0.5"><path d="M251.92901,143.15505c0,-2.83974 2.62642,-5.14183 5.86627,-5.14183c3.23985,0 5.86627,2.30206 5.86627,5.14183c0,2.83974 -2.62642,5.14183 -5.86627,5.14183c-3.23985,0 -5.86627,-2.30206 -5.86627,-5.14183z"/><path d="M381.4503,193.75535c0,-2.83974 2.62642,-5.14183 5.86627,-5.14183c3.23985,0 5.86627,2.30206 5.86627,5.14183c0,2.83974 -2.62642,5.14183 -5.86627,5.14183c-3.23985,0 -5.86627,-2.30206 -5.86627,-5.14183z"/><path d="M254.3882,224.83242l0.25394,0.14839l0.73744,0.16158l0.94022,0.0634l2.22036,0.64872l0.35622,0.1987l0.41219,0.08027l0.16416,0.07194l2.33576,0.51182l0.88581,0.41409l0.94543,0.29596l0.26471,0.15468l1.9747,0.43272l0.57004,0.26647l0.63065,0.12284l0.74011,0.32436l0.28144,0.21144l0.34909,0.10928l0.80631,0.47116l0.04057,0.01779l2.93503,0.85753l0.35622,0.1987l0.41219,0.08027l1.10736,0.4853l0.50093,0.14635l1.26167,0.27647l0.88581,0.41409l0.94543,0.29596l0.80631,0.47116l1.8937,0.82991l0.40484,0.30415l0.49143,0.18136l1.48025,0.97307l0.2565,0.2767l0.09529,0.02982l1.28194,0.2809l0.0986,0.15126l0.22228,0.06957l0.26471,0.15468l0.15081,0.03304l2.60899,0.28585l0.33546,0.11381h0.3597l4.00072,0.87668l3.35398,0.26724h20.61655l1.2807,-0.22451l0.21867,0.00913l0.20417,-0.06927l5.5073,-0.6034l3.66846,-0.87694l0.39808,-0.00741l0.37014,-0.12866l5.2237,-0.61049l4.07602,-0.89317l5.33328,-1.24658l3.52523,-1.02998l3.39518,-1.98395v-6.46986l-0.10207,-0.44734l-1.22105,-2.14051l-1.09202,-1.19644l-0.06819,-0.13042l-0.1246,-0.09304l-1.28201,-1.57317l-1.71785,-1.0755l-3.13568,-1.83229l-3.54987,-1.86688l-4.01574,-2.05324l-8.08121,-2.77169l-6.3107,-2.15109l-6.98126,-1.52978l-8.00523,-1.59469l-7.25371,-1.27157l-8.43856,-1.28633l-0.06946,-0.02698l-0.07589,0.00317l-6.83162,-1.19759h-5.46617l-3.91465,0.28595l-3.38118,0.53885l-2.4547,0.71719l-4.1219,1.9454l-1.77882,1.03943l-1.18886,0.83364l-0.7033,0.73974l-0.76559,2.23685l-0.19307,0.28463l-0.06512,0.32619l-1.48025,2.91924l-0.08408,0.09433l-0.02964,0.11686l-1.19226,2.09003l-1.14892,4.02811v5.34419l0.02572,0.06763c0.21738,0.52998 0.33827,1.1003 0.34412,1.69467l0.39764,0.08713l0.0986,0.15126zM242.19563,226.08313l-0.32729,-0.8606l-0.07232,-0.82412l-0.22871,-0.80187v-6.81158l0.17514,-0.61408v-0.63299l1.48025,-5.18977l0.30401,-0.49964l0.14016,-0.55277l1.42065,-2.49042l1.2749,-2.51431l0.80452,-2.35057l-0.00347,-0.00819l0.01659,-0.03011l0.18556,-0.54216l0.60101,-0.88597l0.51126,-0.92825l0.41341,-0.43483l0.0195,-0.02874l0.00969,-0.00197l1.40769,-1.48062l0.48094,-0.30807l0.36101,-0.41531l1.85031,-1.29745l0.23599,-0.0948l0.17463,-0.16836l2.22036,-1.29745l0.2649,-0.08293l0.20792,-0.16604l4.81079,-2.27053l0.49511,-0.11033l0.43101,-0.2404l3.33054,-0.97307l0.42099,-0.02839l0.38471,-0.15255l4.07067,-0.64872l0.28853,0.0165l0.2737,-0.08166l4.44072,-0.32436l0.24568,0.03515l0.2415,-0.05291h6.29103l0.56685,0.1242l0.58362,-0.02436l7.32873,1.28474l8.43856,1.28633l0.06946,0.02698l0.07589,-0.00317l7.40121,1.29745l0.07103,0.0295l0.07858,-0.00148l8.14135,1.62181l0.05784,0.02567h0.06483l7.40121,1.62181l0.33112,0.1548l0.3723,0.0413l6.6611,2.27053l0.00516,0.00321l0.00629,0.0007l8.51139,2.91924l0.37565,0.23404l0.44253,0.11284l4.44072,2.27053l0.02668,0.02281l0.03564,0.0095l3.70061,1.94617l0.10113,0.08865l0.13471,0.04217l3.33054,1.94617l0.06533,0.06298l0.09036,0.03121l2.59043,1.62181l0.62739,0.64555l0.7365,0.5499l1.75737,2.15651l1.38038,1.51239l0.26002,0.49727l0.40613,0.41531l1.85031,3.2436l0.16998,0.67042l0.33543,0.62067l0.37007,1.62181l-0.02778,0.51156l0.14171,0.49685v9.40647l-0.28069,0.9841l0.11803,0.37934l-0.38781,0.56652l-0.18282,0.64095l-0.38947,0.19507l-0.59543,0.86983l-1.11018,0.97307l-0.50103,0.26349l-0.39304,0.37894l-5.55092,3.2436l-0.73791,0.23099l-0.66106,0.36871l-4.44072,1.29745l-0.18298,0.01234l-0.16057,0.0779l-5.55092,1.29745l-0.04714,0.00066l-0.0416,0.01945l-4.44072,0.97307h-0.33555l-0.31192,0.10841l-5.16161,0.60322l-3.69176,0.8825l-0.42214,0.00786l-0.39377,0.13361l-5.7083,0.62541l-1.64014,0.28752l-0.58362,-0.02436l-0.56685,0.1242h-21.46352l-0.26311,-0.05765l-0.26799,0.03654l-4.07067,-0.32436l-0.43305,-0.13241h-0.45862l-4.09707,-0.89777l-2.60899,-0.28585l-0.33546,-0.11381h-0.3597l-1.48025,-0.32436l-0.88581,-0.41409l-0.94543,-0.29596l-0.03191,-0.01865l-0.05718,-0.01253l-0.43277,0.10346l-0.64635,-0.33992l-0.73127,-0.16024l-0.22257,-0.34137l-0.99238,-0.52191l-0.81539,-0.7147l-0.72355,-0.47564l-1.74726,-0.76574l-0.28144,-0.21144l-0.34909,-0.10928l-0.26471,-0.15468l-0.49446,-0.10836l-0.20295,-0.09487l-0.22935,-0.01546l-1.11018,-0.32436l-0.35622,-0.1987l-0.41219,-0.08027l-1.10736,-0.4853l-2.93503,-0.85753l-0.35622,-0.1987l-0.41219,-0.08027l-0.74011,-0.32436l-0.28144,-0.21144l-0.34909,-0.10928l-0.70879,-0.41418l-2.27076,-0.49758l-0.88581,-0.41409l-0.94543,-0.29596l-0.26471,-0.15468l-1.9747,-0.43272l-0.57004,-0.26647l-0.63065,-0.12284l-0.36723,-0.16095l-0.92175,-0.26931h-0.15822l-0.91486,-0.20046l-0.94022,-0.0634l-1.11018,-0.32436l-0.66106,-0.36871l-0.71198,-0.22287l-0.84735,-0.05714l-1.11018,-0.32436l-0.35622,-0.1987l-0.41219,-0.08027l-0.74011,-0.32436l-2.29554,-1.72461l-0.24068,-3.79714c-0.35519,-0.43934 -0.6337,-0.92969 -0.81837,-1.45605z"/></g></g><path d="M343.55843,106.94929c0,8.21598 -7.74408,3.71908 -21.11999,3.71908c-13.37591,0 -27.31847,4.4969 -27.31847,-3.71908c0,-8.21598 10.84332,-14.87634 24.21923,-14.87634c13.37591,0 24.21922,6.66036 24.21922,14.87635z" fill="#c3dce2" stroke-width="0"/><path d="M339.46743,103.2302c0,2.054 -4.66225,3.71909 -10.41344,3.71909c-5.75118,0 -10.41344,-1.6651 -10.41344,-3.71909c0,-2.054 -1.53622,-3.34717 4.21496,-5.33069c1.35777,-0.46828 4.6096,-0.40924 6.70194,-0.44693c2.17332,-0.03915 4.63203,0.42699 6.22284,0.97386c3.01038,1.03489 3.68714,3.7955 3.68714,4.80375z" fill="#000000" stroke-width="0"/><path d="M312.64619,97.71688c0,1.71894 -0.6138,3.11241 -1.37094,3.11241c-0.75714,0 -1.37094,-1.39347 -1.37094,-3.11241c0,-0.8598 1.26822,-3.87731 1.26822,-3.87731c0,0 1.47366,3.01818 1.47366,3.87731z" fill="#0091ff" stroke-width="0"/><g stroke-width="0"><path d="M317.63904,93.69947c-0.19486,0.00512 -0.0771,-0.37114 -0.09706,-0.63991c-0.083,-1.11768 -0.58232,-8.50865 -0.58232,-8.50865l4.07977,-0.30297c0,0 0.55894,6.91819 0.65048,8.15089c0.02549,0.34319 0.30134,0.91671 0.0289,0.99766c-0.24687,0.07336 -0.41659,0.11745 -0.64474,0.13439c-0.47297,0.03512 -1.94125,0.14643 -2.81706,0.21147c-0.30215,0.02244 -0.00557,0.06599 -0.61796,-0.0429z" fill="#797979"/><path d="M331.53338,84.5108c0,1.36933 -3.13592,2.47939 -7.00428,2.47939c-3.86836,0 -7.00428,-1.11006 -7.00428,-2.47939c0,-1.36933 3.13592,-2.47939 7.00428,-2.47939c3.86836,0 7.00428,1.11006 7.00428,2.47939z" fill="#c9c9c9"/><path d="M314.4048,82.03141c3.86836,0 7.00428,1.11006 7.00428,2.47939c0,1.36933 -3.13593,2.47939 -7.00428,2.47939c-3.86836,0 -7.00428,-1.11006 -7.00428,-2.47939c0,-1.36933 3.13592,-2.47939 7.00428,-2.47939z" fill="#c9c9c9"/></g><g fill="#c3dce2" stroke-width="0"><path d="M308.55108,113.38153c0,4.92233 -1.34014,8.91266 -2.9933,8.91266c-1.65316,0 -2.99331,-3.99034 -2.99331,-8.91266c0,-4.92233 1.34015,-8.91266 2.99331,-8.91266c1.65316,0 2.9933,3.99033 2.9933,8.91266z"/><path d="M305.3559,136.09718c-0.77718,0.00853 -1.3956,0.39619 -1.9602,-0.6206c-0.78473,-1.41322 -1.38285,-4.72908 -1.42235,-8.3261c-0.06792,-6.18504 1.08089,-9.48416 2.64285,-10.48941c2.44572,-1.57405 4.01535,4.23051 4.08326,10.41555c0.03431,3.12468 -0.41365,6.37954 -1.03727,7.85819c-0.61077,1.44823 -1.38728,1.15228 -2.30631,1.16237z"/><g><path d="M305.58511,137.23042c-2.49171,0.02736 -4.4713,0.11713 -4.48378,-1.01943c-0.01248,-1.13657 1.99733,-2.08012 4.48903,-2.10748c2.49171,-0.02736 4.52175,0.87183 4.53423,2.00839c0.01248,1.13657 -2.04777,1.09115 -4.53947,1.11851z"/><path d="M310.31344,137.08322c0.01668,1.51907 -0.70346,3.23354 -1.46846,3.24194c-0.765,0.0084 -1.39867,-1.21624 -1.41535,-2.7353c-0.01668,-1.51907 0.58994,-2.75732 1.35494,-2.76572c0.76499,-0.0084 1.51219,0.74002 1.52887,2.25909z"/><path d="M302.28097,134.89555c0.765,-0.0084 1.39867,1.21624 1.41535,2.7353c0.01668,1.51907 -0.58994,2.75732 -1.35494,2.76572c-0.765,0.0084 -1.52262,-1.68984 -1.5393,-3.20891c-0.01668,-1.51907 0.71389,-2.28372 1.47889,-2.29212z"/></g></g><path d="M323.51827,104.52367c-0.04161,0.14741 -0.15693,0.35166 -0.4765,0.35166c-0.5,0 -0.5,-0.5 -0.5,-0.5l0.19303,-0.51224c0.71497,-0.5546 1.71538,-1.30219 2.68074,-1.60156c-1.2067,-0.2442 -2.36028,-0.44976 -3.45392,-1.10176c0,0 -0.42875,-0.25724 -0.1715,-0.68599c0.25725,-0.42875 0.68599,-0.1715 0.68599,-0.1715c1.1757,0.71058 2.46687,0.82234 3.78941,1.11623l0.5194,0.11543c0.22879,0.04588 0.40115,0.24793 0.40115,0.49023c0,0.16567 -0.08056,0.31251 -0.20466,0.40349l-0.70069,0.52552l-0.09749,-0.12999c-0.84496,0.62458 -1.76247,1.03265 -2.66496,1.70047z" fill="#0091ff" stroke-width="0.5"/><path d="M338.00739,102.89434c-0.22361,0.44721 -0.67082,0.22361 -0.67082,0.22361l-0.47023,-0.23512c-1.35747,-0.75204 -1.12257,-2.03924 0.45873,-2.12279c0,0 0.5,0 0.5,0.5c0,0.5 -0.5,0.5 -0.5,0.5c-0.58783,-0.06625 -0.46512,0.04639 -0.01151,0.22837l0.47023,0.23511c0,0 0.44721,0.22361 0.22361,0.67082z" fill="#ff0000" stroke-width="0.5"/></g></g></svg>