<svg version="1.1" xmlns="http://www.w3.org/2000/svg" xmlns:xlink="http://www.w3.org/1999/xlink" width="86.91154" height="159.07915" viewBox="0,0,86.91154,159.07915"><g transform="translate(-278.32524,-99.66886)"><g stroke="none" stroke-miterlimit="10"><path d="M317.28638,144.91389c0,0 0.02448,-0.04626 0.07306,-0.12185c-0.54045,-0.54953 -1.05342,-1.11205 -1.54345,-1.68723c-1.05718,-2.36543 -2.85999,-3.76035 -4.96798,-4.38743c-5.30294,-4.51645 -7.28092,-11.26658 -7.87527,-18.04094c-0.41839,-4.76891 -0.70528,-11.56542 3.82869,-14.8672c6.07196,-4.42182 16.65449,-1.3139 23.16639,0.42132c5.22562,2.05179 12.53088,5.2495 15.38847,10.44017c0.94911,1.72401 1.64177,5.12973 2.0228,6.96086c1.90573,9.15841 -1.15681,23.36242 -11.75984,25.92732c-2.51805,0.60913 -5.49853,0.20893 -8.4223,-0.43839c-1.0887,-0.64853 -2.20977,-1.25038 -3.44759,-1.67307c-2.16965,-1.02336 -4.31968,-1.74344 -6.60726,-2.26196c0.04824,-0.09044 0.09634,-0.18098 0.14429,-0.2716zM321.51057,142.04085c0.2977,0.29178 0.60449,0.57874 0.92116,0.86066c3.48856,0.53215 8.52698,2.68167 12.00158,1.80008c5.75101,-1.45917 6.8249,-6.82611 7.7597,-11.72276c0.89576,-4.69211 1.04866,-9.48237 -1.23727,-13.93426c-0.91561,-1.78317 -1.52377,-1.74175 -3.1659,-2.84795c-3.11447,-2.09803 -5.87824,-3.84431 -9.37896,-5.21465c-4.23991,-1.12209 -8.5871,-2.15297 -12.99583,-2.08507c-1.25207,0.01928 -4.27688,-0.01808 -5.62332,0.91961c-2.86408,1.99461 -2.08359,7.78395 -1.83919,10.4107c0.22701,2.43986 0.61883,4.9302 1.37655,7.26139c1.24628,-0.52281 2.44535,0.39248 2.44535,0.39248l1.06428,1.10187c1.5252,2.88527 2.97395,5.67291 4.71693,8.25006c1.01282,0.59187 2.03462,1.17084 3.00632,1.8254c0,0 1.75197,1.18123 0.94863,2.98244z" fill="#000000" stroke-width="0.5"/><path d="M327.96847,178.25016c0.50671,2.10154 0.91949,5.40059 2.36063,7.0714c0.41712,0.48359 4.88411,-2.03548 5.44433,-2.15922c3.25608,-0.71919 6.82818,-1.22839 9.70651,-3.06945c1.42536,-0.9117 4.24493,-4.65372 5.11809,-5.09029c2.10818,-1.05409 3.09639,-0.72468 4.15049,1.3835c0.69401,1.38803 -0.83399,3.24108 -2.33464,4.62136c-0.5538,0.83382 -1.3321,1.54671 -2.20846,1.78752c-4.23358,3.03927 -8.35888,3.66084 -13.20019,5.22353c-2.37353,0.76613 -6.31869,3.8355 -8.93427,2.5277c-2.36813,-1.18406 -3.54935,-6.02318 -4.22827,-8.22074c0.00869,2.4454 0.01722,4.88987 0.01743,7.33238c0.23228,0.5014 0.23488,1.02831 0.18465,1.41647c0.00505,0.03086 0.00703,0.04777 0.00703,0.04777c0.88819,7.57682 4.06306,14.27961 5.60601,21.72478c2.44245,11.78548 3.18101,23.99114 3.18101,35.98927c0,0.43285 0,0.8657 0,1.29855c0.42692,0.55895 0.71887,1.40361 0.15368,2.53398c-1.11803,2.23607 -3.3541,1.11803 -3.3541,1.11803l-1.79958,-2.44488c0,-0.83523 0,-1.67046 0,-2.50569c0,-11.68133 -0.7129,-23.52853 -3.0832,-35.00514c-0.90881,-4.40032 -2.36416,-8.53785 -3.6043,-12.7475c-1.60636,7.06087 -2.51028,14.39887 -4.03394,21.36499c-1.99451,9.11883 -4.66082,18.16959 -6.00079,27.4001c0.0021,0.77615 0.00419,1.55231 0.00629,2.32846v1.04404c0,0 0,2.5 -2.5,2.5c-2.5,0 -2.5,-2.5 -2.5,-2.5v-1.04404c0.0021,-0.8943 0.00419,-1.78861 0.00629,-2.68291c1.33647,-9.4901 4.06079,-18.77581 6.11002,-28.14259c2.20211,-10.0656 3.20679,-20.76205 6.64378,-30.49034c-0.02286,-0.17293 -0.02286,-0.28225 -0.02286,-0.28225v-0.83523c0,-8.02433 -0.11336,-16.07797 -0.00131,-24.11257c0.31439,-1.65711 0.5342,-3.37554 0.67725,-5.10582c-0.36654,-1.5913 -0.79182,-3.16521 -1.30766,-4.71273c-0.09499,-0.2642 -0.14675,-0.54903 -0.14675,-0.84593c0,-0.34448 0.06968,-0.6727 0.19571,-0.97131c0.28305,-0.81105 0.81811,-1.249 1.43773,-1.39252c-0.05488,-1.75271 -0.1654,-3.43238 -0.31015,-4.97955c-0.10962,-1.17165 -0.66884,-2.27125 -1.31805,-3.31141c0.00362,-0.01137 0.00723,-0.02275 0.01083,-0.03413c2.36847,0.07355 4.62335,0.37809 6.97191,0.97998c0.42124,0.06033 0.83405,0.14238 1.24043,0.24081c-0.06258,0.03945 -0.09209,0.089 -0.10379,0.13719c-0.22953,-0.01424 -0.45782,-0.02884 -0.68453,-0.04349c-0.03272,1.15011 -0.15094,2.26831 -0.30712,3.37293c0.03884,0.44298 0.08137,0.88571 0.12739,1.3282c0.17834,0.14688 0.35135,0.32989 0.51616,0.55286c0.91878,1.24308 1.0305,3.63473 1.77771,5.06757c2.57261,4.93318 5.96398,9.41682 8.48649,14.36998c0.23764,0.46664 2.73891,5.81513 3.01511,5.72701c2.96059,-0.9445 13.17264,-14.15394 16.13281,-8.2336c0.99061,1.98121 -2.19164,3.45923 -3.16372,4.32507c-2.98426,2.65811 -9.90296,9.37813 -13.65495,9.77569c-2.44511,0.25908 -4.58058,-4.98393 -5.43261,-6.57131c-2.20069,-4.10003 -5.54854,-8.50339 -8.11202,-13.06642c1.03906,5.33232 1.79346,10.7508 3.06152,16.00993z" fill="#000000" stroke-width="0.5"/><path d="M327.00294,145.68296c-0.09742,-0.00546 -0.19469,-0.01104 -0.29178,-0.01673l-0.03622,-0.07244c0,0 -0.00045,-0.00088 -0.00133,-0.00251c0.1102,0.02949 0.21997,0.06008 0.32933,0.09168z" fill="#000000" stroke-width="0.5"/><path d="M278.32524,258.74801v-159.07915h86.91154v159.07915z" fill-opacity="0" fill="#9e9898" stroke-width="0"/><g><path d="M350.16985,172.05361l6.65876,-14.0989l1.3488,0.63703l-6.65876,14.0989z" fill="#303030" stroke-width="0"/><path d="M341.86742,175.30465l6.65876,-14.0989l12.41452,5.86324l-6.65876,14.0989z" fill="#5a5a5a" stroke-width="0"/><path d="M355.65674,158.02658c0.41859,-0.88631 1.47642,-1.26546 2.36273,-0.84687c0.88631,0.41859 1.26546,1.47642 0.84687,2.36273c-0.41859,0.88631 -1.47642,1.26546 -2.36273,0.84687c-0.88631,-0.41859 -1.26546,-1.47642 -0.84687,-2.36273z" fill="#8b0000" stroke-width="0"/><path d="M347.47383,169.33062c1.02515,-2.1706 3.61582,-3.09917 5.78643,-2.07402c2.1706,1.02515 3.09918,3.61582 2.07402,5.78643c-1.02515,2.1706 -3.61583,3.09918 -5.78643,2.07402c-2.1706,-1.02515 -3.09917,-3.61583 -2.07402,-5.78643z" fill="#303030" stroke-width="0"/><path d="M352.74108,167.67333c0.63839,0.3015 1.08321,2.29951 0.479,2.78374c-1.12993,0.90554 -1.03811,-1.38384 -1.1816,-1.34735c-0.19764,0.05026 -1.73825,0.7943 -1.79586,0.05633c-0.12709,-0.18722 -0.15471,-0.43486 -0.05108,-0.65428c0.11715,-0.24804 0.36869,-0.38946 0.62657,-0.37836c0.63788,-0.34025 1.47997,-0.66932 1.92298,-0.46009z" fill="#8b0000" stroke-width="0.5"/><path d="M348.61568,172.32273c0.19118,-0.30275 0.6216,-0.4394 0.92954,-0.28962c0.13214,0.06427 0.24172,0.18129 0.30017,0.36055c0.00746,0.02287 0.01237,0.04845 0.01532,0.07604c0.02267,0.10799 0.01857,0.22234 -0.01605,0.33262c-0.02441,0.22152 -0.04543,0.42281 0.11283,0.39164c0.49403,-0.09731 1.93566,-0.83161 1.96242,0.36232c0.01307,0.58288 -2.25568,1.34341 -2.79286,1.23661c-0.54239,-0.10784 -0.67084,-1.76928 -0.56489,-2.30219z" fill="#8b0000" stroke-width="0.5"/><path d="M354.40036,173.92814c-0.4079,0.37398 -1.7967,0.25994 -1.93633,-0.12962c-0.34152,-0.95283 0.80981,-0.75969 0.79596,-0.98715c-0.01413,-0.23212 -0.3142,-1.41075 -0.09323,-1.58435c0.00459,-0.01127 0.00951,-0.02248 0.01477,-0.03362c0.15594,-0.33018 0.55001,-0.47142 0.88019,-0.31549c0.27882,0.13168 0.42291,0.43318 0.36709,0.72261c0.43668,0.70393 0.37464,1.95804 -0.02846,2.32761z" fill="#8b0000" stroke-width="0.5"/><path d="M348.54237,171.63528c-1.55543,0.22994 -1.26094,-3.14728 0.17138,-3.25911c0.18722,-0.12709 0.43486,-0.15471 0.65428,-0.05108c0.33018,0.15594 0.47142,0.55001 0.31549,0.88019c-0.07694,0.1629 -0.21184,0.27981 -0.36843,0.33773c-0.16927,0.93306 -0.51202,2.05372 -0.7727,2.09226z" fill="#8b0000" stroke-width="0.5"/></g><path d="M353.6756,176.46858c0.08661,0.2399 0.13426,0.49826 0.14743,0.76885c0.00611,0.07637 0.00922,0.15359 0.00922,0.23154c0,0.23632 -0.02863,0.46596 -0.0826,0.68563c-0.50636,2.59992 -3.39574,5.63942 -5.43395,4.62031c-1.01313,-0.50656 -1.53929,-6.40727 0.45833,-7.14552c0.52529,-0.62602 1.31349,-1.02401 2.19464,-1.02401c1.10369,0 2.06154,0.62439 2.53959,1.53921c0.06812,0.09848 0.1247,0.20586 0.16734,0.32399z" fill="#000000" stroke-width="0.5"/></g></g></svg>