<svg version="1.1" xmlns="http://www.w3.org/2000/svg" xmlns:xlink="http://www.w3.org/1999/xlink" width="80.42133" height="56.44986" viewBox="0,0,80.42133,56.44986"><g transform="translate(-279.78934,-163.76081)"><g stroke="none" stroke-miterlimit="10"><path d="M279.78934,220.21067v-56.44986h80.42133v56.44986z" fill="#9700ff" stroke-width="0"/><g fill="#55008f" stroke-width="0.5"><path d="M292.10916,170.76723c0,-1.2102 1.11929,-2.19127 2.5,-2.19127c1.38071,0 2.5,0.98106 2.5,2.19127c0,1.2102 -1.11929,2.19127 -2.5,2.19127c-1.38071,0 -2.5,-0.98106 -2.5,-2.19127z"/><path d="M347.30664,192.33132c0,-1.2102 1.11929,-2.19127 2.5,-2.19127c1.38071,0 2.5,0.98106 2.5,2.19127c0,1.2102 -1.11929,2.19127 -2.5,2.19127c-1.38071,0 -2.5,-0.98106 -2.5,-2.19127z"/><path d="M293.15718,205.57529l0.10822,0.06324l0.31427,0.06886l0.40069,0.02702l0.94624,0.27646l0.15181,0.08468l0.17566,0.03421l0.06996,0.03066l0.99542,0.21812l0.3775,0.17647l0.40291,0.12613l0.11281,0.06592l0.84155,0.18441l0.24293,0.11356l0.26876,0.05235l0.31541,0.13823l0.11994,0.09011l0.14877,0.04657l0.34362,0.20079l0.01729,0.00758l1.25081,0.36545l0.15181,0.08468l0.17566,0.03421l0.47192,0.20682l0.21348,0.06237l0.53768,0.11782l0.3775,0.17647l0.40291,0.12613l0.34362,0.20079l0.80703,0.35368l0.17253,0.12962l0.20943,0.07729l0.63083,0.41469l0.10931,0.11792l0.04061,0.01271l0.54632,0.11971l0.04202,0.06446l0.09473,0.02965l0.11281,0.06592l0.06427,0.01408l1.11186,0.12182l0.14296,0.0485h0.15329l1.70497,0.37361l1.42935,0.11389h8.78606l0.54579,-0.09568l0.09319,0.00389l0.08701,-0.02952l2.34702,-0.25715l1.56337,-0.37372l0.16965,-0.00316l0.15774,-0.05483l2.22616,-0.26017l1.73706,-0.38064l2.27286,-0.53125l1.50233,-0.43894l1.44691,-0.84549v-2.75723l-0.0435,-0.19064l-0.52037,-0.91221l-0.46538,-0.50988l-0.02906,-0.05558l-0.0531,-0.03965l-0.54635,-0.67043l-0.73209,-0.45834l-1.33632,-0.78086l-1.51283,-0.7956l-1.71137,-0.87502l-3.44393,-1.1812l-2.6894,-0.91672l-2.97517,-0.65194l-3.41155,-0.6796l-3.09128,-0.5419l-3.59622,-0.54819l-0.0296,-0.0115l-0.03234,0.00135l-2.9114,-0.51037h-2.32949l-1.66829,0.12186l-1.44094,0.22964l-1.04611,0.30564l-1.75661,0.82906l-0.75807,0.44297l-0.50665,0.35527l-0.29972,0.31525l-0.32627,0.95327l-0.08228,0.1213l-0.02775,0.13901l-0.63083,1.24408l-0.03583,0.0402l-0.01263,0.0498l-0.5081,0.8907l-0.48963,1.71664v2.27751l0.01096,0.02882c0.09264,0.22586 0.14416,0.46891 0.14665,0.72221l0.16946,0.03713l0.04202,0.06446zM287.96113,206.1083l-0.13948,-0.36676l-0.03082,-0.35121l-0.09747,-0.34173v-2.90286l0.07464,-0.2617v-0.26976l0.63083,-2.2117l0.12956,-0.21293l0.05973,-0.23557l0.60543,-1.06133l0.54332,-1.07151l0.34286,-1.00173l-0.00148,-0.00349l0.00707,-0.01283l0.07908,-0.23105l0.25613,-0.37757l0.21788,-0.39559l0.17618,-0.18531l0.00831,-0.01225l0.00413,-0.00084l0.59991,-0.63099l0.20496,-0.13129l0.15385,-0.17699l0.78854,-0.55293l0.10057,-0.0404l0.07442,-0.07175l0.94624,-0.55293l0.11289,-0.03534l0.08861,-0.07076l2.05019,-0.96762l0.211,-0.04702l0.18368,-0.10245l1.41936,-0.41469l0.17941,-0.0121l0.16395,-0.06501l1.73478,-0.27646l0.12296,0.00703l0.11664,-0.0348l1.89248,-0.13823l0.1047,0.01498l0.10292,-0.02255h2.68102l0.24157,0.05293l0.24872,-0.01038l3.12325,0.54751l3.59622,0.54819l0.0296,0.0115l0.03234,-0.00135l3.15414,0.55293l0.03027,0.01257l0.03349,-0.00063l3.46956,0.69116l0.02465,0.01094h0.02763l3.15414,0.69116l0.14111,0.06597l0.15866,0.0176l2.83873,0.96762l0.0022,0.00137l0.00268,0.0003l3.62726,1.24408l0.16009,0.09974l0.18859,0.04809l1.89248,0.96762l0.01137,0.00972l0.01519,0.00405l1.57707,0.82939l0.0431,0.03778l0.05741,0.01797l1.41936,0.82939l0.02784,0.02684l0.03851,0.0133l1.10395,0.69116l0.26737,0.27511l0.31387,0.23435l0.74893,0.91903l0.58827,0.64453l0.11081,0.21192l0.17308,0.17699l0.78854,1.38231l0.07244,0.28571l0.14295,0.26451l0.15771,0.69116l-0.01184,0.21801l0.06039,0.21174v4.00871l-0.11962,0.41939l0.0503,0.16166l-0.16527,0.24143l-0.07791,0.27315l-0.16598,0.08313l-0.25375,0.37069l-0.47312,0.41469l-0.21352,0.11229l-0.1675,0.16149l-2.36561,1.38231l-0.31447,0.09844l-0.28172,0.15713l-1.89248,0.55293l-0.07798,0.00526l-0.06843,0.0332l-2.36561,0.55293l-0.02009,0.00028l-0.01773,0.00829l-1.89248,0.41469h-0.143l-0.13293,0.0462l-2.1997,0.25707l-1.5733,0.37609l-0.1799,0.00335l-0.16781,0.05694l-2.43268,0.26653l-0.69897,0.12253l-0.24872,-0.01038l-0.24157,0.05293h-9.14701l-0.11213,-0.02457l-0.11421,0.01557l-1.73478,-0.13823l-0.18455,-0.05643h-0.19545l-1.74603,-0.3826l-1.11186,-0.12182l-0.14296,-0.0485h-0.15329l-0.63083,-0.13823l-0.3775,-0.17647l-0.40291,-0.12613l-0.0136,-0.00795l-0.02437,-0.00534l-0.18443,0.04409l-0.27545,-0.14486l-0.31164,-0.06829l-0.09485,-0.14548l-0.42292,-0.22242l-0.34749,-0.30458l-0.30835,-0.2027l-0.74462,-0.32633l-0.11994,-0.09011l-0.14877,-0.04657l-0.11281,-0.06592l-0.21072,-0.04618l-0.08649,-0.04043l-0.09774,-0.00659l-0.47312,-0.13823l-0.15181,-0.08468l-0.17566,-0.03421l-0.47192,-0.20682l-1.25081,-0.36545l-0.15181,-0.08468l-0.17566,-0.03421l-0.31541,-0.13823l-0.11994,-0.09011l-0.14877,-0.04657l-0.30206,-0.17651l-0.96772,-0.21205l-0.3775,-0.17647l-0.40291,-0.12613l-0.11281,-0.06592l-0.84155,-0.18441l-0.24293,-0.11356l-0.26876,-0.05235l-0.1565,-0.06859l-0.39282,-0.11477h-0.06743l-0.38988,-0.08543l-0.40069,-0.02702l-0.47312,-0.13823l-0.28172,-0.15713l-0.30342,-0.09498l-0.36111,-0.02435l-0.47312,-0.13823l-0.15181,-0.08468l-0.17566,-0.03421l-0.31541,-0.13823l-0.97828,-0.73497l-0.10257,-1.61821c-0.15137,-0.18723 -0.27006,-0.3962 -0.34876,-0.62052z"/></g></g></g></svg>