<svg version="1.1" xmlns="http://www.w3.org/2000/svg" xmlns:xlink="http://www.w3.org/1999/xlink" width="886.45215" height="421.93292" viewBox="0,0,886.45215,421.93292"><g transform="translate(116.02522,47.69539)"><g stroke-miterlimit="10"><path d="M549.40838,240.2015c0,0 2.07966,-10.32218 1.08689,-17.37869c-0.26915,-1.91309 -1.85048,-3.4455 -2.45485,-4.63613c-2.27741,-4.48659 0,-15.94177 0,-15.94177h9.28256v37.50113z" fill="#5d5d5d" stroke="none" stroke-width="0" stroke-linecap="butt"/><path d="M548.57209,205.70183c0,0 -0.77721,5.21478 0.17868,10.42454c0.29986,1.6343 1.49534,2.38932 2.28348,3.8639c0.46796,0.87553 0.70584,2.58692 0.76394,3.294c0.41649,5.0694 -0.55518,14.92703 -0.55518,14.92703" fill="none" stroke="#fff700" stroke-width="2.5" stroke-linecap="round"/><path d="" fill="#000000" stroke="none" stroke-width="0.5" stroke-linecap="butt"/><path d="" fill="#000000" stroke="none" stroke-width="0.5" stroke-linecap="butt"/><g><path d="M335.91982,241.57167c0,0 2.31288,-10.83374 1.20878,-18.23998c-0.29933,-2.00791 -2.05799,-3.61626 -2.73015,-4.8659c-2.5328,-4.70895 0,-16.73184 0,-16.73184h10.32353v39.35969z" fill="#5d5d5d" stroke="none" stroke-width="0" stroke-linecap="butt"/><path d="M335.52266,205.36219c0,0 -0.86437,5.47322 0.19872,10.94118c0.33349,1.71528 1.66303,2.50773 2.53955,4.0554c0.52044,0.91891 0.78501,2.71511 0.84961,3.45726c0.46319,5.32063 -0.61744,15.66683 -0.61744,15.66683" fill="none" stroke="#ff0000" stroke-width="2.5" stroke-linecap="round"/></g><g><path d="M313.13807,139.41827c0,0 1.28968,-5.02641 0.18559,-9.52639c-0.29933,-1.22 -1.0348,-3.75332 -1.70695,-4.5126c-2.5328,-2.86112 0,-10.16616 0,-10.16616h10.32353v23.91468z" fill="#5d5d5d" stroke="none" stroke-width="0" stroke-linecap="butt"/><path d="M312.74087,117.41764c0,0 -0.86437,3.3255 0.19872,6.6478c0.33349,1.0422 1.66302,1.52368 2.53955,2.46404c0.52044,0.55833 0.78501,1.64968 0.84962,2.10061c0.4632,3.23278 -0.61744,9.51906 -0.61744,9.51906" fill="none" stroke="#ff0000" stroke-width="2.5" stroke-linecap="round"/></g><path d="M117.59335,240.26899c0,0 2.07966,-9.74133 1.08689,-16.40075c-0.26915,-1.80544 -1.85047,-3.25161 -2.45484,-4.37525c-2.27741,-4.23412 0,-15.0447 0,-15.0447h9.28256v35.39086z" fill="#5d5d5d" stroke="none" stroke-width="0" stroke-linecap="butt"/><path d="M117.2362,207.7107c0,0 -0.77722,4.92133 0.17868,9.83793c0.29986,1.54233 1.49534,2.25487 2.28349,3.64648c0.46796,0.82626 0.70584,2.44134 0.76394,3.10864c0.41649,4.78413 -0.55518,14.08706 -0.55518,14.08706" fill="none" stroke="#ff0000" stroke-width="2.5" stroke-linecap="round"/><g stroke="none" stroke-width="0" stroke-linecap="butt"><path d="M281.09068,239.78502c-9.48781,0 -16.92377,0.80409 -16.92377,-2.77308c0,-3.57717 7.69141,-6.47704 17.1792,-6.47704c9.48781,0 17.17918,2.89987 17.17918,6.47704c0,3.57717 -7.94683,2.77308 -17.43463,2.77308z" fill="#a81212"/><path d="M264.16694,241.82619v-8.20953h34.35839v8.20953z" fill="#636363"/></g><g stroke="none" stroke-width="0" stroke-linecap="butt"><path d="M177.50327,201.29708c-3.7826,0 -6.74716,0.32058 -6.74716,-1.10557c0,-1.42615 3.0664,-2.58227 6.849,-2.58227c3.7826,0 6.849,1.15612 6.849,2.58227c0,1.42615 -3.16824,1.10557 -6.95083,1.10557z" fill="#a81212"/><path d="M170.75613,202.11084v-3.27298h13.69799v3.27298z" fill="#636363"/></g><path d="M45.93182,67.3829c0,-0.23319 0.18904,-0.42223 0.42223,-0.42223c0.23319,0 0.42223,0.18904 0.42223,0.42223c0,0.23319 -0.18904,0.42223 -0.42223,0.42223c-0.23319,0 -0.42223,-0.18904 -0.42223,-0.42223z" fill="#ffe2b1" stroke="none" stroke-width="0.5" stroke-linecap="butt"/><path d="M213.20468,113.14648v94.92558h-24.16086v-94.92557z" fill="#9e9898" stroke="none" stroke-width="0" stroke-linecap="butt"/><path d="M71.63548,249.80776v-36.07691h6.86674v36.07691z" fill="#9e9898" stroke="none" stroke-width="0" stroke-linecap="butt"/><path d="M78.50221,118.86122v70.41251h-6.86674v-70.41251z" fill="#9e9898" stroke="none" stroke-width="0" stroke-linecap="butt"/><path d="M112.43619,177.48571v-37.95658h61.4199v37.95659z" fill="#9e9898" stroke="none" stroke-width="0" stroke-linecap="butt"/><path d="M157.88296,203.80059v-35.79286h7.74898v35.79286z" fill="#9e9898" stroke="none" stroke-width="0" stroke-linecap="butt"/><path d="M157.88296,208.07207v-6.61687h31.94625v6.61687z" fill="#9e9898" stroke="none" stroke-width="0" stroke-linecap="butt"/><path d="M114.86045,204.76363v-32.11237h12.59255v32.11237z" fill="#9e9898" stroke="none" stroke-width="0" stroke-linecap="butt"/><path d="M115.95527,168.41465l5.19447,-24.7328l20.17215,4.23662l-5.19446,24.7328z" fill="#be9c62" stroke="none" stroke-width="0" stroke-linecap="butt"/><text transform="translate(120.68746,147.50333) rotate(12.15423) scale(0.07839,0.07839)" font-size="40" xml:space="preserve" fill="#ffe2b1" stroke="none" stroke-width="1" stroke-linecap="butt" font-family="Sans Serif" font-weight="normal" text-anchor="start"><tspan x="0" dy="0">Para Moverte</tspan><tspan x="0" dy="48px">Usa wasd o </tspan><tspan x="0" dy="48px">las flechas</tspan></text><path d="M147.07909,171.01191l0.05215,-22.4961l18.34788,0.04254l-0.05215,22.4961z" fill="#be9c62" stroke="none" stroke-width="0" stroke-linecap="butt"/><text transform="translate(147.30289,151.23971) rotate(0.7028) scale(0.06889,0.06889)" font-size="40" xml:space="preserve" fill="#ffe2b1" stroke="none" stroke-width="1" stroke-linecap="butt" font-family="Sans Serif" font-weight="normal" text-anchor="start"><tspan x="0" dy="0">Para cambiar</tspan><tspan x="0" dy="48px">entre el robot</tspan><tspan x="0" dy="48px">y el humano</tspan><tspan x="0" dy="48px">presiona C</tspan></text><path d="M123.73606,167.79539c-0.06975,0.74474 -0.13117,1.49069 -0.19383,2.23581c-0.25661,-0.05329 -0.51239,-0.10836 -0.76676,-0.16668c0.11219,-1.35296 0.22003,-2.70939 0.38999,-4.0538c0.00954,-0.07544 0.02139,-0.14971 0.03496,-0.2231c-0.53956,1.0522 -1.13373,2.07805 -1.63403,3.15045c-0.10893,0.23349 -0.20686,0.55064 -0.30497,0.79293c-0.23732,-0.08437 -0.5722,-0.06877 -0.81502,-0.17315c0.10301,-0.25548 0.30064,-0.70126 0.41513,-0.94783c0.74569,-1.60594 1.71167,-3.10393 2.37833,-4.74647c0,0 0.00306,-0.00754 0.00939,-0.02c-0.20009,-0.16602 -0.38111,-0.34353 -0.55022,-0.53126c-0.13558,-0.06308 -0.26946,-0.12924 -0.39745,-0.20628c-0.99919,-0.60158 -1.44698,-1.67024 -1.65639,-2.7673c-0.13957,-0.73117 -0.29062,-1.77808 0.35896,-2.36001c0.86992,-0.77934 2.5558,-0.46464 3.59041,-0.2984c0.84059,0.23539 2.02088,0.61543 2.54441,1.37356c0.17388,0.25181 0.33449,0.76779 0.42217,1.04508c0.43855,1.38687 0.18771,3.63226 -1.41231,4.19545c-0.52318,0.18415 -1.21202,0.08607 -1.82565,-0.00776c-0.02064,0.17771 -0.0541,0.34932 -0.09326,0.5183c0.00043,1.89422 0.43377,3.79708 0.59225,5.68282c-0.26474,-0.05264 -0.52967,-0.10468 -0.79413,-0.15767c-0.07235,-0.77683 -0.18526,-1.55534 -0.29193,-2.33471zM123.8482,163.15278c0.05063,0.04047 0.10262,0.08004 0.15602,0.11868c0.54803,0.02757 1.36119,0.28102 1.88486,0.09011c0.86677,-0.31599 0.94866,-1.1631 1.01642,-1.93527c0.06493,-0.73991 0.0134,-1.48336 -0.4101,-2.13618c-0.16963,-0.26148 -0.26305,-0.24553 -0.53445,-0.39089c-0.51472,-0.27569 -0.96967,-0.50245 -1.53274,-0.6595c-0.67351,-0.10704 -1.3622,-0.19829 -2.04315,-0.1186c-0.19339,0.02263 -0.66191,0.06433 -0.85548,0.23051c-0.41176,0.35351 -0.20016,1.23686 -0.12113,1.63938c0.07341,0.37389 0.17311,0.75298 0.32691,1.10172c0.18459,-0.10043 0.38445,0.02234 0.38445,0.02234l0.18194,0.15375c0.28123,0.42241 0.54911,0.83091 0.85919,1.20224c0.16596,0.07566 0.33313,0.14919 0.49372,0.2352c0,0 0.28956,0.15524 0.19355,0.44649z" fill="#ffe2b1" stroke="none" stroke-width="0.5" stroke-linecap="butt"/><g fill="#ebc588" stroke="none" stroke-width="0" stroke-linecap="butt"><path d="M158.32962,166.39184c0.33782,0 0.61167,0.81541 0.61167,1.82128c0,1.00587 -0.27386,1.82128 -0.61167,1.82128c-0.33782,0 -0.61167,-0.81542 -0.61167,-1.82128c0,-1.00587 0.27385,-1.82128 0.61167,-1.82128z"/><path d="M154.64479,169.70697c0,-0.18781 -0.06222,-0.34582 0.23234,-0.47387c0.30074,-0.13074 0.96484,-0.22958 1.6034,-0.22958c1.26398,0 2.45357,0.3077 2.13742,0.81098c-0.2019,0.32141 -0.87345,0.56357 -2.13742,0.56357c-0.73509,0 -1.41398,-0.11478 -1.70452,-0.27195c-0.20903,-0.11308 -0.1312,-0.24032 -0.1312,-0.39915z"/><path d="M154.63108,168.73258c0.23227,0 0.42056,0.41279 0.42056,0.92199c0,0.50921 -0.18829,0.92199 -0.42056,0.92199c-0.23227,0 -0.21836,-0.4047 -0.21836,-0.91391c0,-0.50921 -0.01392,-0.93008 0.21836,-0.93008z"/><path d="M154.89723,169.00351c0,0.15634 -0.25165,0.28306 -0.56209,0.28306c-0.31044,0 -0.5621,-0.12672 -0.5621,-0.28306c0,-0.15634 0.34871,-0.30734 0.65915,-0.30734c0.31044,0 0.46504,0.151 0.46504,0.30734z"/><path d="M154.43219,170.6399c-0.31044,0 -0.65915,-0.15099 -0.65915,-0.30733c0,-0.15634 0.25166,-0.28307 0.5621,-0.28307c0.31044,0 0.56209,0.12673 0.56209,0.28307c0,0.15634 -0.1546,0.30733 -0.46504,0.30733z"/></g><g fill="#ffe2b1" stroke="none" stroke-width="0" stroke-linecap="butt"><path d="M160.91375,166.41746c0.33782,0 0.61168,0.81542 0.61168,1.82128c0,1.00587 -0.27386,1.82128 -0.61168,1.82128c-0.33782,0 -0.61167,-0.81541 -0.61167,-1.82128c0,-1.00587 0.27386,-1.82128 0.61167,-1.82128z"/><path d="M157.22893,169.73264c0,-0.18781 -0.06223,-0.34582 0.23233,-0.47387c0.30074,-0.13074 0.96482,-0.22959 1.60338,-0.22959c1.26398,0 2.45358,0.30771 2.13743,0.81099c-0.2019,0.32141 -0.87346,0.56356 -2.13743,0.56356c-0.73509,0 -1.41398,-0.11478 -1.70451,-0.27195c-0.20903,-0.11308 -0.1312,-0.24032 -0.1312,-0.39914z"/><path d="M157.21522,168.75827c0.23227,0 0.42055,0.41279 0.42055,0.922c0,0.50921 -0.18828,0.92199 -0.42055,0.92199c-0.23227,0 -0.21837,-0.4047 -0.21837,-0.91391c0,-0.50921 -0.01391,-0.93008 0.21837,-0.93008z"/><path d="M157.48135,169.02918c0,0.15634 -0.25166,0.28307 -0.5621,0.28307c-0.31044,0 -0.56209,-0.12674 -0.56209,-0.28307c0,-0.15634 0.34871,-0.30733 0.65915,-0.30733c0.31044,0 0.46504,0.15099 0.46504,0.30733z"/><path d="M157.01632,170.6656c-0.31044,0 -0.65915,-0.15099 -0.65915,-0.30734c0,-0.15634 0.25165,-0.28307 0.56209,-0.28307c0.31044,0 0.5621,0.12673 0.5621,0.28307c0,0.15634 -0.1546,0.30734 -0.46504,0.30734z"/></g><g stroke="none" stroke-linecap="butt"><path d="M153.1484,166.94315c0,-1.67892 2.21582,-3.03995 4.94916,-3.03995c2.73334,0 4.94914,1.36103 4.94914,3.03995c0,1.67892 -2.84913,0.75999 -5.58247,0.75999c-2.73334,0 -4.31583,0.91893 -4.31583,-0.75999z" fill="#ffe2b1" stroke-width="0"/><g fill="#ffe2b1" stroke-width="0"><path d="M158.44498,164.23559c-0.12514,0.02225 -0.06453,0.01334 -0.12628,0.00876c-0.17897,-0.01329 -0.479,-0.03603 -0.57566,-0.04321c-0.04662,-0.00346 -0.08132,-0.01247 -0.13177,-0.02747c-0.05567,-0.01655 0.0007,-0.13374 0.00592,-0.20387c0.0187,-0.2519 0.13292,-1.66562 0.13292,-1.66562l0.83369,0.06191c0,0 -0.10203,1.51033 -0.119,1.73872c-0.00408,0.05492 0.02,0.13181 -0.01982,0.13077z"/><path d="M157.037,161.85129c0.79049,0 1.43131,0.22684 1.43131,0.50666c0,0.27982 -0.64082,0.50666 -1.43131,0.50666c-0.79049,0 -1.43131,-0.22683 -1.43131,-0.50666c0,-0.27982 0.64082,-0.50666 1.43131,-0.50666z"/><path d="M160.53718,162.35791c0,0.27982 -0.64081,0.50666 -1.43131,0.50666c-0.79049,0 -1.43131,-0.22684 -1.43131,-0.50666c0,-0.27982 0.64082,-0.50666 1.43131,-0.50666c0.79049,0 1.43131,0.22684 1.43131,0.50666z"/></g><g><path d="M153.98438,166.18322c0,-0.20603 0.13829,-0.77015 0.75346,-0.98163c0.32508,-0.11176 0.82752,-0.20701 1.27163,-0.19901c0.42756,0.00771 1.09207,-0.00437 1.36953,0.09133c1.17524,0.40533 0.86131,0.66959 0.86131,1.08931c0,0.41973 -0.95271,0.75999 -2.12795,0.75999c-1.17524,0 -2.12797,-0.34025 -2.12797,-0.75999z" fill="#be9c62" stroke-width="0"/><path d="M155.03217,166.18858c-0.19913,0 -0.19913,-0.19913 -0.19913,-0.19913l0.01533,0.01644c-0.04786,-0.35357 -0.09555,0.04009 -0.09889,0.12037c0,0 -0.01653,0.19845 -0.21498,0.18191c-0.19845,-0.01654 -0.18192,-0.21498 -0.18192,-0.21498c0.06575,-0.59905 0.53625,-0.84581 0.86342,-0.24048l0.01532,0.13673c0,0 -0.00001,0.19913 -0.19913,0.19913z" fill="#ffe2b1" stroke-width="0.5"/><path d="M157.49699,166.32506c-0.19527,0.03906 -0.23431,-0.15621 -0.23431,-0.15621l-0.02005,-0.10024c-0.09084,-0.46139 -0.36943,-0.35954 -0.45146,0.08019c0,0 -0.03906,0.19527 -0.23432,0.15621c-0.19527,-0.03906 -0.1562,-0.23432 -0.1562,-0.23432c0.17346,-0.82574 1.04905,-0.98532 1.23252,-0.0802l0.02005,0.10024c0,0 0.03905,0.19527 -0.15621,0.23432z" fill="#ffe2b1" stroke-width="0.5"/></g></g><path d="M120.74695,195.74502c-0.49783,0 -0.49782,-0.49783 -0.49782,-0.49783l0.0429,-0.50598c0.80973,-1.816 1.44138,-3.73161 2.22512,-5.56336c0,0 0.19611,-0.45758 0.65369,-0.26147c0.45758,0.19611 0.26148,0.65369 0.26148,0.65369c-0.78836,1.8366 -1.42216,3.75155 -2.23044,5.57553l0.04291,0.1016c0,0 0,0.49783 -0.49783,0.49783z" fill="#5d5d5d" stroke="none" stroke-width="0.5" stroke-linecap="butt"/><path d="M122.79519,195.3899c0.41423,0.27615 0.13807,0.69037 0.13807,0.69037l-0.29453,0.44126c-0.50165,0.87612 -0.88328,1.76393 -1.41434,2.62736c-0.21656,0.35211 -0.52818,1.15233 -1.07874,1.10033c-0.34015,-0.03212 -0.49195,-0.47913 -0.69214,-0.75599c-0.76212,-1.05395 -0.9052,-2.25883 -1.16797,-3.48353c0,0 -0.10431,-0.48678 0.38248,-0.59109c0.48678,-0.10431 0.59109,0.38247 0.59109,0.38247c0.18771,0.87703 0.26566,1.65059 0.66534,2.46802c0.0767,0.15687 0.2388,0.37975 0.33796,0.57597c0.03723,-0.08201 0.07731,-0.15817 0.10835,-0.20869c0.17028,-0.27711 0.36784,-0.53724 0.53097,-0.81862c0.33775,-0.58259 0.55294,-1.22868 0.89005,-1.81968l0.31305,-0.47011c0,0 0.27615,-0.41422 0.69037,-0.13807z" fill="#5d5d5d" stroke="none" stroke-width="0.5" stroke-linecap="butt"/><path d="M178.98386,205.92604c-0.48981,0.08906 -0.57886,-0.40075 -0.57886,-0.40075l-0.0897,-0.50232c-0.06457,-0.65046 -0.06745,-1.47602 -0.20432,-2.09399c-0.01599,-0.07218 -0.03755,0.1571 -0.09873,0.19859c-0.13409,0.09093 -0.30871,0.10234 -0.45318,0.17565c-0.58172,0.29519 -1.13314,0.64664 -1.70103,0.96763c0,0 -0.43339,0.24496 -0.67836,-0.18843c-0.24496,-0.43339 0.18843,-0.67836 0.18843,-0.67836c0.71828,-0.40599 1.49124,-1.01607 2.30555,-1.21282c0.29854,-0.07213 0.66186,-0.31758 0.91103,-0.138c0.60497,0.436 0.65366,2.19883 0.72129,2.87066l0.0786,0.42329c0,0 0.08906,0.4898 -0.40076,0.57886z" fill="#5d5d5d" stroke="none" stroke-width="0.5" stroke-linecap="butt"/><path d="M164.73118,204.50572c0.08906,-0.48981 0.57885,-0.40074 0.57885,-0.40074l0.41194,0.07758c0.37906,0.02943 0.75967,0.04083 1.13987,0.0406c2.4261,0 4.80522,0.80281 7.19454,0.79939c1.24692,-0.00178 2.18654,0.27222 2.90379,-0.86335c0,0 0.26727,-0.42 0.68727,-0.15273c0.42,0.26727 0.15273,0.68727 0.15273,0.68727c-0.85846,1.34038 -1.76535,1.32446 -3.23892,1.32446c-2.58059,0 -5.09707,-0.79939 -7.69941,-0.79939c-0.40567,-0.00023 -0.81174,-0.01269 -1.21624,-0.04354l-0.51368,-0.09071c0,0 -0.48981,-0.08905 -0.40075,-0.57885z" fill="#5d5d5d" stroke="none" stroke-width="0.5" stroke-linecap="butt"/><path d="M238.70722,111.20876v96.86331h-31.91085v-96.86331z" fill="#9e9898" stroke="none" stroke-width="0" stroke-linecap="butt"/><path d="M416.0827,113.86781v92.56612h-24.5402v-92.56612z" fill="#9e9898" stroke="none" stroke-width="0" stroke-linecap="butt"/><path d="M308.03163,202.91994v-64.45183h60.86558v64.45183z" fill="#9e9898" stroke="none" stroke-width="0" stroke-linecap="butt"/><path d="M335.49413,183.75452l6.61998,-31.52025l25.70801,5.39928l-6.61999,31.52025z" fill="#be9c62" stroke="none" stroke-width="0" stroke-linecap="butt"/><text transform="translate(342.2877,156.70202) rotate(10.23498) scale(0.08619,0.08619)" font-size="40" xml:space="preserve" fill="#ffe2b1" stroke="none" stroke-width="1" stroke-linecap="butt" font-family="Sans Serif" font-weight="normal" text-anchor="start"><tspan x="0" dy="0">Para agarrar </tspan><tspan x="0" dy="48px">cosas</tspan><tspan x="0" dy="48px">Presione G</tspan><tspan x="0" dy="48px">y para soltar</tspan><tspan x="0" dy="48px">Presione H</tspan></text><g fill="#5d5d5d" stroke="none" stroke-width="0.5" stroke-linecap="butt"><path d="M357.07834,144.08713c-0.35755,0.35755 -0.71509,0 -0.71509,0l-0.22202,-0.22202c-1.28254,-1.28612 -3.02991,-2.03136 -4.13269,-3.49724c0.00714,0.01677 0.01138,0.03225 0.011,0.04485c-0.00809,0.26788 -0.30069,1.00328 -0.3605,1.22647c-0.25338,0.94539 -0.13108,2.00977 -0.13108,2.97849c0,0 -0.00001,0.50565 -0.50565,0.50565c-0.50564,0 -0.50564,-0.50565 -0.50564,-0.50565c0,-1.38974 -0.00422,-2.57544 0.3902,-3.9157c0.10074,-0.34235 0.25604,-1.39605 0.71695,-1.45501c0.69549,-0.08897 1.2886,0.7525 1.7339,1.14561c1.1238,0.9921 2.43624,1.69782 3.4986,2.75746l0.22202,0.22202c0,0 0.35755,0.35755 0,0.7151z"/><path d="M356.26313,152.11723c-0.00789,0.10176 -0.06667,0.48075 -0.50444,0.48075c-0.50564,0 -0.50565,-0.50564 -0.50565,-0.50564l0.04089,-0.27319c0.94074,-2.06626 -0.36983,-5.73404 -2.18392,-6.92874c0,0 -0.42073,-0.28049 -0.14025,-0.70121c0.28048,-0.42072 0.70121,-0.14024 0.70121,-0.14024c2.22375,1.49792 3.57932,5.47677 2.59215,8.06828z"/></g><g stroke="none" stroke-linecap="butt"><path d="M343.91076,184.97438c0,0 -0.05715,-1.87979 0.16512,-3.05489c0.11312,-0.59804 0.25802,-1.73405 0.39671,-2.73521c0.24338,-1.75682 0.43574,-3.49432 0.43574,-3.49432c0,0 2.97139,0.26556 4.41473,0.42945c1.64604,0.1869 4.93356,0.632 4.93356,0.632c0,0 -0.53165,3.37454 -0.69602,4.94409c-0.15718,1.5009 -0.26961,4.27645 -0.26961,4.27645c0,0 -1.99844,-0.42453 -3.31793,-0.56486c-0.74403,-0.07913 -2.08743,-0.10763 -3.25806,-0.18667c-1.51441,-0.10225 -2.80424,-0.24604 -2.80424,-0.24604z" fill="#ffe2b1" stroke-width="0"/><g fill="#be9c62" stroke-width="0.5"><path d="M350.94158,178.66485c0.01564,-0.14705 0.14753,-0.25358 0.29458,-0.23795c0.14705,0.01564 0.25359,0.14753 0.23795,0.29457c-0.01564,0.14705 -0.14753,0.25358 -0.29457,0.23794c-0.14705,-0.01564 -0.25358,-0.14753 -0.23795,-0.29457z"/><path d="M346.56834,178.21933c0.01564,-0.14705 0.14753,-0.25358 0.29458,-0.23795c0.14705,0.01564 0.25358,0.14753 0.23795,0.29457c-0.01564,0.14705 -0.14752,0.25358 -0.29457,0.23795c-0.14705,-0.01564 -0.25358,-0.14753 -0.23795,-0.29457z"/><path d="M351.71857,183.16785c-0.0854,0.25378 -0.33918,0.16837 -0.33918,0.16837l-0.13177,-0.04741c-0.39371,-0.07128 -0.94661,-0.15983 -1.23604,-0.46522c-0.1015,-0.1071 -0.18022,-0.21661 -0.23874,-0.3274c-0.82916,0.41989 -1.76532,0.06675 -2.37395,-0.59942c-0.0265,0.09051 -0.06101,0.18124 -0.10414,0.27188c-0.21194,0.44544 -0.72694,0.65481 -1.13299,0.86728l-0.17179,0.02696c0,0 -0.26626,-0.02831 -0.23795,-0.29457c0.01814,-0.17051 0.13385,-0.22022 0.21473,-0.23391c0.29057,-0.14375 0.7128,-0.30185 0.85156,-0.61028c0.30279,-0.673 -0.04531,-1.34218 -0.55778,-1.79909c0,0 -0.19797,-0.18029 -0.01768,-0.37826c0.18029,-0.19797 0.37826,-0.01768 0.37826,-0.01768c0.40523,0.37529 0.71905,0.84988 0.81562,1.36289c0.06604,0.04044 0.10204,0.10082 0.10204,0.10082c0.40257,0.67738 1.35077,1.28824 2.09788,0.77294c-0.0081,-0.85881 0.93394,-1.68508 1.66311,-1.95839c0,0 0.25081,-0.09375 0.34456,0.15706c0.09375,0.25081 -0.15707,0.34456 -0.15707,0.34456c-0.65937,0.24571 -1.05035,0.47098 -1.19054,1.18146c-0.01057,0.05359 -0.02171,0.10827 -0.03086,0.16318c0.01987,0.07663 -0.00418,0.15034 -0.01975,0.18655c-0.00366,0.14668 0.02825,0.28786 0.14596,0.40657c0.21039,0.21216 0.67176,0.2657 0.94999,0.31494l0.20815,0.06699c0,0 0.25378,0.0854 0.16837,0.33917z"/></g></g><path d="M312.3884,174.37461l-2.71496,-27.70142l22.59335,-2.21433l2.71496,27.70142z" fill="#be9c62" stroke="none" stroke-width="0" stroke-linecap="butt"/><text transform="translate(310.00898,149.24196) rotate(-7.22141) scale(0.06193,0.06193)" font-size="40" xml:space="preserve" fill="#ffe2b1" stroke="none" stroke-width="1" stroke-linecap="butt" font-family="Sans Serif" font-weight="normal" text-anchor="start"><tspan x="0" dy="0">Cuando cambias</tspan><tspan x="0" dy="48px">a robot, el humano</tspan><tspan x="0" dy="48px">se queda ahi</tspan></text><g fill="#ffe2b1" stroke="none" stroke-width="0" stroke-linecap="butt"><path d="M320.93883,171.93865c-3.34979,0.31533 -5.93579,0.61363 -6.05468,-0.64932c-0.11889,-1.26296 2.50026,-2.54243 5.85005,-2.85776c3.34979,-0.31533 6.1617,0.45286 6.28059,1.71582c0.11889,1.26296 -2.72618,1.47593 -6.07596,1.79127z"/><path d="M315.04416,172.98906l-0.27285,-2.89847l12.13063,-1.14194l0.27284,2.89847z"/></g><path d="M321.20253,164.84868c-0.20835,0.02561 -0.23397,-0.18274 -0.23397,-0.18274l-0.0107,-0.08701c-0.0628,-0.51105 -0.10928,-1.01256 -0.25344,-1.50823c-0.13736,-0.47232 -0.31011,-0.93848 -0.47849,-1.40623c0.06479,0.55543 0.13825,1.11028 0.20641,1.66456c0.02449,0.03941 0.0301,0.08329 0.02989,0.11616c0.00074,0.00252 0.00108,0.00391 0.00108,0.00391c0.15162,0.62236 0.48487,1.14847 0.68971,1.75315c0.32427,0.95719 0.51081,1.96686 0.6337,2.9668c0.00444,0.03608 0.00886,0.07216 0.01329,0.10823c0.04131,0.04221 0.07428,0.10961 0.03876,0.20961c-0.07028,0.19781 -0.26808,0.12753 -0.26808,0.12753l-0.17502,-0.18532c-0.00855,-0.06961 -0.01711,-0.13922 -0.02567,-0.20883c-0.11964,-0.97353 -0.30038,-1.95359 -0.61547,-2.88578c-0.1208,-0.35742 -0.28447,-0.68734 -0.43094,-1.02548c-0.06156,0.60491 -0.06175,1.22573 -0.11738,1.8219c-0.07283,0.7804 -0.20234,1.562 -0.21948,2.345c0.00812,0.06466 0.01625,0.12933 0.02437,0.19399l0.01069,0.08701c0,0 0.0256,0.20835 -0.18275,0.23395c-0.20835,0.02561 -0.23395,-0.18275 -0.23395,-0.18275l-0.0107,-0.08701c-0.00899,-0.07455 -0.01797,-0.14911 -0.02695,-0.22366c0.01419,-0.8046 0.14613,-1.60639 0.22099,-2.40801c0.08044,-0.86144 0.05461,-1.76317 0.24142,-2.60914c-0.00368,-0.01418 -0.00479,-0.02328 -0.00479,-0.02328l-0.00856,-0.06961c-0.11066,-0.90052 -0.239,-1.80336 -0.31488,-2.70717c-0.00343,-0.04092 -0.00552,-0.08148 -0.0066,-0.12177c-0.16684,0.61638 -0.36546,1.22497 -0.5093,1.84761c-0.22578,0.97742 -0.26497,2.05644 -0.29511,3.05967l0.02205,0.15944c0,0 0.0256,0.20835 -0.18275,0.23395c-0.20835,0.02561 -0.23395,-0.18275 -0.23395,-0.18275l-0.02499,-0.2234c0.03171,-1.03236 0.07509,-2.13482 0.30561,-3.14103c0.21352,-0.93201 0.55552,-1.83176 0.72319,-2.77423c0,0 0.00077,-0.00433 0.00271,-0.01161c-0.12433,-0.06523 -0.23989,-0.13865 -0.3503,-0.21882c-0.0787,-0.01809 -0.15685,-0.038 -0.23311,-0.06433c-0.59534,-0.20555 -0.95188,-0.71972 -1.1857,-1.27569c-0.15584,-0.37053 -0.3532,-0.90655 -0.07544,-1.28689c0.37197,-0.50935 1.2978,-0.53245 1.86297,-0.56084c0.47044,0.02994 1.13656,0.09811 1.49823,0.43978c0.12013,0.11347 0.26291,0.36799 0.34037,0.50461c0.3874,0.68331 0.50707,1.89751 -0.27482,2.37469c-0.25567,0.15603 -0.63054,0.18157 -0.9652,0.20092c0.00905,0.09618 0.01065,0.19059 0.00895,0.28424c0.21995,1.03335 0.68488,2.01972 0.97968,3.03168c0.15058,0.51689 0.20097,1.03949 0.26644,1.57225l0.01069,0.08701c0,0 0.0256,0.20835 -0.18275,0.23395zM319.7638,159.19961c0.03129,0.01568 0.06318,0.03076 0.09573,0.04517c0.29256,-0.04699 0.75055,-0.00443 1.00572,-0.16409c0.42235,-0.26425 0.37047,-0.7209 0.31954,-1.13637c-0.0488,-0.39813 -0.15951,-0.78503 -0.45651,-1.08229c-0.11897,-0.11907 -0.16652,-0.10015 -0.3262,-0.14645c-0.30284,-0.08781 -0.56862,-0.15649 -0.88368,-0.17621c-0.36778,0.0191 -0.74179,0.04824 -1.09253,0.16681c-0.09961,0.03367 -0.3424,0.10831 -0.42598,0.21784c-0.17779,0.23297 0.03318,0.6758 0.12013,0.87953c0.08076,0.18924 0.176,0.37829 0.2964,0.54522c0.08622,-0.07378 0.20558,-0.03137 0.20558,-0.03137l0.11337,0.06078c0.19599,0.19154 0.38335,0.37723 0.58884,0.53854c0.09617,0.02133 0.19271,0.0414 0.2872,0.06879c0,0 0.17038,0.04948 0.15238,0.2141z" fill="#ffe2b1" stroke="none" stroke-width="0.5" stroke-linecap="butt"/><path d="M317.47797,169.23509v-13.35754h7.29778v13.35754z" fill-opacity="0" fill="#9e9898" stroke="none" stroke-width="0" stroke-linecap="butt"/><g stroke="none" stroke-width="0" stroke-linecap="butt"><g fill="#d8bc8d"><path d="M327.25353,156.85165c0,0.49479 -0.13472,0.89591 -0.30089,0.89591c-0.16617,0 -0.30089,-0.40111 -0.30089,-0.89591c0,-0.49479 0.13471,-0.89591 0.30089,-0.89591c0.16617,0 0.30089,0.40111 0.30089,0.89591z"/><path d="M328.76524,157.5865c0,0.07813 0.03828,0.14071 -0.06454,0.19634c-0.14292,0.07732 -0.47687,0.13378 -0.83846,0.13378c-0.62176,0 -0.9521,-0.11911 -1.05142,-0.27722c-0.15552,-0.24757 0.42966,-0.39894 1.05142,-0.39894c0.31411,0 0.64078,0.04862 0.78872,0.11293c0.1449,0.06299 0.11429,0.14071 0.11429,0.2331z"/><path d="M328.8794,157.56466c0,0.25048 0.00684,0.44956 -0.10741,0.44956c-0.11425,0 -0.20688,-0.20306 -0.20688,-0.45354c0,-0.25048 0.09264,-0.45353 0.20688,-0.45353c0.11425,0 0.10741,0.20704 0.10741,0.45751z"/><path d="M328.86983,157.08929c0.15271,0 0.32424,0.07428 0.32424,0.15118c0,0.0769 -0.12378,0.13925 -0.2765,0.13925c-0.15271,0 -0.2765,-0.06234 -0.2765,-0.13925c0,-0.0769 0.07606,-0.15118 0.22876,-0.15118z"/><path d="M328.64106,157.89425c0,-0.0769 0.1238,-0.13924 0.2765,-0.13924c0.15271,0 0.2765,0.06234 0.2765,0.13924c0,0.0769 -0.17153,0.15118 -0.32424,0.15118c-0.15271,0 -0.22876,-0.07428 -0.22876,-0.15118z"/></g><path d="M330.77249,156.21429c0,0.82587 -0.77844,0.37384 -2.12299,0.37384c-1.34455,0 -2.74606,0.45203 -2.74606,-0.37384c0,-0.82587 1.08998,-1.49537 2.43453,-1.49537c1.34455,0 2.43453,0.6695 2.43453,1.49538z" fill="#ffe2b1"/><g fill="#ffe2b1"><path d="M328.16705,154.88245c-0.01959,0.00051 -0.00774,-0.03731 -0.00975,-0.06433c-0.00834,-0.11235 -0.05853,-0.85529 -0.05853,-0.85529l0.4101,-0.03045c0,0 0.05618,0.69542 0.06539,0.81933c0.00256,0.03449 0.03029,0.09215 0.0029,0.10028c-0.02482,0.00737 -0.04188,0.01181 -0.06481,0.01351c-0.04754,0.00353 -0.19513,0.01472 -0.28317,0.02126c-0.03037,0.00226 -0.00057,0.00664 -0.06213,-0.00431z"/><path d="M329.56373,153.95882c0,0.13765 -0.31524,0.24923 -0.70408,0.24923c-0.38884,0 -0.70407,-0.11159 -0.70407,-0.24923c0,-0.13765 0.31522,-0.24923 0.70407,-0.24923c0.38884,0 0.70408,0.11159 0.70408,0.24923z"/><path d="M327.84196,153.70954c0.38884,0 0.70407,0.11159 0.70407,0.24923c0,0.13765 -0.31523,0.24923 -0.70407,0.24923c-0.38884,0 -0.70407,-0.11159 -0.70407,-0.24923c0,-0.13765 0.31522,-0.24923 0.70407,-0.24923z"/></g><g fill="#ffe2b1"><path d="M328.52469,156.83902c0,0.49479 -0.13471,0.89591 -0.30089,0.89591c-0.16617,0 -0.30089,-0.40111 -0.30089,-0.89591c0,-0.49479 0.13472,-0.89591 0.30089,-0.89591c0.16617,0 0.30089,0.40111 0.30089,0.89591z"/><path d="M330.0364,157.5738c0,0.07813 0.03828,0.14071 -0.06454,0.19635c-0.14292,0.07732 -0.47687,0.13378 -0.83846,0.13378c-0.62176,0 -0.95211,-0.11911 -1.05143,-0.27722c-0.15552,-0.24757 0.42966,-0.39893 1.05143,-0.39893c0.31411,0 0.64078,0.04861 0.78872,0.11293c0.1449,0.06299 0.11429,0.14071 0.11429,0.2331z"/><path d="M330.15056,157.55203c0,0.25048 0.00685,0.44956 -0.10741,0.44956c-0.11425,0 -0.20688,-0.20306 -0.20688,-0.45353c0,-0.25048 0.09262,-0.45354 0.20688,-0.45354c0.11425,0 0.10741,0.20704 0.10741,0.45752z"/><path d="M330.14099,157.07666c0.15271,0 0.32424,0.07428 0.32424,0.15118c0,0.0769 -0.1238,0.13925 -0.2765,0.13925c-0.15271,0 -0.2765,-0.06234 -0.2765,-0.13925c0,-0.0769 0.07606,-0.15118 0.22876,-0.15118z"/><path d="M329.91223,157.88155c0,-0.0769 0.12379,-0.13924 0.2765,-0.13924c0.15271,0 0.2765,0.06234 0.2765,0.13924c0,0.0769 -0.17153,0.15118 -0.32424,0.15118c-0.15271,0 -0.22876,-0.07428 -0.22876,-0.15118z"/></g></g><path d="M38.14673,117.87343v92.56612h-154.17195v-92.56612z" fill="#9e9898" stroke="none" stroke-width="0" stroke-linecap="butt"/><path d="M-116.02522,374.23753v-136.64148h886.45215v136.64148z" fill="#9e9898" stroke="none" stroke-width="0" stroke-linecap="butt"/><path d="M445.78672,101.99732v104.4366h-34.23097v-104.4366z" fill="#9e9898" stroke="none" stroke-width="0" stroke-linecap="butt"/><path d="M763.16877,0.00003v205.42325h-154.17195v-205.42322z" fill="#9e9898" stroke="none" stroke-width="0" stroke-linecap="butt"/><path d="M211.73145,-47.69539v169.36875h-309.06811v-169.36874z" fill="#9e9898" stroke="none" stroke-width="0" stroke-linecap="butt"/><path d="M362.16972,-20.11955v136.65422h-178.38457v-136.65422z" fill="#9e9898" stroke="none" stroke-width="0" stroke-linecap="butt"/><path d="M416.80964,-25.99306v142.52774h-62.88721v-142.52774z" fill="#9e9898" stroke="none" stroke-width="0" stroke-linecap="butt"/><path d="M582.19717,-16.03942v108.12722h-178.38457v-108.12721z" fill="#9e9898" stroke="none" stroke-width="0" stroke-linecap="butt"/><path d="M770.42693,-16.03942v108.12722h-192.20123v-108.12721z" fill="#9e9898" stroke="none" stroke-width="0" stroke-linecap="butt"/><path d="M487.32089,202.70013v-9.19037h90.90482v9.19037z" fill="#9e9898" stroke="none" stroke-width="0" stroke-linecap="butt"/><path d="M487.32089,182.45477v-11.43186h73.69268v11.43186z" fill="#9e9898" stroke="none" stroke-width="0" stroke-linecap="butt"/><path d="M487.32089,158.98399v-56.98669h90.46231v56.98669z" fill="#9e9898" stroke="none" stroke-width="0" stroke-linecap="butt"/><path d="M573.36923,202.70013v-100.70282h8.82794v100.70282z" fill="#9e9898" stroke="none" stroke-width="0" stroke-linecap="butt"/><path d="M487.32089,176.73884v-74.74151h8.82794v74.74151z" fill="#9e9898" stroke="none" stroke-width="0" stroke-linecap="butt"/><path d="M495.80535,142.40357l-0.91898,-27.52015l22.44551,-0.74952l0.91898,27.52014z" fill="#be9c62" stroke="none" stroke-width="0" stroke-linecap="butt"/><text transform="translate(495.3835,119.40242) rotate(-1.88318) scale(0.08049,0.09353) skewX(-0.56873)" font-size="40" xml:space="preserve" fill="#ffe2b1" stroke="none" stroke-width="1" stroke-linecap="butt" font-family="Sans Serif" font-weight="normal" text-anchor="start"><tspan x="0" dy="0">Las llaves</tspan><tspan x="0" dy="48px">abren puertas</tspan><tspan x="0" dy="48px">amarillas</tspan></text><path d="M499.58535,139.17561v-9.11253h15.83844v9.11253z" fill="none" stroke="none" stroke-width="NaN" stroke-linecap="butt"/><g fill="#be9c62" stroke-linecap="butt"><path d="M500.82829,131.317c1.91125,-0.26891 3.67862,1.06246 3.94753,2.9737c0.26891,1.91125 -1.06246,3.67862 -2.97371,3.94753c-1.91125,0.26891 -3.67861,-1.06246 -3.94753,-2.9737c-0.26891,-1.91125 1.06246,-3.67861 2.9737,-3.94753zM501.42987,135.98631c0.64968,-0.09141 1.10226,-0.69219 1.01085,-1.34188c-0.09141,-0.64968 -0.69219,-1.10226 -1.34188,-1.01085c-0.64968,0.09141 -1.10226,0.69219 -1.01085,1.34188c0.09141,0.64969 0.69219,1.10226 1.34188,1.01085z" stroke="#ffe2b1" stroke-width="2"/><path d="M504.98373,135.76837l-0.39214,-2.78707l7.83167,-1.10192l0.39214,2.78707z" stroke="#ffe2b1" stroke-width="2"/><path d="M512.00717,137.84456l-0.37253,-2.64772l1.3539,-0.19049l0.37254,2.64772z" stroke="#ffe2b1" stroke-width="1.5"/><path d="M508.9052,138.281l-0.37254,-2.64772l1.35389,-0.19049l0.37255,2.64772z" stroke="#ffe2b1" stroke-width="1.5"/><path d="M505.88872,138.70542l-0.37254,-2.64772l1.35389,-0.19049l0.37255,2.64772z" stroke="#ffe2b1" stroke-width="1.5"/><path d="M506.00711,136.95873l-0.31802,-2.26027l0.63972,-0.09001l0.31802,2.26027z" stroke="#a39300" stroke-width="0"/><path d="M509.01298,136.45891l-0.31802,-2.26027l0.63972,-0.09001l0.31803,2.26027z" stroke="#a39300" stroke-width="0"/><path d="M512.17401,136.44218l-0.55815,-3.96688l0.63972,-0.09001l0.55815,3.96688z" stroke="#a39300" stroke-width="0"/><path d="M504.22021,135.57655l-0.2711,-2.10565l8.30647,-1.27727l0.27109,2.10565z" stroke="none" stroke-width="0"/></g><path d="M529.10889,142.45542l4.10954,-33.5348l27.35108,3.35174l-4.10952,33.5348z" fill="#be9c62" stroke="none" stroke-width="0" stroke-linecap="butt"/><text transform="translate(533.60117,115.04676) rotate(7.01607) scale(0.08056,0.09362) skewX(-0.56945)" font-size="40" xml:space="preserve" fill="#ffe2b1" stroke="none" stroke-width="1" stroke-linecap="butt" font-family="Sans Serif" font-weight="normal" text-anchor="start"><tspan x="0" dy="0">Todos los niveles</tspan><tspan x="0" dy="48px">tienen 3 zonas</tspan></text><g fill="#ffe2b1" stroke="none" stroke-width="0.5" stroke-linecap="butt"><path d="M541.73783,130.57693c-0.37284,0.16717 -0.54002,-0.20565 -0.54002,-0.20565l-0.18174,-0.40537c-0.03672,-0.08731 -0.21923,-0.77151 -0.30652,-1.13162c-0.04399,0.48185 -0.54535,1.52309 -0.59655,1.66676c0,0 -0.13718,0.38489 -0.52206,0.24771c-0.38488,-0.13718 -0.24771,-0.52206 -0.24771,-0.52206c0.25698,-0.72095 0.77563,-3.38446 1.96663,-1.96337c0.31038,0.37034 0.26612,0.93162 0.45541,1.3762l0.17822,0.3974c0,0 0.16718,0.37284 -0.20566,0.54001z"/><path d="M548.10822,132.98667c-0.38456,0.13809 -0.52265,-0.24648 -0.52265,-0.24648l-0.08061,-0.22522c-0.34813,-0.87554 -0.58889,-1.75522 -0.83191,-2.66298c-0.22487,0.67276 -0.42956,1.35305 -0.72924,1.99236c0,0 -0.17428,0.36957 -0.54385,0.19529c-0.36957,-0.17428 -0.19529,-0.54385 -0.19529,-0.54385c0.40046,-0.84349 0.62462,-1.77265 0.95914,-2.64882l0.01512,-0.01611l-0.00606,-0.00306l0.19475,-0.38559c0.07328,-0.15396 0.2388,-0.25136 0.41749,-0.23001c0.16197,0.01935 0.29042,0.13095 0.33908,0.27596l0.16804,0.46796l-0.08916,0.03202c0.46708,1.01951 0.63566,2.15522 1.06123,3.22481l0.0904,0.25107c0,0 0.13808,0.38456 -0.24647,0.52265z"/><path d="M542.91881,133.40618c-0.38373,-0.06261 -0.76479,-0.13549 -1.14166,-0.2232c0,0 -0.39789,-0.09297 -0.30491,-0.49086c0.09298,-0.39789 0.49086,-0.30491 0.49086,-0.30491c1.8884,0.44316 3.88907,0.53806 5.81408,0.76804c0.39952,0.04773 1.72721,0.05041 1.95313,0.37885c0.31527,0.45835 -0.40427,1.31264 -0.61285,1.55934c-0.88362,1.04519 -2.07974,1.43179 -3.40907,1.55433c-0.66262,0.05188 -2.26618,0.27256 -2.77632,-0.34407c-0.60465,-0.73087 -0.3222,-2.06322 -0.01326,-2.89753zM543.78465,133.53154c-0.02202,0.09403 -0.06576,0.15875 -0.11754,0.20317c-0.20729,0.56022 -0.46276,1.53606 -0.13804,2.01098c0.22642,0.33115 1.79592,0.11266 2.11059,0.08779c0.77666,-0.06817 1.7183,-0.20833 2.33517,-0.74148c0.18654,-0.16122 0.35867,-0.33968 0.51916,-0.52685c0.13249,-0.15452 0.22492,-0.34164 0.3563,-0.49646c-0.54466,0.13762 -1.55012,-0.14739 -1.98149,-0.19893c-1.01943,-0.12178 -2.05707,-0.20594 -3.08414,-0.33822z"/><path d="M544.04499,136.41298c-0.32115,0.25261 -0.57377,-0.06855 -0.57377,-0.06855l-0.07199,-0.10159c-0.59678,-1.16163 -0.22607,-2.41414 0.77128,-3.20799c0,0 0.32117,-0.25261 0.57378,0.06855c0.25261,0.32115 -0.06856,0.57376 -0.06856,0.57376c-0.67155,0.52053 -1.00128,1.39713 -0.55615,2.17975l-0.00603,-0.01773c0,0 0.25261,0.32117 -0.06856,0.57378z"/><path d="M546.01541,136.28717c-0.33725,0.23069 -0.56793,-0.10656 -0.56793,-0.10656l-0.29331,-0.50166c-0.12102,-0.85952 0.10159,-1.56576 0.35258,-2.38108c0,0 0.12027,-0.39051 0.51076,-0.27024c0.39051,0.12027 0.27024,0.51077 0.27024,0.51077c-0.2116,0.68678 -0.43991,1.29599 -0.32522,2.02057l0.15945,0.16025c0,0 0.23068,0.33725 -0.10656,0.56794z"/><path d="M549.11751,133.83553c0.05246,0.11744 0.03807,0.23779 0.03807,0.23779l-0.03737,0.29871c-0.11528,0.2354 -0.08763,0.66126 -0.34587,0.70621c-1.49465,0.26014 -0.75869,-1.30333 -0.28136,-1.63707c0,0 0.35001,-0.21082 0.56084,0.13918c0.05784,0.09603 0.07347,0.18158 0.06569,0.25518z"/></g><path d="M552.67955,131.69889c0,4.8347 -3.9345,8.754 -8.78794,8.754c-4.85343,0 -8.78791,-3.9193 -8.78791,-8.754c0,-4.8347 3.93448,-8.754 8.78791,-8.754c4.85343,0 8.78794,3.9193 8.78794,8.754z" fill="none" stroke="#ffe2b1" stroke-width="1.5" stroke-linecap="butt"/><path d="M499.88934,163.298c1.18041,0 2.13731,0.9569 2.13731,2.1373c0,1.18041 -0.95691,2.13731 -2.13731,2.13731c-1.18041,0 -2.13731,-0.9569 -2.13731,-2.13731c0,-1.18041 0.95691,-2.1373 2.13731,-2.1373zM499.85579,166.17712c0.40125,0 0.72653,-0.32528 0.72653,-0.72653c0,-0.40125 -0.32527,-0.72654 -0.72653,-0.72654c-0.40125,0 -0.72654,0.32528 -0.72654,0.72654c0,0.40125 0.32528,0.72653 0.72654,0.72653z" fill="#ffe500" stroke="#a39300" stroke-width="0.5" stroke-linecap="butt"/><path d="M506.86357,164.62662v1.72133h-4.83691v-1.72133z" fill="#ffe500" stroke="#a39300" stroke-width="0.5" stroke-linecap="butt"/><path d="M506.10328,168.2038v-1.63526h0.76029v1.63526z" fill="#ffe500" stroke="#a39300" stroke-width="0.5" stroke-linecap="butt"/><path d="M502.32447,168.2038v-1.63526h0.83618v1.63526z" fill="#ffe500" stroke="#a39300" stroke-width="0.5" stroke-linecap="butt"/><path d="M504.18748,168.2038v-1.63526h0.83618v1.63526z" fill="#ffe500" stroke="#a39300" stroke-width="0.5" stroke-linecap="butt"/><path d="M502.545,167.15607v-1.39596h0.3951v1.39596z" fill="#ffe500" stroke="#a39300" stroke-width="0" stroke-linecap="butt"/><path d="M504.40801,167.10944v-1.39596h0.3951v1.39596z" fill="#ffe500" stroke="#a39300" stroke-width="0" stroke-linecap="butt"/><path d="M506.32382,167.36865v-2.44998h0.39509v2.44998z" fill="#ffe500" stroke="#a39300" stroke-width="0" stroke-linecap="butt"/><path d="M501.58876,166.10863v-1.18995h5.13016v1.18995z" fill="#ffe500" stroke="none" stroke-width="0" stroke-linecap="butt"/><path d="M497.04205,168.80235v-6.10288h10.60738v6.10288z" fill="none" stroke="none" stroke-width="NaN" stroke-linecap="butt"/><g stroke="none" stroke-linecap="butt"><path d="M344.64227,138.4916v-8.87626h8.87626v8.87626z" fill="#00a9ff" stroke-width="0"/><g fill="#003753" stroke-width="0.5"><path d="M350.71263,131.87552c0,-0.13915 0.1128,-0.25195 0.25195,-0.25195c0.13915,0 0.25196,0.1128 0.25196,0.25195c0,0.13915 -0.11281,0.25196 -0.25196,0.25196c-0.13915,0 -0.25195,-0.11281 -0.25195,-0.25196z"/><path d="M346.57628,131.8938c0,-0.13915 0.1128,-0.25195 0.25195,-0.25195c0.13915,0 0.25195,0.1128 0.25195,0.25195c0,0.13915 -0.1128,0.25195 -0.25195,0.25195c-0.13915,0 -0.25195,-0.1128 -0.25195,-0.25195z"/><path d="M351.88773,136.01157c-0.05466,0.24596 -0.30061,0.19129 -0.30061,0.19129l-0.12802,-0.03124c-0.37549,-0.02751 -0.90163,-0.05536 -1.20284,-0.31231c-0.10563,-0.09011 -0.19019,-0.18475 -0.25597,-0.28259c-0.73405,0.47539 -1.64515,0.23812 -2.28093,-0.32464c-0.01579,0.08733 -0.03905,0.17565 -0.07039,0.26475c-0.15398,0.43788 -0.61503,0.68504 -0.97382,0.92425l-0.15806,0.04232c0,0 -0.25195,0 -0.25195,-0.25195c0,-0.16135 0.10332,-0.21937 0.17764,-0.24024c0.25758,-0.16342 0.63693,-0.35337 0.73608,-0.65577c0.21634,-0.65985 -0.17596,-1.25136 -0.70094,-1.62788c0,0 -0.20318,-0.149 -0.05418,-0.35217c0.149,-0.20317 0.35217,-0.05418 0.35217,-0.05418c0.41652,0.31082 0.75738,0.72368 0.8988,1.19408c0.06581,0.03127 0.1055,0.08419 0.1055,0.08419c0.44409,0.59375 1.3921,1.07098 2.03988,0.51447c-0.09304,-0.80277 0.7062,-1.66965 1.36128,-1.99794c0,0 0.22535,-0.11268 0.33803,0.11267c0.11268,0.22536 -0.11268,0.33803 -0.11268,0.33803c-0.59252,0.29552 -0.93594,0.5452 -0.99642,1.22395c-0.00456,0.0512 -0.00953,0.10347 -0.01263,0.15575c0.02623,0.06973 0.01105,0.14109 0.00008,0.17652c0.01117,0.13761 0.05508,0.26654 0.17703,0.36589c0.21797,0.17758 0.65501,0.18176 0.92024,0.20015l0.20143,0.04197c0,0 0.24595,0.05465 0.19129,0.30061z"/></g></g></g></g></svg>