<svg version="1.1" xmlns="http://www.w3.org/2000/svg" xmlns:xlink="http://www.w3.org/1999/xlink" width="79.58288" height="79.58288" viewBox="0,0,79.58288,79.58288"><g transform="translate(-200.20856,-140.20856)"><g stroke-miterlimit="10"><path d="M214.88289,179.99528c0,-16.67761 11.06379,-30.19749 24.71167,-30.19749c4.08976,0 8.25155,-0.1036 11.64905,2.04568c7.94022,5.02304 13.06262,16.47186 13.06262,28.15181c0,12.83554 -6.35065,24.7129 -15.59175,29.08384c-2.76614,1.30836 -5.97582,1.11365 -9.11992,1.11365c-13.64787,0 -24.71167,-13.51988 -24.71167,-30.19749z" fill="#fff100" stroke="#a79b1c" stroke-width="2"/><path d="M224.14708,180.04596c0,-16.42571 9.17145,-29.74138 20.48502,-29.74138c11.31356,0 20.48502,13.31567 20.48502,29.74138c0,16.42571 -9.17145,29.74138 -20.48502,29.74138c-11.31356,0 -20.48502,-13.31567 -20.48502,-29.74138z" fill="#fff100" stroke="#a79b1c" stroke-width="2"/><path d="M200.20856,219.79144v-79.58288h79.58288v79.58288z" fill="none" stroke="none" stroke-width="0"/></g></g></svg>