<svg version="1.1" xmlns="http://www.w3.org/2000/svg" xmlns:xlink="http://www.w3.org/1999/xlink" width="36.5" height="21" viewBox="0,0,36.5,21"><g transform="translate(-221.75,-169.5)"><g stroke-miterlimit="10"><path d="M231.54752,171.55962c4.06177,0 7.35449,3.29271 7.35449,7.35448c0,4.06177 -3.29272,7.35448 -7.35449,7.35448c-4.06177,0 -7.35448,-3.29271 -7.35448,-7.35448c0,-4.06177 3.29271,-7.35448 7.35448,-7.35448zM231.43207,181.46662c1.38071,0 2.5,-1.11929 2.5,-2.5c0,-1.38071 -1.11929,-2.5 -2.5,-2.5c-1.38071,0 -2.5,1.11929 -2.5,2.5c0,1.38071 1.11929,2.5 2.5,2.5z" fill="#ffe500" stroke="#a39300" stroke-width="2"/><path d="M238.90201,182.05448v-5.92307h16.64382v5.92307z" fill="#ffe500" stroke="#a39300" stroke-width="2"/><path d="M252.92968,188.44038v-5.62692h2.87729v5.62692z" fill="#ffe500" stroke="#a39300" stroke-width="1.5"/><path d="M246.33739,188.44038v-5.62692h2.87729v5.62692z" fill="#ffe500" stroke="#a39300" stroke-width="1.5"/><path d="M239.92678,188.44038v-5.62692h2.87729v5.62692z" fill="#ffe500" stroke="#a39300" stroke-width="1.5"/><path d="M240.68565,184.8352v-4.80351h1.35953v4.80351z" fill="#ffe500" stroke="#a39300" stroke-width="0"/><path d="M247.09626,184.67489v-4.80351h1.35953v4.80351z" fill="#ffe500" stroke="#a39300" stroke-width="0"/><path d="M253.68855,185.56684v-8.43039h1.35953v8.43039z" fill="#ffe500" stroke="#a39300" stroke-width="0"/><path d="M237.39523,181.23107v-4.09462h17.65286v4.09462z" fill="#ffe500" stroke="none" stroke-width="0"/><path d="M221.75,190.5v-21h36.5v21z" fill="none" stroke="none" stroke-width="NaN"/></g></g></svg>