<svg version="1.1" xmlns="http://www.w3.org/2000/svg" xmlns:xlink="http://www.w3.org/1999/xlink" width="351.90782" height="218.83528" viewBox="0,0,351.90782,218.83528"><g transform="translate(-24.575,24.19241)"><g stroke-miterlimit="10"><path d="M376.48282,188.57849c0,0 -24.81999,-5.29878 -41.78758,-2.7693c-4.6001,0.68577 -8.2848,4.71484 -11.14772,6.25473c-10.78815,5.80263 -38.33247,0 -38.33247,0v-23.6511h90.17258z" fill="#5d5d5d" stroke="none" stroke-width="0" stroke-linecap="butt"/><path d="M293.52736,189.48846c0,0 12.53908,1.98028 25.06612,-0.45525c3.92971,-0.76402 5.7452,-3.80999 9.29088,-5.81811c2.10522,-1.19231 6.22031,-1.79842 7.92053,-1.94644c12.18951,-1.06118 35.8925,1.41455 35.8925,1.41455" fill="none" stroke="#ff0000" stroke-width="2.5" stroke-linecap="round"/><path d="M24.575,-23.44241c0,-0.41421 0.33579,-0.75 0.75,-0.75c0.41421,0 0.75,0.33579 0.75,0.75c0,0.41421 -0.33579,0.75 -0.75,0.75c-0.41421,0 -0.75,-0.33579 -0.75,-0.75z" fill="#ffe2b1" stroke="none" stroke-width="0.5" stroke-linecap="butt"/></g></g></svg>