<svg version="1.1" xmlns="http://www.w3.org/2000/svg" xmlns:xlink="http://www.w3.org/1999/xlink" width="108.61036" height="254.88375" viewBox="0,0,108.61036,254.88375"><g transform="translate(-24.57503,24.19237)"><g stroke="none" stroke-miterlimit="10"><path d="M97.07132,227.82584c-19.54436,0 -34.66233,0.31726 -34.66233,-7.05152c0,-7.36878 15.84385,-13.34235 35.38819,-13.34235c19.54436,0 35.38819,5.97357 35.38819,13.34235c0,7.36878 -16.56971,7.05152 -36.11405,7.05152z" fill="#a81212" stroke-width="0"/><path d="M62.40902,230.69138v-16.91118h70.77637v16.91118z" fill="#636363" stroke-width="0"/><path d="M24.57503,-23.44236c0,-0.41421 0.33579,-0.75 0.75,-0.75c0.41421,0 0.75,0.33579 0.75,0.75c0,0.41421 -0.33579,0.75 -0.75,0.75c-0.41421,0 -0.75,-0.33579 -0.75,-0.75z" fill="#ffe2b1" stroke-width="0.5"/><path d="" fill="#000000" stroke-width="0.5"/><path d="" fill="#000000" stroke-width="0.5"/></g></g></svg>