<svg version="1.1" xmlns="http://www.w3.org/2000/svg" xmlns:xlink="http://www.w3.org/1999/xlink" width="1126.08283" height="381.93797" viewBox="0,0,1126.08283,381.93797"><g transform="translate(260.6351,10.09947)"><g stroke-miterlimit="10"><path d="" fill="#000000" stroke="none" stroke-width="0.5" stroke-linecap="butt"/><path d="" fill="#000000" stroke="none" stroke-width="0.5" stroke-linecap="butt"/><path d="M-177.484,294.54186v-25.58083h4.86896v25.58083z" fill="#9e9898" stroke="none" stroke-width="0" stroke-linecap="butt"/><g stroke="none" stroke-linecap="butt"><path d="M683.95584,215.52777v-13.86167h19.74805v13.86167z" fill="#9700ff" stroke-width="0"/><path d="M686.98106,203.38656c0,-0.29717 0.27484,-0.53809 0.61389,-0.53809c0.33905,0 0.6139,0.24091 0.6139,0.53809c0,0.29717 -0.27485,0.53808 -0.6139,0.53808c-0.33905,0 -0.61389,-0.2409 -0.61389,-0.53808z" fill="#55008f" stroke-width="0.5"/><path d="M700.5352,208.68179c0,-0.29717 0.27484,-0.53808 0.61389,-0.53808c0.33905,0 0.6139,0.2409 0.6139,0.53808c0,0.29717 -0.27484,0.53808 -0.6139,0.53808c-0.33905,0 -0.61389,-0.2409 -0.61389,-0.53808z" fill="#55008f" stroke-width="0.5"/><path d="M687.23839,211.93394l0.02658,0.01553l0.07717,0.01691l0.09839,0.00664l0.23236,0.06788l0.03727,0.02079l0.04314,0.0084l0.01718,0.00753l0.24444,0.05356l0.0927,0.04334l0.09894,0.03097l0.0277,0.01619l0.20665,0.04529l0.05965,0.02788l0.066,0.01286l0.07745,0.03395l0.02945,0.02212l0.03654,0.01144l0.08438,0.04931l0.00424,0.00187l0.30715,0.08974l0.03728,0.02079l0.04313,0.0084l0.11588,0.05079l0.05242,0.01531l0.13202,0.02894l0.0927,0.04333l0.09894,0.03098l0.08438,0.04931l0.19817,0.08684l0.04237,0.03184l0.05142,0.01898l0.1549,0.10183l0.02684,0.02896l0.00997,0.00312l0.13415,0.02939l0.01032,0.01583l0.02326,0.00728l0.0277,0.01619l0.01579,0.00345l0.27303,0.02991l0.03511,0.01191h0.03764l0.41866,0.09175l0.35099,0.02797h2.15749l0.13401,-0.02349l0.02288,0.00096l0.02136,-0.00725l0.57632,-0.06315l0.3839,-0.09177l0.04166,-0.00078l0.03873,-0.01346l0.54665,-0.0639l0.42655,-0.09346l0.55812,-0.13045l0.36891,-0.10778l0.3553,-0.20762v-0.67706l-0.01068,-0.04681l-0.12779,-0.22399l-0.11428,-0.1252l-0.00714,-0.01364l-0.01304,-0.00973l-0.13416,-0.16463l-0.17976,-0.11255l-0.32814,-0.19174l-0.37149,-0.19537l-0.42024,-0.21487l-0.84569,-0.29005l-0.6604,-0.2251l-0.73057,-0.16009l-0.83773,-0.16688l-0.75909,-0.13306l-0.88307,-0.13461l-0.00727,-0.00283l-0.00794,0.00033l-0.71492,-0.12532h-0.57203l-0.40966,0.02992l-0.35383,0.05639l-0.25688,0.07505l-0.43135,0.20358l-0.18615,0.10877l-0.12441,0.08724l-0.0736,0.07742l-0.08012,0.23408l-0.02021,0.02978l-0.00681,0.03413l-0.1549,0.30549l-0.0088,0.00987l-0.0031,0.01223l-0.12477,0.21871l-0.12023,0.42154v0.55925l0.00268,0.00708c0.02275,0.05545 0.0354,0.11515 0.03602,0.17734l0.04161,0.00912l0.01032,0.01582zM685.96248,212.06483l-0.03425,-0.09006l-0.00756,-0.08624l-0.02393,-0.08391v-0.71282l0.01833,-0.06425v-0.06624l0.1549,-0.5431l0.03181,-0.05229l0.01467,-0.05785l0.14868,-0.26062l0.13342,-0.26312l0.08419,-0.24598l-0.00036,-0.00086l0.00174,-0.00314l0.01941,-0.05674l0.06289,-0.09271l0.0535,-0.09714l0.04326,-0.0455l0.00204,-0.003l0.00101,-0.00021l0.14731,-0.15494l0.05033,-0.03223l0.03779,-0.04346l0.19363,-0.13577l0.02469,-0.00992l0.01828,-0.01762l0.23236,-0.13577l0.02772,-0.00868l0.02176,-0.01738l0.50345,-0.2376l0.05182,-0.01155l0.0451,-0.02516l0.34853,-0.10183l0.04406,-0.00297l0.04026,-0.01596l0.42599,-0.06789l0.0302,0.00173l0.02864,-0.00854l0.46471,-0.03394l0.02571,0.00368l0.02527,-0.00554h0.65834l0.05932,0.01299l0.06107,-0.00254l0.76693,0.13444l0.88308,0.13461l0.00727,0.00283l0.00794,-0.00033l0.77452,0.13577l0.00743,0.00308l0.00823,-0.00016l0.85197,0.16972l0.00606,0.00268h0.00678l0.77452,0.16971l0.03465,0.0162l0.03896,0.00432l0.69707,0.2376l0.00054,0.00035l0.00066,0.00007l0.8907,0.30549l0.03931,0.0245l0.04631,0.01181l0.4647,0.2376l0.00279,0.00239l0.00374,0.00099l0.38727,0.20366l0.01058,0.00927l0.0141,0.00442l0.34854,0.20366l0.00683,0.00659l0.00946,0.00326l0.27108,0.16971l0.06566,0.06755l0.07707,0.05754l0.1839,0.22568l0.14445,0.15827l0.02722,0.05204l0.0425,0.04346l0.19363,0.33943l0.01779,0.07016l0.0351,0.06495l0.03872,0.16971l-0.00291,0.05353l0.01483,0.05199v0.98436l-0.02937,0.10298l0.01234,0.0397l-0.04059,0.05928l-0.01913,0.06707l-0.04075,0.02042l-0.06232,0.09103l-0.11618,0.10183l-0.05243,0.02757l-0.04113,0.03965l-0.5809,0.33944l-0.07721,0.02417l-0.06919,0.03859l-0.4647,0.13577l-0.01914,0.0013l-0.0168,0.00815l-0.5809,0.13577l-0.00493,0.00007l-0.00436,0.00203l-0.46471,0.10183h-0.03511l-0.03265,0.01135l-0.54016,0.06313l-0.38634,0.09235l-0.04418,0.00082l-0.04121,0.01399l-0.59736,0.06545l-0.17164,0.03009l-0.06107,-0.00254l-0.05932,0.01299h-2.24612l-0.02753,-0.00603l-0.02804,0.00383l-0.42599,-0.03394l-0.04531,-0.01386h-0.048l-0.42875,-0.09394l-0.27303,-0.02992l-0.03511,-0.01191h-0.03764l-0.15491,-0.03394l-0.0927,-0.04333l-0.09894,-0.03098l-0.00333,-0.00196l-0.00599,-0.00131l-0.04529,0.01083l-0.06763,-0.03557l-0.07653,-0.01676l-0.02329,-0.03572l-0.10385,-0.05462l-0.08533,-0.07479l-0.07572,-0.04978l-0.18286,-0.08013l-0.02945,-0.02212l-0.03653,-0.01144l-0.0277,-0.01619l-0.05174,-0.01134l-0.02124,-0.00993l-0.024,-0.00161l-0.11618,-0.03394l-0.03728,-0.02079l-0.04314,-0.0084l-0.11589,-0.05079l-0.30715,-0.08974l-0.03728,-0.02079l-0.04314,-0.0084l-0.07745,-0.03395l-0.02945,-0.02212l-0.03654,-0.01144l-0.07417,-0.04335l-0.23763,-0.05207l-0.0927,-0.04333l-0.09895,-0.03097l-0.02769,-0.01619l-0.20665,-0.04529l-0.05965,-0.02788l-0.066,-0.01286l-0.03843,-0.01685l-0.09646,-0.02818h-0.01656l-0.09573,-0.02098l-0.09839,-0.00663l-0.11618,-0.03394l-0.06918,-0.03859l-0.07451,-0.02332l-0.08867,-0.00598l-0.11618,-0.03395l-0.03728,-0.02079l-0.04314,-0.0084l-0.07745,-0.03395l-0.24023,-0.18047l-0.02519,-0.39737c-0.03717,-0.04597 -0.06632,-0.09729 -0.08564,-0.15237z" fill="#55008f" stroke-width="0.5"/></g><g><g><path d="M97.50513,216.31173c0,0 1.20479,-5.64343 0.62966,-9.50141c-0.15593,-1.04594 -1.07203,-1.88375 -1.42216,-2.53469c-1.31937,-2.45294 0,-8.71581 0,-8.71581h5.37766v20.50291z" fill="#5d5d5d" stroke="none" stroke-width="0" stroke-linecap="butt"/><path d="M97.29823,197.44982c0,0 -0.45026,2.85106 0.10352,5.69939c0.17371,0.89352 0.86629,1.30631 1.32288,2.1125c0.2711,0.47867 0.40891,1.41434 0.44257,1.80092c0.24129,2.77157 -0.32163,8.16102 -0.32163,8.16102" fill="none" stroke="#ff0000" stroke-width="2.5" stroke-linecap="round"/></g><g><path d="M85.63785,160.84452c0,0 0.67181,-2.41027 0.09667,-4.56811c-0.15593,-0.58501 -0.53904,-1.7998 -0.88917,-2.16389c-1.31937,-1.37197 0,-4.87489 0,-4.87489h5.37765v11.4676z" fill="#5d5d5d" stroke="none" stroke-width="0" stroke-linecap="butt"/><path d="M85.43095,150.29474c0,0 -0.45027,1.59464 0.10351,3.18776c0.17371,0.49975 0.8663,0.73063 1.32289,1.18157c0.2711,0.26773 0.40891,0.79106 0.44257,1.00728c0.24129,1.55018 -0.32163,4.56459 -0.32163,4.56459" fill="none" stroke="#ff0000" stroke-width="2.5" stroke-linecap="round"/></g></g><g><path d="M-79.2646,216.65586c0,0 1.20498,-5.64425 0.62976,-9.50281c-0.15596,-1.0461 -1.07219,-1.88403 -1.42238,-2.53508c-1.31956,-2.45331 0,-8.71709 0,-8.71709h5.37844v20.50591z" fill="#5d5d5d" stroke="none" stroke-width="0" stroke-linecap="butt"/><path d="M-79.47153,197.79116c0,0 -0.45033,2.85149 0.10353,5.70023c0.17374,0.89364 0.86643,1.3065 1.32308,2.11282c0.27115,0.47875 0.40898,1.41455 0.44264,1.80118c0.24132,2.77198 -0.32169,8.16222 -0.32169,8.16222" fill="none" stroke="#ff0000" stroke-width="2.5" stroke-linecap="round"/></g><path d="M-4.29964,142.37617v7.26294h-162.32933v-7.26294z" fill="#9e9898" stroke="none" stroke-width="0" stroke-linecap="butt"/><path d="M-167.12179,227.43479v-11.60859h156.87846v11.60859z" fill="#9e9898" stroke="none" stroke-width="0" stroke-linecap="butt"/><path d="M-170.94502,217.00388v-49.54076h21.35172v49.54076z" fill="#9e9898" stroke="none" stroke-width="0" stroke-linecap="butt"/><path d="M-7.61926,144.77033v54.20192h-17.40902v-54.20192z" fill="#9e9898" stroke="none" stroke-width="0" stroke-linecap="butt"/><path d="M-101.80092,148.03343v40.20512h-3.92087v-40.20512z" fill="#9e9898" stroke="none" stroke-width="0" stroke-linecap="butt"/><path d="M-82.42485,198.97227v-34.6493h30.37446v34.6493z" fill="#9e9898" stroke="none" stroke-width="0" stroke-linecap="butt"/><path d="M-56.47501,196.53327v-20.43751h4.4246v20.43751z" fill="#9e9898" stroke="none" stroke-width="0" stroke-linecap="butt"/><path d="M-56.47501,198.97228v-3.7782h36.56113v3.7782z" fill="#9e9898" stroke="none" stroke-width="0" stroke-linecap="butt"/><path d="M-81.31312,180.64502l2.966,-14.12228l11.51818,2.41908l-2.966,14.12228z" fill="#be9c62" stroke="none" stroke-width="0" stroke-linecap="butt"/><text transform="translate(-78.61107,168.70483) rotate(12.14974) scale(0.04476,0.04476)" font-size="40" xml:space="preserve" fill="#ffe2b1" stroke="none" stroke-width="1" stroke-linecap="butt" font-family="Sans Serif" font-weight="normal" text-anchor="start"><tspan x="0" dy="0">Para Moverte</tspan><tspan x="0" dy="48px">Usa wasd o </tspan><tspan x="0" dy="48px">las flechas</tspan></text><path d="M-63.95229,184.50551l0.02978,-12.84514l10.47653,0.02428l-0.02978,12.84514z" fill="#be9c62" stroke="none" stroke-width="0" stroke-linecap="butt"/><text transform="translate(-63.86908,173.03618) rotate(0.70642) scale(0.03934,0.03934)" font-size="40" xml:space="preserve" fill="#ffe2b1" stroke="none" stroke-width="1" stroke-linecap="butt" font-family="Sans Serif" font-weight="normal" text-anchor="start"><tspan x="0" dy="0">Para cambiar</tspan><tspan x="0" dy="48px">entre el robot</tspan><tspan x="0" dy="48px">y el humano</tspan><tspan x="0" dy="48px">presiona C</tspan></text><path d="M-150.19555,138.72527c0,-0.0942 0.07636,-0.17055 0.17055,-0.17055c0.0942,0 0.17056,0.07636 0.17056,0.17055c0,0.0942 -0.07637,0.17056 -0.17056,0.17056c-0.0942,0 -0.17055,-0.07637 -0.17055,-0.17056z" fill="#ffe2b1" stroke="none" stroke-width="0.5" stroke-linecap="butt"/><path d="M-76.87034,180.29142c-0.03982,0.42524 -0.07489,0.85118 -0.11068,1.27663c-0.14653,-0.03042 -0.29257,-0.06187 -0.43781,-0.09518c0.06405,-0.77253 0.12565,-1.54704 0.22268,-2.3147c0.00544,-0.04307 0.01221,-0.08549 0.01996,-0.12738c-0.30808,0.6008 -0.64735,1.18655 -0.93302,1.79888c-0.0622,0.13332 -0.11812,0.3144 -0.17414,0.45276c-0.13551,-0.04817 -0.32673,-0.03927 -0.46537,-0.09886c0.05881,-0.14588 0.17166,-0.40041 0.23704,-0.5412c0.42578,-0.91699 0.97735,-1.77232 1.35801,-2.71021c0,0 0.00175,-0.0043 0.00536,-0.01141c-0.11424,-0.0948 -0.21762,-0.19616 -0.31417,-0.30335c-0.07742,-0.03601 -0.15386,-0.07379 -0.22694,-0.1178c-0.57053,-0.34349 -0.82622,-0.9537 -0.94578,-1.58011c-0.07969,-0.4175 -0.16595,-1.01527 0.20495,-1.34755c0.49672,-0.445 1.45934,-0.26531 2.05009,-0.17038c0.47997,0.1344 1.15392,0.3514 1.45284,0.78429c0.09929,0.14379 0.191,0.4384 0.24107,0.59673c0.25041,0.7919 0.10717,2.07401 -0.80643,2.39558c-0.29874,0.10515 -0.69206,0.04914 -1.04243,-0.00445c-0.0118,0.10147 -0.0309,0.19946 -0.05326,0.29594c0.00025,1.08158 0.24769,2.16811 0.33817,3.24486c-0.15117,-0.03006 -0.30244,-0.05978 -0.45344,-0.09004c-0.0413,-0.44356 -0.10578,-0.88809 -0.16669,-1.3331zM-76.8063,177.64054c0.02891,0.0231 0.05857,0.04571 0.08908,0.06777c0.31293,0.01574 0.77724,0.16046 1.07625,0.05145c0.49492,-0.18043 0.54169,-0.66412 0.58037,-1.10503c0.03708,-0.42249 0.00766,-0.84699 -0.23416,-1.21975c-0.09685,-0.14931 -0.15021,-0.14021 -0.30518,-0.2232c-0.2939,-0.15741 -0.55368,-0.28689 -0.87519,-0.37656c-0.38458,-0.06113 -0.77781,-0.11322 -1.16663,-0.06772c-0.11043,0.01292 -0.37794,0.03673 -0.48847,0.13163c-0.23511,0.20185 -0.11429,0.70623 -0.06917,0.93608c0.04192,0.21348 0.09884,0.42995 0.18666,0.62908c0.1054,-0.05734 0.21951,0.01276 0.21951,0.01276l0.10388,0.08778c0.16058,0.24119 0.31354,0.47445 0.49058,0.68646c0.09476,0.04321 0.19021,0.08519 0.28191,0.1343c0,0 0.16534,0.08864 0.11051,0.25494z" fill="#ffe2b1" stroke="none" stroke-width="0.5" stroke-linecap="butt"/><g fill="#ebc588" stroke="none" stroke-width="0" stroke-linecap="butt"><path d="M-57.57287,181.68795c0.1929,0 0.34926,0.46559 0.34926,1.03995c0,0.57433 -0.15637,1.03995 -0.34926,1.03995c-0.1929,0 -0.34926,-0.46559 -0.34926,-1.03995c0,-0.57433 0.15637,-1.03995 0.34926,-1.03995z"/><path d="M-59.67689,183.58085c0,-0.10725 -0.03554,-0.19746 0.13267,-0.27058c0.17172,-0.07465 0.55091,-0.13109 0.91553,-0.13109c0.72172,0 1.40098,0.1757 1.22046,0.46307c-0.11529,0.18353 -0.49873,0.3218 -1.22046,0.3218c-0.41974,0 -0.80736,-0.06553 -0.97326,-0.15529c-0.11936,-0.06456 -0.07492,-0.13722 -0.07492,-0.2279z"/><path d="M-59.68473,183.02448c0.13262,0 0.24014,0.23569 0.24014,0.52645c0,0.29075 -0.10751,0.52645 -0.24014,0.52645c-0.13262,0 -0.12468,-0.23109 -0.12468,-0.52184c0,-0.29075 -0.00794,-0.53107 0.12468,-0.53107z"/><path d="M-59.53275,183.17919c0,0.08927 -0.14369,0.16163 -0.32095,0.16163c-0.17726,0 -0.32095,-0.07237 -0.32095,-0.16163c0,-0.08927 0.19911,-0.17549 0.37637,-0.17549c0.17726,0 0.26553,0.08622 0.26553,0.17549z"/><path d="M-59.79829,184.11357c-0.17726,0 -0.37636,-0.08622 -0.37636,-0.17549c0,-0.08927 0.14369,-0.16162 0.32095,-0.16162c0.17726,0 0.32095,0.07236 0.32095,0.16162c0,0.08927 -0.08828,0.17549 -0.26553,0.17549z"/></g><g fill="#ffe2b1" stroke="none" stroke-width="0" stroke-linecap="butt"><path d="M-56.09735,181.70261c0.1929,0 0.34927,0.46559 0.34927,1.03995c0,0.57433 -0.15637,1.03995 -0.34927,1.03995c-0.1929,0 -0.34926,-0.46559 -0.34926,-1.03995c0,-0.57433 0.15637,-1.03995 0.34926,-1.03995z"/><path d="M-58.20137,183.59551c0,-0.10725 -0.03554,-0.19746 0.13267,-0.27058c0.17172,-0.07465 0.55091,-0.13109 0.91553,-0.13109c0.72172,0 1.40097,0.17569 1.22045,0.46307c-0.11529,0.18353 -0.49874,0.32179 -1.22045,0.32179c-0.41974,0 -0.80737,-0.06552 -0.97327,-0.15528c-0.11936,-0.06456 -0.07492,-0.13723 -0.07492,-0.22791z"/><path d="M-58.20921,183.03916c0.13262,0 0.24014,0.23569 0.24014,0.52645c0,0.29075 -0.10751,0.52645 -0.24014,0.52645c-0.13262,0 -0.12468,-0.23109 -0.12468,-0.52184c0,-0.29075 -0.00794,-0.53107 0.12468,-0.53107z"/><path d="M-58.05723,183.19386c0,0.08927 -0.14369,0.16163 -0.32095,0.16163c-0.17726,0 -0.32095,-0.07236 -0.32095,-0.16163c0,-0.08927 0.19911,-0.17549 0.37637,-0.17549c0.17726,0 0.26553,0.08622 0.26553,0.17549z"/><path d="M-58.32277,184.12823c-0.17726,0 -0.37636,-0.08622 -0.37636,-0.17549c0,-0.08927 0.14369,-0.16163 0.32095,-0.16163c0.17726,0 0.32094,0.07237 0.32094,0.16163c0,0.08927 -0.08828,0.17549 -0.26553,0.17549z"/></g><g stroke="none" stroke-linecap="butt"><path d="M-60.53133,182.00277c0,-0.95865 1.26521,-1.73579 2.82593,-1.73579c1.56072,0 2.82593,0.77714 2.82593,1.73579c0,0.95865 -1.62683,0.43394 -3.18756,0.43394c-1.56072,0 -2.4643,0.5247 -2.4643,-0.43394z" fill="#ffe2b1" stroke-width="0"/><g fill="#ffe2b1" stroke-width="0"><path d="M-57.50702,180.45676c-0.07146,0.01271 -0.03685,0.00762 -0.0721,0.005c-0.1022,-0.0076 -0.27351,-0.02057 -0.3287,-0.02467c-0.02661,-0.00197 -0.04642,-0.00712 -0.07522,-0.01568c-0.03178,-0.00945 0.0004,-0.07637 0.00337,-0.11641c0.01069,-0.14383 0.0759,-0.95106 0.0759,-0.95106l0.47603,0.03536c0,0 -0.05826,0.86239 -0.06794,0.9928c-0.00234,0.03136 0.01141,0.07526 -0.01132,0.07466z"/><path d="M-58.31095,179.09532c0.45137,0 0.81726,0.12951 0.81726,0.2893c0,0.15977 -0.3659,0.2893 -0.81726,0.2893c-0.45137,0 -0.81726,-0.12951 -0.81726,-0.2893c0,-0.15977 0.3659,-0.2893 0.81726,-0.2893z"/><path d="M-56.31237,179.38462c0,0.15977 -0.3659,0.2893 -0.81726,0.2893c-0.45137,0 -0.81726,-0.12951 -0.81726,-0.2893c0,-0.15977 0.3659,-0.2893 0.81726,-0.2893c0.45137,0 0.81726,0.12951 0.81726,0.2893z"/></g><g><path d="M-60.05398,181.56882c0,-0.11764 0.07896,-0.43975 0.43022,-0.56052c0.18562,-0.06381 0.4725,-0.11819 0.72608,-0.11363c0.24414,0.00439 0.62358,-0.00249 0.78199,0.05214c0.67105,0.23144 0.4918,0.38233 0.4918,0.62199c0,0.23967 -0.544,0.43394 -1.21505,0.43394c-0.67105,0 -1.21505,-0.19428 -1.21505,-0.43394z" fill="#be9c62" stroke-width="0"/><path d="M-59.4557,181.57193c-0.11371,0 -0.1137,-0.11371 -0.1137,-0.11371l0.00876,0.00939c-0.02734,-0.20189 -0.05457,0.02289 -0.05646,0.06874c0,0 -0.00944,0.1133 -0.12275,0.10387c-0.1133,-0.00945 -0.10387,-0.12275 -0.10387,-0.12275c0.03753,-0.34205 0.3062,-0.48295 0.493,-0.1373l0.00874,0.07808c0,0 0,0.1137 -0.11371,0.1137z" fill="#ffe2b1" stroke-width="0.5"/><path d="M-58.0483,181.64985c-0.11149,0.0223 -0.13379,-0.08918 -0.13379,-0.08918l-0.01145,-0.05724c-0.05186,-0.26345 -0.21095,-0.20529 -0.25778,0.04578c0,0 -0.0223,0.11149 -0.13379,0.08919c-0.11149,-0.0223 -0.08919,-0.13379 -0.08919,-0.13379c0.09905,-0.4715 0.599,-0.56261 0.70377,-0.04578l0.01145,0.05723c0,0 0.02231,0.11149 -0.08919,0.13379z" fill="#ffe2b1" stroke-width="0.5"/></g></g><path d="M-77.67943,191.9336c-0.28426,0 -0.28426,-0.28426 -0.28426,-0.28426l0.02451,-0.28892c0.46235,-1.03693 0.82303,-2.13071 1.27054,-3.17665c0,0 0.11198,-0.26127 0.37324,-0.1493c0.26127,0.11198 0.14929,0.37325 0.14929,0.37325c-0.45015,1.04869 -0.81205,2.14212 -1.27357,3.18359l0.02451,0.05801c0,0 0,0.28426 -0.28426,0.28426z" fill="#5d5d5d" stroke="none" stroke-width="0.5" stroke-linecap="butt"/><path d="M-76.50991,191.73084c0.23652,0.15768 0.07883,0.3942 0.07883,0.3942l-0.16817,0.25195c-0.28643,0.50025 -0.50436,1.00719 -0.80758,1.50021c-0.12366,0.20105 -0.30159,0.65797 -0.61596,0.62827c-0.19422,-0.01835 -0.28091,-0.27357 -0.39521,-0.43166c-0.43517,-0.6018 -0.51686,-1.28977 -0.6669,-1.98907c0,0 -0.05956,-0.27796 0.21839,-0.33752c0.27796,-0.05955 0.33751,0.21839 0.33751,0.21839c0.10718,0.50078 0.15169,0.94248 0.3799,1.40922c0.04381,0.08957 0.13635,0.21684 0.19298,0.32887c0.02125,-0.04683 0.04415,-0.09031 0.06186,-0.11916c0.09723,-0.15823 0.21004,-0.30677 0.30318,-0.46743c0.19285,-0.33265 0.31573,-0.70156 0.50821,-1.03903l0.17875,-0.26843c0,0 0.15767,-0.23652 0.39419,-0.07883z" fill="#5d5d5d" stroke="none" stroke-width="0.5" stroke-linecap="butt"/><path d="M-37.72373,197.74691c-0.27967,0.05085 -0.33052,-0.22883 -0.33052,-0.22883l-0.05121,-0.28682c-0.03688,-0.37141 -0.0385,-0.84279 -0.11665,-1.19565c-0.00913,-0.04121 -0.02143,0.08969 -0.05637,0.11338c-0.07657,0.05192 -0.17627,0.05843 -0.25877,0.1003c-0.33216,0.16855 -0.64702,0.36924 -0.97127,0.55251c0,0 -0.24746,0.13987 -0.38734,-0.10759c-0.13988,-0.24747 0.10759,-0.38734 0.10759,-0.38734c0.41013,-0.23182 0.85149,-0.58017 1.31647,-0.69252c0.17047,-0.04119 0.37792,-0.18133 0.5202,-0.07879c0.34543,0.24896 0.37324,1.25552 0.41186,1.63913l0.04487,0.24169c0,0 0.05085,0.27967 -0.22883,0.33051z" fill="#5d5d5d" stroke="none" stroke-width="0.5" stroke-linecap="butt"/><path d="M-45.86193,196.9359c0.05085,-0.27967 0.33051,-0.22883 0.33051,-0.22883l0.23521,0.0443c0.21644,0.0168 0.43377,0.02332 0.65086,0.02319c1.38529,0 2.74375,0.45839 4.10804,0.45645c0.71198,-0.00101 1.2485,0.15544 1.65805,-0.49298c0,0 0.15261,-0.23981 0.39242,-0.0872c0.23982,0.15261 0.08721,0.39243 0.08721,0.39243c-0.49018,0.76534 -1.00802,0.75625 -1.8494,0.75625c-1.47349,0 -2.91039,-0.45645 -4.39632,-0.45645c-0.23163,-0.00013 -0.4635,-0.00723 -0.69447,-0.02486l-0.2933,-0.05179c0,0 -0.27967,-0.05085 -0.22883,-0.33051z" fill="#5d5d5d" stroke="none" stroke-width="0.5" stroke-linecap="butt"/><g stroke="none" stroke-width="0" stroke-linecap="butt"><path d="M62.35951,216.28189c-4.44388,0 -7.88132,0.07214 -7.88132,-1.60333c0,-1.67547 3.60248,-3.0337 8.04636,-3.0337c4.44388,0 8.04635,1.35823 8.04635,3.0337c0,1.67547 -3.76752,1.60333 -8.21141,1.60333z" fill="#a81212"/><path d="M54.47819,216.93344v-3.84517h16.09271v3.84517z" fill="#636363"/></g><g stroke="none" stroke-linecap="butt"><path d="M100.13552,142.37617v7.26188h-115.39593v-7.26188z" fill="#9e9898" stroke-width="0"/><path d="M-13.66231,227.42231v-11.60688h182.3372v11.60688z" fill="#9e9898" stroke-width="0"/><path d="M30.73906,144.76999v54.19397h-43.93789v-54.19397z" fill="#9e9898" stroke-width="0"/><path d="M161.91142,148.96875v49.32589h-34.21165v-49.32589z" fill="#9e9898" stroke-width="0"/><path d="M69.70529,196.31948v-36.22742h34.21164v36.22742z" fill="#9e9898" stroke-width="0"/><path d="M161.91142,142.37617v7.26188h-66.43715v-7.26188z" fill="#9e9898" stroke-width="0"/><path d="M85.14154,185.54688l3.72099,-17.71708l14.45009,3.03486l-3.72098,17.71707z" fill="#be9c62" stroke-width="0"/><text transform="translate(88.96011,170.34109) rotate(10.23133) scale(0.04845,0.04845)" font-size="40" xml:space="preserve" fill="#ffe2b1" stroke-width="1" font-family="Sans Serif" font-weight="normal" text-anchor="start"><tspan x="0" dy="0">Para agarrar </tspan><tspan x="0" dy="48px">cosas</tspan><tspan x="0" dy="48px">Presione G</tspan><tspan x="0" dy="48px">y para soltar</tspan><tspan x="0" dy="48px">Presione H</tspan></text><g fill="#5d5d5d" stroke-width="0.5"><path d="M97.27371,163.25047c-0.20097,0.20097 -0.40195,0 -0.40195,0l-0.12479,-0.12479c-0.7209,-0.72292 -1.70307,-1.14179 -2.32292,-1.96575c0.00401,0.00942 0.00639,0.01813 0.00619,0.0252c-0.00455,0.15057 -0.16902,0.56393 -0.20264,0.68937c-0.14242,0.53139 -0.07368,1.12966 -0.07368,1.67417c0,0 0,0.28421 -0.28421,0.28421c-0.28421,0 -0.28421,-0.28421 -0.28421,-0.28421c0,-0.78114 -0.00236,-1.44763 0.21933,-2.20096c0.05662,-0.19243 0.14391,-0.7847 0.40298,-0.81784c0.39093,-0.05002 0.72431,0.42296 0.97461,0.64393c0.63166,0.55766 1.36938,0.95433 1.96652,1.54993l0.12479,0.12479c0,0 0.20097,0.20097 0,0.40195z"/><path d="M96.81549,167.76405c-0.00444,0.0572 -0.03746,0.27022 -0.28352,0.27022c-0.28421,0 -0.28421,-0.28421 -0.28421,-0.28421l0.02299,-0.15356c0.52877,-1.16141 -0.20788,-3.22301 -1.22755,-3.89454c0,0 -0.23648,-0.15767 -0.07883,-0.39414c0.15766,-0.23648 0.39414,-0.07883 0.39414,-0.07883c1.24993,0.84196 2.01188,3.07842 1.45701,4.53506z"/></g><g><path d="M89.87242,186.23257c0,0 -0.03213,-1.0566 0.0928,-1.71711c0.06359,-0.33614 0.14503,-0.97469 0.22299,-1.53742c0.1368,-0.98748 0.24493,-1.9641 0.24493,-1.9641c0,0 1.67017,0.14926 2.48145,0.24138c0.92522,0.10506 2.77308,0.35524 2.77308,0.35524c0,0 -0.29883,1.89678 -0.39122,2.77901c-0.08835,0.84363 -0.15155,2.40372 -0.15155,2.40372c0,0 -1.12329,-0.23863 -1.86496,-0.3175c-0.41822,-0.04448 -1.17332,-0.0605 -1.83131,-0.10493c-0.85123,-0.05747 -1.57622,-0.13829 -1.57622,-0.13829z" fill="#ffe2b1" stroke-width="0"/><g fill="#be9c62" stroke-width="0.5"><path d="M93.82434,182.68606c0.00879,-0.08265 0.08292,-0.14254 0.16557,-0.13375c0.08265,0.00879 0.14254,0.08292 0.13375,0.16557c-0.00879,0.08265 -0.08292,0.14254 -0.16557,0.13375c-0.08265,-0.00879 -0.14253,-0.08292 -0.13374,-0.16557z"/><path d="M91.3662,182.43564c0.00879,-0.08265 0.08292,-0.14254 0.16557,-0.13375c0.08265,0.00879 0.14254,0.08292 0.13375,0.16557c-0.00879,0.08265 -0.08292,0.14254 -0.16557,0.13375c-0.08265,-0.00879 -0.14253,-0.08292 -0.13374,-0.16557z"/><path d="M94.26106,185.21713c-0.048,0.14264 -0.19065,0.09463 -0.19065,0.09463l-0.07407,-0.02665c-0.22129,-0.04006 -0.53208,-0.08983 -0.69476,-0.26149c-0.05706,-0.06019 -0.1013,-0.12176 -0.1342,-0.18402c-0.46605,0.23601 -0.99227,0.03752 -1.33436,-0.33693c-0.01489,0.05087 -0.0343,0.10187 -0.05853,0.15282c-0.11912,0.25037 -0.4086,0.36806 -0.63683,0.48748l-0.09656,0.01515c0,0 -0.14966,-0.01592 -0.13375,-0.16557c0.01019,-0.09584 0.07523,-0.12378 0.12069,-0.13147c0.16333,-0.0808 0.40066,-0.16967 0.47865,-0.34302c0.1702,-0.37829 -0.02547,-0.75441 -0.31352,-1.01123c0,0 -0.11128,-0.10134 -0.00993,-0.21262c0.10134,-0.11128 0.21261,-0.00993 0.21261,-0.00993c0.22777,0.21094 0.40417,0.4777 0.45845,0.76606c0.03711,0.02274 0.05736,0.05667 0.05736,0.05667c0.22628,0.38074 0.75925,0.72409 1.17919,0.43445c-0.00456,-0.48272 0.52496,-0.94716 0.93481,-1.10078c0,0 0.14097,-0.0527 0.19366,0.08828c0.0527,0.14098 -0.08828,0.19367 -0.08828,0.19367c-0.37062,0.13811 -0.59038,0.26472 -0.66919,0.66407c-0.00594,0.03011 -0.01219,0.06085 -0.01734,0.09172c0.01117,0.04307 -0.00236,0.08452 -0.01111,0.10486c-0.00206,0.08245 0.01588,0.1618 0.08203,0.22851c0.11826,0.11926 0.37759,0.14935 0.53397,0.17703l0.117,0.03765c0,0 0.14264,0.048 0.09463,0.19065z"/></g></g><path d="M72.15415,180.27458l-1.52604,-15.57055l12.6994,-1.24464l1.52604,15.57056z" fill="#be9c62" stroke-width="0"/><text transform="translate(70.81673,166.14789) rotate(-7.21891) scale(0.03482,0.03482)" font-size="40" xml:space="preserve" fill="#ffe2b1" stroke-width="1" font-family="Sans Serif" font-weight="normal" text-anchor="start"><tspan x="0" dy="0">Cuando cambias</tspan><tspan x="0" dy="48px">a robot, el humano</tspan><tspan x="0" dy="48px">se queda ahi</tspan></text><g fill="#ffe2b1" stroke-width="0"><path d="M76.96022,178.90537c-1.88286,0.17724 -3.33642,0.34491 -3.40324,-0.36497c-0.06682,-0.70989 1.40536,-1.42907 3.28822,-1.60631c1.88286,-0.17724 3.46339,0.25455 3.53023,0.96444c0.06682,0.70989 -1.53235,0.8296 -3.4152,1.00684z"/><path d="M73.64692,179.49577l-0.15336,-1.62919l6.81844,-0.64186l0.15336,1.62919z"/></g><path d="M77.10845,174.92022c-0.11711,0.01439 -0.13151,-0.10273 -0.13151,-0.10273l-0.00601,-0.0489c-0.0353,-0.28726 -0.06143,-0.56914 -0.14245,-0.84776c-0.07721,-0.26548 -0.17431,-0.52751 -0.26895,-0.79042c0.03642,0.31221 0.07771,0.62408 0.11602,0.93564c0.01377,0.02215 0.01692,0.04682 0.0168,0.06529c0.00041,0.00142 0.0006,0.00221 0.0006,0.00221c0.08522,0.34983 0.27254,0.64553 0.38768,0.98542c0.18227,0.53803 0.28712,1.10554 0.35618,1.6676c0.00248,0.02027 0.00499,0.04055 0.00747,0.06083c0.02322,0.02373 0.04175,0.06161 0.02179,0.11782c-0.03951,0.11119 -0.15069,0.07168 -0.15069,0.07168l-0.09838,-0.10417c-0.00481,-0.03913 -0.00962,-0.07826 -0.01443,-0.11738c-0.06725,-0.54721 -0.16884,-1.09808 -0.34595,-1.62206c-0.0679,-0.2009 -0.1599,-0.38633 -0.24223,-0.5764c-0.0346,0.34001 -0.03471,0.68896 -0.06598,1.02406c-0.04094,0.43865 -0.11374,0.87797 -0.12336,1.31809c0.00457,0.03635 0.00913,0.07269 0.0137,0.10904l0.00601,0.04891c0,0 0.01438,0.11711 -0.10273,0.13151c-0.11711,0.01439 -0.13151,-0.10273 -0.13151,-0.10273l-0.006,-0.0489c-0.00505,-0.04191 -0.0101,-0.08381 -0.01516,-0.12572c0.00798,-0.45226 0.08214,-0.90293 0.12422,-1.35351c0.04522,-0.48419 0.03069,-0.99105 0.1357,-1.46655c-0.00208,-0.00797 -0.0027,-0.01309 -0.0027,-0.01309l-0.00481,-0.03913c-0.0622,-0.50617 -0.13434,-1.01364 -0.17699,-1.52165c-0.00193,-0.023 -0.0031,-0.04579 -0.00371,-0.06844c-0.09377,0.34645 -0.20542,0.68854 -0.28628,1.03851c-0.12691,0.5494 -0.14894,1.15589 -0.16587,1.71979l0.01239,0.08963c0,0 0.01439,0.11711 -0.10272,0.13151c-0.11711,0.01439 -0.13151,-0.10272 -0.13151,-0.10272l-0.01404,-0.12557c0.01783,-0.58028 0.0422,-1.19996 0.17177,-1.76553c0.12002,-0.52388 0.31226,-1.02961 0.4065,-1.55935c0,0 0.00043,-0.00243 0.00152,-0.00653c-0.06987,-0.03666 -0.13483,-0.07793 -0.19689,-0.123c-0.04423,-0.01017 -0.08817,-0.02135 -0.13103,-0.03616c-0.33464,-0.11553 -0.53504,-0.40455 -0.66647,-0.71705c-0.08759,-0.20827 -0.19852,-0.50956 -0.0424,-0.72334c0.20908,-0.28629 0.72948,-0.29928 1.04715,-0.31525c0.26443,0.01683 0.63884,0.05516 0.84214,0.2472c0.06752,0.06378 0.14777,0.20684 0.19131,0.28364c0.21775,0.38407 0.28503,1.06656 -0.15447,1.33478c-0.14372,0.0877 -0.35441,0.10206 -0.54253,0.11294c0.00509,0.05407 0.00599,0.10713 0.00503,0.15977c0.12363,0.58083 0.38497,1.13525 0.55066,1.70406c0.08464,0.29054 0.11295,0.58429 0.14976,0.88375l0.00601,0.04891c0,0 0.01438,0.11711 -0.10273,0.13151zM76.29976,171.74495c0.01759,0.00881 0.03551,0.01729 0.0538,0.02539c0.16445,-0.02641 0.42188,-0.00249 0.56531,-0.09223c0.2374,-0.14853 0.20825,-0.40521 0.17961,-0.63873c-0.02743,-0.22378 -0.08966,-0.44125 -0.2566,-0.60834c-0.06687,-0.06693 -0.0936,-0.0563 -0.18336,-0.08232c-0.17022,-0.04935 -0.31961,-0.08796 -0.4967,-0.09905c-0.20672,0.01074 -0.41695,0.02711 -0.6141,0.09377c-0.05599,0.01893 -0.19246,0.06088 -0.23944,0.12245c-0.09994,0.13094 0.01865,0.37985 0.06752,0.49437c0.04539,0.10637 0.09893,0.21263 0.16661,0.30647c0.04846,-0.04147 0.11556,-0.01764 0.11556,-0.01764l0.06373,0.03417c0.11016,0.10766 0.21548,0.21204 0.33097,0.30271c0.05406,0.012 0.10832,0.02327 0.16143,0.03866c0,0 0.09577,0.02782 0.08565,0.12034z" fill="#ffe2b1" stroke-width="0.5"/><path d="M75.01492,177.38572v-7.50808h4.10197v7.50808z" fill-opacity="0" fill="#9e9898" stroke-width="0"/><g stroke-width="0"><g fill="#d8bc8d"><path d="M80.50963,170.4252c0,0.27812 -0.07572,0.50357 -0.16912,0.50357c-0.09341,0 -0.16913,-0.22546 -0.16913,-0.50357c0,-0.27812 0.07573,-0.50358 0.16913,-0.50358c0.09341,0 0.16912,0.22546 0.16912,0.50358z"/><path d="M81.35934,170.83824c0,0.04391 0.02151,0.07909 -0.03628,0.11036c-0.08034,0.04346 -0.26803,0.0752 -0.47129,0.0752c-0.34948,0 -0.53516,-0.06695 -0.59098,-0.15582c-0.08741,-0.13915 0.2415,-0.22424 0.59098,-0.22424c0.17656,0 0.36017,0.02733 0.44334,0.06348c0.08145,0.0354 0.06423,0.07909 0.06423,0.13102z"/><path d="M81.42351,170.82599c0,0.14079 0.00384,0.25268 -0.06038,0.25268c-0.06422,0 -0.11629,-0.11413 -0.11629,-0.25492c0,-0.14079 0.05206,-0.25492 0.11629,-0.25492c0.06422,0 0.06038,0.11637 0.06038,0.25716z"/><path d="M81.41813,170.55876c0.08583,0 0.18225,0.04175 0.18225,0.08497c0,0.04323 -0.06958,0.07827 -0.15542,0.07827c-0.08583,0 -0.15542,-0.03504 -0.15542,-0.07827c0,-0.04323 0.04275,-0.08497 0.12857,-0.08497z"/><path d="M81.28954,171.01122c0,-0.04323 0.06958,-0.07826 0.15542,-0.07826c0.08583,0 0.15543,0.03504 0.15543,0.07826c0,0.04323 -0.09642,0.08497 -0.18225,0.08497c-0.08583,0 -0.12857,-0.04175 -0.12857,-0.08497z"/></g><path d="M82.48758,170.06698c0,0.46421 -0.43755,0.21013 -1.1933,0.21013c-0.75575,0 -1.54353,0.25408 -1.54353,-0.21013c0,-0.46421 0.61266,-0.84052 1.36841,-0.84052c0.75575,0 1.36841,0.37632 1.36841,0.84053z" fill="#ffe2b1"/><g fill="#ffe2b1"><path d="M81.02311,169.31835c-0.011,0.00029 -0.00436,-0.02097 -0.00548,-0.03615c-0.00469,-0.06315 -0.0329,-0.48076 -0.0329,-0.48076l0.23051,-0.01712c0,0 0.03158,0.39088 0.03674,0.46054c0.00144,0.0194 0.01702,0.05179 0.00163,0.05636c-0.01395,0.00414 -0.02353,0.00663 -0.03642,0.0076c-0.02674,0.00198 -0.10969,0.00827 -0.15916,0.01194c-0.01707,0.00127 -0.00032,0.00372 -0.03492,-0.00243z"/><path d="M81.80816,168.79917c0,0.07737 -0.17719,0.14008 -0.39575,0.14008c-0.21856,0 -0.39574,-0.06271 -0.39574,-0.14008c0,-0.07737 0.17718,-0.14008 0.39574,-0.14008c0.21856,0 0.39575,0.06271 0.39575,0.14008z"/><path d="M80.84037,168.65908c0.21856,0 0.39575,0.06271 0.39575,0.14008c0,0.07737 -0.17718,0.14008 -0.39575,0.14008c-0.21856,0 -0.39575,-0.06271 -0.39575,-0.14008c0,-0.07737 0.17718,-0.14008 0.39575,-0.14008z"/></g><g fill="#ffe2b1"><path d="M81.22413,170.4181c0,0.27812 -0.07572,0.50357 -0.16913,0.50357c-0.09341,0 -0.16913,-0.22546 -0.16913,-0.50357c0,-0.27812 0.07572,-0.50358 0.16913,-0.50358c0.09341,0 0.16913,0.22546 0.16913,0.50358z"/><path d="M82.07384,170.83113c0,0.04391 0.02151,0.07909 -0.03628,0.11036c-0.08034,0.04346 -0.26803,0.0752 -0.47129,0.0752c-0.34948,0 -0.53517,-0.06696 -0.59099,-0.15582c-0.08741,-0.13915 0.24151,-0.22424 0.59099,-0.22424c0.17656,0 0.36017,0.02733 0.44333,0.06348c0.08145,0.0354 0.06424,0.07909 0.06424,0.13102z"/><path d="M82.13802,170.81889c0,0.14079 0.00384,0.25268 -0.06038,0.25268c-0.06422,0 -0.11629,-0.11413 -0.11629,-0.25492c0,-0.14079 0.05206,-0.25492 0.11629,-0.25492c0.06422,0 0.06038,0.11637 0.06038,0.25716z"/><path d="M82.13262,170.55166c0.08583,0 0.18225,0.04175 0.18225,0.08497c0,0.04323 -0.06958,0.07827 -0.15542,0.07827c-0.08583,0 -0.15543,-0.03504 -0.15543,-0.07827c0,-0.04323 0.04275,-0.08497 0.12857,-0.08497z"/><path d="M82.00405,171.00411c0,-0.04323 0.06958,-0.07826 0.15542,-0.07826c0.08583,0 0.15542,0.03504 0.15542,0.07826c0,0.04323 -0.09642,0.08497 -0.18225,0.08497c-0.08583,0 -0.12857,-0.04175 -0.12857,-0.08497z"/></g></g></g><path d="M261.45433,216.66956c0,0 1.2461,-5.83685 0.65125,-9.82708c-0.16127,-1.0818 -1.10878,-1.94831 -1.47091,-2.62158c-1.3646,-2.53702 0,-9.01454 0,-9.01454h5.56197v21.20566z" fill="#5d5d5d" stroke="none" stroke-width="0" stroke-linecap="butt"/><path d="M261.24034,197.16114c0,0 -0.46569,2.94877 0.10706,5.89472c0.17967,0.92414 0.89599,1.35108 1.36824,2.18491c0.28039,0.49508 0.42293,1.46283 0.45774,1.86266c0.24956,2.86658 -0.33265,8.44075 -0.33265,8.44075" fill="none" stroke="#fff700" stroke-width="1" stroke-linecap="round"/><path d="M166.23083,227.81631v-12.00471h179.80455v12.00471z" fill="#9e9898" stroke="none" stroke-width="0" stroke-linecap="butt"/><path d="M346.03539,116.48212v30.88383h-188.44007v-30.88383z" fill="#9e9898" stroke="none" stroke-width="0" stroke-linecap="butt"/><path d="M178.48712,142.33102v56.0515h-24.51256v-56.0515z" fill="#9e9898" stroke="none" stroke-width="0" stroke-linecap="butt"/><path d="M345.43483,142.33102v56.0515h-36.56114v-56.0515z" fill="#9e9898" stroke="none" stroke-width="0" stroke-linecap="butt"/><path d="M224.06007,196.90672v-4.9807h58.2259v4.9807z" fill="#9e9898" stroke="none" stroke-width="0" stroke-linecap="butt"/><path d="M210.57511,185.93478v-4.02283h58.2259v4.02283z" fill="#9e9898" stroke="none" stroke-width="0" stroke-linecap="butt"/><path d="M210.57511,173.86968v-30.88382h74.10299v30.88383z" fill="#9e9898" stroke="none" stroke-width="0" stroke-linecap="butt"/><path d="M279.89381,196.90672v-49.54076h4.78429v49.54076z" fill="#9e9898" stroke="none" stroke-width="0" stroke-linecap="butt"/><path d="M210.57511,182.83705v-40.50602h4.78429v40.50602z" fill="#9e9898" stroke="none" stroke-width="0" stroke-linecap="butt"/><path d="M228.6582,164.22914l-0.49803,-14.91449l12.1643,-0.4062l0.49804,14.91449z" fill="#be9c62" stroke="none" stroke-width="0" stroke-linecap="butt"/><text transform="translate(228.42958,151.76369) rotate(-1.87895) scale(0.04361,0.05069) skewX(-0.56776)" font-size="40" xml:space="preserve" fill="#ffe2b1" stroke="none" stroke-width="1" stroke-linecap="butt" font-family="Sans Serif" font-weight="normal" text-anchor="start"><tspan x="0" dy="0">Las llaves</tspan><tspan x="0" dy="48px">abren puertas</tspan><tspan x="0" dy="48px">amarillas</tspan></text><path d="M230.70676,162.47974v-4.93851h8.58362v4.93851z" fill="none" stroke="none" stroke-width="NaN" stroke-linecap="butt"/><path d="M231.38037,158.22079c1.03579,-0.14574 1.99362,0.57579 2.13935,1.61158c0.14574,1.03579 -0.57579,1.99362 -1.6116,2.13935c-1.03579,0.14574 -1.99362,-0.57579 -2.13935,-1.61158c-0.14574,-1.03579 0.5758,-1.99362 1.61159,-2.13935zM231.7064,160.75132c0.35209,-0.04954 0.59737,-0.37513 0.54783,-0.72723c-0.04954,-0.35209 -0.37513,-0.59737 -0.72723,-0.54783c-0.35209,0.04954 -0.59737,0.37514 -0.54783,0.72723c0.04954,0.35209 0.37514,0.59736 0.72723,0.54782z" fill="#be9c62" stroke="#ffe2b1" stroke-width="1" stroke-linecap="butt"/><path d="M233.6324,160.63321l-0.21252,-1.51045l4.24436,-0.59718l0.21252,1.51046z" fill="#be9c62" stroke="#ffe2b1" stroke-width="1" stroke-linecap="butt"/><path d="M237.43875,161.75838l-0.2019,-1.43492l0.73374,-0.10323l0.20189,1.43492z" fill="#be9c62" stroke="#ffe2b1" stroke-width="1" stroke-linecap="butt"/><path d="M235.75764,161.9949l-0.20189,-1.43492l0.73374,-0.10325l0.20189,1.43492z" fill="#be9c62" stroke="#ffe2b1" stroke-width="1" stroke-linecap="butt"/><path d="M234.12287,162.22491l-0.20189,-1.43492l0.73374,-0.10324l0.20189,1.43492z" fill="#be9c62" stroke="#ffe2b1" stroke-width="1" stroke-linecap="butt"/><path d="M234.18703,161.27833l-0.17236,-1.22495l0.3467,-0.04878l0.17236,1.22494z" fill="#be9c62" stroke="#a39300" stroke-width="0" stroke-linecap="butt"/><path d="M235.81605,161.00743l-0.17235,-1.22495l0.3467,-0.04878l0.17235,1.22494z" fill="#be9c62" stroke="#a39300" stroke-width="0" stroke-linecap="butt"/><path d="M237.52916,160.99835l-0.30248,-2.14985l0.34669,-0.04878l0.30249,2.14985z" fill="#be9c62" stroke="#a39300" stroke-width="0" stroke-linecap="butt"/><path d="M233.21862,160.52924l-0.14692,-1.14115l4.50167,-0.69222l0.14692,1.14115z" fill="#be9c62" stroke="none" stroke-width="0" stroke-linecap="butt"/><path d="M246.707,164.25721l2.22715,-18.17412l14.82287,1.81647l-2.22715,18.17412z" fill="#be9c62" stroke="none" stroke-width="0" stroke-linecap="butt"/><text transform="translate(249.14158,149.40315) rotate(7.01189) scale(0.04366,0.05073) skewX(-0.5709)" font-size="40" xml:space="preserve" fill="#ffe2b1" stroke="none" stroke-width="1" stroke-linecap="butt" font-family="Sans Serif" font-weight="normal" text-anchor="start"><tspan x="0" dy="0">Todos los niveles</tspan><tspan x="0" dy="48px">tienen 3 zonas</tspan></text><path d="M253.55122,157.81971c-0.20206,0.0906 -0.29266,-0.11146 -0.29266,-0.11146l-0.09849,-0.21969c-0.0199,-0.04731 -0.11882,-0.41813 -0.16612,-0.61329c-0.02383,0.26114 -0.29555,0.82544 -0.3233,0.9033c0,0 -0.07434,0.20859 -0.28293,0.13424c-0.20858,-0.07434 -0.13424,-0.28292 -0.13424,-0.28292c0.13927,-0.39072 0.42035,-1.83421 1.06581,-1.06405c0.16821,0.2007 0.14422,0.5049 0.2468,0.74583l0.09659,0.21537c0,0 0.0906,0.20206 -0.11146,0.29266z" fill="#ffe2b1" stroke="none" stroke-width="0.5" stroke-linecap="butt"/><path d="M257.00365,159.12567c-0.20841,0.07484 -0.28324,-0.13357 -0.28324,-0.13357l-0.0437,-0.12206c-0.18867,-0.47449 -0.31914,-0.95125 -0.45084,-1.44319c-0.12187,0.3646 -0.2328,0.73328 -0.39521,1.07976c0,0 -0.09446,0.20029 -0.29475,0.10583c-0.20029,-0.09446 -0.10584,-0.29474 -0.10584,-0.29474c0.21703,-0.45713 0.3385,-0.96068 0.5198,-1.43552l0.0082,-0.00873l-0.00329,-0.00166l0.10554,-0.20898c0.03972,-0.08344 0.12943,-0.13623 0.22626,-0.12466c0.08778,0.01048 0.15739,0.07097 0.18376,0.14955l0.04275,0.27097c0.25313,0.55251 0.34449,1.16802 0.57513,1.74768l0.049,0.13607c0,0 0.07484,0.20842 -0.13357,0.28325z" fill="#ffe2b1" stroke="none" stroke-width="0.5" stroke-linecap="butt"/><path d="M254.19125,159.35302c-0.20796,-0.03393 -0.41448,-0.07342 -0.61872,-0.12096c0,0 -0.21562,-0.05039 -0.16523,-0.26602c0.05039,-0.21563 0.26602,-0.16525 0.26602,-0.16525c1.02341,0.24017 2.10766,0.29161 3.15091,0.41624c0.21652,0.02586 0.93606,0.02732 1.05849,0.20532c0.17086,0.24839 -0.21909,0.71138 -0.33213,0.84508c-0.47888,0.56644 -1.12712,0.77596 -1.84754,0.84236c-0.3591,0.02811 -1.22815,0.14772 -1.50462,-0.18647c-0.32769,-0.39609 -0.17461,-1.11816 -0.00718,-1.57031zM254.66049,159.42093c-0.01193,0.05095 -0.03564,0.08603 -0.0637,0.1101c-0.11234,0.30361 -0.25079,0.83246 -0.07482,1.08985c0.1227,0.17947 0.97329,0.06106 1.14383,0.04758c0.42092,-0.03695 0.93123,-0.11291 1.26553,-0.40184c0.1011,-0.08738 0.19437,-0.18408 0.28136,-0.28551c0.0718,-0.08373 0.1219,-0.18515 0.1931,-0.26906c-0.29518,0.07458 -0.84008,-0.07988 -1.07387,-0.1078c-0.55247,-0.066 -1.11484,-0.11161 -1.67145,-0.1833z" fill="#ffe2b1" stroke="none" stroke-width="0.5" stroke-linecap="butt"/><path d="M254.80159,160.98252c-0.17405,0.13691 -0.31096,-0.03715 -0.31096,-0.03715l-0.03902,-0.05506c-0.32342,-0.62955 -0.12252,-1.30834 0.41799,-1.73856c0,0 0.17405,-0.1369 0.31096,0.03715c0.13691,0.17405 -0.03715,0.31096 -0.03715,0.31096c-0.36395,0.2821 -0.54264,0.75718 -0.30141,1.18131l-0.00328,-0.00961c0,0 0.1369,0.17405 -0.03715,0.31096z" fill="#ffe2b1" stroke="none" stroke-width="0.5" stroke-linecap="butt"/><path d="M255.86945,160.91436c-0.18277,0.12503 -0.30779,-0.05775 -0.30779,-0.05775l-0.15896,-0.27187c-0.06559,-0.46581 0.05506,-0.84857 0.19108,-1.29043c0,0 0.06517,-0.21164 0.27681,-0.14646c0.21163,0.06518 0.14646,0.27681 0.14646,0.27681c-0.11467,0.3722 -0.23841,0.70236 -0.17625,1.09504l0.08642,0.08684c0,0 0.12503,0.18277 -0.05775,0.3078z" fill="#ffe2b1" stroke="none" stroke-width="0.5" stroke-linecap="butt"/><path d="M257.55062,159.58569c0.02843,0.06365 0.02065,0.12887 0.02065,0.12887l-0.02025,0.16188c-0.06248,0.12758 -0.04749,0.35837 -0.18743,0.38273c-0.81002,0.14098 -0.41117,-0.70634 -0.15249,-0.88721c0,0 0.18968,-0.11426 0.30394,0.07543c0.03135,0.05204 0.03981,0.09841 0.0356,0.13829z" fill="#ffe2b1" stroke="none" stroke-width="0.5" stroke-linecap="butt"/><path d="M259.48107,158.42778c0,2.62015 -2.13229,4.7442 -4.7626,4.7442c-2.6303,0 -4.7626,-2.12405 -4.7626,-4.7442c0,-2.62015 2.13229,-4.74421 4.7626,-4.74421c2.6303,0 4.7626,2.12406 4.7626,4.74421z" fill="none" stroke="#ffe2b1" stroke-width="1" stroke-linecap="butt"/><path d="M218.69083,176.31577c0.75888,0 1.37409,0.61519 1.37409,1.37409c0,0.75888 -0.61521,1.37409 -1.37409,1.37409c-0.75888,0 -1.37409,-0.61519 -1.37409,-1.37409c0,-0.75888 0.6152,-1.37409 1.37409,-1.37409zM218.66926,178.16676c0.25797,0 0.46709,-0.20913 0.46709,-0.46708c0,-0.25797 -0.20913,-0.46709 -0.46709,-0.46709c-0.25797,0 -0.46708,0.20913 -0.46708,0.46709c0,0.25797 0.20913,0.46708 0.46708,0.46708z" fill="#ffe500" stroke="#a39300" stroke-width="0.5" stroke-linecap="butt"/><path d="M220.06493,178.27659v-1.10665h3.10968v1.10665z" fill="#ffe500" stroke="#a39300" stroke-width="1" stroke-linecap="butt"/><path d="M222.68581,179.4697v-1.05132h0.53759v1.05132z" fill="#ffe500" stroke="#a39300" stroke-width="0.5" stroke-linecap="butt"/><path d="M221.45412,179.4697v-1.05132h0.53759v1.05132z" fill="#ffe500" stroke="#a39300" stroke-width="0.5" stroke-linecap="butt"/><path d="M220.38339,179.32177v-1.05132h0.53758v1.05132z" fill="#ffe500" stroke="#a39300" stroke-width="0.5" stroke-linecap="butt"/><path d="M220.39817,178.79613v-0.89747h0.25402v0.89747z" fill="#ffe500" stroke="#a39300" stroke-width="0" stroke-linecap="butt"/><path d="M221.59592,178.76617v-0.89748h0.25402v0.89748z" fill="#ffe500" stroke="#a39300" stroke-width="0" stroke-linecap="butt"/><path d="M222.82759,178.93282v-1.57511h0.25401v1.57511z" fill="#ffe500" stroke="#a39300" stroke-width="0" stroke-linecap="butt"/><path d="M219.29323,178.12273v-0.76502h3.78837v0.76502z" fill="#ffe500" stroke="none" stroke-width="0" stroke-linecap="butt"/><path d="M216.8603,179.85453v-3.92357h6.81955v3.92357z" fill="none" stroke="none" stroke-width="NaN" stroke-linecap="butt"/><g><path d="M428.25844,184.75173c0,0 -5.80653,-1.23962 -9.77603,-0.64786c-1.07618,0.16043 -1.9382,1.10301 -2.60797,1.46326c-2.52384,1.35751 -8.96772,0 -8.96772,0v-5.53307h21.09551z" fill="#5d5d5d" stroke="none" stroke-width="0" stroke-linecap="butt"/><path d="M408.85134,184.96461c0,0 2.93346,0.46328 5.86412,-0.10651c0.91934,-0.17874 1.34407,-0.89133 2.17356,-1.36112c0.49251,-0.27893 1.45522,-0.42073 1.85297,-0.45536c2.85168,-0.24827 8.39691,0.33092 8.39691,0.33092" fill="none" stroke="#ff0000" stroke-width="2.5" stroke-linecap="round"/></g><g><path d="M454.02618,216.60576c0,0 1.23963,-5.80653 0.64787,-9.77603c-0.16043,-1.07618 -1.10302,-1.9382 -1.46327,-2.60797c-1.35751,-2.52384 0,-8.96772 0,-8.96772h5.53308v21.0955z" fill="#5d5d5d" stroke="none" stroke-width="0" stroke-linecap="butt"/><path d="M453.8133,197.19866c0,0 -0.46329,2.93346 0.1065,5.86412c0.17874,0.91934 0.89134,1.34407 1.36112,2.17356c0.27893,0.49251 0.42074,1.45522 0.45536,1.85297c0.24827,2.85169 -0.33092,8.39691 -0.33092,8.39691" fill="none" stroke="#fff700" stroke-width="2.5" stroke-linecap="round"/></g><g stroke="none" stroke-width="0" stroke-linecap="butt"><path d="M401.19072,217.40191c-4.57232,0 -8.10912,0.07422 -8.10912,-1.64968c0,-1.72389 3.70661,-3.1214 8.27893,-3.1214c4.57232,0 8.27893,1.39749 8.27893,3.1214c0,1.72389 -3.87641,1.64968 -8.44873,1.64968z" fill="#a81212"/><path d="M393.08162,218.07229v-3.95631h16.55784v3.95631z" fill="#636363"/></g><path d="M496.02181,105.87192v40.50602h-156.87846v-40.50602z" fill="#9e9898" stroke="none" stroke-width="0" stroke-linecap="butt"/><path d="M340.1818,227.74239v-11.94236h149.72542v11.94236z" fill="#9e9898" stroke="none" stroke-width="0" stroke-linecap="butt"/><path d="M492.60674,141.36918v55.76037h-17.90958v-55.76037z" fill="#9e9898" stroke="none" stroke-width="0" stroke-linecap="butt"/><path d="M492.60674,177.20635v19.9232h-67.53932v-19.9232z" fill="#9e9898" stroke="none" stroke-width="0" stroke-linecap="butt"/><path d="M409.59311,144.2582v42.44186h-30.30872v-42.44185z" fill="#9e9898" stroke="none" stroke-width="0" stroke-linecap="butt"/><path d="M601.77273,169.91872v-13.86168h19.74805v13.86168z" fill="#9700ff" stroke="none" stroke-width="0" stroke-linecap="butt"/><path d="M604.79795,157.77749c0,-0.29717 0.27484,-0.53808 0.61389,-0.53808c0.33905,0 0.6139,0.2409 0.6139,0.53808c0,0.29717 -0.27485,0.53809 -0.6139,0.53809c-0.33905,0 -0.61389,-0.24091 -0.61389,-0.53809z" fill="#55008f" stroke="none" stroke-width="0.5" stroke-linecap="butt"/><path d="M618.3521,163.07274c0,-0.29717 0.27484,-0.53808 0.6139,-0.53808c0.33905,0 0.6139,0.2409 0.6139,0.53808c0,0.29717 -0.27484,0.53808 -0.6139,0.53808c-0.33905,0 -0.6139,-0.2409 -0.6139,-0.53808z" fill="#55008f" stroke="none" stroke-width="0.5" stroke-linecap="butt"/><path d="M605.05529,166.32489l0.02658,0.01553l0.07717,0.01691l0.09839,0.00663l0.23236,0.06789l0.03728,0.02079l0.04314,0.0084l0.01717,0.00753l0.24444,0.05356l0.09269,0.04333l0.09895,0.03098l0.0277,0.01619l0.20665,0.04529l0.05965,0.02788l0.066,0.01286l0.07745,0.03394l0.02945,0.02213l0.03653,0.01144l0.08438,0.04931l0.00424,0.00186l0.30715,0.08974l0.03728,0.0208l0.04313,0.0084l0.11589,0.05079l0.05242,0.01531l0.13202,0.02893l0.0927,0.04334l0.09894,0.03098l0.08438,0.0493l0.19817,0.08685l0.04237,0.03184l0.05142,0.01898l0.1549,0.10183l0.02684,0.02895l0.00997,0.00313l0.13416,0.02939l0.01032,0.01582l0.02326,0.00728l0.0277,0.01619l0.01578,0.00346l0.27303,0.02991l0.03511,0.01191h0.03764l0.41866,0.09175l0.35099,0.02797h2.15748l0.13401,-0.02349l0.02288,0.00096l0.02136,-0.00725l0.57633,-0.06315l0.3839,-0.09177l0.04166,-0.00078l0.03873,-0.01347l0.54665,-0.06389l0.42655,-0.09347l0.55811,-0.13044l0.36891,-0.10778l0.3553,-0.20762v-0.67706l-0.01069,-0.04681l-0.12779,-0.224l-0.11428,-0.1252l-0.00714,-0.01364l-0.01304,-0.00973l-0.13416,-0.16463l-0.17976,-0.11255l-0.32815,-0.19174l-0.37149,-0.19537l-0.42024,-0.21487l-0.84569,-0.29005l-0.6604,-0.2251l-0.73057,-0.16009l-0.83773,-0.16688l-0.75908,-0.13306l-0.88308,-0.1346l-0.00727,-0.00283l-0.00794,0.00033l-0.71492,-0.12532h-0.57203l-0.40966,0.02992l-0.35383,0.05639l-0.25688,0.07505l-0.43136,0.20358l-0.18615,0.10877l-0.12441,0.08724l-0.0736,0.07742l-0.08011,0.23408l-0.02021,0.02979l-0.00681,0.03413l-0.15491,0.30549l-0.0088,0.00987l-0.0031,0.01223l-0.12477,0.21872l-0.12023,0.42154v0.55925l0.00269,0.00708c0.02275,0.05545 0.0354,0.11515 0.03602,0.17734l0.04161,0.00911l0.01032,0.01583zM603.77936,166.45577l-0.03425,-0.09006l-0.00756,-0.08624l-0.02392,-0.0839v-0.71282l0.01833,-0.06426v-0.06624l0.1549,-0.5431l0.03181,-0.05229l0.01467,-0.05785l0.14867,-0.26061l0.13342,-0.26312l0.0842,-0.24598l-0.00037,-0.00086l0.00173,-0.00314l0.01941,-0.05674l0.06289,-0.09271l0.0535,-0.09714l0.04327,-0.0455l0.00204,-0.00301l0.00101,-0.00021l0.14731,-0.15494l0.05033,-0.03223l0.03778,-0.04346l0.19363,-0.13577l0.0247,-0.00992l0.01828,-0.01762l0.23236,-0.13577l0.02772,-0.00868l0.02176,-0.01738l0.50344,-0.2376l0.05182,-0.01155l0.0451,-0.02515l0.34854,-0.10183l0.04405,-0.00297l0.04026,-0.01597l0.42599,-0.06788l0.03019,0.00173l0.02864,-0.00854l0.46471,-0.03394l0.0257,0.00367l0.02528,-0.00553h0.65834l0.05932,0.01299l0.06108,-0.00254l0.76693,0.13444l0.88307,0.13461l0.00727,0.00283l0.00794,-0.00033l0.77452,0.13577l0.00743,0.00308l0.00822,-0.00016l0.85198,0.16972l0.00605,0.00268h0.00679l0.77452,0.16971l0.03465,0.0162l0.03896,0.00433l0.69707,0.2376l0.00054,0.00034l0.00066,0.00008l0.8907,0.30549l0.03931,0.0245l0.04632,0.0118l0.4647,0.23761l0.00279,0.00239l0.00374,0.00099l0.38726,0.20366l0.01058,0.00927l0.01411,0.00442l0.34854,0.20366l0.00683,0.00659l0.00946,0.00326l0.27108,0.16972l0.06566,0.06755l0.07708,0.05754l0.1839,0.22568l0.14445,0.15827l0.02721,0.05204l0.0425,0.04346l0.19363,0.33944l0.01779,0.07016l0.0351,0.06495l0.03872,0.16972l-0.00291,0.05353l0.01484,0.05199v0.98436l-0.02937,0.10298l0.01234,0.03969l-0.04059,0.05929l-0.01913,0.06707l-0.04075,0.02042l-0.06232,0.09103l-0.11618,0.10183l-0.05242,0.02757l-0.04113,0.03965l-0.5809,0.33943l-0.07722,0.02418l-0.06918,0.03859l-0.4647,0.13577l-0.01915,0.00129l-0.0168,0.00815l-0.5809,0.13577l-0.00494,0.00007l-0.00436,0.00204l-0.46471,0.10183h-0.03511l-0.03265,0.01135l-0.54015,0.06313l-0.38634,0.09235l-0.04418,0.00082l-0.04121,0.01398l-0.59736,0.06545l-0.17163,0.03009l-0.06108,-0.00254l-0.05932,0.013h-2.24612l-0.02753,-0.00603l-0.02804,0.00383l-0.426,-0.03394l-0.04531,-0.01386h-0.048l-0.42875,-0.09395l-0.27303,-0.02991l-0.03511,-0.01191h-0.03764l-0.15491,-0.03394l-0.09269,-0.04333l-0.09895,-0.03098l-0.00333,-0.00196l-0.00599,-0.00131l-0.04529,0.01083l-0.06763,-0.03557l-0.07652,-0.01676l-0.02329,-0.03573l-0.10386,-0.05462l-0.08533,-0.07479l-0.07572,-0.04978l-0.18286,-0.08013l-0.02945,-0.02212l-0.03654,-0.01144l-0.0277,-0.01619l-0.05174,-0.01134l-0.02124,-0.00993l-0.024,-0.00161l-0.11618,-0.03395l-0.03727,-0.02079l-0.04314,-0.0084l-0.11589,-0.05079l-0.30715,-0.08974l-0.03728,-0.02079l-0.04314,-0.0084l-0.07745,-0.03395l-0.02945,-0.02212l-0.03653,-0.01144l-0.07418,-0.04335l-0.23762,-0.05208l-0.0927,-0.04333l-0.09894,-0.03097l-0.02769,-0.01619l-0.20666,-0.04529l-0.05965,-0.02788l-0.066,-0.01286l-0.03843,-0.01685l-0.09646,-0.02818h-0.01655l-0.09574,-0.02098l-0.09839,-0.00663l-0.11618,-0.03394l-0.06918,-0.03859l-0.07451,-0.02333l-0.08867,-0.00599l-0.11618,-0.03394l-0.03728,-0.02079l-0.04314,-0.0084l-0.07745,-0.03395l-0.24023,-0.18047l-0.02519,-0.39737c-0.03717,-0.04597 -0.06632,-0.0973 -0.08564,-0.15238z" fill="#55008f" stroke="none" stroke-width="0.5" stroke-linecap="butt"/><path d="M652.64658,136.13686v7.84262h-164.66482v-7.84262z" fill="#9e9898" stroke="none" stroke-width="0" stroke-linecap="butt"/><path d="M489.07177,227.98424v-12.5351h49.51479v12.5351z" fill="#9e9898" stroke="none" stroke-width="0" stroke-linecap="butt"/><path d="M487.9925,197.25005v-61.29487h7.76414v61.29487z" fill="#9e9898" stroke="none" stroke-width="0" stroke-linecap="butt"/><path d="M649.06203,138.72211v58.52792h-18.7985v-58.52792z" fill="#9e9898" stroke="none" stroke-width="0" stroke-linecap="butt"/><path d="M586.28117,227.98425v-12.5351h59.94734v12.5351z" fill="#9e9898" stroke="none" stroke-width="0" stroke-linecap="butt"/><path d="M590.23979,183.01824v-13.36055h46.53152v13.36055z" fill="#9e9898" stroke="none" stroke-width="0" stroke-linecap="butt"/><path d="M807.12181,136.08371v7.73139h-162.32934v-7.73139z" fill="#9e9898" stroke="none" stroke-width="0" stroke-linecap="butt"/><path d="M644.80304,197.19947v-61.29486h7.65402v61.29486z" fill="#9e9898" stroke="none" stroke-width="0" stroke-linecap="butt"/><path d="M803.58808,166.11736v58.52792h-18.53188v-58.52792z" fill="#9e9898" stroke="none" stroke-width="0" stroke-linecap="butt"/><path d="M651.81598,132.19732c0,-0.10027 0.08129,-0.18156 0.18156,-0.18156c0.10027,0 0.18156,0.08129 0.18156,0.18156c0,0.10027 -0.08128,0.18156 -0.18156,0.18156c-0.10027,0 -0.18156,-0.08129 -0.18156,-0.18156z" fill="#ffe2b1" stroke="none" stroke-width="0.5" stroke-linecap="butt"/><path d="M642.45699,227.83034v-12.35731h158.33777v12.35731z" fill="#9e9898" stroke="none" stroke-width="0" stroke-linecap="butt"/><path d="M728.18247,225.95711v-24.77513h19.46797v24.77513z" fill="#9e9898" stroke="none" stroke-width="0" stroke-linecap="butt"/><path d="M744.34791,221.09071v-30.13864h54.43708v30.13864z" fill="#9e9898" stroke="none" stroke-width="0" stroke-linecap="butt"/><path d="M586.28117,371.83851v-147.19322h279.16656v147.19322z" fill="#9e9898" stroke="none" stroke-width="0" stroke-linecap="butt"/><path d="M-175.04952,369.331v-147.19322h713.64943v147.19322z" fill="#9e9898" stroke="none" stroke-width="0" stroke-linecap="butt"/><path d="M-260.6351,137.09375v-147.19322h1116.05183v147.19322z" fill="#9e9898" stroke="none" stroke-width="0" stroke-linecap="butt"/><path d="M-163.11913,144.28447v-25.32833h324.57786v25.32833z" fill="#9e9898" stroke="none" stroke-width="0" stroke-linecap="butt"/></g></g></svg>