<svg version="1.1" xmlns="http://www.w3.org/2000/svg" xmlns:xlink="http://www.w3.org/1999/xlink" width="86.91154" height="177.45493" viewBox="0,0,86.91154,177.45493"><g transform="translate(-196.54423,-82.08467)"><g stroke="none" stroke-miterlimit="10"><path d="" fill="#000000" stroke-width="0.5"/><path d="" fill="#000000" stroke-width="0.5"/><path d="" fill="#000000" stroke-width="0.5"/><path d="" fill="#000000" stroke-width="0.5"/><path d="" fill="#000000" stroke-width="0.5"/><path d="" fill="#000000" stroke-width="0.5"/><path d="" fill="#000000" stroke-width="0.5"/><path d="" fill="#000000" stroke-width="0.5"/><path d="" fill="#000000" stroke-width="0.5"/><path d="M283.45577,238.17276v21.36684h-47.65436" fill-opacity="0" fill="#9e9898" stroke-width="0"/><path d="M223.61157,259.5396h-27.06734v-56.47871" fill-opacity="0" fill="#9e9898" stroke-width="0"/><path d="M196.54423,183.39942v-82.93897h86.91154v125.66828" fill-opacity="0" fill="#9e9898" stroke-width="0"/><path d="M234.77477,156.77131c-1.08763,0.63848 -2.4157,0.72579 -3.62355,1.08868c-1.15938,-0.21908 -2.37496,-0.23875 -3.47814,-0.65725c-8.4402,-3.20186 -8.96521,-14.11878 -8.97586,-21.75884c-0.00541,-3.8793 -0.33414,-8.03175 0.84653,-11.7955c1.45272,-4.631 3.33889,-7.59213 3.33398,-12.54978c0,0 0,-0.19905 0.05617,-0.48482c-1.31384,-1.18567 -3.91274,-2.15734 -4.92976,-1.52107c-0.65706,0.41107 -1.5367,2.59437 -1.74093,3.02696l0.05666,2.17578c0,0 0,2.5 -2.5,2.5c-2.5,0 -2.5,-2.5 -2.5,-2.5l0.05667,-3.23427c0.9714,-2.18193 1.79373,-5.05461 4.16096,-6.31769c3.7317,-1.99112 9.36357,0.03486 11.90699,3.54612c2.11213,-2.1367 4.69146,-3.32475 7.43108,-4.77105c7.3539,-2.74717 18.83831,-2.9583 23.02597,5.39468c0.30449,0.60736 0.56294,1.23642 0.78197,1.88271c0.35836,-1.13783 0.66634,-2.06569 0.71722,-2.13441c5.66069,-7.64476 14.12097,1.5036 17.27807,6.59163c0,0 1.31024,2.12915 -0.81891,3.43939c-2.12914,1.31024 -3.43939,-0.8189 -3.43939,-0.8189c-1.52564,-2.50375 -4.70726,-7.30508 -8.22287,-7.17511c-0.91203,0.03372 -1.73051,4.47989 -1.81964,5.15275c-0.60854,4.59423 2.01045,8.55243 2.48091,12.97851c0.56482,5.31374 0.33472,11.43522 -0.74077,16.63763c-0.61554,3.22064 -0.89995,7.79329 -4.02042,9.85295c-4.62271,3.05121 -13.08129,2.80463 -16.86658,-1.42412c-0.38442,-0.42945 -0.69477,-0.80922 -0.94722,-1.15876c0,6.23663 0,12.47325 0,18.70988c0,4.99041 -0.4038,10.2819 0.1598,15.24166c0.39294,3.45795 1.51293,7.0765 2.24763,10.49342c1.20528,0.71989 1.11823,2.28679 1.11823,2.28679c-0.2242,4.01313 -0.17262,8.0197 -0.17262,12.03816c0,2.52645 -0.42082,5.46033 0.12015,7.94316c0.74596,3.42362 3.60116,6.08777 4.7015,9.46963c2.19296,6.73998 2.09323,13.17204 2.03674,20.17037c-0.25931,0.9369 -0.51862,1.87381 -0.77793,2.81071l-0.81252,1.25744c0,0 -1.76777,1.76776 -3.53554,0c-1.26679,-1.26679 -0.718,-2.53358 -0.30522,-3.14984c0.15984,-0.53727 0.31969,-1.07455 0.47953,-1.61182c-0.06601,-6.28425 0.07414,-11.88689 -1.84573,-17.94841c-1.14735,-3.62248 -3.9574,-6.17571 -4.82819,-9.94272c-0.31108,-1.34572 -0.23249,-5.03322 -0.2328,-6.35138c-0.00073,-3.12613 -0.03784,-6.25274 0.00226,-9.37753c-0.29307,0.7528 -0.5402,1.52595 -0.70988,2.3352c-1.30316,6.21526 -1.69327,13.14978 -3.99028,19.0618c-1.27983,3.29403 -3.6142,6.24894 -4.72123,9.584c-1.33999,4.03692 -1.45461,8.54286 -1.47588,12.73945l0.49305,2.40319c0,0 0.49029,2.45146 -1.96116,2.94174c-2.45145,0.49029 -2.94174,-1.96116 -2.94174,-1.96116l-0.56581,-2.89108c-0.02053,-4.88341 0.13027,-10.09473 1.70069,-14.79078c1.15221,-3.44544 3.47189,-6.44064 4.80847,-9.82834c2.23344,-5.6609 2.45307,-12.39644 3.77465,-18.35108c0.8381,-3.7762 3.17893,-6.63433 4.16666,-10.32332c-0.6763,-2.79504 -1.42148,-5.66026 -1.73971,-8.43115c-0.59185,-5.15333 -0.19314,-10.63372 -0.19314,-15.81809c0,-5.67206 0,-11.34411 0,-17.01617c-0.68654,0.92737 -1.49359,1.74392 -2.50912,2.34006zM224.67076,143.5804c0.41244,4.48186 1.18099,8.13731 6.2454,9.28514c2.88436,-0.86171 3.69987,-3.88541 5.06358,-6.34014l-0.31461,0.47637c0,0 0,-1.55303 1.22405,-2.21098c-0.04007,-0.00625 -0.07754,-0.01294 -0.11226,-0.02007c-3.36633,-0.69158 -9.37144,-4.24215 -11.36893,-6.97259c-0.73758,-1.00823 -1.28513,-2.24324 -1.68289,-3.55327c0.19407,3.10158 0.65457,6.17229 0.94566,9.33555zM245.36427,145.17163l0.42983,1.61205c0.56446,5.63637 6.68129,7.01563 11.44181,4.43673c1.46591,-0.79412 1.80764,-5.82895 1.97976,-6.73578c1.01374,-4.71748 1.15184,-10.31021 0.67104,-15.12802c-0.0332,-0.33267 -0.07606,-0.66128 -0.12694,-0.98647c-0.0023,3.52528 -0.14121,7.97701 -1.69508,10.69361c-2.52755,4.41886 -8.23479,5.02868 -12.90876,5.61646c0.14787,0.27976 0.20834,0.49143 0.20834,0.49143zM244.49972,139.74409c2.86306,-0.27158 8.01504,-0.61308 9.12198,-2.9738c1.33538,-2.84792 1.13554,-7.43756 1.1333,-10.50069c-0.00351,-4.79689 0.71905,-10.59655 -1.32309,-15.11522c-2.62377,-5.80564 -11.89081,-4.81484 -16.50462,-3.07615c-0.57983,0.30796 -4.40814,2.29015 -5.09213,2.83337c-4.22756,3.3575 -4.02471,9.82586 -4.02229,14.6521c0.00149,2.97849 -0.18459,6.68933 1.6403,9.29563c0.5402,0.7715 4.08817,2.68496 4.34918,2.83614c3.79642,2.199 5.47885,2.18291 9.91563,1.96007c0,0 0.34333,-0.01716 0.78173,0.08855z" fill="#000000" stroke-width="0.5"/><path d="M265.23004,107.97263c-0.27415,8.2114 -7.86386,3.45861 -21.23233,3.01228c-13.36846,-0.44632 -27.45331,3.58284 -27.17916,-4.62856c0.27415,-8.2114 11.33367,-14.50624 24.70213,-14.05992c13.36846,0.44632 23.98349,7.46479 23.70934,15.6762z" fill="#c3dce2" stroke-width="0"/><path d="M258.45895,111.21421c-0.16425,4.91959 -1.63679,8.86298 -3.28903,8.80782c-1.65224,-0.05516 -2.85849,-4.088 -2.69425,-9.00758c0.16425,-4.91959 1.6368,-8.86298 3.28904,-8.80782c1.65224,0.05516 2.85849,4.08799 2.69424,9.00758z" fill="#c3dce2" stroke-width="0"/><path d="M268.47526,131.08863c-0.53908,0.55988 -0.6966,1.27256 -1.81732,0.96172c-1.55766,-0.43205 -4.34045,-2.33172 -6.93178,-4.82675c-4.45575,-4.29018 -6.00119,-7.42317 -5.62197,-9.24153c0.59376,-2.84721 5.83173,0.10581 10.28747,4.39599c2.25104,2.1674 4.25656,4.76983 4.87297,6.25151c0.60372,1.45118 -0.15189,1.797 -0.78936,2.45907z" fill="#c3dce2" stroke-width="0"/><g fill="#c3dce2" stroke-width="0"><path d="M269.44368,131.72022c-1.72834,1.79505 -3.05298,3.26888 -3.87177,2.48052c-0.8188,-0.78837 -0.08146,-2.88263 1.64688,-4.67767c1.72834,-1.79504 3.79321,-2.61111 4.612,-1.82274c0.8188,0.78837 -0.65878,2.22486 -2.38711,4.0199z"/><path d="M272.65553,128.24707c1.09435,1.05368 1.8111,2.76957 1.28047,3.32069c-0.53063,0.55111 -1.84793,0.14369 -2.94227,-0.90999c-1.09434,-1.05368 -1.55134,-2.35462 -1.0207,-2.90573c0.53063,-0.55111 1.58817,-0.55865 2.68252,0.49503z"/><path d="M265.4619,132.43725c0.53063,-0.55111 1.84793,-0.1437 2.94227,0.90998c1.09435,1.05368 1.55134,2.35463 1.0207,2.90574c-0.53063,0.55111 -2.27242,-0.10019 -3.36676,-1.15387c-1.09434,-1.05368 -1.12685,-2.11074 -0.59621,-2.66185z"/></g><path d="M226.11925,101.42306c1.65224,0.05516 2.8585,4.08799 2.69425,9.00758c-0.16425,4.91958 -1.6368,8.86298 -3.28904,8.80782c-1.65224,-0.05516 -2.85849,-4.08799 -2.69424,-9.00758c0.16425,-4.91959 1.63679,-8.86298 3.28903,-8.80782z" fill="#c3dce2" stroke-width="0"/><path d="M211.51065,129.39298c-0.5919,-0.70311 -1.32276,-1.09856 -0.62359,-2.50624c0.71386,-1.43726 2.88849,-3.90014 5.27908,-5.91257c4.73197,-3.98343 10.15523,-6.58052 10.55777,-3.70003c0.25708,1.8396 -1.49388,4.86253 -6.22585,8.84596c-2.75196,2.31664 -5.65526,4.02648 -7.23828,4.35367c-1.13895,0.23541 -1.24859,-0.48618 -1.74913,-1.08079z" fill="#c3dce2" stroke-width="0"/><g fill="#c3dce2" stroke-width="0"><path d="M208.38857,125.7884c0.86955,-0.73199 2.87538,0.21997 4.48016,2.1263c1.60476,1.90632 2.20078,4.0451 1.33122,4.7771c-0.86955,0.73199 -2.09292,-0.82692 -3.6977,-2.73324c-1.60476,-1.90632 -2.98324,-3.43816 -2.11368,-4.17016z"/><path d="M210.23876,125.9639c0.49269,0.58529 -0.05004,1.85284 -1.21224,2.83119c-1.16218,0.97835 -2.50373,1.297 -2.99643,0.71172c-0.4927,-0.58528 0.33692,-2.24954 1.4991,-3.22789c1.16219,-0.97835 2.21687,-0.90029 2.70955,-0.31502z"/><path d="M213.65492,133.55572c-1.16218,0.97835 -2.94353,1.51202 -3.43623,0.92675c-0.4927,-0.58528 0.05004,-1.85284 1.21224,-2.83119c1.16219,-0.97835 2.50372,-1.297 2.99642,-0.71172c0.4927,0.58528 0.38977,1.63782 -0.77243,2.61616z"/></g><g stroke-width="0"><path d="M253.80709,103.70636c-0.05156,2.47166 -5.70363,4.35831 -12.62429,4.21395c-6.92063,-0.14436 -12.48914,-2.26507 -12.43758,-4.73672c0.05156,-2.47166 -1.76458,-4.06635 5.20585,-6.30885c1.64562,-0.52943 5.5572,-0.37675 8.07594,-0.36959c2.61622,0.00744 5.5632,0.63008 7.46376,1.32808c3.59654,1.32089 4.34163,4.65984 4.31632,5.8731z" fill="#000000"/><path d="M234.0136,102.053c-0.03694,1.77087 -0.69922,3.19327 -1.47924,3.177c-0.78002,-0.01627 -1.38242,-1.46505 -1.34548,-3.23591c0.03694,-1.77087 0.69923,-3.19326 1.47925,-3.17699c0.78002,0.01627 1.38241,1.46505 1.34547,3.23592z" fill="#0091ff"/><path d="M251.195,102.22044c-0.03034,1.45465 -0.53347,2.6239 -1.12376,2.61158c-0.59029,-0.01231 -1.04422,-1.20152 -1.01388,-2.65617c0.03034,-1.45465 0.53347,-2.6239 1.12376,-2.61158c0.59029,0.01231 1.04422,1.20152 1.01388,2.65617z" fill="#ff0000"/></g><g stroke-width="0"><path d="M239.76718,93.86532c-0.19492,-0.00138 -0.06467,-0.37351 -0.07565,-0.64279c-0.04566,-1.11983 -0.29808,-8.52334 -0.29808,-8.52334l4.08761,-0.16667c0,0 0.32779,6.93299 0.37814,8.16806c0.01402,0.34385 0.27058,0.92625 -0.00441,0.99807c-0.24918,0.06508 -0.42028,0.10348 -0.64887,0.1128c-0.47388,0.01932 -1.94506,0.08157 -2.82255,0.11735c-0.30273,0.01235 -0.00777,0.06577 -0.61618,-0.0635z" fill="#797979"/><path d="M253.96041,85.14539c-0.04569,1.36857 -3.21691,2.37337 -7.08311,2.24429c-3.86621,-0.12908 -6.96334,-1.34316 -6.91765,-2.71173c0.04569,-1.36857 3.21691,-2.37337 7.08311,-2.24429c3.86621,0.12908 6.96334,1.34316 6.91765,2.71173z" fill="#c9c9c9"/><path d="M236.92411,82.09584c3.86621,0.12908 6.96334,1.34316 6.91765,2.71173c-0.04569,1.36857 -3.21692,2.37337 -7.08311,2.24429c-3.86621,-0.12908 -6.96334,-1.34316 -6.91765,-2.71173c0.04569,-1.36857 3.21691,-2.37337 7.08311,-2.24429z" fill="#c9c9c9"/></g></g></g></svg>