<svg version="1.1" xmlns="http://www.w3.org/2000/svg" xmlns:xlink="http://www.w3.org/1999/xlink" width="86.91154" height="160.91873" viewBox="0,0,86.91154,160.91873"><g transform="translate(-196.54423,-98.62091)"><g stroke="none" stroke-miterlimit="10"><path d="" fill="#000000" stroke-width="0.5"/><path d="" fill="#000000" stroke-width="0.5"/><path d="" fill="#000000" stroke-width="0.5"/><path d="" fill="#000000" stroke-width="0.5"/><path d="" fill="#000000" stroke-width="0.5"/><path d="" fill="#000000" stroke-width="0.5"/><path d="" fill="#000000" stroke-width="0.5"/><path d="" fill="#000000" stroke-width="0.5"/><path d="" fill="#000000" stroke-width="0.5"/><path d="M283.45577,238.1728v21.36684h-47.65436" fill-opacity="0" fill="#9e9898" stroke-width="0"/><path d="M223.61157,259.53961h-27.06734v-56.47871" fill-opacity="0" fill="#9e9898" stroke-width="0"/><path d="M196.54423,183.39943v-82.93897h86.91154v125.66828" fill-opacity="0" fill="#9e9898" stroke-width="0"/><path d="M242.28393,171.06379c-1.01553,-0.50849 -1.82258,-1.20497 -2.50912,-1.99598c0,4.83806 0,9.6761 0,14.51414c0,4.42207 0.39871,9.09664 -0.19314,13.49222c-0.31823,2.36347 -1.06341,4.8074 -1.73971,7.19145c0.98773,3.14657 3.32856,5.58444 4.16666,8.80539c1.32158,5.07908 1.54121,10.82423 3.77465,15.65277c1.33658,2.88957 3.65626,5.44436 4.80847,8.3832c1.57042,4.00555 1.72122,8.45061 1.70069,12.61598l-0.56581,2.46598c0,0 -0.49029,2.09099 -2.94174,1.67279c-2.45145,-0.4182 -1.96116,-2.5092 -1.96116,-2.5092l0.49305,-2.04982c-0.02127,-3.57953 -0.13589,-7.42292 -1.47588,-10.86626c-1.10703,-2.84467 -3.4414,-5.36512 -4.72123,-8.1748c-2.29701,-5.04272 -2.68712,-10.9576 -3.99028,-16.25898c-0.16968,-0.69027 -0.41681,-1.34972 -0.70988,-1.99184c0.0401,2.66532 0.00299,5.3322 0.00226,7.99867c-0.00031,1.12434 0.07828,4.26964 -0.2328,5.41749c-0.87079,3.21313 -3.68084,5.39093 -4.82819,8.48077c-1.91987,5.17025 -1.77972,9.94908 -1.84573,15.30931c0.15984,0.45827 0.31969,0.91655 0.47953,1.37482c0.41278,0.52565 0.96157,1.60617 -0.30522,2.6867c-1.76777,1.50784 -3.53554,0 -3.53554,0l-0.81252,-1.07255c-0.25931,-0.79914 -0.51862,-1.59829 -0.77793,-2.39743c-0.05649,-5.96931 -0.15622,-11.45561 2.03674,-17.20455c1.10034,-2.88459 3.95554,-5.15702 4.7015,-8.07723c0.54097,-2.11776 0.12015,-4.62025 0.12015,-6.77521c0,-3.4276 0.05158,-6.84504 -0.17262,-10.26809c0,0 -0.08705,-1.3365 1.11823,-1.95055c0.7347,-2.91449 1.85469,-6.00098 2.24763,-8.95048c0.5636,-4.23049 0.1598,-8.74392 0.1598,-13.00055c0,-5.31961 0,-10.63921 0,-15.95882c-0.25245,0.29815 -0.5628,0.62208 -0.94722,0.98838c-3.78529,3.60697 -12.24387,3.81729 -16.86658,1.21472c-3.12047,-1.75681 -3.40488,-5.65711 -4.02042,-8.40419c-1.07549,-4.43746 -1.30559,-9.65884 -0.74077,-14.19126c0.47046,-3.77528 3.08945,-7.15147 2.48091,-11.07018c-0.08913,-0.57392 -0.11289,-2.97559 -1.02492,-3.00435c-3.51561,-0.11086 -1.92894,3.58713 -3.45458,5.72274c0,0 -0.71421,3.30616 -2.84335,2.18857c-2.12915,-1.11758 -2.88328,-0.97792 0.27382,-5.31782c3.1571,-4.3399 4.3656,-12.24243 10.02629,-5.72174c0.05088,0.05862 0.35886,0.85005 0.71722,1.82057c0.21903,-0.55125 0.47748,-1.08782 0.78197,-1.60587c4.18766,-7.12477 15.67207,-6.94469 23.02597,-4.60145c2.73962,1.23363 5.31895,2.247 7.43108,4.06952c2.54342,-2.99498 5.39378,-3.23297 9.12548,-1.53461c2.36723,1.07736 3.18956,3.52764 4.16096,5.38874l-1.23474,4.84483c0,0 -2.48349,0.04628 -4.98349,0.04628c-2.5,0 0.7782,-2.33109 0.7782,-2.33109l0.55336,-1.65717c-0.20423,-0.36899 1.20094,-3.72134 0.54388,-4.07197c-1.01702,-0.54272 -3.11922,0.28608 -4.43306,1.29741c0.05617,0.24375 0.05617,0.41353 0.05617,0.41353c-0.00491,4.2287 1.88126,6.75442 3.33398,10.70449c1.18067,3.21034 0.85194,6.75222 0.84653,10.06112c-0.01065,6.51669 -0.53566,15.82839 -8.97586,18.55947c-1.10318,0.35697 -2.31876,0.37375 -3.47814,0.56061c-1.20785,-0.30953 -2.53592,-0.38401 -3.62355,-0.9286zM252.38794,159.81246c0.29109,-2.69814 0.75159,-5.31734 0.94566,-7.96287c-0.39776,1.11741 -0.94531,2.17083 -1.68289,3.03081c-1.99749,2.32897 -8.0026,5.35746 -11.36893,5.94736c-0.03472,0.00608 -0.07219,0.01178 -0.11226,0.01711c1.22405,0.5612 1.22405,1.88587 1.22405,1.88587l-0.31461,-0.40633c1.36371,2.09378 2.17922,4.67289 5.06358,5.40789c5.06441,-0.97906 5.83296,-4.09701 6.2454,-7.91987zM231.69443,161.16972c0,0 0.06047,-0.18054 0.20834,-0.41917c-4.67397,-0.50134 -10.38121,-1.0215 -12.90876,-4.79063c-1.55387,-2.31716 -1.69278,-6.11431 -1.69508,-9.12124c-0.05088,0.27737 -0.09374,0.55766 -0.12694,0.84142c-0.4808,4.1094 -0.3427,8.87979 0.67104,12.90363c0.17212,0.7735 0.51385,5.06801 1.97976,5.74537c4.76052,2.19971 10.87735,1.02324 11.44181,-3.78436zM232.55899,156.54021c0.4384,-0.09016 0.78173,-0.07553 0.78173,-0.07553c4.43678,0.19006 6.11921,0.2038 9.91563,-1.67187c0.26101,-0.12896 3.80898,-1.76107 4.34918,-2.41912c1.82489,-2.22308 1.63881,-5.38828 1.6403,-7.92882c0.00242,-4.1166 0.20527,-9.63387 -4.02229,-12.49768c-0.68399,-0.46334 -4.5123,-2.15407 -5.09213,-2.41675c-4.61381,-1.48303 -13.88085,-2.32815 -16.50462,2.62384c-2.04214,3.85425 -1.31958,8.80114 -1.32309,12.8927c-0.00224,2.61273 -0.20208,6.52751 1.1333,8.95668c1.10694,2.0136 6.25892,2.30489 9.12198,2.53654z" fill="#000000" stroke-width="0.5"/><path d="M212.33166,122.68714c0.3656,-8.20785 11.49455,-14.3791 24.85721,-13.78389c13.36266,0.59521 23.89886,7.73149 23.53326,15.93933c-0.3656,8.20784 -14.09424,3.09497 -27.4569,2.49976c-13.36267,-0.59521 -21.29918,3.55263 -20.93358,-4.65521z" fill="#c3dce2" stroke-width="0"/><path d="M219.74943,120.0448c1.6429,-0.18389 3.41859,3.63262 3.9661,8.5244c0.54752,4.89177 -0.34046,9.00642 -1.98336,9.1903c-1.6429,0.18389 -3.41858,-3.63262 -3.96609,-8.52441c-0.54752,-4.89178 0.34045,-9.00641 1.98335,-9.1903z" fill="#c3dce2" stroke-width="0"/><path d="M208.38493,125.79327c1.57176,0.32385 4.50765,1.79876 7.06304,3.59732c5.05815,3.56009 8.95202,8.14208 6.26933,9.26565c-1.71328,0.71757 -5.08271,-0.20488 -10.14087,-3.76497c-2.94167,-2.07044 -5.33516,-4.4419 -6.05511,-5.88921c-0.518,-1.0413 0.15181,-1.33128 0.59915,-1.96686c0.529,-0.75159 0.72504,-1.55912 2.26446,-1.24192z" fill="#c3dce2" stroke-width="0"/><g fill="#c3dce2" stroke-width="0"><path d="M205.31647,126.20431c1.43422,-2.03773 2.56402,-3.76118 3.49352,-3.10697c0.92949,0.6542 0.52033,2.83645 -0.91389,4.87418c-1.43421,2.03774 -3.35037,3.15931 -4.27987,2.50509c-0.92949,-0.6542 0.26603,-2.23458 1.70025,-4.27231z"/><path d="M208.11659,122.39144c1.2423,0.87437 1.4357,1.9141 0.99537,2.53972c-0.44034,0.62562 -1.80437,0.42395 -3.04667,-0.45042c-1.2423,-0.87438 -1.89244,-2.09034 -1.4521,-2.71597c0.44034,-0.62563 2.26111,-0.2477 3.50341,0.62667z"/><path d="M205.36853,130.24979c-0.44033,0.62563 -1.48433,0.79443 -2.72663,-0.07994c-1.2423,-0.87437 -2.21249,-2.4608 -1.77215,-3.08643c0.44034,-0.62563 1.80439,-0.42397 3.04669,0.4504c1.2423,0.87438 1.89244,2.09035 1.4521,2.71598z"/></g><path d="M255.39502,129.41529c-1.28948,4.75043 -3.62814,8.25033 -5.22357,7.81726c-1.59543,-0.43306 -1.84345,-4.63513 -0.55398,-9.38555c1.28948,-4.75043 3.62815,-8.25033 5.22358,-7.81726c1.59543,0.43306 1.84345,4.63512 0.55397,9.38555z" fill="#c3dce2" stroke-width="0"/><path d="M267.86394,131.25869c0.19341,0.75278 0.7172,1.26108 -0.13585,2.05161c-1.18564,1.09876 -4.26361,2.46945 -7.7477,3.36456c-5.99086,1.53914 -9.46866,1.20919 -10.81701,-0.06838c-2.11128,-2.00042 3.15237,-4.90743 9.14322,-6.44656c3.02659,-0.77758 6.29447,-1.11775 7.8791,-0.86428c1.55203,0.24825 1.44954,1.07289 1.67824,1.96307z" fill="#c3dce2" stroke-width="0"/><g fill="#c3dce2" stroke-width="0"><path d="M266.74243,126.62378c1.10089,-0.28284 1.54749,1.72894 2.16755,4.14242c0.62006,2.41349 1.17876,4.31473 0.07788,4.59756c-1.10089,0.28284 -2.49598,-1.4444 -3.11604,-3.85787c-0.62006,-2.41348 -0.23026,-4.59927 0.87061,-4.8821z"/><path d="M267.6408,126.20901c1.47137,-0.37801 3.30803,-0.08696 3.4984,0.65402c0.19037,0.74098 -0.8481,1.6481 -2.31946,2.02612c-1.47137,0.37802 -2.81848,0.08379 -3.00885,-0.65719c-0.19036,-0.74098 0.35855,-1.64493 1.82992,-2.02295z"/><path d="M270.00769,135.42174c-1.47137,0.37802 -2.38801,-0.14941 -2.57839,-0.89039c-0.19038,-0.74098 0.84809,-1.6481 2.31946,-2.02612c1.47138,-0.37802 2.81849,-0.08379 3.00886,0.6572c0.19038,0.74098 -1.27855,1.88129 -2.74992,2.25931z"/></g><g stroke-width="0"><path d="M249.19633,121.31292c-0.24914,2.45961 -6.03403,3.88802 -12.92095,3.19044c-6.8869,-0.69758 -12.26789,-3.257 -12.01875,-5.7166c0.24914,-2.45961 -1.43359,-4.19449 5.69389,-5.87213c1.6827,-0.39607 5.56953,0.06906 8.07962,0.27772c2.60725,0.21673 5.49496,1.07315 7.33358,1.92096c3.47933,1.6044 3.95489,4.99224 3.8326,6.1996z" fill="#000000"/><path d="M229.59857,118.08128c-0.1785,1.76225 -0.95245,3.12709 -1.72867,3.04847c-0.77622,-0.07862 -1.26078,-1.57095 -1.08227,-3.33319c0.1785,-1.76225 0.95246,-3.12709 1.72868,-3.04846c0.77622,0.07862 1.26077,1.57095 1.08227,3.33319z" fill="#0091ff"/><path d="M246.71149,119.62279c-0.14663,1.44756 -0.74169,2.5728 -1.32909,2.5133c-0.58741,-0.0595 -0.94475,-1.28121 -0.79812,-2.72877c0.14663,-1.44756 0.74169,-2.5728 1.32909,-2.5133c0.58741,0.0595 0.94475,1.28121 0.79812,2.72877z" fill="#ff0000"/></g><g stroke-width="0"><path d="M238.81497,110.6038c-0.61663,0.08153 -0.31841,0.05122 -0.61926,0.01536c-0.87205,-0.10395 -2.33392,-0.28049 -2.80486,-0.33662c-0.22717,-0.02708 -0.39476,-0.07868 -0.63812,-0.16295c-0.26856,-0.093 0.03253,-0.65367 0.07327,-0.99539c0.1463,-1.2274 1.01254,-8.11387 1.01254,-8.11387l4.06225,0.48421c0,0 -0.82772,7.36143 -0.96037,8.47431c-0.0319,0.26762 0.069,0.64875 -0.12544,0.63496z" fill="#797979"/><path d="M232.45093,98.64071c3.86453,0.17214 6.94794,1.42065 6.88701,2.78862c-0.06093,1.36797 -3.24314,2.33739 -7.10767,2.16525c-3.86453,-0.17214 -6.94794,-1.42065 -6.88701,-2.78862c0.06093,-1.36797 3.24314,-2.33739 7.10767,-2.16525z" fill="#c9c9c9"/><path d="M249.4522,101.87985c-0.06093,1.36797 -3.24314,2.33739 -7.10767,2.16525c-3.86452,-0.17214 -6.94794,-1.42065 -6.88701,-2.78862c0.06093,-1.36797 3.24314,-2.33739 7.10767,-2.16525c3.86453,0.17214 6.94794,1.42065 6.88701,2.78862z" fill="#c9c9c9"/></g></g></g></svg>