<svg version="1.1" xmlns="http://www.w3.org/2000/svg" xmlns:xlink="http://www.w3.org/1999/xlink" width="482.21748" height="343.44146" viewBox="0,0,482.21748,343.44146"><g transform="translate(-24.575,24.19241)"><g stroke-miterlimit="10"><path d="M486.62681,319.24906c0,0 5.29878,-24.81999 2.7693,-41.78758c-0.68577,-4.6001 -4.71484,-8.2848 -6.25473,-11.14772c-5.80263,-10.78815 0,-38.33247 0,-38.33247h23.6511v90.17258z" fill="#5d5d5d" stroke="none" stroke-width="0" stroke-linecap="butt"/><path d="M485.71686,236.29359c0,0 -1.98028,12.53908 0.45525,25.06612c0.76402,3.92971 3.80999,5.7452 5.81811,9.29088c1.19231,2.10522 1.79842,6.22031 1.94644,7.92053c1.06118,12.18951 -1.41455,35.8925 -1.41455,35.8925" fill="none" stroke="#fff700" stroke-width="2.5" stroke-linecap="round"/><path d="M24.575,-23.44241c0,-0.41421 0.33579,-0.75 0.75,-0.75c0.41421,0 0.75,0.33579 0.75,0.75c0,0.41421 -0.33579,0.75 -0.75,0.75c-0.41421,0 -0.75,-0.33579 -0.75,-0.75z" fill="#ffe2b1" stroke="none" stroke-width="0.5" stroke-linecap="butt"/></g></g></svg>