<svg version="1.1" xmlns="http://www.w3.org/2000/svg" xmlns:xlink="http://www.w3.org/1999/xlink" width="726.94732" height="448" viewBox="0,0,726.94732,448"><g transform="translate(0,44)"><g stroke="none" stroke-miterlimit="10"><path d="M0,404v-448h655v448z" fill="#b9b9b9" stroke-width="0"/><g fill="#c3c3c3" stroke-width="0"><path d="M213.5,73.69096c0,2.88298 -5.2561,11.25364 -5.2561,11.25364c0,0 -17.10008,-3.03345 -22.7439,-3.03345c-5.79524,0 -11.17926,-0.51687 -15.64639,-1.40216c-7.45292,-1.477 -12.35361,-3.9795 -12.35361,-6.81803c0,-2.88761 5.07163,-5.42746 12.7425,-6.89372c4.38922,-0.83898 9.62945,-1.32646 15.2575,-1.32646c4.11083,0 21.8065,-3.63973 21.8065,-3.63973c0,0 6.1935,8.52688 6.1935,11.85992z"/><path d="M163.6935,61.83104c0,0 17.69567,3.63973 21.8065,3.63973c5.62805,0 10.86828,0.48748 15.2575,1.32646c7.67087,1.46626 12.7425,4.00611 12.7425,6.89372c0,2.83853 -4.90069,5.34102 -12.35361,6.81803c-4.46713,0.88528 -9.85115,1.40216 -15.64639,1.40216c-5.64381,0 -22.7439,3.03345 -22.7439,3.03345c0,0 -5.2561,-8.37065 -5.2561,-11.25364c0,-3.33303 6.1935,-11.85992 6.1935,-11.85992z"/></g><path d="M212.2801,75.55129c0,2.11289 -11.98986,1.6396 -26.7801,1.6396c-14.79024,0 -26.7801,0.47329 -26.7801,-1.6396c0,-2.11289 11.98986,-6.01186 26.7801,-6.01186c14.79024,0 26.7801,3.89897 26.7801,6.01186z" fill="#00c1ff" stroke-width="0"/><path d="M125.18985,266.29183c0,0 13.51841,-26.01754 16.49677,-31.74969c1.10614,-2.12887 5.49926,-2.7042 10.50161,-0.10503c12.08187,6.2776 34.5385,17.9458 47.00682,24.4242c16.19694,8.41574 46.6151,24.22066 46.6151,24.22066c0,0 -54.36806,17.63376 -68.52107,10.28001c-17.166,-8.91926 -52.09922,-27.07015 -52.09922,-27.07015z" fill="#c3c3c3" stroke-width="0"/><g stroke-width="0"><path d="M463.24295,96.6834c12.07745,7.65359 -5.88461,14.43776 -0.05925,22.44102c5.56341,7.64337 35.25449,16.57811 32.46212,20.98449c-5.71621,9.02025 -29.49127,4.20268 -53.10308,-10.76033c-15.03792,-9.52966 -26.38288,-20.87619 -31.1625,-30.19013c-0.37834,-0.73729 -8.99659,-22.42025 -1.10433,-31.08035c10.34753,-11.35425 37.95594,-10.274 37.95594,-10.274c0,0 -1.02435,28.71749 15.01111,38.8793z" fill="#c3c3c3"/><path d="M440.24608,92.59673c-3.34242,-2.11812 -6.68789,-8.51856 -6.69515,-12.60336c-0.0086,-4.83144 3.73565,-7.32873 4.55556,-8.62256c1.51311,-2.38771 0.0065,7.43017 7.30228,12.05356c7.29578,4.6234 12.30033,10.83272 10.78722,13.22043c-1.51311,2.38771 -8.65414,0.57533 -15.94992,-4.04807z" fill="#00c1ff"/></g><path d="M366.30857,184.71563c0,0 -65.0264,0.15465 -76.02759,-22.90553c-5.4886,-11.50495 -10.66017,-37.42771 -16.35749,-49.37018c-4.05428,-8.4984 46.3041,23.69017 50.54828,32.58663c11.0213,23.10233 41.8368,39.68908 41.8368,39.68908z" fill="#c3c3c3" stroke-width="0"/><path d="M287.20403,381.00756c0,0 -19.40308,-66.99997 0,-101.56171c19.40308,-34.56174 77.82609,-59.24433 90.27708,-59.24433c11.98097,0 -8.46348,76.87657 -8.46348,76.87657l-8.46348,83.92947z" fill="#afafaf" stroke-width="0"/><g><path d="M664.44732,36.30254c61.02746,0 62.5,18.78778 62.5,58c0,39.21222 -51.6154,299.57143 -112.64286,299.57143c-61.02746,0 -117.64286,-28.85714 -117.64286,-28.85714c0,0 23.44635,-310.54678 45.96105,-323.54444c19.56833,-11.29673 93.4473,-5.16985 121.82466,-5.16985z" fill="#acacac" stroke-width="0"/><g><g fill="#969595" stroke-width="0"><path d="M561.73032,70.53969v-17.50663h46.30875v17.50663z"/><path d="M627.64318,62.38905l-19.28553,19.28554l-1.20535,-39.77642z"/></g><g fill="#818181" stroke-width="0.5"><path d="M570.94965,57.02935c0,-0.69036 0.55964,-1.25 1.25,-1.25c0.69036,0 1.25,0.55964 1.25,1.25c0,0.69036 -0.55964,1.25 -1.25,1.25c-0.69036,0 -1.25,-0.55964 -1.25,-1.25z"/><path d="M591.0361,60.46184c0,-0.69036 0.55964,-1.25 1.25,-1.25c0.69036,0 1.25,0.55964 1.25,1.25c0,0.69036 -0.55964,1.25 -1.25,1.25c-0.69036,0 -1.25,-0.55964 -1.25,-1.25z"/><path d="M586.07065,61.69144c1.18585,0.39528 0.79057,1.58114 0.79057,1.58114l-0.27952,0.83173c-2.24651,4.56679 -9.24245,1.82008 -9.40271,-2.8797c0,0 0,-1.25 1.25,-1.25c1.25,0 1.25,1.25 1.25,1.25c-0.13253,2.33022 4.23459,3.77559 4.58152,1.95122l0.229,-0.69382c0,0 0.39528,-1.18585 1.58114,-0.79057z"/></g></g></g></g></g></svg>