<svg version="1.1" xmlns="http://www.w3.org/2000/svg" xmlns:xlink="http://www.w3.org/1999/xlink" width="198.83334" height="198.83334" viewBox="0,0,198.83334,198.83334"><g transform="translate(-220.58333,-80.58333)"><g stroke-miterlimit="10"><path d="M228.33333,179.99999c0,-50.6261 41.04056,-91.66666 91.66667,-91.66666c50.6261,0 91.66667,41.04056 91.66667,91.66667c0,50.6261 -41.04057,91.66667 -91.66667,91.66667c-50.6261,0 -91.66666,-41.04057 -91.66666,-91.66667z" fill="#9e9898" stroke="#686868" stroke-width="15.5"/><path d="M297.68402,120.73109c10.82869,20.08597 14.13851,39.31703 7.39265,42.95383c-6.74585,3.6368 -20.99283,-9.69789 -31.8215,-29.78383c-5.03753,-9.34404 -8.44787,-18.50308 -9.97563,-25.99321c-1.75631,-8.61065 4.19389,-6.20943 7.80155,-8.15439c3.36169,-1.81234 3.36766,-8.21629 9.10362,-2.86412c5.77429,5.38793 12.06693,13.76529 17.4993,23.84171z" fill="#9e9898" stroke="#686868" stroke-width="4"/><path d="M373.79423,173.24599c-0.46765,3.57261 0.90835,6.66376 -4.12659,8.59208c-6.998,2.68015 -22.6069,3.26314 -39.14197,1.09886c-28.43189,-3.72144 -42.82481,-11.14548 -46.4201,-18.96993c-5.62964,-12.25158 22.03522,-15.67068 50.4671,-11.94918c14.36377,1.88009 29.01056,6.05854 35.39051,9.88499c6.24869,3.74763 4.38403,7.11861 3.83104,11.34328z" fill="#9e9898" stroke="#686868" stroke-width="4"/><g fill="#9e9898" stroke="#686868" stroke-width="4"><path d="M379.14491,172.93311c-1.49923,11.4541 -2.37808,20.59841 -7.60271,19.91455c-5.22469,-0.68385 -8.24473,-10.5236 -6.7455,-21.97766c1.49923,-11.4541 6.95002,-20.18507 12.17465,-19.50121c5.22469,0.68385 3.67275,10.11022 2.17352,21.56427z"/><path d="M381.55258,151.13541c6.98298,0.91402 14.38232,5.33723 13.92203,8.85385c-0.46029,3.51662 -6.49425,5.62641 -13.47719,4.7124c-6.98298,-0.91402 -12.27065,-4.50565 -11.81035,-8.02227c0.46028,-3.51658 4.38258,-6.45799 11.36555,-5.54397z"/><path d="M366.27394,186.57548c0.46029,-3.51662 6.49427,-5.62641 13.47721,-4.7124c6.98298,0.91402 12.27063,4.50566 11.81034,8.02228c-0.46029,3.51662 -8.74877,5.88647 -15.73176,4.97248c-6.98298,-0.91402 -10.01612,-4.76574 -9.55582,-8.28236z"/></g><path d="M262.32019,162.41431c10.82869,20.08596 14.13851,39.31703 7.39265,42.95383c-6.74585,3.6368 -20.99284,-9.69789 -31.8215,-29.78383c-4.53409,-8.41022 -7.74998,-16.67057 -9.46144,-23.69904c-2.37598,-9.7575 3.03992,-8.00836 6.9612,-10.12239c3.72803,-2.00985 4.52845,-7.96882 10.99532,-1.33707c5.23489,5.36836 11.08945,13.00286 15.93376,21.9885z" fill="#9e9898" stroke="#686868" stroke-width="4"/><path d="M331.40882,226.94971l15.16492,-65.92534l65.92534,15.16492l-15.16492,65.92534z" fill="#686868" stroke="none" stroke-width="0"/><path d="M352.71841,216.79053c-0.46765,3.57261 0.90835,6.66376 -4.12659,8.59208c-6.998,2.68015 -22.6069,3.26314 -39.14198,1.09886c-28.43189,-3.72144 -42.82481,-11.14547 -46.42009,-18.96992c-5.62964,-12.25158 22.03522,-15.67069 50.46711,-11.94919c14.36377,1.88009 29.01056,6.05854 35.39051,9.88499c6.24869,3.74763 4.38403,7.11861 3.83104,11.34328z" fill="#9e9898" stroke="#686868" stroke-width="4"/><g fill="#9e9898" stroke="#686868" stroke-width="1"><path d="M390.32731,175.02669c0.23774,-1.03349 1.26827,-1.67857 2.30174,-1.44083c1.03349,0.23774 1.67857,1.26827 1.44083,2.30174c-0.23774,1.03349 -1.26827,1.67857 -2.30174,1.44083c-1.03349,-0.23774 -1.67857,-1.26827 -1.44083,-2.30174z"/><path d="M359.57474,168.09575c0.23774,-1.03349 1.26827,-1.67857 2.30174,-1.44083c1.03349,0.23774 1.67857,1.26827 1.44083,2.30174c-0.23774,1.03349 -1.26827,1.67857 -2.30174,1.44083c-1.03349,-0.23774 -1.67857,-1.26827 -1.44083,-2.30174z"/><path d="M391.98848,207.75375c-0.82615,1.73335 -2.5595,0.90721 -2.5595,0.90721l-0.89742,-0.45077c-2.74177,-0.84585 -6.602,-1.95157 -8.40014,-4.3746c-0.63058,-0.84973 -1.0969,-1.69709 -1.41828,-2.53612c-6.26411,2.27671 -12.62562,-1.04216 -16.38619,-6.30809c-0.26647,0.62163 -0.59016,1.23786 -0.97511,1.84613c-1.89175,2.98915 -5.73829,4.03713 -8.81177,5.20077l-1.24624,0.04424c0,0 -1.87129,-0.43046 -1.44083,-2.30174c0.27566,-1.19835 1.14219,-1.45276 1.72978,-1.48077c2.19229,-0.77368 5.33427,-1.5364 6.58728,-3.61293c2.73419,-4.5312 0.83105,-9.59464 -2.42477,-13.28807c0,0 -1.25446,-1.45374 0.19928,-2.70819c1.45374,-1.25446 2.70819,0.19928 2.70819,0.19928c2.56249,3.02015 4.38877,6.6688 4.6354,10.40419c0.4354,0.3447 0.63974,0.80552 0.63974,0.80552c2.28389,5.16863 8.50958,10.33273 14.27154,7.30616c0.6805,-6.12125 8.0976,-11.19421 13.52383,-12.51329c0,0 1.86626,-0.45186 2.31811,1.41438c0.45185,1.86624 -1.41439,2.31809 -1.41439,2.31809c-4.90564,1.1826 -7.8828,2.4503 -9.4916,7.38814c-0.12134,0.37244 -0.24763,0.75216 -0.35997,1.13521c0.07564,0.56269 -0.15899,1.06676 -0.30097,1.31118c-0.15218,1.0411 -0.0463,2.07373 0.68971,3.02c1.3155,1.69131 4.5543,2.46909 6.49276,3.05882l1.42434,0.6558c0,0 1.73335,0.82615 0.90721,2.55951z"/></g><g fill="#9e9898" stroke="#686868" stroke-width="4"><path d="M363.34087,218.05613c-1.49923,11.4541 -2.37808,20.5984 -7.60271,19.91455c-5.22469,-0.68385 -8.24473,-10.5236 -6.7455,-21.97766c1.49923,-11.4541 6.95002,-20.18506 12.17464,-19.5012c5.22469,0.68385 3.67275,10.11022 2.17352,21.56427z"/><path d="M365.7485,196.25844c6.98298,0.91402 14.38234,5.33723 13.92205,8.85385c-0.46029,3.51662 -6.49427,5.62641 -13.47721,4.7124c-6.98298,-0.91402 -12.27064,-4.50566 -11.81035,-8.02228c0.46028,-3.51658 4.38257,-6.45798 11.36555,-5.54396z"/><path d="M350.46989,231.69866c0.46029,-3.51662 6.49427,-5.62641 13.47721,-4.7124c6.98298,0.91402 12.27064,4.50566 11.81035,8.02228c-0.46029,3.51662 -8.74878,5.88647 -15.73176,4.97248c-6.98298,-0.91402 -10.01612,-4.76575 -9.55582,-8.28236z"/></g><path d="M228.33333,179.99999c0,-50.6261 41.04056,-91.66666 91.66667,-91.66666c50.6261,0 91.66667,41.04056 91.66667,91.66667c0,50.6261 -41.04057,91.66667 -91.66667,91.66667c-50.6261,0 -91.66666,-41.04057 -91.66666,-91.66667z" fill="none" stroke="#686868" stroke-width="15.5"/></g></g></svg>