<svg version="1.1" xmlns="http://www.w3.org/2000/svg" xmlns:xlink="http://www.w3.org/1999/xlink" width="166.27004" height="8.8002" viewBox="0,0,166.27004,8.8002"><g transform="translate(-240.23709,-273.15488)"><g fill="#07436b" stroke="none" stroke-width="0" stroke-miterlimit="10"><path d="M240.2371,280.98529c0,-1.86145 0,-6.33288 0,-7.63589c0,-0.79693 10.52852,2.93212 21.11379,2.93212c9.84423,0 34.12351,0 56.38843,0c23.47925,0 41.72886,0.42151 59.34318,0.42151c11.56396,0 29.42463,-4.03618 29.42463,-3.4989c0,1.16623 0,5.80732 0,7.76328c0,0.60488 -14.47052,0.98767 -26.94831,0.98767c-22.29156,0 -91.05294,0 -121.4322,0c-8.28576,0 -17.88953,-0.37576 -17.88953,-0.9698z"/></g></g></svg>