<svg version="1.1" xmlns="http://www.w3.org/2000/svg" xmlns:xlink="http://www.w3.org/1999/xlink" width="79.58288" height="79.58288" viewBox="0,0,79.58288,79.58288"><g transform="translate(-200.20856,-140.20856)"><g stroke-miterlimit="10"><path d="M250.62289,179.99528c0,16.67761 -4.67927,30.19749 -10.45142,30.19749c-1.32975,0 -2.68723,0.19471 -3.85713,-1.11365c-3.90838,-4.37094 -6.59429,-16.2483 -6.59429,-29.08384c0,-11.67995 2.16644,-23.12877 5.52463,-28.15181c1.43692,-2.14928 3.19708,-2.04568 4.92678,-2.04568c5.77216,0 10.45142,13.51988 10.45142,30.19749z" fill="#fff100" stroke="#a79b1c" stroke-width="2"/><path d="M238.04092,209.78734c-4.7849,0 -8.66382,-13.31567 -8.66382,-29.74138c0,-16.42571 3.87893,-29.74138 8.66382,-29.74138c4.7849,0 8.66382,13.31567 8.66382,29.74138c0,16.42571 -3.87893,29.74138 -8.66382,29.74138z" fill="#fff100" stroke="#a79b1c" stroke-width="2"/><path d="M200.20856,219.79144v-79.58288h79.58288v79.58288z" fill="none" stroke="none" stroke-width="0"/></g></g></svg>