<svg version="1.1" xmlns="http://www.w3.org/2000/svg" xmlns:xlink="http://www.w3.org/1999/xlink" width="693.01875" height="448" viewBox="0,0,693.01875,448"><defs><linearGradient x1="185.5" y1="61.83103" x2="185.5" y2="84.94459" gradientUnits="userSpaceOnUse" id="color-1"><stop offset="0" stop-color="#c3c3c3"/><stop offset="1" stop-color="#6b6b6b"/></linearGradient></defs><g transform="translate(7.5,44)"><g stroke="none" stroke-miterlimit="10"><path d="M-7.5,404v-448h655v448z" fill="#bebebe" stroke-width="0"/><path d="M213.5,73.69096c0,2.88298 -5.2561,11.25364 -5.2561,11.25364c0,0 -17.10008,-3.03345 -22.7439,-3.03345c-5.79524,0 -11.17926,-0.51687 -15.64639,-1.40216c-7.45292,-1.477 -12.35361,-3.9795 -12.35361,-6.81803c0,-2.88761 5.07163,-5.42746 12.7425,-6.89372c4.38922,-0.83898 9.62945,-1.32646 15.2575,-1.32646c4.11083,0 21.8065,-3.63973 21.8065,-3.63973c0,0 6.1935,8.52688 6.1935,11.85992z" fill="#c3c3c3" stroke-width="0"/><path d="M163.6935,61.83104c0,0 17.69567,3.63973 21.8065,3.63973c5.62805,0 10.86828,0.48748 15.2575,1.32646c7.67087,1.46626 12.7425,4.00611 12.7425,6.89372c0,2.83853 -4.90069,5.34102 -12.35361,6.81803c-4.46713,0.88528 -9.85115,1.40216 -15.64639,1.40216c-5.64381,0 -22.7439,3.03345 -22.7439,3.03345c0,0 -5.2561,-8.37065 -5.2561,-11.25364c0,-3.33303 6.1935,-11.85992 6.1935,-11.85992z" fill="url(#color-1)" stroke-width="0"/><path d="M212.2801,75.55129c0,2.11289 -11.98986,1.6396 -26.7801,1.6396c-14.79024,0 -26.7801,0.47329 -26.7801,-1.6396c0,-2.11289 11.98986,-6.01186 26.7801,-6.01186c14.79024,0 26.7801,3.89897 26.7801,6.01186z" fill="#00c1ff" stroke-width="0"/><path d="M518.12915,78.18272c0,14.29833 -15.34513,2.75763 -18.9871,11.96214c-3.4782,8.79061 4.86784,38.65251 -0.34882,38.65251c-10.67895,0 -19.33594,-22.66096 -19.33594,-50.61465c0,-17.80319 3.51143,-33.45955 8.82026,-42.48233c0.42025,-0.71423 14.12216,-19.60027 25.66169,-17.56944c15.12947,2.66262 28.99519,26.56101 28.99519,26.56101c0,0 -24.80528,14.50661 -24.80528,33.49077z" fill="#c3c3c3" stroke-width="0"/><path d="M509.27133,56.57031c0,-3.95705 3.61554,-10.2089 7.06198,-12.40154c4.0764,-2.59343 8.19001,-0.7675 9.72176,-0.7675c2.82678,0 -6.2726,3.9827 -6.2726,12.62007c0,8.63737 -2.56603,16.18831 -5.39281,16.18831c-2.82678,0 -5.11834,-7.00198 -5.11834,-15.63935z" fill="#00c1ff" stroke-width="0"/><g><path d="M623.01875,259.87397c61.02746,0 62.5,18.78778 62.5,58c0,39.21222 -49.47254,71 -110.5,71c-61.02746,0 -85.5,-36 -85.5,-36c0,0 -10.83936,-74.83249 11.67534,-87.83015c19.56833,-11.29673 93.4473,-5.16985 121.82466,-5.16985z" fill="#acacac" stroke-width="0"/><g><g fill="#969595" stroke-width="0"><path d="M520.30175,294.11112v-17.50663h46.30875v17.50663z"/><path d="M586.21461,285.96048l-19.28553,19.28554l-1.20535,-39.77642z"/></g><g fill="#818181" stroke-width="0.5"><path d="M529.52108,280.60078c0,-0.69036 0.55964,-1.25 1.25,-1.25c0.69036,0 1.25,0.55964 1.25,1.25c0,0.69036 -0.55964,1.25 -1.25,1.25c-0.69036,0 -1.25,-0.55964 -1.25,-1.25z"/><path d="M549.60753,284.03327c0,-0.69036 0.55964,-1.25 1.25,-1.25c0.69036,0 1.25,0.55964 1.25,1.25c0,0.69036 -0.55964,1.25 -1.25,1.25c-0.69036,0 -1.25,-0.55964 -1.25,-1.25z"/><path d="M544.64208,285.26287c1.18585,0.39528 0.79057,1.58114 0.79057,1.58114l-0.27952,0.83173c-2.24651,4.56679 -9.24245,1.82008 -9.40271,-2.8797c0,0 0,-1.25 1.25,-1.25c1.25,0 1.25,1.25 1.25,1.25c-0.13253,2.33022 4.23459,3.77559 4.58152,1.95122l0.229,-0.69382c0,0 0.39528,-1.18585 1.58114,-0.79057z"/></g></g></g></g></g></svg>