<svg version="1.1" xmlns="http://www.w3.org/2000/svg" xmlns:xlink="http://www.w3.org/1999/xlink" width="523.607" height="374.0362" viewBox="0,0,523.607,374.0362"><g transform="translate(27.25963,7.38801)"><g stroke="none" stroke-miterlimit="10"><path d="M356.83466,-7.38801v31.93804h-372.44202v-31.93804z" fill="#9e9898" stroke-width="0"/><path d="M-11.16847,366.64819v-51.04752h507.51584v51.04752z" fill="#9e9898" stroke-width="0"/><path d="M51.62632,3.14005v238.34721h-78.88595v-238.34721z" fill="#9e9898" stroke-width="0"/><path d="M488.41247,24.55003v216.93723h-60.66516v-216.93723z" fill="#9e9898" stroke-width="0"/><path d="M491.90847,-7.38801v31.93804h-135.07382v-31.93804z" fill="#9e9898" stroke-width="0"/><path d="M147.34265,235.21168v-21.1794h209.492v21.1794z" fill="#9e9898" stroke-width="0"/><path d="M147.34265,188.55585v-26.34496h169.82627v26.34496z" fill="#9e9898" stroke-width="0"/><path d="M147.34265,134.46703v-131.32698h208.47224v131.32698z" fill="#9e9898" stroke-width="0"/><path d="M345.6428,235.21168v-210.66165h20.34417v210.66165z" fill="#9e9898" stroke-width="0"/><path d="M147.34265,175.38337v-172.24332h20.34417v172.24332z" fill="#9e9898" stroke-width="0"/><path d="M166.89527,96.25717l-2.11781,-63.42072l51.72613,-1.72729l2.11781,63.42072z" fill="#be9c62" stroke-width="0"/><text transform="translate(165.92312,41.93674) rotate(-1.62071) scale(0.18546,0.18546)" font-size="40" xml:space="preserve" fill="#ffe2b1" stroke-width="1" font-family="Sans Serif" font-weight="normal" text-anchor="start"><tspan x="0" dy="0">Las llaves</tspan><tspan x="0" dy="48px">abren puertas</tspan></text></g></g></svg>