<svg version="1.1" xmlns="http://www.w3.org/2000/svg" xmlns:xlink="http://www.w3.org/1999/xlink" width="673.64625" height="422.82143" viewBox="0,0,673.64625,422.82143"><g transform="translate(16.82313,23.57143)"><g stroke-miterlimit="10"><path d="M-16.82313,383.57143v-407.14286h673.64625v407.14286z" fill="#000000" stroke="none" stroke-width="NaN"/><text transform="translate(20.1871,43.89116) scale(0.5,0.5)" font-size="40" xml:space="preserve" fill="#ffffff" stroke="none" stroke-width="1" font-family="Sans Serif" font-weight="normal" text-anchor="start"><tspan x="0" dy="0">Eso es todo hasta ahora :)</tspan></text><text transform="translate(22.92179,90.61225) scale(0.5,0.5)" font-size="40" xml:space="preserve" fill="#ffffff" stroke="none" stroke-width="1" font-family="Sans Serif" font-weight="normal" text-anchor="start"><tspan x="0" dy="0">Hecho en turbowarp</tspan></text><text transform="translate(23.8044,137.52936) scale(0.5,0.5)" font-size="40" xml:space="preserve" fill="#ffffff" stroke="none" stroke-width="1" font-family="Sans Serif" font-weight="normal" text-anchor="start"><tspan x="0" dy="0">Efectos de sonido de mixkit.co</tspan></text><text transform="translate(22.92179,182.5426) scale(0.5,0.5)" font-size="40" xml:space="preserve" fill="#ffffff" stroke="none" stroke-width="1" font-family="Sans Serif" font-weight="normal" text-anchor="start"><tspan x="0" dy="0">Musica bodria del inicio hecha en lmms</tspan></text><g stroke="none" stroke-width="0"><path d="M579.53142,229.41773c0,22.33599 -20.19226,10.1107 -55.06922,10.1107c-34.87696,0 -71.23142,12.22529 -71.23142,-10.1107c0,-22.33599 28.27336,-40.44286 63.15032,-40.44286c34.87696,0 63.15029,18.10687 63.15029,40.44289z" fill="#c3dce2"/><path d="M545.0044,219.30697c0,5.58401 -12.67481,10.11073 -28.31001,10.11073c-15.63517,0 -28.31001,-4.52675 -28.31001,-10.11073c0,-5.58401 -4.17637,-9.09963 11.4588,-14.49203c3.69124,-1.27307 12.53167,-1.11256 18.21991,-1.21503c5.90839,-0.10643 12.59265,1.16082 16.91743,2.64754c8.18403,2.81345 10.02387,10.31846 10.02387,13.05949z" fill="#000000"/><path d="M504.7457,218.20058c0,3.41486 -1.21937,6.18316 -2.72352,6.18316c-1.50415,0 -2.72352,-2.7683 -2.72352,-6.18316c0,-3.41486 1.21937,-6.18316 2.72352,-6.18316c1.50415,0 2.72352,2.7683 2.72352,6.18316z" fill="#0091ff"/><path d="M537.86967,217.83251c0,2.80508 -0.92278,5.07903 -2.06105,5.07903c-1.13828,0 -2.06105,-2.27395 -2.06105,-5.07903c0,-2.80508 0.92278,-5.07903 2.06105,-5.07903c1.13828,0 2.06105,2.27395 2.06105,5.07903z" fill="#ff0000"/><g><path d="M511.75899,193.39673c-0.52975,0.01392 -0.2096,-1.00898 -0.26387,-1.73966c-0.22564,-3.03853 -1.5831,-23.13164 -1.5831,-23.13164l11.09127,-0.82366c0,0 1.51954,18.80781 1.7684,22.15903c0.0693,0.933 0.81922,2.49217 0.07857,2.71224c-0.67114,0.19944 -1.13254,0.3193 -1.75279,0.36535c-1.28582,0.09548 -5.27749,0.39809 -7.65847,0.5749c-0.82143,0.06101 -0.01514,0.1794 -1.67999,-0.11663z" fill="#797979"/><path d="M549.53218,168.41635c0,3.72266 -8.52532,6.74048 -19.04186,6.74048c-10.51653,0 -19.04186,-3.01781 -19.04186,-6.74048c0,-3.72266 8.52532,-6.74048 19.04186,-6.74048c10.51653,0 19.04186,3.01781 19.04186,6.74048z" fill="#c9c9c9"/><path d="M502.96643,161.67588c10.51653,0 19.04186,3.01781 19.04186,6.74048c0,3.72266 -8.52535,6.74048 -19.04186,6.74048c-10.51653,0 -19.04186,-3.01781 -19.04186,-6.74048c0,-3.72266 8.52532,-6.74048 19.04186,-6.74048z" fill="#c9c9c9"/></g><g fill="#c3dce2"><path d="M471.39401,246.9044c0,13.38186 -3.64331,24.22998 -8.13759,24.22998c-4.49429,0 -8.13762,-10.84815 -8.13762,-24.22998c0,-13.38186 3.64334,-24.22998 8.13762,-24.22998c4.49429,0 8.13759,10.84812 8.13759,24.22998z"/><path d="M462.70762,308.65926c-2.11284,0.02319 -3.79408,1.07708 -5.32901,-1.68716c-2.13337,-3.84198 -3.75942,-12.85649 -3.8668,-22.63536c-0.18465,-16.81467 2.93851,-25.78366 7.18486,-28.51654c6.64894,-4.27922 10.91614,11.50108 11.10076,28.31574c0.09328,8.49476 -1.12455,17.34344 -2.81993,21.3633c-1.66044,3.93716 -3.77146,3.13259 -6.26994,3.16002z"/><g><path d="M463.33075,311.74009c-6.77397,0.07438 -12.15569,0.31843 -12.18962,-2.77143c-0.03393,-3.08988 5.42995,-5.65502 12.20389,-5.7294c6.77397,-0.07438 12.29284,2.37016 12.32677,5.46001c0.03393,3.08988 -5.56707,2.9664 -12.34102,3.04078z"/><path d="M476.18517,311.33991c0.04535,4.12975 -1.91243,8.79071 -3.99216,8.81355c-2.07973,0.02284 -3.80243,-3.30647 -3.84777,-7.43619c-0.04535,-4.12975 1.60381,-7.49606 3.68354,-7.51889c2.0797,-0.02284 4.11104,2.01182 4.15639,6.14157z"/><path d="M454.3481,305.39248c2.07973,-0.02284 3.80243,3.30647 3.84777,7.43619c0.04535,4.12975 -1.60381,7.49606 -3.68354,7.51889c-2.07973,0.02284 -4.1394,-4.594 -4.18475,-8.72375c-0.04535,-4.12975 1.94078,-6.20853 4.02051,-6.23136z"/></g></g><g fill="#c3dce2"><path d="M574.73947,246.9044c0,13.38186 -3.64331,24.22998 -8.13759,24.22998c-4.49429,0 -8.13762,-10.84815 -8.13762,-24.22998c0,-13.38186 3.64334,-24.22998 8.13762,-24.22998c4.49429,0 8.13759,10.84812 8.13759,24.22998z"/><path d="M566.05308,308.65926c-2.11284,0.02319 -3.79408,1.07708 -5.32901,-1.68716c-2.13337,-3.84198 -3.75942,-12.85649 -3.8668,-22.63536c-0.18465,-16.81467 2.93851,-25.78366 7.18486,-28.51654c6.64894,-4.27922 10.91614,11.50108 11.10076,28.31574c0.09328,8.49476 -1.12455,17.34344 -2.81993,21.3633c-1.66044,3.93716 -3.77146,3.13259 -6.26994,3.16002z"/><g><path d="M566.67618,311.74009c-6.77397,0.07438 -12.15569,0.31843 -12.18962,-2.77143c-0.03393,-3.08988 5.42995,-5.65502 12.20389,-5.7294c6.77397,-0.07438 12.29284,2.37016 12.32677,5.46001c0.03393,3.08988 -5.56707,2.9664 -12.34102,3.04078z"/><path d="M579.53063,311.33991c0.04535,4.12975 -1.91243,8.79071 -3.99216,8.81355c-2.07973,0.02284 -3.80243,-3.30647 -3.84777,-7.43619c-0.04535,-4.12975 1.60381,-7.49606 3.68354,-7.51889c2.0797,-0.02284 4.11104,2.01182 4.15639,6.14157z"/><path d="M557.69356,305.39248c2.07973,-0.02284 3.80243,3.30647 3.84777,7.43619c0.04535,4.12975 -1.60381,7.49606 -3.68354,7.51889c-2.07973,0.02284 -4.1394,-4.594 -4.18475,-8.72375c-0.04535,-4.12975 1.94078,-6.20853 4.02051,-6.23136z"/></g></g><path d="M429.69502,320.34768v-167.31701h167.2802v167.31701z" fill="none"/><path d="M410.32968,332.26976v-196.92322h196.87994v196.92325z" fill="none"/></g><path d="M414.5,227c0,-51.91477 42.08523,-94 94,-94c51.91477,0 94,42.08523 94,94c0,51.91477 -42.08523,94 -94,94c-51.91477,0 -94,-42.08523 -94,-94z" fill="none" stroke="#ff0000" stroke-width="12.5"/><path d="M117.01174,299c0,-51.91476 42.08524,-94 94,-94c51.91477,0 94,42.08524 94,94c0,51.91476 -42.08524,94 -94,94c-51.91476,0 -94,-42.08524 -94,-94z" fill="none" stroke="#ff0000" stroke-width="12.5"/></g></g></svg>