<svg version="1.1" xmlns="http://www.w3.org/2000/svg" xmlns:xlink="http://www.w3.org/1999/xlink" width="673.64625" height="407.14286" viewBox="0,0,673.64625,407.14286"><g transform="translate(16.82313,23.57143)"><g stroke-miterlimit="10"><path d="M-16.82313,383.57143v-407.14286h673.64625v407.14286z" fill="#000000" stroke="none" stroke-width="NaN"/><text transform="translate(20.1871,43.89116) scale(0.5,0.5)" font-size="40" xml:space="preserve" fill="#ffffff" stroke="none" stroke-width="1" font-family="Sans Serif" font-weight="normal" text-anchor="start"><tspan x="0" dy="0">Eso es todo hasta ahora :)</tspan></text><text transform="translate(22.92179,90.61225) scale(0.5,0.5)" font-size="40" xml:space="preserve" fill="#ffffff" stroke="none" stroke-width="1" font-family="Sans Serif" font-weight="normal" text-anchor="start"><tspan x="0" dy="0">Hecho en turbowarp</tspan></text><text transform="translate(23.8044,137.52936) scale(0.5,0.5)" font-size="40" xml:space="preserve" fill="#ffffff" stroke="none" stroke-width="1" font-family="Sans Serif" font-weight="normal" text-anchor="start"><tspan x="0" dy="0">Efectos de sonido de mixkit.co</tspan></text><text transform="translate(22.92179,182.5426) scale(0.5,0.5)" font-size="40" xml:space="preserve" fill="#ffffff" stroke="none" stroke-width="1" font-family="Sans Serif" font-weight="normal" text-anchor="start"><tspan x="0" dy="0">Musica bodria del inicio hecha en lmms</tspan></text><g><path d="M428.78028,279.76077c0,-5.78834 4.69239,-10.48073 10.48073,-10.48073c5.78834,0 10.48073,4.69239 10.48073,10.48073c0,5.78834 -4.69239,10.48073 -10.48073,10.48073c-2.31687,0 -4.397,-1.11867 -6.13207,-2.39159c-2.59974,-1.90728 -4.34866,-4.61766 -4.34866,-8.08913z" fill="#000000" stroke="#ffffff" stroke-width="5"/><g><path d="M382.06547,297.52423c0,-21.42823 17.37102,-38.79924 38.79925,-38.79924c21.42823,0 38.79924,17.37102 38.79924,38.79924c0,21.42823 -17.37101,38.79924 -38.79924,38.79924c-21.42823,0 -38.79925,-17.37101 -38.79925,-38.79924z" fill="none" stroke="#ffffff" stroke-width="5"/><path d="M376.87429,260.88392c0,-7.90922 6.41168,-14.32091 14.3209,-14.32091c7.90922,0 14.32091,6.41169 14.32091,14.32091c0,1.12239 -1.04376,1.70463 -1.94598,2.23288c-1.11624,0.65356 -2.17937,1.14269 -2.72839,1.49622c-2.13424,1.37431 -3.00331,0.7958 -6.71872,4.58205c-0.83495,0.85086 -5.27801,5.8641 -6.38524,5.58961c-6.23892,-1.54665 -10.86349,-7.18364 -10.86349,-13.90076z" fill="none" stroke="#ffffff" stroke-width="5"/><path d="M399.96427,304.78321c0,-11.543 9.35744,-20.90045 20.90044,-20.90045c11.543,0 20.90045,9.35745 20.90045,20.90045c0,11.543 -9.35745,20.90044 -20.90045,20.90044c-11.543,0 -20.90044,-9.35744 -20.90044,-20.90044z" fill="#000000" stroke="#ffffff" stroke-width="5"/><path d="M434.6604,258.72499c0,-7.90922 6.41168,-14.32091 14.3209,-14.32091c7.90922,0 14.32091,6.41169 14.32091,14.32091c0,7.90922 -1.6347,14.93729 -9.54393,14.93729c-2.29733,0 -3.80768,-2.02639 -5.97171,-4.01497c-1.63294,-1.50054 -3.96986,-2.84687 -5.4267,-4.03326c-3.25936,-2.65431 -7.69948,-3.01068 -7.69948,-6.88906z" fill="none" stroke="#ffffff" stroke-width="5"/><path d="M390.4103,279.76077c0,-5.78834 4.69239,-10.48073 10.48073,-10.48073c5.78834,0 10.48072,4.69239 10.48072,10.48073c0,5.78834 -4.69238,10.48073 -10.48072,10.48073c-5.78834,0 -10.48073,-4.69238 -10.48073,-10.48073z" fill="#000000" stroke="#ffffff" stroke-width="5"/><path d="M405.84977,282.82295c0,1.74465 -1.37983,3.15897 -3.08193,3.15897c-1.7021,0 -3.08193,-1.41433 -3.08193,-3.15897c0,-1.74465 1.37983,-3.15897 3.08193,-3.15897c1.7021,0 3.08193,1.41433 3.08193,3.15897z" fill="#ff0000" stroke="#ff0000" stroke-width="5"/><path d="M408.41318,304.78321c0,-2.5106 2.03524,-4.54585 4.54584,-4.54585c2.5106,0 4.54584,2.03525 4.54584,4.54585c0,2.5106 -2.03524,4.54584 -4.54584,4.54584c-2.5106,0 -4.54584,-2.03524 -4.54584,-4.54584z" fill="#ffffff" stroke="#ffffff" stroke-width="0"/><path d="M427.90636,300.23736c2.5106,0 4.54585,2.03525 4.54585,4.54585c0,2.5106 -2.03525,4.54584 -4.54585,4.54584c-2.5106,0 -4.54584,-2.03524 -4.54584,-4.54584c0,-2.5106 2.03524,-4.54585 4.54584,-4.54585z" fill="#ffffff" stroke="#ffffff" stroke-width="0"/></g></g><g fill="#ffffff" stroke="none" stroke-width="0.5"><path d="M103.70286,239.55631c1.38155,1.38155 0.60367,2.76311 0.19783,3.30084c-1.88892,8.38713 -4.23251,16.8355 -5.0188,25.41807c-0.32477,3.54497 0.22135,7.04529 -0.34574,10.60463c-1.4697,9.22461 -3.8858,17.96326 -3.8858,27.34964c0,0 0,2.5 -2.5,2.5c-2.5,0 -2.5,-2.5 -2.5,-2.5c0,-9.64661 2.39965,-18.62385 3.942,-28.09721c0.55893,-3.43304 -0.0031,-6.83918 0.30658,-10.26946c0.16764,-1.85693 0.40603,-3.70757 0.69605,-5.55267c-2.50074,2.17939 -5.42227,2.56774 -8.74547,3.30559c-7.75427,1.72169 -16.61615,0.95363 -24.15578,-1.69346c-1.22636,-0.43056 -2.36867,-1.05731 -3.51056,-1.68739c0.58527,2.99921 1.27365,5.98251 1.9729,8.93406c0.67859,2.86435 2.07609,6.95932 2.55091,9.84979c0.26319,1.6022 0.05028,3.26787 0.39166,4.85525c1.52053,7.07029 6.20793,13.21555 7.0746,20.40557c0,0 0.27608,2.4847 -2.20863,2.76078c-2.48471,0.27608 -2.76078,-2.20863 -2.76078,-2.20863c-0.6813,-6.89459 -5.49771,-13.08779 -6.99115,-19.89595c-0.36633,-1.66997 -0.16549,-3.42263 -0.44016,-5.1101c-0.35264,-2.16647 -1.99359,-7.44097 -2.48193,-9.50473c-2.9825,-12.60431 -5.57339,-25.53279 -1.89405,-37.97145c-2.08102,0.58369 -4.24608,0.85746 -6.65425,0.56105l-0.31573,-0.31235l-0.07784,0.15569l-2.56082,-1.28041c-0.84561,-0.40086 -1.4304,-1.26228 -1.4304,-2.26029c0,-1.38071 1.11929,-2.5 2.5,-2.5h3.34367c1.31891,-0.40167 2.61756,-0.74858 3.74038,-0.94335c1.90265,-0.33005 3.91762,0.00065 5.78314,-0.45801c0.71522,-0.35381 1.41488,-0.69438 2.09412,-0.99016c1.23946,-0.53973 2.08478,-1.26558 3.10198,-1.66709c1.16239,-0.73693 2.32119,-1.45891 3.48489,-1.94808c2.05423,-0.86352 4.3738,-0.9952 6.40767,-1.90565c1.91926,-0.85915 3.81036,-2.17767 5.91305,-2.19801c5.16994,-0.05 9.89556,2.36812 13.94551,5.39184c1.65857,1.2383 4.40447,3.10848 5.50104,4.89711c1.89074,3.08401 2.25894,6.8339 2.33122,10.39269c0.59617,-0.41493 1.89744,-1.02941 3.19871,0.27186zM57.18424,256.27032l0.43024,0.05559c1.92109,0.85553 3.65015,2.13947 5.63177,2.84352c6.66333,2.36741 14.63458,3.0966 21.50631,1.56813c2.59718,-0.57769 5.28584,-0.60145 7.1333,-2.77896c1.91035,-2.25162 1.67541,-5.15355 2.42674,-7.86223c0.90342,-3.25699 1.21114,-5.64206 1.20859,-9.09845c0.00842,-3.01991 0.0795,-6.71481 -1.56563,-9.42028c-1.89132,-3.11034 -6.57459,-5.17468 -9.67867,-6.56396c-2.08257,-0.93209 -4.80813,-2.31606 -7.19887,-1.25651c-0.80229,0.35557 -1.31751,1.20607 -2.12031,1.56046c-1.38494,0.61137 -2.75518,1.12419 -4.11717,1.61698c0.0002,0.01281 0.00029,0.02565 0.00029,0.03851c0,1.2115 -0.86176,2.22174 -2.00574,2.45115l-2.79274,0.62061c-2.51413,0.83979 -4.9151,1.59164 -7.15056,3.03814c-2.72374,7.58361 -2.76305,15.40364 -1.70754,23.1873z"/><path d="M99.10894,212.29602c0,-1.38071 1.11929,-2.5 2.5,-2.5c1.38071,0 2.5,1.11929 2.5,2.5c0,1.38071 -1.11929,2.5 -2.5,2.5c-1.38071,0 -2.5,-1.11929 -2.5,-2.5z"/><path d="M128.60552,278.96842c-0.28385,0.1329 -0.5578,0.27836 -0.82041,0.43652zM129.04364,278.7764c-0.01353,0.32637 -0.19023,2.4583 -2.49888,2.4583c-2.5,0 -2.5,-2.5 -2.5,-2.5l1.25965,-3.67098c2.39798,-1.31961 5.17544,-2.08809 7.91009,-2.20352c3.8972,-0.1645 5.26104,0.21277 9.08433,2.14176c3.61376,1.82328 7.74611,5.22474 8.79271,9.46766c1.07936,4.37574 -0.88158,8.27993 -2.83692,11.94735c-3.72507,6.98671 -8.96479,13.77408 -17.52952,14.44954c-2.06861,0.16314 -6.00274,-2.10253 -7.54894,-2.889c-1.1695,-0.59486 -2.52186,-0.93521 -3.4896,-1.82126c-1.93411,-1.77084 -4.92359,-6.92041 -6.29709,-9.13638c-1.81249,-5.93902 -3.42028,-12.58709 -3.9612,-18.78902c-0.40977,-4.69814 0.19925,-9.51974 0.36431,-14.20801c0.08581,-2.43729 -0.29571,-4.89727 0.01354,-7.31638c0.48084,-3.7613 2.25381,-6.82649 3.50536,-10.31712c1.98077,-5.52446 4.48335,-10.26086 9.99791,-12.7132c0,0 2.29786,-0.9848 3.28266,1.31306c0.9848,2.29786 -1.31306,3.28266 -1.31306,3.28266c-5.0804,2.06444 -6.47205,7.80283 -8.42754,12.53732c-2.0325,4.92095 -1.87891,8.14234 -2.06165,13.38005c-0.15552,4.45774 -0.77313,9.08035 -0.38588,13.54893c0.49018,5.65619 1.94115,11.7716 3.54067,17.21998c0.66169,1.04832 3.95367,6.4344 4.95572,7.36774c0.67688,0.63046 1.68104,0.77291 2.5119,1.17949c1.71121,0.83737 3.31954,2.64032 5.20425,2.36231c6.64593,-0.98032 10.248,-6.25124 13.22817,-11.80702c1.28256,-2.39101 3.17095,-5.35008 2.41439,-8.30771c-1.72901,-6.75926 -11.32324,-9.38968 -17.2154,-6.97657z"/><path d="M164.01376,281.8566c-2.37171,-0.79057 -1.58114,-3.16228 -1.58114,-3.16228l1.08756,-2.91309c1.68137,-2.26062 2.72287,-4.70993 6.16037,-4.79784c3.82144,-0.09773 7.46094,4.67857 8.39914,7.79344c2.14146,7.10979 -2.36014,13.82563 -5.50609,19.73014c-1.14798,0.59688 -2.18546,1.49009 -3.44395,1.79064c-1.37985,0.32953 -2.84595,0.20696 -4.25568,0.04815c-8.18845,-0.92249 -9.48322,-8.38439 -10.42472,-15.2795c-0.53002,-3.88157 -0.87393,-8.84255 -0.37048,-12.69609c0.65813,-5.03747 3.1662,-10.53633 5.01978,-15.17193c1.20329,-3.0093 1.85829,-6.46119 4.39899,-8.82033c0.98517,-0.91477 2.3764,-1.25785 3.5646,-1.88677c0,0 2.23607,-1.11803 3.3541,1.11803c1.11803,2.23607 -1.11803,3.3541 -1.11803,3.3541c-3.85415,1.76184 -4.07883,4.39651 -5.53978,8.04758c-1.7181,4.29371 -4.14368,9.41632 -4.73266,14.08538c-0.4322,3.42627 -0.08932,7.86519 0.37971,11.30991c0.71742,5.26895 2.06196,13.85889 9.63259,10.56529c1.85534,-4.08066 4.21489,-7.57933 4.52058,-12.19718c0.13791,-2.08332 -1.25805,-6.45806 -3.87809,-6.79087c-1.13046,-0.14359 -1.45565,1.75852 -2.0917,2.70403l-0.41281,1.58804c0,0 -0.79057,2.37171 -3.16228,1.58114z"/><path d="M185.43449,299.98939c-2.5,0 -2.5,-2.5 -2.5,-2.5v-1.12528c0,-3.58464 -0.0128,-7.51759 0.7953,-10.97539c0.78468,-3.35765 1.95851,-5.93743 2.21174,-9.45689c0.38568,-5.36025 -0.32332,-10.75038 -0.37808,-16.10522l-0.11447,-0.22893l0.03948,-0.01974l-0.09501,-0.099c-1.95482,-5.20634 -2.94588,-10.44437 -6.43347,-14.84329c0,0 -1.53485,-1.97338 0.43853,-3.50823c1.97338,-1.53485 3.50823,0.43853 3.50823,0.43853c2.67269,3.49101 4.04343,7.19477 5.38098,11.09358c0.26215,-2.10694 0.86046,-4.20869 1.3904,-6.40628c1.20052,-4.97846 2.96272,-9.88655 5.63938,-14.22989l0.72732,-0.81786c0,0 1.76777,-1.76777 3.53553,0c1.76777,1.76777 0,3.53553 0,3.53553l-0.02286,-0.06768c-2.42582,3.81574 -3.96545,8.34077 -5.01852,12.75128c-0.74146,3.10541 -0.58908,6.45373 -1.80198,9.40708c-0.02485,0.0605 -0.05013,0.12078 -0.07583,0.18085l0.02126,0.00709l-1.48215,4.44644c-0.11411,0.37103 -0.31224,0.70525 -0.57219,0.98046c0.179,4.60828 0.62793,9.23097 0.30087,13.83972c-0.26127,3.68168 -1.46522,6.57087 -2.28938,10.04798c-0.74508,3.14347 -0.70508,6.75659 -0.70508,10.02986v1.12528c0,0 0,2.5 -2.5,2.5z"/></g><g fill="#9966ff" stroke="none" stroke-width="0.5"><path d="M289.15252,305.89527c-1.5,-2 0.5,-3.5 0.5,-3.5l1.03686,-0.74624c4.5351,-4.39567 11.88741,-6.30111 17.71727,-8.72774c1.0378,-0.43197 2.13816,-0.89662 3.25407,-1.19752c-6.3467,-2.74458 -12.78499,-5.74543 -19.48375,-7.40803c0,0 -2.42535,-0.60634 -1.81901,-3.0317c0.60634,-2.42536 3.03169,-1.81901 3.03169,-1.81901c7.40079,1.86217 14.47513,5.20921 21.47972,8.19691l3.52729,1.32647c0.97516,0.34094 1.67464,1.26906 1.67464,2.36056c0,0.96503 -0.54678,1.80235 -1.34745,2.21905l-3.54316,1.93263l-0.00697,-0.01277c-0.03631,0.0243 -0.07276,0.04841 -0.10935,0.07232c-3.83934,2.50901 -9.52508,4.01925 -13.78015,5.90814c-2.75291,1.22206 -4.9357,1.49466 -7.05931,3.71623l-1.5724,1.21071c0,0 -2,1.5 -3.5,-0.5z"/><path d="M226.11013,274.57793c1.76776,-1.76776 3.53553,0 3.53553,0l0.77721,0.90179c2.51187,1.43541 4.95947,3.21902 7.48733,4.5581c6.05274,3.20629 14.57322,4.76657 21.34303,5.22931c10.35858,0.70804 20.77976,-1.27687 30.91265,1.38313c0,0 2.41559,0.64416 1.77143,3.05975c-0.64416,2.41559 -3.05975,1.77143 -3.05975,1.77143c-9.70473,-2.63388 -20.00391,-0.53474 -29.96798,-1.22613c-7.55573,-0.52427 -16.68489,-2.34929 -23.45149,-5.86005c-2.53618,-1.31587 -5.0063,-3.14031 -7.51593,-4.57432l-1.83205,-1.70747c0,0 -1.76776,-1.76777 0,-3.53553z"/></g></g></g></svg>