<svg version="1.1" xmlns="http://www.w3.org/2000/svg" xmlns:xlink="http://www.w3.org/1999/xlink" width="78.41022" height="79.00562" viewBox="0,0,78.41022,79.00562"><g transform="translate(-215.11997,-82.03141)"><g stroke="none" stroke-miterlimit="10"><g fill="#a8c0c5" stroke-width="0"><path d="M241.19682,113.1638c0,4.92233 -1.34014,8.91266 -2.9933,8.91266c-1.65316,0 -2.99331,-3.99034 -2.99331,-8.91266c0,-4.92233 1.34015,-8.91266 2.99331,-8.91266c1.65316,0 2.9933,3.99033 2.9933,8.91266z"/><path d="M256.23564,120.47397c0,0.77723 0.38085,1.39987 -0.64208,1.95327c-1.42175,0.76917 -4.74398,1.33084 -8.34122,1.33084c-6.18541,0 -9.47172,-1.18497 -10.45976,-2.75787c-1.54711,-2.46286 4.27435,-3.96865 10.45976,-3.96865c3.12487,0 6.37461,0.48368 7.84633,1.12349c1.44144,0.62665 1.13698,1.39985 1.13698,2.31893z"/><path d="M257.37137,120.25725c0,2.49186 0.06803,4.47232 -1.0686,4.47232c-1.13664,0 -2.05806,-2.02005 -2.05806,-4.5119c0,-2.49186 0.92143,-4.5119 2.05806,-4.5119c1.13664,0 1.0686,2.05963 1.0686,4.55148z"/><path d="M257.27609,115.52759c1.51916,0 3.22562,0.73892 3.22562,1.50397c0,0.76504 -1.23152,1.38523 -2.75068,1.38523c-1.51916,0 -2.75068,-0.62018 -2.75068,-1.38523c0,-0.76505 0.75658,-1.50397 2.27574,-1.50397z"/><path d="M255.00035,123.53552c0,-0.76505 1.23152,-1.38523 2.75068,-1.38523c1.51916,0 2.75068,0.62019 2.75068,1.38523c0,0.76505 -1.70646,1.50397 -3.22562,1.50397c-1.51916,0 -2.27574,-0.73892 -2.27574,-1.50397z"/></g><path d="M263.55843,106.94929c0,8.21598 -7.74408,3.71908 -21.11999,3.71908c-13.37591,0 -27.31847,4.4969 -27.31847,-3.71908c0,-8.21598 10.84332,-14.87634 24.21923,-14.87634c13.37591,0 24.21922,6.66036 24.21922,14.87635z" fill="#c3dce2" stroke-width="0"/><path d="M259.46744,103.2302c0,2.054 -4.66225,3.71909 -10.41344,3.71909c-5.75118,0 -10.41344,-1.6651 -10.41344,-3.71909c0,-2.054 -1.53622,-3.34717 4.21496,-5.33069c1.35777,-0.46828 4.6096,-0.40924 6.70194,-0.44693c2.17332,-0.03915 4.63203,0.42699 6.22284,0.97386c3.01038,1.03489 3.68714,3.7955 3.68714,4.80375z" fill="#000000" stroke-width="0"/><path d="M244.65883,102.82322c0,1.25611 -0.44853,2.27439 -1.00181,2.27439c-0.55328,0 -1.00181,-1.01828 -1.00181,-2.27439c0,-1.25611 0.44853,-2.27439 1.00181,-2.27439c0.55328,0 1.00181,1.01828 1.00181,2.27439z" fill="#0091ff" stroke-width="0"/><path d="M256.84301,102.68784c0,1.03181 -0.33943,1.86825 -0.75813,1.86825c-0.4187,0 -0.75813,-0.83644 -0.75813,-1.86825c0,-1.03181 0.33943,-1.86825 0.75813,-1.86825c0.4187,0 0.75813,0.83644 0.75813,1.86825z" fill="#ff0000" stroke-width="0"/><g stroke-width="0"><path d="M237.63903,93.69947c-0.19486,0.00512 -0.0771,-0.37114 -0.09706,-0.63991c-0.083,-1.11768 -0.58232,-8.50865 -0.58232,-8.50865l4.07977,-0.30297c0,0 0.55894,6.91819 0.65048,8.15089c0.02549,0.34319 0.30134,0.91671 0.0289,0.99766c-0.24687,0.07336 -0.41659,0.11745 -0.64474,0.13439c-0.47297,0.03512 -1.94125,0.14643 -2.81706,0.21147c-0.30215,0.02244 -0.00557,0.06599 -0.61796,-0.0429z" fill="#797979"/><path d="M251.53339,84.5108c0,1.36933 -3.13592,2.47939 -7.00428,2.47939c-3.86836,0 -7.00428,-1.11006 -7.00428,-2.47939c0,-1.36933 3.13592,-2.47939 7.00428,-2.47939c3.86836,0 7.00428,1.11006 7.00428,2.47939z" fill="#c9c9c9"/><path d="M234.40482,82.03141c3.86836,0 7.00428,1.11006 7.00428,2.47939c0,1.36933 -3.13593,2.47939 -7.00428,2.47939c-3.86836,0 -7.00428,-1.11006 -7.00428,-2.47939c0,-1.36933 3.13592,-2.47939 7.00428,-2.47939z" fill="#c9c9c9"/></g><path d="M245.09173,161.03703v-48.43846h48.43846v48.43846z" fill="#00a9ff" stroke-width="0"/><g fill="#003753" stroke-width="0.5"><path d="M279.28843,130.85271c0,-0.69036 0.55964,-1.25 1.25,-1.25c0.69036,0 1.25,0.55964 1.25,1.25c0,0.69036 -0.55964,1.25 -1.25,1.25c-0.69036,0 -1.25,-0.55964 -1.25,-1.25z"/><path d="M258.76699,130.94351c0,-0.69036 0.55964,-1.25 1.25,-1.25c0.69036,0 1.25,0.55964 1.25,1.25c0,0.69036 -0.55964,1.25 -1.25,1.25c-0.69036,0 -1.25,-0.55964 -1.25,-1.25z"/><path d="M285.11836,151.3729c-0.27116,1.22023 -1.4914,0.94907 -1.4914,0.94907l-0.63512,-0.15502c-1.86287,-0.1365 -4.47323,-0.27464 -5.96761,-1.54944c-0.52406,-0.44705 -0.94356,-0.91659 -1.26989,-1.40199c-3.64181,2.35854 -8.16201,1.18137 -11.31626,-1.61062c-0.07834,0.43326 -0.19376,0.87145 -0.34921,1.31352c-0.76393,2.17245 -3.0513,3.39865 -4.83136,4.58542l-0.78418,0.20994c0,0 -1.25,0 -1.25,-1.25c0,-0.80048 0.51262,-1.08835 0.88131,-1.19187c1.27792,-0.81077 3.15994,-1.75318 3.65183,-3.25343c1.07335,-3.27369 -0.87297,-6.20828 -3.47752,-8.07632c0,0 -1.00801,-0.7392 -0.2688,-1.74721c0.7392,-1.00801 1.74721,-0.2688 1.74721,-0.2688c2.06644,1.54207 3.75753,3.59032 4.45912,5.92412c0.32653,0.15515 0.52342,0.41767 0.52342,0.41767c2.20323,2.94577 6.90654,5.31341 10.12035,2.55242c-0.46159,-3.98273 3.50362,-8.28353 6.75361,-9.91227c0,0 1.11803,-0.55902 1.67705,0.55902c0.55902,1.11803 -0.55902,1.67705 -0.55902,1.67705c-2.93964,1.46617 -4.6434,2.7049 -4.94344,6.07233c-0.02263,0.25399 -0.04733,0.51332 -0.0627,0.77272c0.13011,0.34594 0.05481,0.69998 0.00041,0.87576c0.05538,0.6827 0.27325,1.32236 0.87829,1.81528c1.0814,0.88102 3.24966,0.9018 4.56552,0.99304l0.99933,0.2082c0,0 1.22023,0.27116 0.94907,1.4914z"/></g><g fill="#c3dce2" stroke-width="0"><path d="M228.55107,113.2895c0,4.92233 -1.34014,8.91266 -2.9933,8.91266c-1.65316,0 -2.99331,-3.99034 -2.99331,-8.91266c0,-4.92233 1.34015,-8.91266 2.99331,-8.91266c1.65316,0 2.9933,3.99033 2.9933,8.91266z"/><path d="M243.58993,120.59967c0,0.77723 0.38084,1.39987 -0.64209,1.95327c-1.42175,0.76916 -4.74398,1.33084 -8.34122,1.33084c-6.18541,0 -9.47172,-1.18497 -10.45976,-2.75787c-1.5471,-2.46286 4.27435,-3.96865 10.45976,-3.96865c3.12487,0 6.37461,0.48368 7.84633,1.12349c1.44144,0.62664 1.13698,1.39985 1.13698,2.31893z"/><path d="M244.72562,120.38295c0,2.49186 0.06803,4.47232 -1.0686,4.47232c-1.13664,0 -2.05806,-2.02005 -2.05806,-4.5119c0,-2.49186 0.92143,-4.5119 2.05806,-4.5119c1.13664,0 1.0686,2.05963 1.0686,4.55148z"/><path d="M244.63034,115.65329c1.51916,0 3.22562,0.73892 3.22562,1.50397c0,0.76505 -1.23152,1.38523 -2.75068,1.38523c-1.51916,0 -2.75068,-0.62018 -2.75068,-1.38523c0,-0.76504 0.75658,-1.50397 2.27574,-1.50397z"/><path d="M242.35461,123.66122c0,-0.76505 1.23152,-1.38523 2.75068,-1.38523c1.51916,0 2.75068,0.62018 2.75068,1.38523c0,0.76505 -1.70646,1.50397 -3.22562,1.50397c-1.51916,0 -2.27574,-0.73892 -2.27574,-1.50397z"/></g></g></g></svg>