<svg version="1.1" xmlns="http://www.w3.org/2000/svg" xmlns:xlink="http://www.w3.org/1999/xlink" width="815.97682" height="433.08366" viewBox="0,0,815.97682,433.08366"><g transform="translate(43.18137,24.19238)"><g stroke="none" stroke-miterlimit="10"><path d="M666.13677,-7.38789v31.93804h-670.57563v-31.93804z" fill="#9e9898" stroke-width="0"/><path d="M24.57503,-23.44237c0,-0.41421 0.33579,-0.75 0.75,-0.75c0.41421,0 0.75,0.33579 0.75,0.75c0,0.41421 -0.33579,0.75 -0.75,0.75c-0.41421,0 -0.75,-0.33579 -0.75,-0.75z" fill="#ffe2b1" stroke-width="0.5"/><path d="" fill="#000000" stroke-width="0.5"/><path d="" fill="#000000" stroke-width="0.5"/><path d="M-43.18137,366.64847v-51.04752h755.48697v51.04752z" fill="#9e9898" stroke-width="0"/><path d="M772.79545,13.57742v395.31386h-56.85456v-395.31384z" fill="#9e9898" stroke-width="0"/><path d="M55.85433,3.14017v238.34721h-76.55437v-238.34721z" fill="#9e9898" stroke-width="0"/><path d="M662.5672,318.16459v-67.96116h40.60017v67.96116z" fill="#ff0000" stroke-width="0"/><path d="M-21.55114,241.57574v-22.51407h160.43937v22.51407z" fill="#9e9898" stroke-width="0"/><path d="M583.14544,241.48742v-242.80289h56.85456v242.80289z" fill="#9e9898" stroke-width="0"/><path d="M137.36092,241.57574v-160.41319h34.78854v160.41319z" fill="#9e9898" stroke-width="0"/><path d="M315.19149,331.56997v-31.93804h98.22647v31.93804z" fill="#9e9898" stroke-width="0"/><path d="M469.04788,241.48739v-19.13276h118.69031v19.13276z" fill="#9e9898" stroke-width="0"/></g></g></svg>