<svg version="1.1" xmlns="http://www.w3.org/2000/svg" xmlns:xlink="http://www.w3.org/1999/xlink" width="107.46014" height="89.30667" viewBox="0,0,107.46014,89.30667"><g transform="translate(-519.05346,-21.82121)"><g stroke="none" stroke-miterlimit="10"><path d="M519.05346,102.36947c0,-16.81114 0,-57.19343 0,-68.96111c0,-7.19718 7.43771,-11.58715 14.27895,-11.58715c13.07164,0 54.8337,0 77.01314,0c7.47377,0 16.16805,5.42289 16.16805,10.27515c0,10.53245 0,52.44699 0,70.11167c0,5.46276 -9.35228,8.91985 -17.41666,8.91985c-14.40701,0 -58.84741,0 -78.48149,0c-5.35508,0 -11.56198,-3.39352 -11.56198,-8.75841z" fill="#330000" stroke-width="0"/><path d="M526.86655,97.79964c0,-14.67088 0,-49.91204 0,-60.18157c0,-6.2809 6.35616,-10.11197 12.2026,-10.11197c11.17084,0 46.86013,0 65.81438,0c6.38698,0 13.81699,4.73249 13.81699,8.96701c0,9.19156 0,45.76988 0,61.18564c0,4.76729 -7.99234,7.78425 -14.88405,7.78425c-12.31204,0 -50.2902,0 -67.06921,0c-4.57637,0 -9.88072,-2.96148 -9.88072,-7.64336z" fill="#770000" stroke-width="0"/><text transform="translate(549.7524,82.96206) scale(1.46302,1.42904)" font-size="40" xml:space="preserve" fill="#ffffff" stroke-width="1" font-family="&quot;Audiowide-Regular&quot;, Sans Serif" font-weight="normal" text-anchor="start"><tspan x="0" dy="0">X</tspan></text></g></g></svg>