<svg version="1.1" xmlns="http://www.w3.org/2000/svg" xmlns:xlink="http://www.w3.org/1999/xlink" width="78.42283" height="294.99454" viewBox="0,0,78.42283,294.99454"><g transform="translate(-248.0968,-24.2545)"><g stroke-miterlimit="10"><g><path d="M306.35396,319.24904c0,0 5.29878,-24.81999 2.7693,-41.78758c-0.68577,-4.6001 -4.71484,-8.2848 -6.25473,-11.14772c-5.80263,-10.78815 0,-38.33247 0,-38.33247h23.6511v90.17258z" fill="#5d5d5d" stroke="none" stroke-width="0" stroke-linecap="butt"/><path d="M305.44401,236.29358c0,0 -1.98028,12.53908 0.45525,25.06612c0.76402,3.92971 3.80999,5.7452 5.81811,9.29088c1.19231,2.10522 1.79842,6.22031 1.94644,7.92053c1.06118,12.18951 -1.41455,35.8925 -1.41455,35.8925" fill="none" stroke="#ff0000" stroke-width="2.5" stroke-linecap="round"/></g><g><path d="M254.16118,75.30202c0,0 2.95466,-10.60045 0.42518,-20.0907c-0.68577,-2.57291 -2.37072,-7.91558 -3.91061,-9.51686c-5.80263,-6.03398 0,-21.43996 0,-21.43996h23.6511v50.43496z" fill="#5d5d5d" stroke="none" stroke-width="0" stroke-linecap="butt"/><path d="M253.25122,28.90371c0,0 -1.98028,7.01331 0.45525,14.01988c0.76402,2.19795 3.80999,3.21338 5.81811,5.19654c1.19231,1.17748 1.79842,3.47912 1.94644,4.43008c1.06118,6.81779 -1.41455,20.07525 -1.41455,20.07525" fill="none" stroke="#ff0000" stroke-width="2.5" stroke-linecap="round"/></g></g></g></svg>