<svg version="1.1" xmlns="http://www.w3.org/2000/svg" xmlns:xlink="http://www.w3.org/1999/xlink" width="79.58288" height="79.58288" viewBox="0,0,79.58288,79.58288"><g transform="translate(-200.20856,-140.20856)"><g stroke-miterlimit="10"><path d="M229.37711,179.99528c0,-16.67761 4.67926,-30.19749 10.45142,-30.19749c1.7297,0 3.48986,-0.1036 4.92678,2.04568c3.35819,5.02304 5.52463,16.47186 5.52463,28.15181c0,12.83554 -2.68591,24.7129 -6.59429,29.08384c-1.1699,1.30836 -2.52738,1.11365 -3.85713,1.11365c-5.77215,0 -10.45142,-13.51988 -10.45142,-30.19749z" fill="#fff100" stroke="#a79b1c" stroke-width="2"/><path d="M233.29525,180.04596c0,-16.42571 3.87892,-29.74138 8.66382,-29.74138c4.78489,0 8.66382,13.31567 8.66382,29.74138c0,16.42571 -3.87892,29.74138 -8.66382,29.74138c-4.78489,0 -8.66382,-13.31567 -8.66382,-29.74138z" fill="#fff100" stroke="#a79b1c" stroke-width="2"/><path d="M200.20856,219.79144v-79.58288h79.58288v79.58288z" fill="none" stroke="none" stroke-width="0"/></g></g></svg>