<svg version="1.1" xmlns="http://www.w3.org/2000/svg" xmlns:xlink="http://www.w3.org/1999/xlink" width="587.96092" height="275.96093" viewBox="0,0,587.96092,275.96093"><g transform="translate(-26.01954,-42.01954)"><g stroke-miterlimit="10"><path d="M26.01954,290.91666c0,-51.94704 0,-176.72981 0,-213.0924c0,-22.23955 40.69491,-35.80472 78.12632,-35.80472c71.52058,0 300.0189,0 421.37222,0c40.89224,0 88.46238,16.75692 88.46238,31.75059c0,32.54568 0,162.06315 0,216.64766c0,16.88013 -51.17039,27.56268 -95.2941,27.56268c-78.82699,0 -321.9797,0 -429.40622,0c-29.29995,0 -63.2606,-10.4861 -63.2606,-27.06381z" fill="#414141" stroke="none" stroke-width="0"/><path d="M49.94665,276.79571c0,-45.33358 0,-154.23008 0,-185.96329c0,-19.40821 37.38272,-31.24637 71.76759,-31.24637c65.69953,0 275.60035,0 387.07673,0c37.56402,0 81.26242,14.62357 81.26242,27.70838c0,28.40224 0,141.43066 0,189.06593c0,14.73109 -47.00562,24.05362 -87.53812,24.05362c-72.41125,0 -295.77374,0 -394.45683,0c-26.91523,0 -58.11182,-9.15109 -58.11182,-23.61827z" fill="#a7a7a7" stroke="none" stroke-width="0"/><path d="M70.63271,217.11867c0,-23.30897 0,-70.74223 0,-80.56251c0,-3.50391 6.71949,-6.65805 12.48163,-6.65805c8.63429,0 33.80277,0 49.67633,0c7.98007,0 13.61099,2.45568 13.61099,5.32645c0,9.5536 0,63.03063 0,85.22315c0,5.9524 -7.29169,9.65419 -17.12345,9.65419c-16.96708,0 -41.49899,0 -49.17455,0c-4.58211,0 -9.47095,-5.1183 -9.47095,-12.98321z" fill="none" stroke="#414141" stroke-width="4.5"/><g stroke="none" stroke-width="0"><g fill="#a8c0c5"><path d="M108.76463,177.28055c0,6.29311 -1.71334,11.39467 -3.82688,11.39467c-2.11353,0 -3.82689,-5.10157 -3.82689,-11.39467c0,-6.29311 1.71336,-11.39467 3.82689,-11.39467c2.11353,0 3.82688,5.10156 3.82688,11.39467z"/><path d="M104.6797,206.32208c-0.99361,0.01091 -1.78425,0.50652 -2.50608,-0.79343c-1.00326,-1.80677 -1.76795,-6.04604 -1.81845,-10.64476c-0.08683,-7.90746 1.3819,-12.12532 3.37883,-13.41051c3.12681,-2.01239 5.13355,5.40863 5.22037,13.31608c0.04386,3.99484 -0.52884,8.15612 -1.32613,10.04655c-0.78086,1.85153 -1.77361,1.47317 -2.94857,1.48607z"/><g><path d="M104.97269,207.7709c-3.1856,0.03498 -5.71647,0.14975 -5.73243,-1.30332c-0.01596,-1.45308 2.55355,-2.65939 5.73914,-2.69437c3.1856,-0.03498 5.78097,1.11462 5.79693,2.56769c0.01596,1.45308 -2.61804,1.39501 -5.80363,1.42999z"/><path d="M111.01777,207.58271c0.02133,1.9421 -0.89936,4.13402 -1.8774,4.14476c-0.97804,0.01074 -1.78817,-1.55494 -1.8095,-3.49703c-0.02133,-1.9421 0.75423,-3.52518 1.73227,-3.53592c0.97803,-0.01074 1.93331,0.9461 1.95463,2.8882z"/><path d="M100.74846,204.78581c0.97804,-0.01074 1.78817,1.55494 1.8095,3.49703c0.02133,1.9421 -0.75423,3.52518 -1.73227,3.53592c-0.97804,0.01074 -1.94664,-2.16043 -1.96797,-4.10253c-0.02133,-1.9421 0.91269,-2.91969 1.89073,-2.93043z"/></g></g><path d="M139.481,174.54764c0,10.50397 -9.90066,4.75477 -27.00151,4.75477c-17.10085,0 -34.92614,5.7492 -34.92614,-4.75477c0,-10.50397 13.86298,-19.01912 30.96383,-19.01912c17.10085,0 30.96381,8.51514 30.96381,19.01913z" fill="#c3dce2"/><path d="M134.25073,169.79286c0,2.626 -5.9606,4.75479 -13.31339,4.75479c-7.35277,0 -13.31339,-2.1288 -13.31339,-4.75479c0,-2.626 -1.96403,-4.27929 5.38875,-6.81519c1.73588,-0.59869 5.89329,-0.52321 8.5683,-0.57139c2.77855,-0.05005 5.92196,0.5459 7.95578,1.24506c3.84871,1.32309 4.71394,4.85247 4.71394,6.1415z" fill="#000000"/><path d="M115.31822,169.27254c0,1.60591 -0.57344,2.90776 -1.2808,2.90776c-0.70736,0 -1.2808,-1.30185 -1.2808,-2.90776c0,-1.60591 0.57344,-2.90776 1.2808,-2.90776c0.70736,0 1.2808,1.30185 1.2808,2.90776z" fill="#0091ff"/><path d="M130.89549,169.09946c0,1.31915 -0.43395,2.38852 -0.96925,2.38852c-0.5353,0 -0.96925,-1.06937 -0.96925,-2.38852c0,-1.31915 0.43395,-2.38852 0.96925,-2.38852c0.5353,0 0.96925,1.06937 0.96925,2.38852z" fill="#ff0000"/><g><path d="M106.34356,157.608c-0.24912,0.00655 -0.09857,-0.4745 -0.12409,-0.81811c-0.10611,-1.42893 -0.74449,-10.87815 -0.74449,-10.87815l5.21591,-0.38734c0,0 0.71459,8.84477 0.83163,10.42076c0.03259,0.43876 0.38526,1.172 0.03695,1.27549c-0.31562,0.09379 -0.5326,0.15016 -0.82429,0.17182c-0.60468,0.0449 -2.48185,0.18721 -3.60156,0.27036c-0.38629,0.02869 -0.00712,0.08437 -0.79005,-0.05485z" fill="#797979"/><path d="M124.10721,145.86046c0,1.75066 -4.00921,3.16985 -8.95484,3.16985c-4.94562,0 -8.95484,-1.41919 -8.95484,-3.16985c0,-1.75066 4.00921,-3.16985 8.95484,-3.16985c4.94562,0 8.95484,1.41919 8.95484,3.16985z" fill="#c9c9c9"/><path d="M102.20865,142.69061c4.94562,0 8.95484,1.41919 8.95484,3.16985c0,1.75066 -4.00923,3.16985 -8.95484,3.16985c-4.94562,0 -8.95484,-1.41919 -8.95484,-3.16985c0,-1.75066 4.00921,-3.16985 8.95484,-3.16985z" fill="#c9c9c9"/></g><g fill="#c3dce2"><path d="M94.72477,182.77114c0,6.29311 -1.71334,11.39467 -3.82688,11.39467c-2.11353,0 -3.82689,-5.10157 -3.82689,-11.39467c0,-6.29311 1.71336,-11.39467 3.82689,-11.39467c2.11353,0 3.82688,5.10156 3.82688,11.39467z"/><path d="M90.63981,211.81267c-0.99361,0.01091 -1.78425,0.50652 -2.50608,-0.79343c-1.00326,-1.80677 -1.76795,-6.04604 -1.81845,-10.64476c-0.08683,-7.90746 1.3819,-12.12532 3.37883,-13.41051c3.12681,-2.01239 5.13355,5.40863 5.22037,13.31608c0.04386,3.99484 -0.52884,8.15612 -1.32613,10.04655c-0.78086,1.85153 -1.77361,1.47317 -2.94857,1.48607z"/><g><path d="M90.93284,213.26149c-3.1856,0.03498 -5.71647,0.14975 -5.73243,-1.30332c-0.01596,-1.45308 2.55355,-2.65939 5.73914,-2.69437c3.1856,-0.03498 5.78097,1.11462 5.79693,2.56769c0.01596,1.45308 -2.61804,1.39501 -5.80363,1.42999z"/><path d="M96.97792,213.0733c0.02133,1.9421 -0.89936,4.13402 -1.8774,4.14476c-0.97804,0.01074 -1.78817,-1.55494 -1.8095,-3.49703c-0.02133,-1.9421 0.75423,-3.52518 1.73227,-3.53592c0.97803,-0.01074 1.93331,0.9461 1.95463,2.8882z"/><path d="M86.70857,210.2764c0.97804,-0.01074 1.78817,1.55494 1.8095,3.49703c0.02133,1.9421 -0.75423,3.52518 -1.73227,3.53592c-0.97804,0.01074 -1.94664,-2.16043 -1.96797,-4.10253c-0.02133,-1.9421 0.91269,-2.91969 1.89073,-2.93043z"/></g></g></g><g fill="#414141" stroke="none" stroke-width="1" font-family="&quot;Audiowide-Regular&quot;, Sans Serif" font-weight="normal" font-size="40" text-anchor="start"><text transform="translate(164.30335,153.06539) scale(0.46691,0.46691)" font-size="40" xml:space="preserve" fill="#414141"><tspan x="0" dy="0">Flybot es una maquina de </tspan><tspan x="0" dy="46.150000000000006px">Workbots  inc. , diseñada para llegar a</tspan><tspan x="0" dy="46.150000000000006px">lugares altos, agarrar cosas, ver cosas,</tspan><tspan x="0" dy="46.150000000000006px"> y mas!</tspan></text><text transform="translate(266.81906,167.11439) scale(0.11684,0.11684)" font-size="40" xml:space="preserve" fill="#414141"><tspan x="0" dy="0">FM</tspan></text></g></g></g></svg>