<svg version="1.1" xmlns="http://www.w3.org/2000/svg" xmlns:xlink="http://www.w3.org/1999/xlink" width="164.8486" height="97.52957" viewBox="0,0,164.8486,97.52957"><g transform="translate(-99.00072,-135.89444)"><g fill="#000000" stroke="none" stroke-width="0.5" stroke-miterlimit="10"><path d="M236.55608,213.69148c-0.10809,-0.27558 -0.16866,-0.57501 -0.17164,-0.8882c-0.1583,-1.39846 -0.00647,-3.27497 -0.00011,-3.52904c0.02462,-0.98374 0.13495,-1.92892 0.2742,-2.86598c0.00187,-3.91784 0.03197,-7.83477 0.12948,-11.7452c0.02278,-0.12245 0.0451,-0.24476 0.06694,-0.36699c-0.51667,-3.45046 -1.14762,-6.66219 -0.67241,-11.29723c0.06843,-0.66747 -0.56479,-4.03052 -0.12213,-6.57183c-0.01728,-0.01214 -0.03454,-0.02429 -0.05178,-0.03646c-0.04155,-0.06079 -0.08784,-0.11687 -0.13821,-0.16889c-0.31534,-0.41563 -0.7577,-0.72959 -1.26928,-0.88403c-0.75781,-0.59973 -1.48197,-1.22693 -2.18165,-1.87915c-0.90394,-0.32816 -1.79877,-0.67697 -2.66193,-1.09895c-6.73859,-3.29438 -10.20615,-9.89013 -12.16242,-16.80143c-1.30381,-4.60626 -2.85804,-11.22889 0.97761,-15.32113c5.13676,-5.48041 16.11404,-4.40865 22.83566,-3.92325c5.51735,1.03719 13.29211,2.8107 17.07095,7.3746c1.25509,1.51584 2.57311,4.73166 3.29022,6.45908c3.58663,8.63969 3.23747,23.16591 -6.6979,27.67052c-2.66548,1.20851 -6.15181,1.2622 -9.5181,1.10037l-0.16401,-0.041l-0.10933,-0.05466l-0.01394,-0.02438l-0.06966,-0.01741l-0.0623,-0.03116l-0.56076,-0.12461l-0.55728,-0.13932h-0.06966l-0.07009,-0.01557l-0.02337,0.01557h-0.46273l-1.25,0.3125l-0.04898,0.08571l-0.09857,0.00547l-0.40089,0.46771l-0.00669,0.00134l-0.01598,0.0251l-0.31651,0.36927c-0.13963,4.1365 -0.60902,8.29582 -0.36919,12.37305c0.38657,6.57172 1.76505,8.25917 0.78971,15.80127c0.00051,4.97888 0.03545,9.95817 0.03585,14.92936c0.20037,0.43253 0.22983,0.88403 0.2019,1.24908c-1.54809,-0.58054 -3.38708,-1.23059 -5.20208,-1.71585c-0.00175,-2.7947 -0.0163,-5.59282 -0.02936,-8.39231c-0.04654,-0.08862 -0.08754,-0.19151 -0.12359,-0.30596zM239.80496,173.07415c0.34706,0.23088 0.70215,0.45534 1.066,0.67299c3.5265,-0.13037 8.87827,1.03786 12.12638,-0.47864c5.37614,-2.51005 5.42627,-7.98314 5.42781,-12.96822c0.00148,-4.77685 -0.74514,-9.51104 -3.82411,-13.45625c-1.23326,-1.58023 -1.82291,-1.42568 -3.6431,-2.20489c-3.45219,-1.47786 -6.49402,-2.67583 -10.1894,-3.36655c-4.37502,-0.30847 -8.83834,-0.50726 -13.15641,0.38482c-1.22632,0.25335 -4.20465,0.78294 -5.35173,1.95613c-2.44001,2.49554 -0.58947,8.0364 0.14238,10.57095c0.67978,2.35422 1.5309,4.72717 2.71166,6.87529c1.12636,-0.74689 2.47559,-0.07227 2.47559,-0.07227l1.25175,0.88314c2.0384,2.54871 3.98343,5.01583 6.17807,7.2211c1.10572,0.39179 2.21785,0.76922 3.29491,1.23029c0,0 1.94214,0.83235 1.49022,2.75211z"/><path d="M122.78407,167.44988c-0.17645,-0.2839 -0.39932,0.54669 -0.66246,0.75282c-0.58659,0.45952 -1.10529,0.95455 -1.68216,1.38884c-1.64248,1.23651 -2.81073,4.36422 -4.46327,5.74877c-1.42857,3.35945 -2.82227,6.73304 -4.07162,10.16315c-4.08864,11.22543 -6.11949,23.923 -7.9329,35.73775l0.02907,1.91674c0,0 0,2.5 -2.5,2.5c-2.5,0 -2.5,-2.5 -2.5,-2.5l0.02907,-2.67702c1.87444,-12.15688 3.98867,-25.12541 8.1751,-36.68426c1.23941,-3.42206 2.62919,-6.78609 4.05601,-10.13539c0.05659,-0.29397 0.22842,-0.68495 0.49058,-1.14805c2.40918,-5.62302 4.88637,-11.21845 6.894,-16.99175c2.2358,0.0231 4.48107,-0.09316 6.7161,-0.08148c0.44998,0.00235 0.96199,0.07943 1.51256,0.19333c-0.0555,0.6393 -0.13194,1.27085 -0.22061,1.89803c0.45922,5.23809 1.4361,10.44132 2.5648,15.62831c1.0344,4.11127 2.10749,8.21935 2.80489,12.38983c0.67753,3.07934 1.30547,6.15818 1.80665,9.24044c1.02903,6.3286 0.8655,12.57912 0.8655,18.97171v1.04404c0,0 0,2.5 -2.5,2.5v0.00001c-2.5,0 -2.5,-2.5 -2.5,-2.5v-1.04404c0,-6.13213 0.17902,-12.12756 -0.80495,-18.19595c-0.46847,-2.88919 -1.04362,-5.77311 -1.66538,-8.65591c-0.0583,-0.15803 -0.10109,-0.32358 -0.12652,-0.49478c-0.47955,-1.38227 -0.87826,-3.44351 -1.26469,-5.72352c-0.02908,-0.12747 -0.05817,-0.25495 -0.08726,-0.38243c-0.00471,-0.07454 -0.00951,-0.14904 -0.0144,-0.2235c-0.80251,-4.82771 -1.57787,-10.431 -2.94811,-12.63568z"/><path d=""/><path d="M169.74282,233.41133c-2.49213,-0.22395 -2.29388,-3.03927 -2.29388,-3.03927l0.21159,-2.80347c1.59139,-9.54225 2.17412,-18.82365 2.1032,-28.49151c-0.06377,-8.69314 0.39271,-16.91079 -0.55227,-25.56658c0,0 -0.30584,-2.80299 2.17538,-3.1485c2.48122,-0.3455 2.78706,2.45749 2.78706,2.45749c0.96763,8.87315 0.51819,17.30245 0.58964,26.20863c0.08049,10.03415 -0.54588,19.68409 -2.18904,29.58378l-0.1413,2.20807c0,0 -0.19824,2.81531 -2.69037,2.59136z"/></g></g></svg>