<svg version="1.1" xmlns="http://www.w3.org/2000/svg" xmlns:xlink="http://www.w3.org/1999/xlink" width="587.96092" height="275.96093" viewBox="0,0,587.96092,275.96093"><g transform="translate(-26.01954,-42.01953)"><g stroke-miterlimit="10"><path d="M26.01954,290.91666c0,-51.94704 0,-176.72981 0,-213.0924c0,-22.23955 40.69491,-35.80472 78.12632,-35.80472c71.52058,0 300.0189,0 421.37222,0c40.89224,0 88.46238,16.75692 88.46238,31.75059c0,32.54568 0,162.06315 0,216.64766c0,16.88013 -51.17039,27.56268 -95.2941,27.56268c-78.82699,0 -321.9797,0 -429.40622,0c-29.29995,0 -63.2606,-10.4861 -63.2606,-27.06381z" fill="#414141" stroke="none" stroke-width="0"/><path d="M49.94665,276.79571c0,-45.33358 0,-154.23008 0,-185.96329c0,-19.40821 37.38272,-31.24637 71.76759,-31.24637c65.69953,0 275.60035,0 387.07673,0c37.56402,0 81.26242,14.62357 81.26242,27.70838c0,28.40224 0,141.43066 0,189.06593c0,14.73109 -47.00562,24.05362 -87.53812,24.05362c-72.41125,0 -295.77374,0 -394.45683,0c-26.91523,0 -58.11182,-9.15109 -58.11182,-23.61827z" fill="#a7a7a7" stroke="none" stroke-width="0"/><path d="M115.17306,149.71267c-1.75631,0 -1.75631,-1.75631 -1.75631,-1.75631v-0.73346c0,-4.30796 0.12577,-8.51989 -0.5655,-12.78308c-0.65869,-4.06231 -1.61755,-8.10978 -2.53842,-12.16581c-0.02878,4.67841 0.01502,9.36097 0.0154,14.03335c0.16318,0.35225 0.16501,0.72241 0.12972,0.9951c0.00355,0.02168 0.00494,0.03356 0.00494,0.03356c0.62397,5.32289 2.85439,10.03176 3.93835,15.26216c1.71588,8.27957 2.23473,16.85434 2.23473,25.2833c0,0.30409 0,0.60817 0,0.91226c0.29992,0.39268 0.50502,0.98607 0.10796,1.78018c-0.78544,1.57089 -2.35633,0.78544 -2.35633,0.78544l-1.26425,-1.71759c0,-0.58677 0,-1.17354 0,-1.76031c0,-8.20641 -0.50083,-16.52934 -2.16602,-24.59193c-0.63846,-3.09133 -1.66088,-5.99804 -2.5321,-8.95542c-1.12851,4.96043 -1.76353,10.11554 -2.83394,15.0094c-1.40119,6.40619 -3.27433,12.76456 -4.21569,19.24921c0.00148,0.54526 0.00294,1.09053 0.00442,1.6358v0.73346c0,0 0,1.75631 -1.75631,1.75631c-1.75631,0 -1.75631,-1.75631 -1.75631,-1.75631v-0.73346c0.00148,-0.62827 0.00294,-1.25654 0.00442,-1.88481c0.9389,-6.66702 2.8528,-13.19044 4.29243,-19.77083c1.54703,-7.07132 2.25284,-14.58582 4.66741,-21.42018c-0.01606,-0.12149 -0.01606,-0.19829 -0.01606,-0.19829v-0.58677c0,-7.59093 -0.1444,-15.2192 0.14788,-22.8019c0.01324,-0.3433 0.03729,-0.68226 0.06947,-1.01789c-2.01441,4.94822 -4.28491,9.79931 -6.11467,14.82296c-2.87236,7.88613 -4.29908,16.80647 -5.57305,25.1066l0.02042,1.34655c0,0 0,1.75631 -1.75631,1.75631c-1.75631,0 -1.75631,-1.75631 -1.75631,-1.75631l0.02042,-1.88067c1.31684,-8.54049 2.80213,-17.65119 5.7432,-25.77155c2.72421,-7.52164 6.48244,-14.64415 8.83654,-22.29944c0,0 0.01081,-0.03514 0.0344,-0.0937c-0.96589,-0.6685 -1.85057,-1.39618 -2.68561,-2.17459c-0.63504,-0.23054 -1.26368,-0.47559 -1.87007,-0.77204c-4.73402,-2.31438 -7.17006,-6.94805 -8.54438,-11.8034c-0.91596,-3.23601 -2.00784,-7.88856 0.68679,-10.76345c3.60869,-3.85012 11.32049,-3.09718 16.04258,-2.75617c3.87607,0.72865 9.33802,1.97458 11.99274,5.18083c0.88173,1.06491 1.80767,3.3241 2.31146,4.53765c2.51969,6.06958 2.2744,16.27459 -4.70543,19.43919c-2.28232,1.03479 -5.42131,0.86438 -8.22013,0.68356c-0.02299,0.80798 -0.10604,1.59354 -0.21576,2.36956c0.77198,8.80552 3.62625,17.47085 5.04155,26.17502c0.72292,4.44599 0.60803,8.83713 0.60803,13.32807v0.73346c0,0 0,1.75631 -1.75631,1.75631zM108.99046,101.3341c0.24382,0.1622 0.49328,0.31989 0.74889,0.47279c2.47745,-0.09159 6.23719,0.72912 8.51906,-0.33626c3.77686,-1.76337 3.81208,-5.60834 3.81316,-9.11048c0.00104,-3.35585 -0.52348,-6.68173 -2.68653,-9.45333c-0.86639,-1.11015 -1.28064,-1.00157 -2.55936,-1.54899c-2.42524,-1.03823 -4.5622,-1.87983 -7.15829,-2.36508c-3.07355,-0.21671 -6.20914,-0.35636 -9.24268,0.27035c-0.86152,0.17798 -2.95386,0.55003 -3.75972,1.37423c-1.71416,1.75318 -0.41412,5.64576 0.10003,7.42634c0.47756,1.65389 1.07549,3.32095 1.905,4.83005c0.79129,-0.52471 1.73916,-0.05077 1.73916,-0.05077l0.87938,0.62043c1.43202,1.79053 2.79845,3.52374 4.34024,5.07299c0.77679,0.27524 1.55809,0.54039 2.31475,0.86431c0,0 1.3644,0.58475 1.04691,1.93342z" fill="#000000" stroke="none" stroke-width="0.5"/><g stroke="none"><g fill="#a8c0c5" stroke-width="0"><path d="M108.97704,216.73434c0,2.78312 -0.75773,5.03928 -1.69244,5.03928c-0.9347,0 -1.69244,-2.25616 -1.69244,-5.03928c0,-2.78312 0.75773,-5.03928 1.69244,-5.03928c0.93471,0 1.69244,2.25616 1.69244,5.03928z"/><path d="M107.17049,229.57792c-0.43942,0.00483 -0.78908,0.22401 -1.10831,-0.3509c-0.4437,-0.79905 -0.78187,-2.67386 -0.80421,-4.70763c-0.03841,-3.49706 0.61114,-5.3624 1.49429,-5.93078c1.38283,-0.88997 2.27031,2.39195 2.3087,5.88902c0.0194,1.76672 -0.23388,3.60703 -0.58648,4.44307c-0.34534,0.81884 -0.78438,0.65152 -1.30401,0.65722z"/><g><path d="M107.30005,230.21866c-1.40883,0.01548 -2.5281,0.06623 -2.53516,-0.57639c-0.00705,-0.64263 1.12931,-1.17611 2.53813,-1.19159c1.40883,-0.01548 2.55663,0.49294 2.56368,1.13556c0.00706,0.64263 -1.15782,0.61694 -2.56664,0.63241z"/><path d="M109.97349,230.13543c0.00943,0.85889 -0.39774,1.82827 -0.83028,1.83301c-0.43254,0.00475 -0.79082,-0.68767 -0.80025,-1.54656c-0.00943,-0.85889 0.33355,-1.55901 0.76609,-1.56376c0.43252,-0.00475 0.855,0.41842 0.86443,1.27731z"/><path d="M105.4319,228.89852c0.43254,-0.00475 0.79082,0.68767 0.80025,1.54656c0.00943,0.85889 -0.33355,1.55901 -0.76609,1.56376c-0.43254,0.00475 -0.8609,-0.95545 -0.87033,-1.81434c-0.00943,-0.85889 0.40363,-1.29124 0.83617,-1.29598z"/></g></g><path d="M113.3615,264.51923c-1.25173,0 -1.25173,-1.25172 -1.25173,-1.25172v-0.52274c0,-3.07031 0.08964,-6.07216 -0.40303,-9.11054c-0.46945,-2.89523 -1.15282,-5.77987 -1.80914,-8.67061c-0.02051,3.33432 0.01071,6.67159 0.01098,10.00161c0.1163,0.25105 0.1176,0.51486 0.09245,0.70921c0.00253,0.01545 0.00352,0.02392 0.00352,0.02392c0.44472,3.79364 2.03433,7.14966 2.80687,10.87739c1.22292,5.90089 1.59271,12.01214 1.59271,18.0195c0,0.21672 0,0.43345 0,0.65017c0.21376,0.27985 0.35993,0.70277 0.07694,1.26874c-0.55978,1.11957 -1.67937,0.55979 -1.67937,0.55979l-0.90102,-1.22413c0,-0.4182 0,-0.83638 0,-1.25458c0,-5.84873 -0.35695,-11.78051 -1.54373,-17.52675c-0.45504,-2.20319 -1.18372,-4.27482 -1.80464,-6.38255c-0.80429,3.5353 -1.25687,7.20938 -2.01976,10.69725c-0.99863,4.56571 -2.33363,9.09735 -3.00454,13.71898c0.00105,0.38862 0.00209,0.77723 0.00315,1.16584v0.52274c0,0 0.00001,1.25173 -1.25172,1.25173c-1.25173,0 -1.25173,-1.25173 -1.25173,-1.25173v-0.52274c0.00105,-0.44777 0.0021,-0.89554 0.00315,-1.34331c0.66916,-4.7516 2.03319,-9.40087 3.05922,-14.09073c1.10258,-5.03975 1.60562,-10.39537 3.32648,-15.26623c-0.01144,-0.08658 -0.01145,-0.14132 -0.01145,-0.14132v-0.41819c0,-5.41008 -0.10291,-10.84678 0.1054,-16.25099c0.00943,-0.24466 0.02657,-0.48624 0.04951,-0.72545c-1.43568,3.52661 -3.05386,6.98399 -4.35795,10.56437c-2.04714,5.62046 -3.06397,11.97802 -3.97192,17.89356l0.01456,0.95969c0,0 0.00001,1.25172 -1.25172,1.25172c-1.25172,0 -1.25173,-1.25172 -1.25173,-1.25172l0.01456,-1.34036c0.93851,-6.08684 1.99709,-12.58006 4.0932,-18.36747c1.94155,-5.36069 4.62005,-10.43693 6.29783,-15.89288c0,0 0.00771,-0.02505 0.02452,-0.06678c-0.68839,-0.47644 -1.31891,-0.99506 -1.91405,-1.54984c-0.4526,-0.16431 -0.90063,-0.33895 -1.33281,-0.55023c-3.37395,-1.64946 -5.11012,-4.95189 -6.0896,-8.41232c-0.65281,-2.30631 -1.431,-5.6222 0.48948,-7.67114c2.57193,-2.74399 8.06815,-2.20736 11.4336,-1.96433c2.76248,0.51931 6.65524,1.40729 8.54726,3.69239c0.62842,0.75896 1.28834,2.3691 1.64739,3.234c1.79579,4.32582 1.62097,11.59895 -3.35357,13.85437c-1.62663,0.7375 -3.86379,0.61605 -5.85852,0.48718c-0.01638,0.57585 -0.07556,1.13573 -0.15376,1.6888c0.5502,6.27572 2.58444,12.45153 3.59313,18.65502c0.51522,3.16867 0.43335,6.29824 0.43335,9.49896v0.52274c0,0 0,1.25172 -1.25173,1.25172zM109.4889,230.37664c1.76569,-0.06528 4.44527,0.51965 6.07156,-0.23965c2.69178,-1.25676 2.71688,-3.99708 2.71765,-6.49307c0.00074,-2.39173 -0.37309,-4.76209 -1.9147,-6.73742c-0.61749,-0.79121 -0.91272,-0.71382 -1.82407,-1.10397c-1.72848,-0.73995 -3.2515,-1.33976 -5.10174,-1.6856c-2.19053,-0.15445 -4.42527,-0.25398 -6.58729,0.19268c-0.61401,0.12686 -2.10523,0.39201 -2.67956,0.97942c-1.22168,1.24949 -0.29513,4.02374 0.0713,5.29277c0.34035,1.17874 0.7665,2.36685 1.35769,3.4424c0.56396,-0.37396 1.23951,-0.03619 1.23951,-0.03619l0.62674,0.44218c1.02061,1.27612 1.99447,2.51137 3.0933,3.61553c0.55363,0.19616 1.11045,0.38514 1.64973,0.61599c0,0 0.97242,0.41675 0.74614,1.37796c0.17377,0.1156 0.35156,0.22799 0.53374,0.33696z" fill="#000000" stroke-width="0.5"/><path d="M122.56132,215.52572c0,4.64537 -4.37855,2.1028 -11.94138,2.1028c-7.56283,0 -15.44605,2.54257 -15.44605,-2.1028c0,-4.64537 6.13088,-8.41118 13.69371,-8.41118c7.56283,0 13.69371,3.76581 13.69371,8.41119z" fill="#c3dce2" stroke-width="0"/><path d="M120.24823,213.42292c0,1.16135 -2.63607,2.10279 -5.88783,2.10279c-3.25175,0 -5.88783,-0.94145 -5.88783,-2.10279c0,-1.16135 -0.86859,-1.89252 2.38317,-3.01401c0.7677,-0.26477 2.6063,-0.23138 3.78932,-0.25269c1.22881,-0.02213 2.61898,0.24143 3.51844,0.55063c1.70209,0.58513 2.08473,2.146 2.08473,2.71607z" fill="#000000" stroke-width="0"/><path d="M111.87535,213.19281c0,0.71022 -0.2536,1.28596 -0.56642,1.28596c-0.31283,0 -0.56643,-0.57574 -0.56643,-1.28596c0,-0.71022 0.2536,-1.28596 0.56643,-1.28596c0.31283,0 0.56642,0.57575 0.56642,1.28596z" fill="#0091ff" stroke-width="0"/><path d="M118.76439,213.11626c0,0.58339 -0.19192,1.05631 -0.42866,1.05631c-0.23674,0 -0.42865,-0.47292 -0.42865,-1.05631c0,-0.58339 0.19191,-1.05632 0.42865,-1.05632c0.23674,0 0.42866,0.47293 0.42866,1.05632z" fill="#ff0000" stroke-width="0"/><g stroke-width="0"><path d="M107.90632,208.03417c-0.11017,0.00289 -0.0436,-0.20985 -0.05488,-0.36181c-0.04693,-0.63194 -0.32925,-4.81085 -0.32925,-4.81085l2.30673,-0.1713c0,0 0.31603,3.9116 0.36778,4.60857c0.01441,0.19404 0.17038,0.51831 0.01634,0.56408c-0.13958,0.04148 -0.23554,0.06641 -0.36454,0.07599c-0.26742,0.01986 -1.0976,0.08279 -1.59279,0.11956c-0.17083,0.0127 -0.00315,0.03732 -0.3494,-0.02425z" fill="#797979"/><path d="M115.76227,202.83885c0,0.77423 -1.77307,1.40187 -3.96026,1.40187c-2.1872,0 -3.96026,-0.62764 -3.96026,-1.40187c0,-0.77423 1.77307,-1.40187 3.96026,-1.40187c2.1872,0 3.96026,0.62764 3.96026,1.40187z" fill="#c9c9c9"/><path d="M106.07766,201.43698c2.1872,0 3.96027,0.62764 3.96027,1.40187c0,0.77423 -1.77307,1.40187 -3.96027,1.40187c-2.1872,0 -3.96026,-0.62764 -3.96026,-1.40187c0,-0.77423 1.77306,-1.40187 3.96026,-1.40187z" fill="#c9c9c9"/></g><g fill="#c3dce2" stroke-width="0"><path d="M102.76793,219.16254c0,2.78312 -0.75773,5.03928 -1.69244,5.03928c-0.9347,0 -1.69244,-2.25616 -1.69244,-5.03928c0,-2.78312 0.75773,-5.03928 1.69244,-5.03928c0.93471,0 1.69244,2.25616 1.69244,5.03928z"/><path d="M100.96136,232.00613c-0.43942,0.00483 -0.78909,0.22401 -1.10832,-0.3509c-0.4437,-0.79905 -0.78187,-2.67386 -0.8042,-4.70763c-0.03841,-3.49706 0.61114,-5.36241 1.49428,-5.93079c1.38283,-0.88997 2.27031,2.39196 2.30871,5.88903c0.0194,1.76672 -0.23388,3.60703 -0.58648,4.44307c-0.34534,0.81884 -0.78438,0.65152 -1.30401,0.65722z"/><g><path d="M101.09094,232.64687c-1.40883,0.01548 -2.5281,0.06623 -2.53516,-0.57639c-0.00705,-0.64263 1.12931,-1.17611 2.53813,-1.19159c1.40883,-0.01548 2.55663,0.49294 2.56368,1.13556c0.00706,0.64263 -1.15782,0.61693 -2.56664,0.63241z"/><path d="M103.76439,232.56364c0.00943,0.85889 -0.39774,1.82827 -0.83028,1.83302c-0.43254,0.00475 -0.79082,-0.68768 -0.80025,-1.54656c-0.00943,-0.85889 0.33355,-1.55901 0.76609,-1.56376c0.43252,-0.00475 0.855,0.41841 0.86443,1.27731z"/><path d="M99.22277,231.32672c0.43254,-0.00475 0.79082,0.68768 0.80025,1.54656c0.00943,0.85889 -0.33355,1.55901 -0.76609,1.56375c-0.43254,0.00475 -0.86091,-0.95545 -0.87033,-1.81435c-0.00943,-0.85889 0.40363,-1.29123 0.83617,-1.29597z"/></g></g></g><path d="M80.69218,170.46997c0,-27.48055 0,-83.4029 0,-94.9807c0,-4.131 5.25584,-7.84964 9.76286,-7.84964c6.75355,0 26.43979,0 38.85574,0c6.24184,0 10.64622,2.89517 10.64622,6.27972c0,11.2634 0,74.31116 0,100.47545c0,7.01769 -5.7034,11.38199 -13.39359,11.38199c-13.27128,0 -32.45961,0 -38.46326,0c-3.58403,0 -7.40797,-6.03432 -7.40797,-15.3068z" fill="none" stroke="#414141" stroke-width="4.5"/><path d="M84.33296,280.973c0,-22.75297 0,-69.0548 0,-78.64083c0,-3.42033 4.35165,-6.49924 8.08332,-6.49924c5.59171,0 21.89126,0 32.17125,0c5.16803,0 8.81471,2.3971 8.81471,5.19939c0,9.32571 0,61.52715 0,83.1903c0,5.81041 -4.72222,9.4239 -11.08944,9.4239c-10.98818,0 -26.87547,0 -31.84629,0c-2.96745,0 -6.13355,-4.99621 -6.13355,-12.67352z" fill="none" stroke="#414141" stroke-width="4.5"/><g fill="#414141" stroke="none" stroke-width="1" font-family="&quot;Audiowide-Regular&quot;, Sans Serif" font-weight="normal" font-size="40" text-anchor="start"><text transform="translate(167.47502,151.15625) scale(0.5,0.5)" font-size="40" xml:space="preserve" fill="#414141"><tspan x="0" dy="0">Bob (el stickman) es un empleado de </tspan><tspan x="0" dy="46.150000000000006px">Workbots  Inc. , se quedo atrapado</tspan><tspan x="0" dy="46.150000000000006px">en la fabrica al cerrar y tiene que</tspan><tspan x="0" dy="46.150000000000006px">salir para volver a su casa a dormir</tspan></text><text transform="translate(277.2571,166.20105) scale(0.12512,0.12512)" font-size="40" xml:space="preserve" fill="#414141"><tspan x="0" dy="0">FM</tspan></text></g></g></g></svg>