<svg version="1.1" xmlns="http://www.w3.org/2000/svg" xmlns:xlink="http://www.w3.org/1999/xlink" width="75.51143" height="63.06959" viewBox="0,0,75.51143,63.06959"><g transform="translate(-215.11997,-82.03141)"><g stroke-miterlimit="10"><g fill="#a8c0c5" stroke="none" stroke-width="0"><path d="M241.19683,113.1638c0,4.92233 -1.34014,8.91266 -2.9933,8.91266c-1.65316,0 -2.99331,-3.99034 -2.99331,-8.91266c0,-4.92233 1.34015,-8.91266 2.99331,-8.91266c1.65316,0 2.9933,3.99033 2.9933,8.91266z"/><path d="M256.23564,120.47397c0,0.77723 0.38085,1.39987 -0.64208,1.95327c-1.42175,0.76917 -4.74398,1.33084 -8.34122,1.33084c-6.18541,0 -9.47172,-1.18497 -10.45976,-2.75787c-1.54711,-2.46286 4.27435,-3.96865 10.45976,-3.96865c3.12487,0 6.37461,0.48368 7.84633,1.12349c1.44144,0.62665 1.13698,1.39985 1.13698,2.31893z"/><path d="M257.37138,120.25725c0,2.49186 0.06803,4.47232 -1.0686,4.47232c-1.13664,0 -2.05806,-2.02005 -2.05806,-4.5119c0,-2.49186 0.92143,-4.5119 2.05806,-4.5119c1.13664,0 1.0686,2.05963 1.0686,4.55148z"/><path d="M257.2761,115.52759c1.51916,0 3.22562,0.73892 3.22562,1.50397c0,0.76504 -1.23152,1.38523 -2.75068,1.38523c-1.51916,0 -2.75068,-0.62018 -2.75068,-1.38523c0,-0.76505 0.75658,-1.50397 2.27574,-1.50397z"/><path d="M255.00036,123.53552c0,-0.76505 1.23152,-1.38523 2.75068,-1.38523c1.51916,0 2.75068,0.62019 2.75068,1.38523c0,0.76505 -1.70646,1.50397 -3.22562,1.50397c-1.51916,0 -2.27574,-0.73892 -2.27574,-1.50397z"/></g><path d="M263.55844,106.94929c0,8.21598 -7.74408,3.71908 -21.11999,3.71908c-13.37591,0 -27.31847,4.4969 -27.31847,-3.71908c0,-8.21598 10.84332,-14.87634 24.21923,-14.87634c13.37591,0 24.21922,6.66036 24.21922,14.87635z" fill="#c3dce2" stroke="none" stroke-width="0"/><path d="M259.46745,103.2302c0,2.054 -4.66225,3.71909 -10.41344,3.71909c-5.75118,0 -10.41344,-1.6651 -10.41344,-3.71909c0,-2.054 -1.53622,-3.34717 4.21496,-5.33069c1.35777,-0.46828 4.6096,-0.40924 6.70194,-0.44693c2.17332,-0.03915 4.63203,0.42699 6.22284,0.97386c3.01038,1.03489 3.68714,3.7955 3.68714,4.80375z" fill="#000000" stroke="none" stroke-width="0"/><path d="M244.65884,102.82322c0,1.25611 -0.44853,2.27439 -1.00181,2.27439c-0.55328,0 -1.00181,-1.01828 -1.00181,-2.27439c0,-1.25611 0.44853,-2.27439 1.00181,-2.27439c0.55328,0 1.00181,1.01828 1.00181,2.27439z" fill="#0091ff" stroke="none" stroke-width="0"/><path d="M256.84302,102.68784c0,1.03181 -0.33943,1.86825 -0.75813,1.86825c-0.4187,0 -0.75813,-0.83644 -0.75813,-1.86825c0,-1.03181 0.33943,-1.86825 0.75813,-1.86825c0.4187,0 0.75813,0.83644 0.75813,1.86825z" fill="#ff0000" stroke="none" stroke-width="0"/><g stroke="none" stroke-width="0"><path d="M237.63904,93.69947c-0.19486,0.00512 -0.0771,-0.37114 -0.09706,-0.63991c-0.083,-1.11768 -0.58232,-8.50865 -0.58232,-8.50865l4.07977,-0.30297c0,0 0.55894,6.91819 0.65048,8.15089c0.02549,0.34319 0.30134,0.91671 0.0289,0.99766c-0.24687,0.07336 -0.41659,0.11745 -0.64474,0.13439c-0.47297,0.03512 -1.94125,0.14643 -2.81706,0.21147c-0.30215,0.02244 -0.00557,0.06599 -0.61796,-0.0429z" fill="#797979"/><path d="M251.5334,84.5108c0,1.36933 -3.13592,2.47939 -7.00428,2.47939c-3.86836,0 -7.00428,-1.11006 -7.00428,-2.47939c0,-1.36933 3.13592,-2.47939 7.00428,-2.47939c3.86836,0 7.00428,1.11006 7.00428,2.47939z" fill="#c9c9c9"/><path d="M234.40483,82.03141c3.86836,0 7.00428,1.11006 7.00428,2.47939c0,1.36933 -3.13593,2.47939 -7.00428,2.47939c-3.86836,0 -7.00428,-1.11006 -7.00428,-2.47939c0,-1.36933 3.13592,-2.47939 7.00428,-2.47939z" fill="#c9c9c9"/></g><g fill="#ffe500"><path d="M254.7737,115.37137c6.00779,0.65866 10.34412,6.06288 9.68545,12.07067c-0.65866,6.00779 -6.06289,10.3441 -12.07067,9.68544c-6.00779,-0.65866 -10.3441,-6.06288 -9.68544,-12.07065c0.65866,-6.00779 6.06288,-10.3441 12.07067,-9.68544zM252.99641,130.00615c2.04222,0.22389 3.87927,-1.25015 4.10316,-3.29237c0.22389,-2.04221 -1.25015,-3.87928 -3.29237,-4.10316c-2.04222,-0.22389 -3.87927,1.25016 -4.10316,3.29237c-0.22389,2.04221 1.25015,3.87927 3.29235,4.10316z" stroke="#a39300" stroke-width="2"/><path d="M263.94992,132.087l0.96048,-8.76085l24.61798,2.69897l-0.96048,8.76085z" stroke="#a39300" stroke-width="2"/><path d="M283.66279,143.80715l0.91245,-8.3228l4.25583,0.46658l-0.91247,8.3228z" stroke="#a39300" stroke-width="1.5"/><path d="M273.9121,142.73815l0.91245,-8.3228l4.25583,0.46658l-0.91247,8.3228z" stroke="#a39300" stroke-width="1.5"/><path d="M264.43011,141.69859l0.91247,-8.32282l4.25581,0.46658l-0.91245,8.32282z" stroke="#a39300" stroke-width="1.5"/><path d="M266.1372,136.4892l0.77894,-7.1049l2.01089,0.22046l-0.77894,7.1049z" stroke="#a39300" stroke-width="0"/><path d="M275.64516,137.29165l0.77895,-7.1049l2.01089,0.22046l-0.77894,7.1049z" stroke="#a39300" stroke-width="0"/><path d="M285.25121,139.67992l1.36707,-12.46943l2.01089,0.22046l-1.36707,12.46944z" stroke="#a39300" stroke-width="0"/><path d="M261.85477,130.62474l0.66399,-6.05637l26.11045,2.8626l-0.66399,6.05637z" stroke="none" stroke-width="0"/></g><g fill="#c3dce2" stroke="none" stroke-width="0"><path d="M228.55108,113.2895c0,4.92233 -1.34014,8.91266 -2.9933,8.91266c-1.65316,0 -2.99331,-3.99034 -2.99331,-8.91266c0,-4.92233 1.34015,-8.91266 2.99331,-8.91266c1.65316,0 2.9933,3.99033 2.9933,8.91266z"/><path d="M243.58994,120.59967c0,0.77723 0.38084,1.39987 -0.64209,1.95327c-1.42175,0.76916 -4.74398,1.33084 -8.34122,1.33084c-6.18541,0 -9.47172,-1.18497 -10.45976,-2.75787c-1.5471,-2.46286 4.27435,-3.96865 10.45976,-3.96865c3.12487,0 6.37461,0.48368 7.84633,1.12349c1.44144,0.62664 1.13698,1.39985 1.13698,2.31893z"/><path d="M244.72563,120.38295c0,2.49186 0.06803,4.47232 -1.0686,4.47232c-1.13664,0 -2.05806,-2.02005 -2.05806,-4.5119c0,-2.49186 0.92143,-4.5119 2.05806,-4.5119c1.13664,0 1.0686,2.05963 1.0686,4.55148z"/><path d="M244.63035,115.65329c1.51916,0 3.22562,0.73892 3.22562,1.50397c0,0.76505 -1.23152,1.38523 -2.75068,1.38523c-1.51916,0 -2.75068,-0.62018 -2.75068,-1.38523c0,-0.76504 0.75658,-1.50397 2.27574,-1.50397z"/><path d="M242.35462,123.66122c0,-0.76505 1.23152,-1.38523 2.75068,-1.38523c1.51916,0 2.75068,0.62018 2.75068,1.38523c0,0.76505 -1.70646,1.50397 -3.22562,1.50397c-1.51916,0 -2.27574,-0.73892 -2.27574,-1.50397z"/></g></g></g></svg>