<svg version="1.1" xmlns="http://www.w3.org/2000/svg" xmlns:xlink="http://www.w3.org/1999/xlink" width="79.58288" height="79.58288" viewBox="0,0,79.58288,79.58288"><g transform="translate(-200.20856,-140.20856)"><g stroke-miterlimit="10"><path d="M210.7779,180c0,-16.42571 13.08318,-29.74138 29.22211,-29.74138c16.13892,0 29.22211,13.31567 29.22211,29.74138c0,16.42571 -13.08318,29.74138 -29.22211,29.74138c-16.13892,0 -29.22211,-13.31567 -29.22211,-29.74138z" fill="#fff100" stroke="#a79b1c" stroke-width="2"/><path d="M215.27826,180c0,-16.42571 12.07575,-29.74138 26.97194,-29.74138c14.89619,0 26.97194,13.31567 26.97194,29.74138c0,16.42571 -12.07575,29.74138 -26.97194,29.74138c-14.89619,0 -26.97194,-13.31567 -26.97194,-29.74138z" fill="#fff100" stroke="#a79b1c" stroke-width="2"/><path d="M200.20856,219.79144v-79.58288h79.58288v79.58288z" fill="none" stroke="none" stroke-width="0"/></g></g></svg>