<svg version="1.1" xmlns="http://www.w3.org/2000/svg" xmlns:xlink="http://www.w3.org/1999/xlink" width="72.41953" height="72.43546" viewBox="0,0,72.41953,72.43546"><g transform="translate(-280.32968,-72.34652)"><g stroke="none" stroke-width="0" stroke-miterlimit="10"><g fill="#a8c0c5"><path d="M318.0265,100.17425c1.65316,0 2.99331,3.99033 2.99331,8.91266c0,4.92232 -1.34015,8.91266 -2.99331,8.91266c-1.65316,0 -2.9933,-3.99033 -2.9933,-8.91266c0,-4.92233 1.34014,-8.91266 2.9933,-8.91266z"/><path d="M318.22835,131.80256c-0.91903,-0.01009 -1.69554,0.28586 -2.30631,-1.16237c-0.62362,-1.47865 -1.07158,-4.73351 -1.03727,-7.85819c0.06791,-6.18504 1.63754,-11.9896 4.08326,-10.41555c1.56196,1.00525 2.71077,4.30437 2.64285,10.48941c-0.0395,3.59702 -0.63762,6.91288 -1.42235,8.3261c-0.5646,1.01679 -1.18302,0.62913 -1.9602,0.6206z"/><g><path d="M317.99915,132.93579c-2.4917,-0.02736 -4.55195,0.01806 -4.53947,-1.11851c0.01248,-1.13656 2.04252,-2.03575 4.53423,-2.00839c2.4917,0.02736 4.50151,0.97091 4.48903,2.10748c-0.01248,1.13656 -1.99207,1.04679 -4.48378,1.01943z"/><path d="M313.27083,132.78862c0.01668,-1.51907 0.76388,-2.26749 1.52887,-2.25909c0.765,0.0084 1.37162,1.24665 1.35494,2.76572c-0.01668,1.51906 -0.65035,2.7437 -1.41535,2.7353c-0.765,-0.0084 -1.48514,-1.72287 -1.46846,-3.24194z"/><path d="M321.30325,130.60092c0.765,0.0084 1.49557,0.77305 1.47889,2.29212c-0.01668,1.51907 -0.7743,3.21731 -1.5393,3.20891c-0.765,-0.0084 -1.37162,-1.24665 -1.35494,-2.76572c0.01668,-1.51906 0.65035,-2.7437 1.41535,-2.7353z"/></g></g><path d="M295.11998,106.9493c0,-8.21599 10.84331,-14.87635 24.21922,-14.87635c13.37591,0 24.21923,6.66036 24.21923,14.87634c0,8.21598 -13.94256,3.71908 -27.31847,3.71908c-13.37591,0 -21.11999,4.4969 -21.11999,-3.71908z" fill="#c3dce2"/><path d="M300.77014,97.45258c0.37802,0.00681 0.55446,0.01046 0.99017,0.01463c1.97592,0.01893 3.22259,0.04862 4.33505,0.4323c5.75118,1.98352 4.21496,3.27669 4.21496,5.33069c0,2.05399 -4.66226,3.71909 -10.41344,3.71909c-1.71769,0 -3.33824,-0.14853 -4.76646,-0.41159c-0.24402,-0.04494 -0.00024,-0.64999 -0.0302,-0.7864c-0.08868,-0.40372 0.19672,-0.65041 0.35039,-1.46852c0.50801,-2.70463 3.77235,-6.85807 5.31953,-6.8302z" fill="#000000"/><path d="M305.29386,100.54883c0.55328,0 1.00181,1.01828 1.00181,2.27439c0,1.25611 -0.44853,2.27439 -1.00181,2.27439c-0.55328,0 -1.00181,-1.01828 -1.00181,-2.27439c0,-1.25611 0.44853,-2.27439 1.00181,-2.27439z" fill="#0091ff"/><g><path d="M321.03936,93.69945c-0.61239,0.10889 -0.31581,0.06534 -0.61796,0.0429c-0.87581,-0.06504 -2.34409,-0.17635 -2.81706,-0.21147c-0.22815,-0.01694 -0.39787,-0.06103 -0.64474,-0.13439c-0.27244,-0.08095 0.00341,-0.65447 0.0289,-0.99766c0.09154,-1.2327 0.65048,-8.15089 0.65048,-8.15089l4.07977,0.30297c0,0 -0.49932,7.39097 -0.58232,8.50865c-0.01996,0.26877 0.0978,0.64503 -0.09706,0.63991z" fill="#797979"/><path d="M314.1493,82.03141c3.86836,0 7.00428,1.11006 7.00428,2.47939c0,1.36933 -3.13592,2.47939 -7.00428,2.47939c-3.86836,0 -7.00428,-1.11006 -7.00428,-2.47939c0,-1.36933 3.13592,-2.47939 7.00428,-2.47939z" fill="#c9c9c9"/><path d="M331.27788,84.5108c0,1.36933 -3.13592,2.47939 -7.00428,2.47939c-3.86835,0 -7.00428,-1.11006 -7.00428,-2.47939c0,-1.36933 3.13592,-2.47939 7.00428,-2.47939c3.86836,0 7.00428,1.11006 7.00428,2.47939z" fill="#c9c9c9"/></g><g fill="#c3dce2"><path d="M329.00816,104.46887c1.65316,0 2.99331,3.99033 2.99331,8.91266c0,4.92232 -1.34015,8.91266 -2.99331,8.91266c-1.65316,0 -2.9933,-3.99033 -2.9933,-8.91266c0,-4.92233 1.34014,-8.91266 2.9933,-8.91266z"/><path d="M329.21004,136.09719c-0.91903,-0.01009 -1.69554,0.28586 -2.30631,-1.16237c-0.62362,-1.47865 -1.07158,-4.73351 -1.03727,-7.85819c0.06791,-6.18504 1.63754,-11.9896 4.08326,-10.41555c1.56196,1.00525 2.71077,4.30437 2.64285,10.48941c-0.0395,3.59702 -0.63762,6.91288 -1.42235,8.3261c-0.5646,1.01679 -1.18302,0.62913 -1.9602,0.6206z"/><g><path d="M328.98082,137.23042c-2.4917,-0.02736 -4.55195,0.01806 -4.53947,-1.11851c0.01248,-1.13656 2.04252,-2.03575 4.53423,-2.00839c2.4917,0.02736 4.50151,0.97091 4.48903,2.10748c-0.01248,1.13656 -1.99207,1.04679 -4.48378,1.01943z"/><path d="M324.2525,137.08323c0.01668,-1.51907 0.76388,-2.26749 1.52887,-2.25909c0.765,0.0084 1.37162,1.24665 1.35494,2.76572c-0.01668,1.51906 -0.65035,2.7437 -1.41535,2.7353c-0.765,-0.0084 -1.48514,-1.72287 -1.46846,-3.24194z"/><path d="M332.28497,134.89555c0.765,0.0084 1.49557,0.77305 1.47889,2.29212c-0.01668,1.51907 -0.7743,3.21731 -1.5393,3.20891c-0.765,-0.0084 -1.37162,-1.24665 -1.35494,-2.76572c0.01668,-1.51906 0.65035,-2.7437 1.41535,-2.7353z"/></g></g><path d="M287.45295,140.39661v-61.54522h61.53168v61.54522z" fill="none"/><path d="M280.32968,144.78198v-72.43545h72.41953v72.43546z" fill="none"/></g></g></svg>