<svg version="1.1" xmlns="http://www.w3.org/2000/svg" xmlns:xlink="http://www.w3.org/1999/xlink" width="587.96092" height="275.96093" viewBox="0,0,587.96092,275.96093"><g transform="translate(-26.01954,-42.01953)"><g stroke="none" stroke-width="0" stroke-miterlimit="10"><path d="M26.01954,290.91665c0,-51.94704 0,-176.72981 0,-213.0924c0,-22.23955 40.69491,-35.80472 78.12632,-35.80472c71.52058,0 300.0189,0 421.37222,0c40.89224,0 88.46238,16.75692 88.46238,31.75059c0,32.54568 0,162.06315 0,216.64766c0,16.88013 -51.17039,27.56268 -95.2941,27.56268c-78.82699,0 -321.9797,0 -429.40622,0c-29.29995,0 -63.2606,-10.4861 -63.2606,-27.06381z" fill="#414141"/><path d="M49.94665,276.79569c0,-45.33358 0,-154.23008 0,-185.96329c0,-19.40821 37.38272,-31.24637 71.76759,-31.24637c65.69953,0 275.60035,0 387.07673,0c37.56402,0 81.26242,14.62357 81.26242,27.70838c0,28.40224 0,141.43066 0,189.06593c0,14.73109 -47.00562,24.05362 -87.53812,24.05362c-72.41125,0 -295.77374,0 -394.45683,0c-26.91523,0 -58.11182,-9.15109 -58.11182,-23.61827z" fill="#a7a7a7"/></g></g></svg>