<svg version="1.1" xmlns="http://www.w3.org/2000/svg" xmlns:xlink="http://www.w3.org/1999/xlink" width="48.43846" height="43.13378" viewBox="0,0,48.43846,43.13378"><g transform="translate(-215.11994,-82.03141)"><g stroke="none" stroke-width="0" stroke-miterlimit="10"><g fill="#a8c0c5"><path d="M241.1968,113.1638c0,4.92233 -1.34014,8.91266 -2.9933,8.91266c-1.65316,0 -2.99331,-3.99034 -2.99331,-8.91266c0,-4.92233 1.34015,-8.91266 2.99331,-8.91266c1.65316,0 2.9933,3.99033 2.9933,8.91266z"/><path d="M256.23564,120.47397c0,0.77723 0.38085,1.39987 -0.64208,1.95327c-1.42175,0.76917 -4.74398,1.33084 -8.34122,1.33084c-6.18541,0 -9.47172,-1.18497 -10.45976,-2.75787c-1.54711,-2.46286 4.27435,-3.96865 10.45976,-3.96865c3.12487,0 6.37461,0.48368 7.84633,1.12349c1.44144,0.62665 1.13698,1.39985 1.13698,2.31893z"/><path d="M257.37134,120.25725c0,2.49186 0.06803,4.47232 -1.0686,4.47232c-1.13664,0 -2.05806,-2.02005 -2.05806,-4.5119c0,-2.49186 0.92143,-4.5119 2.05806,-4.5119c1.13664,0 1.0686,2.05963 1.0686,4.55148z"/><path d="M257.27607,115.52759c1.51916,0 3.22562,0.73892 3.22562,1.50397c0,0.76504 -1.23152,1.38523 -2.75068,1.38523c-1.51916,0 -2.75068,-0.62018 -2.75068,-1.38523c0,-0.76505 0.75658,-1.50397 2.27574,-1.50397z"/><path d="M255.00033,123.53552c0,-0.76505 1.23152,-1.38523 2.75068,-1.38523c1.51916,0 2.75068,0.62019 2.75068,1.38523c0,0.76505 -1.70646,1.50397 -3.22562,1.50397c-1.51916,0 -2.27574,-0.73892 -2.27574,-1.50397z"/></g><path d="M263.55841,106.94929c0,8.21598 -7.74408,3.71908 -21.11999,3.71908c-13.37591,0 -27.31847,4.4969 -27.31847,-3.71908c0,-8.21598 10.84332,-14.87634 24.21923,-14.87634c13.37591,0 24.21922,6.66036 24.21922,14.87635z" fill="#c3dce2"/><path d="M259.46742,103.2302c0,2.054 -4.66225,3.71909 -10.41344,3.71909c-5.75118,0 -10.41344,-1.6651 -10.41344,-3.71909c0,-2.054 -1.53622,-3.34717 4.21496,-5.33069c1.35777,-0.46828 4.6096,-0.40924 6.70194,-0.44693c2.17332,-0.03915 4.63203,0.42699 6.22284,0.97386c3.01038,1.03489 3.68714,3.7955 3.68714,4.80375z" fill="#000000"/><path d="M244.6588,102.82322c0,1.25611 -0.44853,2.27439 -1.00181,2.27439c-0.55328,0 -1.00181,-1.01828 -1.00181,-2.27439c0,-1.25611 0.44853,-2.27439 1.00181,-2.27439c0.55328,0 1.00181,1.01828 1.00181,2.27439z" fill="#0091ff"/><path d="M256.84301,102.68784c0,1.03181 -0.33943,1.86825 -0.75813,1.86825c-0.4187,0 -0.75813,-0.83644 -0.75813,-1.86825c0,-1.03181 0.33943,-1.86825 0.75813,-1.86825c0.4187,0 0.75813,0.83644 0.75813,1.86825z" fill="#ff0000"/><g fill="#c3dce2"><path d="M228.55104,113.2895c0,4.92233 -1.34014,8.91266 -2.9933,8.91266c-1.65316,0 -2.99331,-3.99034 -2.99331,-8.91266c0,-4.92233 1.34015,-8.91266 2.99331,-8.91266c1.65316,0 2.9933,3.99033 2.9933,8.91266z"/><path d="M243.5899,120.59967c0,0.77723 0.38084,1.39987 -0.64209,1.95327c-1.42175,0.76916 -4.74398,1.33084 -8.34122,1.33084c-6.18541,0 -9.47172,-1.18497 -10.45976,-2.75787c-1.5471,-2.46286 4.27435,-3.96865 10.45976,-3.96865c3.12487,0 6.37461,0.48368 7.84633,1.12349c1.44144,0.62664 1.13698,1.39985 1.13698,2.31893z"/><path d="M244.72559,120.38295c0,2.49186 0.06803,4.47232 -1.0686,4.47232c-1.13664,0 -2.05806,-2.02005 -2.05806,-4.5119c0,-2.49186 0.92143,-4.5119 2.05806,-4.5119c1.13664,0 1.0686,2.05963 1.0686,4.55148z"/><path d="M244.63032,115.65329c1.51916,0 3.22562,0.73892 3.22562,1.50397c0,0.76505 -1.23152,1.38523 -2.75068,1.38523c-1.51916,0 -2.75068,-0.62018 -2.75068,-1.38523c0,-0.76504 0.75658,-1.50397 2.27574,-1.50397z"/><path d="M242.35458,123.66122c0,-0.76505 1.23152,-1.38523 2.75068,-1.38523c1.51916,0 2.75068,0.62018 2.75068,1.38523c0,0.76505 -1.70646,1.50397 -3.22562,1.50397c-1.51916,0 -2.27574,-0.73892 -2.27574,-1.50397z"/></g><g><path d="M237.639,93.69947c-0.19486,0.00512 -0.0771,-0.37114 -0.09706,-0.63991c-0.083,-1.11768 -0.58232,-8.50865 -0.58232,-8.50865l4.07977,-0.30297c0,0 0.55894,6.91819 0.65048,8.15089c0.02549,0.34319 0.30134,0.91671 0.0289,0.99766c-0.24687,0.07336 -0.41659,0.11745 -0.64474,0.13439c-0.47297,0.03512 -1.94125,0.14643 -2.81706,0.21147c-0.30215,0.02244 -0.00557,0.06599 -0.61796,-0.0429z" fill="#797979"/><path d="M251.53337,84.5108c0,1.36933 -3.13592,2.47939 -7.00428,2.47939c-3.86836,0 -7.00428,-1.11006 -7.00428,-2.47939c0,-1.36933 3.13592,-2.47939 7.00428,-2.47939c3.86836,0 7.00428,1.11006 7.00428,2.47939z" fill="#c9c9c9"/><path d="M234.4048,82.03141c3.86836,0 7.00428,1.11006 7.00428,2.47939c0,1.36933 -3.13593,2.47939 -7.00428,2.47939c-3.86836,0 -7.00428,-1.11006 -7.00428,-2.47939c0,-1.36933 3.13592,-2.47939 7.00428,-2.47939z" fill="#c9c9c9"/></g></g></g></svg>