<svg version="1.1" xmlns="http://www.w3.org/2000/svg" xmlns:xlink="http://www.w3.org/1999/xlink" width="123.27965" height="144.74101" viewBox="0,0,123.27965,144.74101"><g transform="translate(-167.69194,-102.54209)"><g stroke="none" stroke-miterlimit="10"><path d="M212.41631,209.79188c-9.89859,23.53872 -29.20499,39.28414 -34.64557,31.17515c-1.70486,-2.54105 -6.98286,-3.33488 -5.60505,-7.84812c2.69624,-8.83198 19.40112,-28.32812 28.71076,-40.87231c6.26585,-8.44288 5.1812,-10.11001 9.30673,-16.93276c2.30185,-3.80677 4.12699,-6.66061 5.6324,-8.75885c1.21724,0.74917 2.36963,1.61325 3.58309,2.59486c1.69277,1.36933 3.63981,2.94436 5.33258,4.31368c0,0 0.19437,0.15723 0.3516,-0.03714c0.15723,-0.19437 -0.03714,-0.3516 -0.03714,-0.3516c-1.69277,-1.36933 -3.63981,-2.94436 -5.33258,-4.31368c-1.21856,-0.98573 -2.37977,-1.8551 -3.60411,-2.61107c6.19213,-8.45741 6.84959,-3.6296 13.85437,-0.45014c4.22667,1.91848 3.72383,5.98657 1.03425,11.48086c-0.65547,-0.54385 -1.31119,-1.08506 -1.96845,-1.6198c0,0 -0.19437,-0.15724 -0.3516,0.03713c-0.15723,0.19437 0.03714,0.3516 0.03714,0.3516c0.68876,0.55356 1.37328,1.11799 2.05664,1.68654c-4.21497,8.36488 -13.20096,19.89928 -18.35505,32.15565z" fill="#f1f1f1" stroke-width="0"/><path d="M285.71753,138.29985c4.02528,12.79749 -8.15203,31.93235 -22.47259,33.96224c-1.26029,0 -2.52058,0 -3.78087,0c-0.36016,0 -0.71411,0.00287 -1.063,0.00951c-1.19829,-0.16961 -2.40047,-0.4716 -3.59879,-0.91887c-3.12591,-1.16673 -6.38026,0.2914 -9.75485,0.72395c-24.81545,3.18084 -47.71536,-4.81953 -50.87692,-22.14949c-4.31159,-23.63383 14.33211,-45.68866 39.14756,-45.68866c24.81545,0 48.04847,16.3259 52.39946,34.06132z" fill="#f1f1f1" stroke-width="0"/><path d="M194.41524,162.22482c-2.62177,-3.83895 -1.77506,-8.27379 -1.77506,-12.61176c0,-6.22627 0.10003,-12.12913 0.91555,-18.24174c0.34563,-2.59061 0.14138,-5.31865 1.04628,-7.77055c0.13653,-0.36994 3.7254,-6.53629 3.93229,-6.89369c2.42592,-2.46362 4.63502,-5.01757 7.79998,-6.61838c1.54792,-0.78293 7.13582,-2.51464 9.04671,-3.18895c4.24152,-1.49674 8.53201,-3.42374 12.98928,-4.14672c2.8051,-0.45499 6.07348,-0.03228 8.92019,-0.03228c0.62624,0 7.72601,-0.00516 7.92838,0.01873c2.44811,0.28899 4.7304,1.47265 7.17452,1.79363c1.08387,0.14235 2.20894,-0.20006 3.27945,0.02138c4.65024,0.96195 8.94396,4.09109 12.88383,6.5571c7.4059,3.69862 13.60083,8.17939 17.20605,15.96654c1.81665,3.9239 1.55649,8.95857 1.55894,13.11838c0.00173,2.94687 0.39408,6.40501 -0.02416,9.3149c-0.52852,3.67718 -2.43461,6.96357 -3.71318,10.37137c-1.52934,4.07618 -2.98737,7.20445 -5.81025,10.61226c0,0 -1.60046,1.92055 -3.52101,0.32009c-1.92055,-1.60046 -0.3201,-3.52102 -0.3201,-3.52102c2.50286,-2.98297 3.61192,-5.54356 4.95153,-9.11766c1.12572,-3.00348 2.99944,-6.09999 3.46134,-9.35855c0.3814,-2.69063 -0.02582,-5.90438 -0.02416,-8.62139c0.00201,-3.30102 0.38486,-7.93807 -1.13151,-11.09561c-3.257,-6.78208 -8.58145,-10.37571 -15.07927,-13.62833c-3.31236,-2.06733 -7.37252,-5.24018 -11.33016,-5.99831c-0.98159,-0.18803 -2.00782,0.15533 -2.99824,0.02138c-2.44287,-0.33039 -4.72616,-1.50674 -7.17452,-1.79363c-2.42259,-0.28387 -4.8783,0.01874 -7.31746,0.01874c-2.56393,0 -5.6005,-0.46617 -8.11928,-0.03229c-4.15784,0.71622 -8.1505,2.52283 -12.12152,3.92462c-1.2613,0.44524 -7.34555,2.38799 -8.42255,2.91892c-2.45792,1.21169 -4.20833,3.33707 -6.11926,5.21004c-1.06625,1.89546 -2.46474,3.63066 -3.24222,5.66171c-0.78897,2.06109 -0.45585,4.39089 -0.74735,6.57848c-0.78762,5.91075 -0.87808,11.60189 -0.87808,17.63083c0,3.05057 -0.97788,7.13569 0.91539,9.80861c2.70105,3.81333 8.38993,5.05804 12.21988,7.32917l0.10425,0.09241c2.45473,0.03 2.45473,2.49972 2.45473,2.49972c0,0.80873 0,1.63308 0,2.46893c-0.75451,-0.37753 -1.49711,-0.71575 -2.22594,-0.95001c-1.45585,-0.46793 -2.86868,-0.64118 -4.21466,-0.56583c-4.35855,-2.31686 -9.55022,-3.78328 -12.47863,-8.07124z" fill="#969696" stroke-width="0.5"/><path d="M234.06805,169.45781c0.13757,-0.16051 0.3203,-0.33483 0.53493,-0.50791c0.2739,-0.29827 0.67412,-0.61903 1.20066,-0.74997c0.89798,-0.41887 1.90749,-0.58458 2.60205,-0.01174c3.36499,0 6.72999,0 10.09498,0h2.69045c0,0 2.5,0 2.5,2.5c0,2.5 -2.5,2.5 -2.5,2.5c-3.18021,0 -8.16214,0 -11.99697,0c-0.09728,-0.03252 -0.19334,-0.06072 -0.288,-0.08439c-0.39994,-0.09999 -0.79717,-0.18197 -1.1919,-0.24782c-0.07656,0.06624 -0.14973,0.1334 -0.21823,0.2019c-1.57645,1.57645 -3.06938,5.50731 -4.95867,7.65753c-0.20741,0.44437 -0.54166,0.81765 -0.95618,1.07328c-2.88798,3.57012 -5.89216,7.28391 -8.61487,10.64972l0.00004,-0.00002c-1.6308,2.016 -3.80798,4.17509 -5.17873,6.37616c-5.56395,8.93419 -6.30779,19.44749 -13.05341,27.89917c0,0 -0.49353,0.61009 -1.2237,0.9071c-3.21175,4.08781 -6.37265,8.90598 -10.06839,12.39001c-1.07127,1.0099 -2.43545,1.60133 -3.57693,2.52099c-1.82931,1.47383 -3.75681,4.35769 -6.18334,4.73253c-1.94695,0.30075 -5.56006,-3.10595 -6.63567,-3.97415c-3.30712,-2.66936 -10.75864,-5.93499 -9.12257,-11.67152c0.32569,-1.14197 1.42324,-1.97455 2.16558,-2.93924c2.31009,-3.00203 4.77496,-5.90945 7.17079,-8.844c2.92529,-5.4849 7.80336,-9.41653 10.88978,-14.67353c2.10471,-3.58487 4.27688,-6.56701 6.95832,-9.88181c2.18114,-2.69634 4.9875,-5.45963 6.82018,-8.38665c1.33605,-2.13386 1.79424,-4.64263 2.88053,-6.8965c1.16714,-2.42157 2.8922,-4.57387 4.28043,-6.89275c1.58871,-2.65377 2.05595,-5.53274 3.22972,-8.2797c1.41364,0.53921 2.65495,1.18805 3.84488,1.94902c-0.77699,1.75945 -1.1485,3.51269 -1.96667,5.44262c-1.45853,3.44039 -3.6769,5.9556 -5.30893,9.38074c-1.15117,2.416 -1.71213,5.07429 -3.13177,7.36316c-1.95863,3.1579 -4.93423,6.14417 -7.2804,9.04451c-1.68351,2.08116 -4.05973,4.34346 -5.41012,6.64353c-0.47687,0.81223 -0.60202,1.77304 -1.08799,2.58042c-3.20985,5.33284 -8.06035,9.32851 -11.02699,14.89094c-2.73548,3.40796 -6.34333,6.9186 -8.71237,10.52867c-0.5626,0.85734 1.2024,1.32998 1.91128,1.86808c2.06318,1.56615 4.02909,3.25551 6.04089,4.88664c0.95965,0.77807 1.94659,1.52349 2.87618,2.33758c0.27043,0.23683 0.33826,0.91261 0.71758,0.80966c1.53025,-0.41532 2.22996,-2.52308 3.52526,-3.56295c1.05216,-0.84469 2.32099,-1.36367 3.31154,-2.28825c3.73877,-3.48974 6.91048,-8.58722 10.16084,-12.60532c0,0 0.49016,-0.60593 1.21624,-0.90405c6.02078,-7.92685 6.83007,-18.20335 12.06223,-26.604c1.47722,-2.37179 3.77715,-4.69514 5.53771,-6.87155c2.58408,-3.19445 5.4217,-6.70232 8.17288,-10.10334c0.00588,-0.30787 0.06741,-0.60213 0.17495,-0.87312c0.8647,-3.4321 3.98948,-6.79187 6.1219,-9.2797z" fill="#969696" stroke-width="0.5"/><path d="M276.88444,169.34298c0,0.79053 0,1.59597 0,2.4125c-1.44518,-0.01664 -2.89146,-0.04127 -4.33197,-0.0554c0,-0.79756 0,-1.58446 0,-2.3571c0,0 0,-2.5 2.16598,-2.5c2.16598,0 2.16598,2.5 2.16598,2.5z" fill="#969696" stroke-width="0.5"/><path d="M250.8262,171.99602l-0.1893,-0.18977c0,0 -0.96865,-2.23607 0.96866,-3.35411c1.93731,-1.11803 2.90596,1.11803 2.90596,1.11803l0.58769,1.60385c0.05703,0.44841 0.1363,0.87512 0.23232,1.28697c-1.40534,0.16111 -2.78252,0.4404 -4.22199,0.90745c-0.11347,-0.44724 -0.2099,-0.90366 -0.28334,-1.37242z" fill="#969696" stroke-width="0.5"/><path d="M239.79045,153.64873c0,2.5 -2.5,2.5 -2.5,2.5l-2.78436,-0.05953c-6.79972,-1.5166 -14.35522,-2.67157 -20.42794,-6.09915c0,0 -2.1706,-1.24034 -0.93026,-3.41096c1.24034,-2.17061 3.41096,-0.93026 3.41096,-0.93026c3.69313,2.1415 6.94024,2.354 10.98563,3.3231c2.70716,0.64852 5.32831,1.6347 8.04627,2.23633l1.69971,-0.05953c0,0 2.5,0 2.5,2.5z" fill="#969696" stroke-width="0.5"/><path d="M270.05584,152.38266c-2.32119,0.92847 -3.24967,-1.39272 -3.24967,-1.39272l-1.0695,-2.99562c-0.36855,-5.77161 -2.67223,-11.49899 -3.56431,-17.28263c0,0 -0.38014,-2.47092 2.09079,-2.85107c2.47093,-0.38014 2.85107,2.09079 2.85107,2.09079c0.91518,5.96464 3.16111,11.72757 3.61021,17.69313l0.72413,1.48845c0,0 0.92847,2.32119 -1.39272,3.24967z" fill="#969696" stroke-width="0.5"/><path d="M241.32612,144.49014c-2.5,0 -2.5,-2.5 -2.5,-2.5v-2.24203c0,-6.06972 -0.64061,-12.30873 0.99301,-18.17469c0,0 0.68681,-2.40381 3.09062,-1.71701c2.40381,0.68681 1.71701,3.09061 1.71701,3.09061c-1.56547,5.31222 -0.80063,11.2676 -0.80063,16.80108v2.24203c0,0 0,2.5 -2.5,2.5z" fill="#969696" stroke-width="0.5"/><path d="M259.32432,166.68164c2.43793,1.3931 3.31653,1.64176 4.16173,4.49935c0.12336,0.41709 0.5322,4.27374 0.84753,4.31458c3.34697,0.43352 0.96112,-11.49382 7.06373,-9.01989c2.35325,0.95398 0.58749,12.90074 -1.74982,14.09624c-1.42825,0.73053 -2.07414,-0.04298 -3.38383,-0.07635c-2.84456,-0.07248 -4.02028,0.40615 -5.88722,-1.19408c-1.1357,-0.97346 -0.62847,-3.16354 -1.30284,-4.37236c-0.24396,-0.4373 -0.94489,0.3407 -1.43431,0.44658c-0.78887,0.17067 -1.98098,-0.62366 -2.38192,-1.25c-1.91957,-2.99861 -0.66597,-8.40047 3.7908,-7.28628z" fill="#f1f1f1" stroke-width="0.5"/><path d="M267.11536,183.46055c0.87412,-4.61963 4.12546,-8.61048 4.74449,-13.43641c0.16887,-1.31651 0.61873,-2.5 2.5,-2.5c2.65491,0 2.51558,2.37858 2.51558,4.04527c0,1.22936 -4.16757,12.99948 -5.09204,13.52775c-0.43488,0.73685 -1.23699,1.23117 -2.15454,1.23117c-0.97357,0 -1.81716,-0.5565 -2.23002,-1.36876c-0.28116,-0.35612 -0.41154,-0.82217 -0.28347,-1.49901z" fill="#969696" stroke-width="0.5"/><path d="M271.45692,215.5857c-5.7521,-1.91562 -8.69233,-8.64156 -6.56719,-15.02279c2.12514,-6.38124 8.51091,-10.00134 14.26301,-8.08571c5.7521,1.91562 8.69233,8.64156 6.56719,15.02279c-2.12514,6.38124 -8.51091,10.00134 -14.26301,8.08571z" fill="#f1f1f1" stroke-width="0"/><path d="M252.24374,219.1303c4.62865,1.54148 6.79159,7.56338 4.83107,13.4503c-1.96052,5.88692 -7.30209,9.40959 -11.93074,7.86812c-4.62865,-1.54148 -6.79159,-7.56338 -4.83107,-13.4503c1.96052,-5.88692 7.30209,-9.40959 11.93074,-7.86812z" fill="#f1f1f1" stroke-width="0"/><path d="M254.02733,229.28244c-4.84997,-3.54683 -5.39224,-11.47301 -1.21119,-17.70361c4.18105,-6.2306 11.50215,-8.40623 16.35212,-4.85939c4.84997,3.54683 5.39224,11.47301 1.21119,17.70361c-4.18105,6.2306 -11.50215,8.40623 -16.35212,4.85939z" fill="#f1f1f1" stroke-width="0"/><path d="M257.20757,188.53351c-5.95935,-7.30261 -7.57753,-15.84439 -3.61431,-19.07861c3.96322,-3.23422 12.00706,0.06386 17.96641,7.36647c5.95935,7.30261 7.57753,15.84439 3.61431,19.07861c-3.96322,3.23422 -12.00706,-0.06386 -17.96641,-7.36647z" fill="#f1f1f1" stroke-width="0"/><path d="M276.5906,193.25098c-0.67407,-0.22449 -1.05067,-0.91649 -0.84115,-1.54562c0.20952,-0.62914 0.92582,-0.95717 1.59989,-0.73268c0.67407,0.22449 1.05067,0.91649 0.84115,1.54562c-0.20952,0.62914 -0.92582,0.95717 -1.59989,0.73268z" fill="#f1f1f1" stroke-width="0"/><path d="M263.33266,207.27575c-0.62914,-0.20952 -0.79945,-1.3994 -0.38041,-2.65768c0.41904,-1.25827 1.26876,-2.10845 1.8979,-1.89893c0.62914,0.20952 0.79945,1.3994 0.38041,2.65768c-0.41904,1.25827 -1.26876,2.10845 -1.8979,1.89893z" fill="#f1f1f1" stroke-width="0"/><path d="M274.86459,177.78056c-0.0745,0.08558 -0.1495,0.1639 -0.2248,0.23543c4.24592,6.08429 8.18457,12.51994 12.10718,18.73138c1.66574,2.6377 5.07487,6.96701 4.02895,10.40495c-0.20421,0.67124 -4.82855,4.88173 -5.45085,5.4041c-4.15814,3.49039 -8.81098,6.57735 -13.12716,9.89412c-2.07883,2.62744 -3.8535,5.6869 -6.33899,7.96307c-2.88032,2.63776 -6.28525,4.79369 -9.1427,7.5263c-1.78374,1.70581 -5.09032,6.16838 -7.56946,6.71885c-1.73173,0.38451 -3.64305,0.07845 -5.28992,-0.58077c-1.22016,-0.48841 -1.95807,-1.75602 -2.88229,-2.69045c-2.04399,-2.06658 -5.62211,-5.99744 -4.97212,-9.31552c0.24433,-1.24725 1.65604,-1.93551 2.36861,-2.98793c2.03359,-3.0035 3.34488,-6.42472 5.66908,-9.27859c1.78859,-2.1962 3.80957,-4.19879 5.56031,-6.42529c2.84074,-3.60756 5.68294,-7.32623 8.68622,-10.76677c1.19997,-1.37468 3.0064,-2.10919 4.26958,-3.42602c0.71674,-0.74719 -0.83407,-1.91867 -0.99396,-2.12606c-1.71836,-2.22889 -2.03916,-2.80596 -3.48783,-5.28965c-2.72914,-4.67902 -5.62601,-8.501 -7.50315,-13.65965c-0.48051,-1.32052 -1.32365,-2.57321 -1.4002,-3.97634c-0.26535,-4.86393 3.32366,-5.70197 6.4907,-8.1785c0.99694,-0.77957 1.76043,-2.15386 3.01693,-2.30493c1.55281,-0.1867 2.98468,0.93593 4.47702,1.4039c3.10598,2.62956 6.03768,5.3248 9.48296,7.50939l1.98168,1.6879c0,0 1.88565,1.64144 0.24422,3.52709zM266.59129,174.41632c-2.08102,-1.59596 -4.03848,-3.32198 -6.03259,-5.08751c-0.31587,-0.25474 -0.55386,-0.86236 -0.94761,-0.76423c-0.43545,0.10851 -0.34866,0.85468 -0.67047,1.16746c-1.35956,1.3214 -3.34421,1.8501 -4.7656,3.10475c-0.64759,0.57163 2.1414,6.36789 2.29536,6.74897c1.73132,4.28529 4.92476,8.39633 7.4784,12.26188c0.55157,0.83494 3.42214,4.48165 3.54834,5.2996c0.23918,1.5501 0.01671,3.25064 -0.67972,4.65599c-0.92302,1.8626 -3.38419,2.47925 -4.73228,4.06162c-2.92646,3.43504 -5.74869,7.04301 -8.55639,10.60866c-1.77002,2.24481 -3.79519,4.27796 -5.60968,6.48698c-2.25722,2.74802 -3.35078,6.29984 -5.49943,9.05771c-0.39124,0.50217 -1.2719,0.556 -1.53557,1.13541c-0.14543,0.31958 0.44246,0.5466 0.63715,0.8388c0.39952,0.59964 0.70107,1.26574 1.1438,1.83421c0.76066,0.9767 3.23493,4.73834 5.04046,4.04438c1.74068,-0.66904 4.26133,-4.31061 5.55336,-5.54307c2.91361,-2.77926 6.33415,-5.00859 9.29488,-7.66605c2.36265,-2.12065 4.15163,-5.31398 6.132,-7.77005c4.39647,-3.45757 9.18531,-6.58871 13.44514,-10.18209c0.87238,-0.73589 1.6255,-1.60934 2.52132,-2.31652c0.40434,-0.31919 1.14315,-0.2738 1.35487,-0.74343c0.15614,-0.34636 -0.40848,-0.64249 -0.57645,-0.98327c-0.87727,-1.77979 -1.82372,-3.53028 -2.8843,-5.2073c-4.92223,-7.78313 -9.83932,-15.94756 -15.41012,-23.27202c0,0 -0.60729,-0.80006 -0.54487,-1.77087z" fill="#969696" stroke-width="0.5"/><path d="M229.61528,174.78264c0,1.38071 -1.11929,2.5 -2.5,2.5c-0.6928,0 -1.31979,-0.28181 -1.77257,-0.73705c-2.32002,-1.05029 -5.93518,-3.62867 -3.36531,-5.09717c0.43488,-0.73685 1.23699,-1.23117 2.15454,-1.23117c0.803,0 1.51757,0.37858 1.97496,0.967c0.90729,0.44962 1.85559,0.97627 2.50849,1.59829c0.60716,0.45611 0.99989,1.18224 0.99989,2.0001z" fill="#f1f1f1" stroke-width="0.5"/><path d="M219.81349,169.18625c0.46517,1.90569 0.57246,5.28516 -2.3367,5.28516c-3.80711,0 -1.65666,-4.21227 -3.33151,-6.01927c-0.61414,-0.6626 -5.41464,-1.48929 -3.45132,-3.68358c0.15632,-1.23045 1.20703,-2.18178 2.47994,-2.18178c0.6029,0 1.15595,0.21342 1.58773,0.56882c2.58272,1.11551 4.29878,2.94539 5.05187,6.03065z" fill="#f1f1f1" stroke-width="0.5"/><path d="M258.32513,158.69639c1.66315,0.45362 1.24897,1.63274 2.17399,2.58791c0.047,0.04853 1.57584,-0.05711 1.76227,-0.05711c0.90366,0 2.34968,1.31129 2.91348,1.88732c1.1841,1.2098 1.50502,4.37242 2.50127,5.2018c1.23016,1.0241 5.55893,0.32607 4.15243,3.73361c-1.84617,4.47273 -8.32911,4.58065 -11.33459,1.62626c-1.08953,-1.07101 -4.68245,0.57058 -6.28609,-1.43497c-0.41798,-0.52273 -1.83532,-2.6044 -2.68188,-4.44266c-0.40412,-0.4441 -0.65047,-1.03431 -0.65047,-1.68206c0,-0.08648 0.00439,-0.17194 0.01296,-0.25616c-0.0556,-0.47849 0.03303,-0.84155 0.3325,-1.01268c0.43488,-0.73685 1.23699,-1.23117 2.15454,-1.23117c0.57995,0 1.11376,0.19747 1.53788,0.52884c2.60564,0.16573 -1.79364,-6.86868 3.41171,-5.44894z" fill="#f1f1f1" stroke-width="0.5"/></g></g></svg>