<svg version="1.1" xmlns="http://www.w3.org/2000/svg" xmlns:xlink="http://www.w3.org/1999/xlink" width="61.53168" height="61.54522" viewBox="0,0,61.53168,61.54522"><g transform="translate(-287.45295,-78.85138)"><g stroke="none" stroke-width="0" stroke-miterlimit="10"><g fill="#a8c0c5"><path d="M325.26189,100.17426c1.65316,0 2.99331,3.99033 2.99331,8.91266c0,4.92232 -1.34015,8.91266 -2.99331,8.91266c-1.65316,0 -2.9933,-3.99033 -2.9933,-8.91266c0,-4.92233 1.34014,-8.91266 2.9933,-8.91266z"/><path d="M325.46374,131.80256c-0.91903,-0.01009 -1.69554,0.28586 -2.30631,-1.16237c-0.62362,-1.47865 -1.07158,-4.73351 -1.03727,-7.85819c0.06791,-6.18504 1.63754,-11.9896 4.08326,-10.41555c1.56196,1.00525 2.71077,4.30437 2.64285,10.48941c-0.0395,3.59702 -0.63762,6.91288 -1.42235,8.3261c-0.5646,1.01679 -1.18302,0.62913 -1.9602,0.6206z"/><g><path d="M325.23455,132.9358c-2.4917,-0.02736 -4.55195,0.01806 -4.53947,-1.11851c0.01248,-1.13656 2.04252,-2.03575 4.53423,-2.00839c2.4917,0.02736 4.50151,0.97091 4.48903,2.10748c-0.01248,1.13656 -1.99207,1.04679 -4.48378,1.01943z"/><path d="M320.50622,132.78862c0.01668,-1.51907 0.76388,-2.26749 1.52887,-2.25909c0.765,0.0084 1.37162,1.24665 1.35494,2.76572c-0.01668,1.51906 -0.65035,2.7437 -1.41535,2.7353c-0.765,-0.0084 -1.48514,-1.72287 -1.46846,-3.24194z"/><path d="M328.53864,130.60092c0.765,0.0084 1.49557,0.77305 1.47889,2.29212c-0.01668,1.51907 -0.7743,3.21731 -1.5393,3.20891c-0.765,-0.0084 -1.37162,-1.24665 -1.35494,-2.76572c0.01668,-1.51906 0.65035,-2.7437 1.41535,-2.7353z"/></g></g><path d="M296.22831,103.31318l0.29138,-0.50163c0.08231,-0.2195 0.17291,-0.43338 0.26953,-0.64317c1.20867,-1.45797 2.60777,-2.77202 3.5811,-4.46938c4.43689,-3.42813 11.28501,-5.62605 18.96889,-5.62605c13.37591,0 24.21923,6.66036 24.21923,14.87634c0,8.21598 -13.94256,3.71908 -27.31847,3.71908c-13.37511,0 -21.11906,4.49636 -21.11999,-3.71761c0.24086,-1.15457 0.33038,-2.41411 0.75683,-3.35198c0,0 0.00667,-0.01468 0.01499,-0.03997c0.21508,-0.04323 0.33652,-0.24564 0.33652,-0.24564z" fill="#c3dce2"/><path d="M301.91717,97.68338c5.75118,1.98352 4.21496,3.27669 4.21496,5.33069c0,2.05399 -4.66226,3.71909 -10.41344,3.71909c-0.18592,0 -0.3707,-0.00174 -0.55423,-0.00518c0.20919,-1.09164 0.31317,-2.25133 0.71233,-3.12919c0,0 0.00667,-0.01468 0.01499,-0.03997c0.21508,-0.04323 0.33652,-0.24564 0.33652,-0.24564l0.29138,-0.50163c0.08231,-0.2195 0.17291,-0.43338 0.26953,-0.64317c1.28355,-1.5483 2.78187,-2.93429 3.75695,-4.78939c0.499,0.06238 0.94485,0.15741 1.37101,0.30439z" fill="#000000"/><path d="" fill="#000000"/><path d="" fill="#000000"/><path d="" fill="#000000"/><path d="" fill="#000000"/><path d="" fill="#000000"/><path d="" fill="#000000"/><path d="" fill="#000000"/><path d="M301.11567,100.3327c0.55328,0 1.00181,1.01828 1.00181,2.27439c0,1.25611 -0.44853,2.27439 -1.00181,2.27439c-0.55328,0 -1.00181,-1.01828 -1.00181,-2.27439c0,-1.25611 0.44853,-2.27439 1.00181,-2.27439z" fill="#0091ff"/><g><path d="M321.03936,93.69946c-0.61239,0.10889 -0.31581,0.06534 -0.61796,0.0429c-0.87581,-0.06504 -2.34409,-0.17635 -2.81706,-0.21147c-0.22815,-0.01694 -0.39787,-0.06103 -0.64474,-0.13439c-0.27244,-0.08095 0.00341,-0.65447 0.0289,-0.99766c0.09154,-1.2327 0.65048,-8.15089 0.65048,-8.15089l4.07977,0.30297c0,0 -0.49932,7.39097 -0.58232,8.50865c-0.01996,0.26877 0.0978,0.64503 -0.09706,0.63991z" fill="#797979"/><path d="M314.14931,82.03142c3.86836,0 7.00428,1.11006 7.00428,2.47939c0,1.36933 -3.13592,2.47939 -7.00428,2.47939c-3.86836,0 -7.00428,-1.11006 -7.00428,-2.47939c0,-1.36933 3.13592,-2.47939 7.00428,-2.47939z" fill="#c9c9c9"/><path d="M331.27788,84.51081c0,1.36933 -3.13592,2.47939 -7.00428,2.47939c-3.86835,0 -7.00428,-1.11006 -7.00428,-2.47939c0,-1.36933 3.13592,-2.47939 7.00428,-2.47939c3.86836,0 7.00428,1.11006 7.00428,2.47939z" fill="#c9c9c9"/></g><g fill="#c3dce2"><path d="M320.50593,103.85744c1.65316,0 2.99331,3.99033 2.99331,8.91266c0,4.92232 -1.34015,8.91266 -2.99331,8.91266c-1.65316,0 -2.9933,-3.99033 -2.9933,-8.91266c0,-4.92233 1.34014,-8.91266 2.9933,-8.91266z"/><path d="M320.70781,135.48575c-0.91903,-0.01009 -1.69554,0.28586 -2.30631,-1.16237c-0.62362,-1.47865 -1.07158,-4.73351 -1.03727,-7.85819c0.06791,-6.18504 1.63754,-11.9896 4.08326,-10.41555c1.56196,1.00525 2.71077,4.30437 2.64285,10.48941c-0.0395,3.59702 -0.63762,6.91288 -1.42235,8.3261c-0.5646,1.01679 -1.18302,0.62913 -1.9602,0.6206z"/><g><path d="M320.47857,136.61898c-2.4917,-0.02736 -4.55195,0.01806 -4.53947,-1.11851c0.01248,-1.13656 2.04252,-2.03575 4.53423,-2.00839c2.4917,0.02736 4.50151,0.97091 4.48903,2.10748c-0.01248,1.13656 -1.99207,1.04679 -4.48378,1.01943z"/><path d="M315.75026,136.47179c0.01668,-1.51907 0.76388,-2.26749 1.52887,-2.25909c0.765,0.0084 1.37162,1.24665 1.35494,2.76572c-0.01668,1.51906 -0.65035,2.7437 -1.41535,2.7353c-0.765,-0.0084 -1.48514,-1.72287 -1.46846,-3.24194z"/><path d="M323.78273,134.28411c0.765,0.0084 1.49557,0.77305 1.47889,2.29212c-0.01668,1.51907 -0.7743,3.21731 -1.5393,3.20891c-0.765,-0.0084 -1.37162,-1.24665 -1.35494,-2.76572c0.01668,-1.51906 0.65035,-2.7437 1.41535,-2.7353z"/></g></g><path d="M287.45295,140.39661v-61.54522h61.53168v61.54522z" fill="none"/></g></g></svg>