<svg version="1.1" xmlns="http://www.w3.org/2000/svg" xmlns:xlink="http://www.w3.org/1999/xlink" width="715.99312" height="390.84072" viewBox="0,0,715.99312,390.84072"><g transform="translate(49.85637,24.19244)"><g stroke="none" stroke-miterlimit="10"><path d="M666.13675,-7.38793v31.93804h-670.57563v-31.93804z" fill="#9e9898" stroke-width="0"/><path d="M-49.85637,366.64829v-51.04752h689.85637v51.04752z" fill="#9e9898" stroke-width="0"/><path d="M-4.39516,320.77941v-328.90724h31.61844v328.90724z" fill="#9e9898" stroke-width="0"/><path d="M651.53911,3.14013v238.34721h-76.55437v-238.34721z" fill="#9e9898" stroke-width="0"/><path d="M-49.85637,346.28081v-90.58496h17.24159v90.58496z" fill="#9e9898" stroke-width="0"/><path d="M237.38522,17.4892v176.79772h-17.24159v-176.79772z" fill="#9e9898" stroke-width="0"/><path d="M322.5895,241.48733v-152.36663h133.56842v152.36663z" fill="#9e9898" stroke-width="0"/><path d="M436.70115,230.76214v-89.87177h19.45677v89.87177z" fill="#9e9898" stroke-width="0"/><path d="M436.70115,241.48736v-16.61422h138.28359v16.61422z" fill="#9e9898" stroke-width="0"/><path d="M327.47817,160.89521l13.04269,-62.10122l50.64994,10.63766l-13.04269,62.10122z" fill="#be9c62" stroke-width="0"/><text transform="translate(339.36017,108.38949) rotate(12.15291) scale(0.19682,0.19682)" font-size="40" xml:space="preserve" fill="#ffe2b1" stroke-width="1" font-family="Sans Serif" font-weight="normal" text-anchor="start"><tspan x="0" dy="0">Para Moverte</tspan><tspan x="0" dy="48px">Usa wasd o </tspan><tspan x="0" dy="48px">las flechas</tspan></text><path d="M403.82056,177.87131l0.13095,-56.48513l46.06943,0.10681l-0.13095,56.48512z" fill="#be9c62" stroke-width="0"/><text transform="translate(404.1865,127.43612) rotate(0.70223) scale(0.17298,0.17298)" font-size="40" xml:space="preserve" fill="#ffe2b1" stroke-width="1" font-family="Sans Serif" font-weight="normal" text-anchor="start"><tspan x="0" dy="0">Para cambiar</tspan><tspan x="0" dy="48px">entre el robot</tspan><tspan x="0" dy="48px">y el humano</tspan><tspan x="0" dy="48px">presiona C</tspan></text><path d="M24.575,-23.44243c0,-0.41421 0.33579,-0.75 0.75,-0.75c0.41421,0 0.75,0.33579 0.75,0.75c0,0.41421 -0.33579,0.75 -0.75,0.75c-0.41421,0 -0.75,-0.33579 -0.75,-0.75z" fill="#ffe2b1" stroke-width="0.5"/><path d="M347.01482,159.34032c-0.17512,1.86996 -0.32936,3.74295 -0.48669,5.61386c-0.64432,-0.13378 -1.28658,-0.27208 -1.92526,-0.41853c0.2817,-3.39713 0.5525,-6.80297 0.97923,-10.17862c0.02395,-0.18942 0.05367,-0.37591 0.08774,-0.56017c-1.35478,2.64196 -2.84665,5.21775 -4.10286,7.91042c-0.27351,0.58626 -0.51941,1.3826 -0.76575,1.99097c-0.59589,-0.21185 -1.43672,-0.17268 -2.04641,-0.43476c0.25864,-0.64147 0.75486,-1.76078 1.04233,-2.37989c1.87234,-4.03232 4.29782,-7.79361 5.97172,-11.91784c0,0 0.00768,-0.01893 0.02357,-0.05021c-0.50238,-0.41686 -0.95694,-0.86256 -1.38156,-1.33393c-0.34042,-0.15838 -0.67658,-0.32448 -0.99795,-0.51796c-2.50885,-1.51049 -3.63319,-4.19376 -4.159,-6.94836c-0.35044,-1.83589 -0.72971,-4.46455 0.9013,-5.92572c2.18427,-1.95683 6.4173,-1.16665 9.01508,-0.74926c2.11063,0.59105 5.07421,1.54526 6.38873,3.44885c0.4366,0.63226 0.83986,1.92783 1.06002,2.62408c1.10114,3.48229 0.47131,9.1202 -3.54614,10.53431c-1.31365,0.4624 -3.04325,0.2161 -4.584,-0.0195c-0.05184,0.44621 -0.13585,0.8771 -0.23417,1.30141c0.00107,4.75615 1.08916,9.53403 1.48707,14.2689c-0.66474,-0.13219 -1.32994,-0.26284 -1.99397,-0.39589c-0.18166,-1.95052 -0.46516,-3.90529 -0.73302,-5.86218zM347.29643,147.68335c0.12714,0.1016 0.25761,0.20098 0.39172,0.298c1.37603,0.06923 3.4178,0.70561 4.73269,0.22626c2.17635,-0.79341 2.38199,-2.9204 2.55213,-4.85923c0.16303,-1.85784 0.03366,-3.72455 -1.02969,-5.3637c-0.42592,-0.65655 -0.66051,-0.6165 -1.34195,-0.98147c-1.29242,-0.69221 -2.43477,-1.26159 -3.84855,-1.65592c-1.69112,-0.26877 -3.42032,-0.49788 -5.13011,-0.29778c-0.48558,0.05683 -1.66197,0.16151 -2.14801,0.5788c-1.03388,0.88762 -0.50259,3.10561 -0.30415,4.11629c0.18433,0.93877 0.43465,1.89064 0.82084,2.76628c0.46348,-0.25218 0.96531,0.05609 0.96531,0.05609l0.45682,0.38605c0.70613,1.06061 1.37872,2.08632 2.1573,3.01868c0.41673,0.18999 0.83644,0.37461 1.23967,0.59057c0,0 0.72706,0.38979 0.486,1.12108z" fill="#ffe2b1" stroke-width="0.5"/><path d="" fill="#000000" stroke-width="0.5"/><path d="" fill="#000000" stroke-width="0.5"/><g fill="#ebc588" stroke-width="0"><path d="M431.87337,165.48137c0.84823,0 1.53584,2.04741 1.53584,4.57303c0,2.52561 -0.68762,4.57303 -1.53584,4.57303c-0.84823,0 -1.53584,-2.04741 -1.53584,-4.57303c0,-2.52562 0.68762,-4.57303 1.53584,-4.57303z"/><path d="M422.62118,173.80522c0,-0.47158 -0.15622,-0.8683 0.58338,-1.18983c0.75513,-0.32828 2.42256,-0.57646 4.02591,-0.57646c3.1737,0 6.16065,0.77261 5.36683,2.03629c-0.50696,0.80704 -2.19314,1.41504 -5.36683,1.41504c-1.84572,0 -3.55034,-0.28819 -4.27983,-0.68284c-0.52486,-0.28394 -0.32945,-0.60342 -0.32945,-1.00221z"/><path d="M422.58676,171.35867c0.5832,0 1.05597,1.03646 1.05597,2.31502c0,1.27856 -0.47277,2.31503 -1.05597,2.31503c-0.5832,0 -0.54829,-1.01616 -0.54829,-2.29472c0,-1.27856 -0.03491,-2.33533 0.54829,-2.33533z"/><path d="M423.25501,172.03894c0,0.39254 -0.63188,0.71075 -1.41135,0.71075c-0.77947,0 -1.41136,-0.31821 -1.41136,-0.71075c0,-0.39254 0.87558,-0.77168 1.65505,-0.77168c0.77947,0 1.16766,0.37914 1.16766,0.77168z"/><path d="M422.08735,176.14776c-0.77947,0 -1.65505,-0.37914 -1.65505,-0.77168c0,-0.39254 0.63189,-0.71075 1.41136,-0.71075c0.77947,0 1.41135,0.31821 1.41135,0.71075c0,0.39254 -0.38819,0.77168 -1.16766,0.77168z"/></g><g fill="#ffe2b1" stroke-width="0"><path d="M438.36183,165.54585c0.84823,0 1.53585,2.04741 1.53585,4.57303c0,2.52561 -0.68762,4.57303 -1.53585,4.57303c-0.84823,0 -1.53584,-2.04741 -1.53584,-4.57303c0,-2.52562 0.68762,-4.57303 1.53584,-4.57303z"/><path d="M429.10964,173.86972c0,-0.47158 -0.15622,-0.8683 0.58338,-1.18983c0.75513,-0.32828 2.42255,-0.57646 4.0259,-0.57646c3.1737,0 6.16065,0.77261 5.36684,2.03629c-0.50696,0.80704 -2.19315,1.41504 -5.36684,1.41504c-1.84572,0 -3.55034,-0.28819 -4.27983,-0.68284c-0.52486,-0.28394 -0.32945,-0.60342 -0.32945,-1.00221z"/><path d="M429.07521,171.42319c0.5832,0 1.05598,1.03647 1.05598,2.31503c0,1.27856 -0.47278,2.31502 -1.05598,2.31502c-0.5832,0 -0.54829,-1.01616 -0.54829,-2.29472c0,-1.27856 -0.03492,-2.33533 0.54829,-2.33533z"/><path d="M429.74347,172.10344c0,0.39254 -0.63189,0.71076 -1.41136,0.71076c-0.77947,0 -1.41136,-0.31822 -1.41136,-0.71076c0,-0.39254 0.87558,-0.77168 1.65505,-0.77168c0.77947,0 1.16767,0.37914 1.16767,0.77168z"/><path d="M428.5758,176.21224c-0.77947,0 -1.65505,-0.37914 -1.65505,-0.77168c0,-0.39254 0.63189,-0.71075 1.41136,-0.71075c0.77947,0 1.41136,0.31821 1.41136,0.71075c0,0.39254 -0.3882,0.77168 -1.16767,0.77168z"/></g><g><path d="M418.86392,166.86578c0,-4.21558 5.56363,-7.63296 12.42673,-7.63296c6.8631,0 12.42674,3.41738 12.42674,7.63295c0,4.21557 -7.15384,1.90824 -14.01694,1.90824c-6.8631,0 -10.83654,2.30733 -10.83654,-1.90824z" fill="#ffe2b1" stroke-width="0"/><g fill="#ffe2b1" stroke-width="0"><path d="M432.163,160.06734c-0.31421,0.05587 -0.16204,0.03352 -0.31707,0.02201c-0.44937,-0.03337 -1.20274,-0.09048 -1.44542,-0.1085c-0.11706,-0.00869 -0.20414,-0.03132 -0.33081,-0.06896c-0.13979,-0.04154 0.00175,-0.3358 0.01483,-0.51189c0.04697,-0.63249 0.33375,-4.18217 0.33375,-4.18217l2.09331,0.15545c0,0 -0.2562,3.79226 -0.29879,4.36574c-0.01024,0.1379 0.05018,0.33096 -0.0498,0.32834z"/><path d="M428.62774,154.08057c1.98483,0 3.59386,0.56956 3.59386,1.27216c0,0.7026 -1.60903,1.27216 -3.59386,1.27216c-1.98483,0 -3.59385,-0.56956 -3.59385,-1.27216c0,-0.7026 1.60902,-1.27216 3.59385,-1.27216z"/><path d="M437.41631,155.35274c0,0.7026 -1.60902,1.27216 -3.59385,1.27216c-1.98483,0 -3.59386,-0.56956 -3.59386,-1.27216c0,-0.7026 1.60903,-1.27216 3.59386,-1.27216c1.98483,0 3.59385,0.56956 3.59385,1.27216z"/></g><g><path d="M420.96298,164.95753c0,-0.51732 0.34724,-1.93378 1.89185,-2.46478c0.81624,-0.2806 2.07779,-0.51977 3.1929,-0.49968c1.07356,0.01934 2.74206,-0.01096 3.43872,0.22931c2.9509,1.01773 2.16267,1.68125 2.16267,2.73515c0,1.05389 -2.39218,1.90824 -5.34307,1.90824c-2.9509,0 -5.34307,-0.85434 -5.34307,-1.90824z" fill="#be9c62" stroke-width="0"/><path d="M423.59387,164.97115c-0.5,0 -0.5,-0.5 -0.5,-0.5l0.03847,0.04129c-0.12017,-0.88779 -0.23991,0.10066 -0.24829,0.30225c0,0 -0.04152,0.49828 -0.5398,0.45675c-0.49827,-0.04153 -0.45675,-0.53979 -0.45675,-0.53979c0.1651,-1.50415 1.34647,-2.12373 2.16791,-0.60382l0.03846,0.34332c0,0 0,0.5 -0.5,0.5z" fill="#ffe2b1" stroke-width="0.5"/><path d="M429.78274,165.3138c-0.49029,0.09806 -0.58835,-0.39223 -0.58835,-0.39223l-0.05034,-0.25169c-0.22807,-1.15849 -0.92763,-0.90275 -1.13358,0.20135c0,0 -0.09806,0.49029 -0.58835,0.39223c-0.49029,-0.09806 -0.39223,-0.58835 -0.39223,-0.58835c0.43554,-2.07333 2.63407,-2.47403 3.09475,-0.20135l0.05034,0.25169c0,0 0.09806,0.49029 -0.39223,0.58835z" fill="#ffe2b1" stroke-width="0.5"/></g></g><path d="M343.4569,210.53553c-1.25,0 -1.25,-1.25 -1.25,-1.25l0.10773,-1.27045c2.03315,-4.55978 3.61916,-9.36963 5.58703,-13.96896c0,0 0.4924,-1.14893 1.64133,-0.65653c1.14893,0.4924 0.65654,1.64133 0.65654,1.64133c-1.97946,4.61149 -3.5709,9.4197 -5.60037,13.99951l0.10773,0.25511c0,0 0,1.25 -1.25,1.25z" fill="#5d5d5d" stroke-width="0.5"/><path d="M348.5998,209.64388c1.04007,0.69338 0.34669,1.73344 0.34669,1.73344l-0.73953,1.10795c-1.25958,2.19983 -2.21784,4.42902 -3.55125,6.59699c-0.54377,0.8841 -1.32621,2.89336 -2.7086,2.7628c-0.85406,-0.08066 -1.23521,-1.20303 -1.73789,-1.8982c-1.91359,-2.64636 -2.27285,-5.67165 -2.93263,-8.74675c0,0 -0.26191,-1.22225 0.96035,-1.48416c1.22226,-0.26191 1.48416,0.96034 1.48416,0.96034c0.47131,2.20214 0.66704,4.14443 1.67058,6.19692c0.19259,0.39389 0.5996,0.95351 0.84859,1.4462c0.09348,-0.20592 0.19411,-0.39713 0.27207,-0.524c0.42755,-0.69579 0.92362,-1.34895 1.33321,-2.05546c0.84805,-1.46283 1.38835,-3.08508 2.23479,-4.56901l0.78603,-1.18038c0,0 0.69337,-1.04006 1.73343,-0.34668z" fill="#5d5d5d" stroke-width="0.5"/><path d="M519.15787,236.09891c-1.22984,0.22361 -1.45344,-1.00623 -1.45344,-1.00623l-0.22524,-1.26128c-0.16213,-1.63323 -0.16934,-3.70612 -0.51299,-5.25776c-0.04014,-0.18123 -0.09427,0.39446 -0.2479,0.49863c-0.33669,0.2283 -0.77513,0.25695 -1.13788,0.44103c-1.46063,0.7412 -2.84517,1.62366 -4.27109,2.42962c0,0 -1.0882,0.61507 -1.70328,-0.47313c-0.61507,-1.0882 0.47313,-1.70328 0.47313,-1.70328c1.80353,-1.01938 3.74432,-2.55123 5.789,-3.04526c0.74962,-0.18112 1.66185,-0.79741 2.28749,-0.3465c1.519,1.09476 1.64126,5.52101 1.81111,7.2079l0.19732,1.06283c0,0 0.22361,1.22984 -1.00623,1.45344z" fill="#5d5d5d" stroke-width="0.5"/><path d="M483.37103,232.53263c0.22361,-1.22984 1.45344,-1.00623 1.45344,-1.00623l1.03432,0.1948c0.95177,0.07388 1.90745,0.10253 2.86208,0.10196c6.09168,0 12.06535,2.01576 18.06465,2.00718c3.13087,-0.00448 5.49014,0.68353 7.29108,-2.16777c0,0 0.67109,-1.05458 1.72567,-0.38348c1.05458,0.67109 0.38348,1.72567 0.38348,1.72567c-2.15548,3.36553 -4.4326,3.32558 -8.13254,3.32558c-6.47956,0 -12.79816,-2.00718 -19.33235,-2.00718c-1.01859,-0.00057 -2.03818,-0.03186 -3.05383,-0.10932l-1.28979,-0.22776c0,0 -1.22984,-0.22361 -1.00623,-1.45344z" fill="#5d5d5d" stroke-width="0.5"/></g></g></svg>