<svg version="1.1" xmlns="http://www.w3.org/2000/svg" xmlns:xlink="http://www.w3.org/1999/xlink" width="72.41953" height="72.43546" viewBox="0,0,72.41953,72.43546"><g transform="translate(-280.32968,-72.34653)"><g stroke="none" stroke-width="0" stroke-miterlimit="10"><g><path d="M342.56817,106.94931c0,8.21598 -7.42744,3.71908 -20.25644,3.71908c-12.829,0 -26.20148,4.4969 -26.20148,-3.71908c0,-8.21598 10.39996,-14.87634 23.22896,-14.87634c12.829,0 23.22895,6.66036 23.22895,14.87635z" fill="#c3dce2"/><path d="M329.86789,103.23021c0,2.054 -4.66225,3.71909 -10.41344,3.71909c-5.75118,0 -10.41344,-1.6651 -10.41344,-3.71909c0,-2.054 -1.53622,-3.34717 4.21496,-5.33069c1.35777,-0.46828 4.6096,-0.40924 6.70194,-0.44693c2.17332,-0.03915 4.63203,0.42699 6.22284,0.97386c3.01038,1.03489 3.68714,3.7955 3.68714,4.80375z" fill="#000000"/><path d="M315.05929,102.82324c0,1.25611 -0.44853,2.27439 -1.00181,2.27439c-0.55328,0 -1.00181,-1.01828 -1.00181,-2.27439c0,-1.25611 0.44853,-2.27439 1.00181,-2.27439c0.55328,0 1.00181,1.01828 1.00181,2.27439z" fill="#0091ff"/><path d="M327.24348,102.68785c0,1.03181 -0.33943,1.86825 -0.75813,1.86825c-0.4187,0 -0.75813,-0.83644 -0.75813,-1.86825c0,-1.03181 0.33943,-1.86825 0.75813,-1.86825c0.4187,0 0.75813,0.83644 0.75813,1.86825z" fill="#ff0000"/><g><path d="M317.63903,93.69949c-0.19486,0.00512 -0.0771,-0.37114 -0.09706,-0.63991c-0.083,-1.11768 -0.58232,-8.50865 -0.58232,-8.50865l4.07977,-0.30297c0,0 0.55894,6.91819 0.65048,8.15089c0.02549,0.34319 0.30134,0.91671 0.0289,0.99766c-0.24687,0.07336 -0.41659,0.11745 -0.64474,0.13439c-0.47297,0.03512 -1.94125,0.14643 -2.81706,0.21147c-0.30215,0.02244 -0.00557,0.06599 -0.61796,-0.0429z" fill="#797979"/><path d="M331.53337,84.51081c0,1.36933 -3.13592,2.47939 -7.00428,2.47939c-3.86836,0 -7.00428,-1.11006 -7.00428,-2.47939c0,-1.36933 3.13592,-2.47939 7.00428,-2.47939c3.86836,0 7.00428,1.11006 7.00428,2.47939z" fill="#c9c9c9"/><path d="M314.40481,82.03142c3.86836,0 7.00428,1.11006 7.00428,2.47939c0,1.36933 -3.13593,2.47939 -7.00428,2.47939c-3.86836,0 -7.00428,-1.11006 -7.00428,-2.47939c0,-1.36933 3.13592,-2.47939 7.00428,-2.47939z" fill="#c9c9c9"/></g><g fill="#c3dce2"><path d="M302.79134,113.38154c0,4.92233 -1.34014,8.91266 -2.9933,8.91266c-1.65316,0 -2.99331,-3.99034 -2.99331,-8.91266c0,-4.92233 1.34015,-8.91266 2.99331,-8.91266c1.65316,0 2.9933,3.99033 2.9933,8.91266z"/><path d="M299.59617,136.0972c-0.77718,0.00853 -1.3956,0.39619 -1.9602,-0.6206c-0.78473,-1.41322 -1.38285,-4.72908 -1.42235,-8.3261c-0.06792,-6.18504 1.08089,-9.48416 2.64285,-10.48941c2.44572,-1.57405 4.01535,4.23051 4.08326,10.41555c0.03431,3.12468 -0.41365,6.37954 -1.03727,7.85819c-0.61077,1.44823 -1.38728,1.15228 -2.30631,1.16237z"/><g><path d="M299.82538,137.23044c-2.49171,0.02736 -4.4713,0.11713 -4.48378,-1.01943c-0.01248,-1.13657 1.99733,-2.08012 4.48903,-2.10748c2.49171,-0.02736 4.52175,0.87183 4.53423,2.00839c0.01248,1.13657 -2.04777,1.09115 -4.53947,1.11851z"/><path d="M304.5537,137.08324c0.01668,1.51907 -0.70346,3.23354 -1.46846,3.24194c-0.765,0.0084 -1.39867,-1.21624 -1.41535,-2.7353c-0.01668,-1.51907 0.58994,-2.75732 1.35494,-2.76572c0.76499,-0.0084 1.51219,0.74002 1.52887,2.25909z"/><path d="M296.52124,134.89556c0.765,-0.0084 1.39867,1.21624 1.41535,2.7353c0.01668,1.51907 -0.58994,2.75732 -1.35494,2.76572c-0.765,0.0084 -1.52262,-1.68984 -1.5393,-3.20891c-0.01668,-1.51907 0.71389,-2.28372 1.47889,-2.29212z"/></g></g><g fill="#c3dce2"><path d="M340.80552,113.38154c0,4.92233 -1.34014,8.91266 -2.9933,8.91266c-1.65316,0 -2.99331,-3.99034 -2.99331,-8.91266c0,-4.92233 1.34015,-8.91266 2.99331,-8.91266c1.65316,0 2.9933,3.99033 2.9933,8.91266z"/><path d="M337.61035,136.0972c-0.77718,0.00853 -1.3956,0.39619 -1.9602,-0.6206c-0.78473,-1.41322 -1.38285,-4.72908 -1.42235,-8.3261c-0.06792,-6.18504 1.08089,-9.48416 2.64285,-10.48941c2.44572,-1.57405 4.01535,4.23051 4.08326,10.41555c0.03431,3.12468 -0.41365,6.37954 -1.03727,7.85819c-0.61077,1.44823 -1.38728,1.15228 -2.30631,1.16237z"/><g><path d="M337.83955,137.23044c-2.49171,0.02736 -4.4713,0.11713 -4.48378,-1.01943c-0.01248,-1.13657 1.99733,-2.08012 4.48903,-2.10748c2.49171,-0.02736 4.52175,0.87183 4.53423,2.00839c0.01248,1.13657 -2.04777,1.09115 -4.53947,1.11851z"/><path d="M342.56788,137.08324c0.01668,1.51907 -0.70346,3.23354 -1.46846,3.24194c-0.765,0.0084 -1.39867,-1.21624 -1.41535,-2.7353c-0.01668,-1.51907 0.58994,-2.75732 1.35494,-2.76572c0.76499,-0.0084 1.51219,0.74002 1.52887,2.25909z"/><path d="M334.53542,134.89556c0.765,-0.0084 1.39867,1.21624 1.41535,2.7353c0.01668,1.51907 -0.58994,2.75732 -1.35494,2.76572c-0.765,0.0084 -1.52262,-1.68984 -1.5393,-3.20891c-0.01668,-1.51907 0.71389,-2.28372 1.47889,-2.29212z"/></g></g><path d="M287.45295,140.39662v-61.54522h61.53168v61.54522z" fill="none"/><path d="M280.32968,144.78199v-72.43545h72.41953v72.43546z" fill="none"/></g></g></g></svg>