<svg version="1.1" xmlns="http://www.w3.org/2000/svg" xmlns:xlink="http://www.w3.org/1999/xlink" width="815.97682" height="433.08365" viewBox="0,0,815.97682,433.08365"><g transform="translate(43.18137,24.19239)"><g stroke="none" stroke-miterlimit="10"><path d="M666.13677,-7.38789v31.93804h-670.57563v-31.93804z" fill="#9e9898" stroke-width="0"/><path d="M24.57503,-23.44239c0,-0.41421 0.33579,-0.75 0.75,-0.75c0.41421,0 0.75,0.33579 0.75,0.75c0,0.41421 -0.33579,0.75 -0.75,0.75c-0.41421,0 -0.75,-0.33579 -0.75,-0.75z" fill="#ffe2b1" stroke-width="0.5"/><path d="" fill="#000000" stroke-width="0.5"/><path d="" fill="#000000" stroke-width="0.5"/><path d="M-43.18137,366.64847v-51.04752h755.48697v51.04752z" fill="#9e9898" stroke-width="0"/><path d="M772.79545,13.57741v395.31386h-56.85456v-395.31384z" fill="#9e9898" stroke-width="0"/><path d="M55.85433,3.14017v238.34721h-76.55437v-238.34721z" fill="#9e9898" stroke-width="0"/><path d="M649.43399,327.54543v-67.96116h40.60017v67.96116z" fill="#ff0000" stroke-width="0"/><path d="M28.76047,153.88789v-22.51407h160.43937v22.51407z" fill="#9e9898" stroke-width="0"/><path d="M583.14544,241.4874v-242.80289h56.85456v242.80289z" fill="#9e9898" stroke-width="0"/><path d="M109.4359,90.03022v-19.78172h302.24334v19.78172z" fill="#9e9898" stroke-width="0"/><path d="M230.12753,203.26349v-60.97561h24.55662v60.97561z" fill="#9e9898" stroke-width="0"/><path d="M157.82194,203.94562v-60.97561h31.3779v60.97561z" fill="#9e9898" stroke-width="0"/><path d="M230.12753,208.03838v-27.28513h365.1498v27.28513z" fill="#9e9898" stroke-width="0"/><path d="M315.16,139.82556v-55.25239h31.3779v55.25239z" fill="#9e9898" stroke-width="0"/><path d="M507.39912,135.05066v-64.80217h24.55662v64.80217z" fill="#9e9898" stroke-width="0"/><path d="M425.89834,194.39583v-67.96116h41.60982v67.96116z" fill="#9e9898" stroke-width="0"/><path d="M410.20939,90.03022v-19.78172h105.72988v19.78172z" fill="#9e9898" stroke-width="0"/></g></g></svg>