<svg version="1.1" xmlns="http://www.w3.org/2000/svg" xmlns:xlink="http://www.w3.org/1999/xlink" width="61.53168" height="61.54522" viewBox="0,0,61.53168,61.54522"><g transform="translate(-289.72126,-78.85141)"><g stroke="none" stroke-width="0" stroke-miterlimit="10"><g fill="#a8c0c5"><path d="M316.4373,109.08695c0,4.92233 -1.34014,8.91266 -2.9933,8.91266c-1.65316,0 -2.99331,-3.99034 -2.99331,-8.91266c0,-4.92233 1.34015,-8.91266 2.99331,-8.91266c1.65316,0 2.9933,3.99033 2.9933,8.91266z"/><path d="M313.24217,131.80257c-0.77718,0.00853 -1.3956,0.39619 -1.9602,-0.6206c-0.78473,-1.41322 -1.38285,-4.72908 -1.42235,-8.3261c-0.06792,-6.18504 1.08089,-9.48416 2.64285,-10.48941c2.44572,-1.57405 4.01535,4.23051 4.08326,10.41555c0.03431,3.12468 -0.41365,6.37954 -1.03727,7.85819c-0.61077,1.44823 -1.38728,1.15228 -2.30631,1.16237z"/><g><path d="M313.47133,132.93584c-2.49171,0.02736 -4.4713,0.11713 -4.48378,-1.01943c-0.01248,-1.13657 1.99733,-2.08012 4.48903,-2.10748c2.49171,-0.02736 4.52175,0.87183 4.53423,2.00839c0.01248,1.13657 -2.04777,1.09115 -4.53947,1.11851z"/><path d="M318.19967,132.78864c0.01668,1.51907 -0.70346,3.23354 -1.46846,3.24194c-0.765,0.0084 -1.39867,-1.21624 -1.41535,-2.7353c-0.01668,-1.51907 0.58994,-2.75732 1.35494,-2.76572c0.76499,-0.0084 1.51219,0.74002 1.52887,2.25909z"/><path d="M310.16725,130.60096c0.765,-0.0084 1.39867,1.21624 1.41535,2.7353c0.01668,1.51907 -0.58994,2.75732 -1.35494,2.76572c-0.765,0.0084 -1.52262,-1.68984 -1.5393,-3.20891c-0.01668,-1.51907 0.71389,-2.28372 1.47889,-2.29212z"/></g></g><path d="M342.47757,103.3132c0,0 0.12144,0.20241 0.33652,0.24564c0.00832,0.02529 0.01499,0.03997 0.01499,0.03997c0.42645,0.93787 0.51597,2.19741 0.75683,3.35198c-0.00093,8.21397 -7.74488,3.71761 -21.11999,3.71761c-13.37591,0 -27.31847,4.4969 -27.31847,-3.71908c0,-8.21598 10.84332,-14.87634 24.21923,-14.87634c7.68388,0 14.532,2.19792 18.96889,5.62605c0.97333,1.69736 2.37243,3.01141 3.5811,4.46938c0.09662,0.20979 0.18722,0.42367 0.26953,0.64317l0.29138,0.50163z" fill="#c3dce2"/><path d="M338.15973,97.37902c0.97508,1.8551 2.4734,3.24109 3.75695,4.78939c0.09662,0.20979 0.18722,0.42367 0.26953,0.64317l0.29138,0.50163c0,0 0.12144,0.20241 0.33652,0.24564c0.00832,0.02529 0.01499,0.03997 0.01499,0.03997c0.39916,0.87786 0.50314,2.03755 0.71233,3.12919c-0.18353,0.00344 -0.36831,0.00518 -0.55423,0.00518c-5.75118,0 -10.41344,-1.6651 -10.41344,-3.71909c0,-2.054 -1.53622,-3.34717 4.21496,-5.33069c0.42616,-0.14698 0.87201,-0.24201 1.37101,-0.30439z" fill="#000000"/><path d="" fill="#000000"/><path d="" fill="#000000"/><path d="" fill="#000000"/><path d="" fill="#000000"/><path d="" fill="#000000"/><path d="" fill="#000000"/><path d="" fill="#000000"/><path d="M338.59203,102.60711c0,1.25611 -0.44853,2.27439 -1.00181,2.27439c-0.55328,0 -1.00181,-1.01828 -1.00181,-2.27439c0,-1.25611 0.44853,-2.27439 1.00181,-2.27439c0.55328,0 1.00181,1.01828 1.00181,2.27439z" fill="#0091ff"/><g><path d="M317.66652,93.69951c-0.19486,0.00512 -0.0771,-0.37114 -0.09706,-0.63991c-0.083,-1.11768 -0.58232,-8.50865 -0.58232,-8.50865l4.07977,-0.30297c0,0 0.55894,6.91819 0.65048,8.15089c0.02549,0.34319 0.30134,0.91671 0.0289,0.99766c-0.24687,0.07336 -0.41659,0.11745 -0.64474,0.13439c-0.47297,0.03512 -1.94125,0.14643 -2.81706,0.21147c-0.30215,0.02244 -0.00557,0.06599 -0.61796,-0.0429z" fill="#797979"/><path d="M331.56086,84.51083c0,1.36933 -3.13592,2.47939 -7.00428,2.47939c-3.86836,0 -7.00428,-1.11006 -7.00428,-2.47939c0,-1.36933 3.13592,-2.47939 7.00428,-2.47939c3.86836,0 7.00428,1.11006 7.00428,2.47939z" fill="#c9c9c9"/><path d="M314.43229,82.03145c3.86836,0 7.00428,1.11006 7.00428,2.47939c0,1.36933 -3.13593,2.47939 -7.00428,2.47939c-3.86836,0 -7.00428,-1.11006 -7.00428,-2.47939c0,-1.36933 3.13592,-2.47939 7.00428,-2.47939z" fill="#c9c9c9"/></g><g fill="#c3dce2"><path d="M321.19326,112.77012c0,4.92233 -1.34014,8.91266 -2.9933,8.91266c-1.65316,0 -2.99331,-3.99034 -2.99331,-8.91266c0,-4.92233 1.34015,-8.91266 2.99331,-8.91266c1.65316,0 2.9933,3.99033 2.9933,8.91266z"/><path d="M317.99809,135.48577c-0.77718,0.00853 -1.3956,0.39619 -1.9602,-0.6206c-0.78473,-1.41322 -1.38285,-4.72908 -1.42235,-8.3261c-0.06792,-6.18504 1.08089,-9.48416 2.64285,-10.48941c2.44572,-1.57405 4.01535,4.23051 4.08326,10.41555c0.03431,3.12468 -0.41365,6.37954 -1.03727,7.85819c-0.61077,1.44823 -1.38728,1.15228 -2.30631,1.16237z"/><g><path d="M318.22731,136.61901c-2.49171,0.02736 -4.4713,0.11713 -4.48378,-1.01943c-0.01248,-1.13657 1.99733,-2.08012 4.48903,-2.10748c2.49171,-0.02736 4.52175,0.87183 4.53423,2.00839c0.01248,1.13657 -2.04777,1.09115 -4.53947,1.11851z"/><path d="M322.95563,136.47179c0.01668,1.51907 -0.70346,3.23354 -1.46846,3.24194c-0.765,0.0084 -1.39867,-1.21624 -1.41535,-2.7353c-0.01668,-1.51907 0.58994,-2.75732 1.35494,-2.76572c0.76499,-0.0084 1.51219,0.74002 1.52887,2.25909z"/><path d="M314.92316,134.28415c0.765,-0.0084 1.39867,1.21624 1.41535,2.7353c0.01668,1.51907 -0.58994,2.75732 -1.35494,2.76572c-0.765,0.0084 -1.52262,-1.68984 -1.5393,-3.20891c-0.01668,-1.51907 0.71389,-2.28372 1.47889,-2.29212z"/></g></g><path d="M289.72126,140.39664v-61.54522h61.53168v61.54522z" fill="none"/></g></g></svg>