<svg version="1.1" xmlns="http://www.w3.org/2000/svg" xmlns:xlink="http://www.w3.org/1999/xlink" width="86.91154" height="159.07915" viewBox="0,0,86.91154,159.07915"><g transform="translate(-276.54423,-100.46042)"><g stroke="none" stroke-miterlimit="10"><path d="M328.97542,209.53108c-2.5,0 -2.5,-2.5 -2.5,-2.5v-1.04404c0,-6.13213 0.17902,-12.12756 -0.80495,-18.19595c-0.93761,-5.78246 -2.30248,-11.54379 -3.61329,-17.3173c-0.04097,6.65944 0.02138,13.32478 0.02192,19.97563c0.23228,0.5014 0.23488,1.02831 0.18465,1.41647c0.00505,0.03086 0.00703,0.04777 0.00703,0.04777c0.88819,7.57682 4.06306,14.27961 5.60601,21.72478c2.44245,11.78548 3.18101,23.99114 3.18101,35.98927c0,0.43285 0,0.8657 0,1.29855c0.42692,0.55895 0.71887,1.40361 0.15368,2.53398c-1.11803,2.23607 -3.3541,1.11803 -3.3541,1.11803l-1.79958,-2.44488c0,-0.83523 0,-1.67046 0,-2.50569c0,-11.68133 -0.7129,-23.52853 -3.0832,-35.00514c-0.90881,-4.40032 -2.36416,-8.53785 -3.6043,-12.7475c-1.60636,7.06087 -2.51028,14.39887 -4.03394,21.36499c-1.99451,9.11883 -4.66082,18.16959 -6.00079,27.4001c0.0021,0.77615 0.00419,1.55231 0.00629,2.32846v1.04404c0,0 0,2.5 -2.5,2.5c-2.5,0 -2.5,-2.5 -2.5,-2.5v-1.04404c0.0021,-0.8943 0.00419,-1.78861 0.00629,-2.68291c1.33647,-9.4901 4.06079,-18.77581 6.11002,-28.14259c2.20211,-10.0656 3.20679,-20.76205 6.64378,-30.49034c-0.02286,-0.17293 -0.02286,-0.28225 -0.02286,-0.28225v-0.83523c0,-10.80524 -0.20554,-21.66362 0.2105,-32.45714c0.01884,-0.48866 0.05308,-0.97116 0.09888,-1.44891c-2.86739,7.0435 -6.09931,13.94873 -8.70387,21.0996c-4.08864,11.22543 -6.11949,23.923 -7.9329,35.73775l0.02907,1.91674c0,0 0,2.5 -2.5,2.5c-2.5,0 -2.5,-2.5 -2.5,-2.5l0.02907,-2.67702c1.87444,-12.15688 3.98867,-25.12541 8.1751,-36.68426c3.87775,-10.7066 9.22736,-20.84507 12.57829,-31.74192c0,0 0.01539,-0.05002 0.04896,-0.13337c-1.37488,-0.95157 -2.63418,-1.98738 -3.82281,-3.0954c-0.90394,-0.32816 -1.79877,-0.67697 -2.66193,-1.09895c-6.73859,-3.29438 -10.20615,-9.89013 -12.16242,-16.80143c-1.30381,-4.60626 -2.85804,-11.22889 0.97761,-15.32113c5.13676,-5.48041 16.11404,-4.40865 22.83566,-3.92325c5.51735,1.03719 13.29211,2.8107 17.07095,7.3746c1.25509,1.51584 2.57311,4.73166 3.29022,6.45908c3.58663,8.63969 3.23747,23.16591 -6.6979,27.67052c-3.24875,1.47296 -7.71691,1.2304 -11.70087,0.97301c-0.03272,1.15011 -0.15094,2.26831 -0.30712,3.37293c1.09887,12.53413 5.16175,24.86871 7.17634,37.25858c1.02903,6.3286 0.8655,12.57912 0.8655,18.97171v1.04404c0,0 0,2.5 -2.5,2.5zM320.17485,140.66705c0.34706,0.23088 0.70215,0.45534 1.066,0.67299c3.5265,-0.13037 8.87827,1.03786 12.12638,-0.47864c5.37614,-2.51005 5.42627,-7.98314 5.42781,-12.96822c0.00148,-4.77685 -0.74514,-9.51104 -3.82411,-13.45625c-1.23326,-1.58023 -1.82291,-1.42568 -3.6431,-2.20489c-3.45219,-1.47786 -6.49402,-2.67583 -10.1894,-3.36655c-4.37502,-0.30847 -8.83834,-0.50726 -13.15641,0.38482c-1.22632,0.25335 -4.20465,0.78294 -5.35173,1.95613c-2.44001,2.49554 -0.58947,8.0364 0.14238,10.57095c0.67978,2.35422 1.5309,4.72717 2.71166,6.87529c1.12636,-0.74689 2.47559,-0.07227 2.47559,-0.07227l1.25175,0.88314c2.0384,2.54871 3.98343,5.01583 6.17807,7.2211c1.10572,0.39179 2.21785,0.76922 3.29491,1.23029c0,0 1.94214,0.83235 1.49022,2.75211z" fill="#000000" stroke-width="0.5"/><path d="M276.54423,259.53957v-159.07915h86.91154v159.07915z" fill-opacity="0" fill="#9e9898" stroke-width="0"/></g></g></svg>