<svg version="1.1" xmlns="http://www.w3.org/2000/svg" xmlns:xlink="http://www.w3.org/1999/xlink" width="816.69822" height="374.0362" viewBox="0,0,816.69822,374.0362"><g transform="translate(70.68115,7.388)"><g stroke-miterlimit="10"><path d="M-18.56392,366.6482v-51.04752h764.58097v51.04752z" fill="#9e9898" stroke="none" stroke-width="0"/><path d="M746.01708,-7.388v31.93804h-801.30168v-31.93804z" fill="#9e9898" stroke="none" stroke-width="0"/><path d="M33.55333,3.14006v238.34721h-104.23448v-238.34721z" fill="#9e9898" stroke="none" stroke-width="0"/><path d="M695.32366,3.14006v238.34721h-107.32889v-238.34721z" fill="#9e9898" stroke="none" stroke-width="0"/><path d="M227.34268,235.21169v-21.1794h247.59336v21.1794z" fill="#9e9898" stroke="none" stroke-width="0"/><path d="M170.00077,188.55586v-17.10628h247.59336v17.10628z" fill="#9e9898" stroke="none" stroke-width="0"/><path d="M170.00077,137.25156v-131.32698h315.10736v131.32698z" fill="#9e9898" stroke="none" stroke-width="0"/><path d="M464.76396,235.21169v-210.66165h20.34417v210.66165z" fill="#9e9898" stroke="none" stroke-width="0"/><path d="M170.00077,175.38338v-172.24332h20.34417v172.24332z" fill="#9e9898" stroke="none" stroke-width="0"/><path d="M246.89532,96.25718l-2.11781,-63.42072l51.72613,-1.72729l2.11781,63.42072z" fill="#be9c62" stroke="none" stroke-width="0"/><text transform="translate(245.92314,43.2505) rotate(-1.88301) scale(0.18549,0.21555) skewX(-0.56795)" font-size="40" xml:space="preserve" fill="#ffe2b1" stroke="none" stroke-width="1" font-family="Sans Serif" font-weight="normal" text-anchor="start"><tspan x="0" dy="0">Las llaves</tspan><tspan x="0" dy="48px">abren puertas</tspan><tspan x="0" dy="48px">amarillas</tspan></text><path d="M255.6064,88.81821v-21h36.5v21z" fill="none" stroke="none" stroke-width="NaN"/><g fill="#be9c62"><path d="M258.47076,70.70793c4.4045,-0.61972 8.47745,2.44845 9.09716,6.85295c0.61972,4.4045 -2.44846,8.47744 -6.85297,9.09716c-4.4045,0.61972 -8.47744,-2.44845 -9.09716,-6.85295c-0.61972,-4.4045 2.44845,-8.47744 6.85296,-9.09716zM259.85711,81.4685c1.49721,-0.21066 2.54018,-1.59517 2.32952,-3.09239c-0.21066,-1.49721 -1.59517,-2.54018 -3.09239,-2.32952c-1.49721,0.21066 -2.54018,1.59517 -2.32952,3.09239c0.21066,1.49721 1.59517,2.54018 3.09239,2.32952z" stroke="#ffe2b1" stroke-width="2"/><path d="M268.04706,80.96625l-0.9037,-6.42286l18.04824,-2.5394l0.9037,6.42286z" stroke="#ffe2b1" stroke-width="2"/><path d="M284.23272,85.75075l-0.85852,-6.10172l3.12008,-0.43899l0.85852,6.10172z" stroke="#ffe2b1" stroke-width="1.5"/><path d="M277.08416,86.75656l-0.85852,-6.10172l3.12008,-0.439l0.85852,6.10172z" stroke="#ffe2b1" stroke-width="1.5"/><path d="M270.13262,87.73465l-0.85852,-6.10172l3.12008,-0.439l0.85852,6.10172z" stroke="#ffe2b1" stroke-width="1.5"/><path d="M270.40547,83.70947l-0.73289,-5.20884l1.47425,-0.20743l0.73289,5.20883z" stroke="#a39300" stroke-width="0"/><path d="M277.33256,82.55755l-0.73289,-5.20884l1.47425,-0.20743l0.73289,5.20883z" stroke="#a39300" stroke-width="0"/><path d="M284.61721,82.51895l-1.28625,-9.14175l1.47424,-0.20743l1.28626,9.14175z" stroke="#a39300" stroke-width="0"/><path d="M266.28751,80.5241l-0.62473,-4.85251l19.14242,-2.9435l0.62473,4.8525z" stroke="none" stroke-width="0"/></g><path d="M323.64401,96.37659l9.47049,-77.28162l63.03112,7.72417l-9.47049,77.28162z" fill="#be9c62" stroke="none" stroke-width="0"/><text transform="translate(333.99652,33.21277) rotate(7.01669) scale(0.18566,0.21575) skewX(-0.56721)" font-size="40" xml:space="preserve" fill="#ffe2b1" stroke="none" stroke-width="1" font-family="Sans Serif" font-weight="normal" text-anchor="start"><tspan x="0" dy="0">Todos los niveles</tspan><tspan x="0" dy="48px">tienen 3 zonas</tspan></text><g fill="#ffe2b1" stroke="none" stroke-width="0.5"><path d="M352.74764,69.00239c-0.85922,0.38526 -1.24448,-0.47394 -1.24448,-0.47394l-0.41882,-0.93418c-0.08463,-0.20121 -0.50523,-1.77797 -0.70638,-2.60785c-0.10137,1.11045 -1.25676,3.50999 -1.37475,3.84108c0,0 -0.31614,0.88699 -1.20311,0.57085c-0.88698,-0.31614 -0.57085,-1.20311 -0.57085,-1.20311c0.59221,-1.66143 1.78745,-7.79955 4.53215,-4.52461c0.71527,0.85344 0.61327,2.14694 1.0495,3.17148l0.41071,0.91582c0,0 0.38526,0.85921 -0.47395,1.24447z"/><path d="M367.42834,74.5557c-0.88623,0.31823 -1.20446,-0.568 -1.20446,-0.568l-0.18581,-0.51903c-0.80227,-2.0177 -1.35707,-4.04495 -1.91711,-6.13689c-0.51823,1.55039 -0.98993,3.11813 -1.68054,4.59144c0,0 -0.40164,0.85169 -1.25332,0.45005c-0.85169,-0.40164 -0.45004,-1.25332 -0.45004,-1.25332c0.92286,-1.94384 1.43942,-4.08511 2.21033,-6.10425l0.03485,-0.03712l-0.01396,-0.00705l0.44879,-0.8886c0.16889,-0.35482 0.55032,-0.57928 0.96212,-0.53008c0.37325,0.04459 0.66928,0.30179 0.78142,0.63595l0.38725,1.07843l-0.20547,0.07378c1.07639,2.34948 1.46487,4.96675 2.44562,7.43164l0.20834,0.5786c0,0 0.31823,0.88624 -0.56799,1.20447z"/><path d="M355.46923,75.52246c-0.8843,-0.1443 -1.76248,-0.31224 -2.63097,-0.51438c0,0 -0.91693,-0.21426 -0.70266,-1.1312c0.21427,-0.91694 1.1312,-0.70267 1.1312,-0.70267c4.35184,1.02128 8.96243,1.23999 13.39863,1.76997c0.92069,0.10999 3.98039,0.11616 4.50104,0.87307c0.72656,1.05626 -0.93165,3.025 -1.41232,3.59354c-2.03633,2.40866 -4.79283,3.29959 -7.8563,3.58197c-1.52701,0.11956 -5.22243,0.62813 -6.39806,-0.79291c-1.39343,-1.6843 -0.74253,-4.75472 -0.03057,-6.6774zM357.46458,75.8113c-0.05074,0.21669 -0.15155,0.36583 -0.27087,0.46819c-0.4777,1.29103 -1.06643,3.53989 -0.31812,4.63435c0.52179,0.76315 4.13873,0.25964 4.86391,0.20233c1.78984,-0.1571 3.95985,-0.48009 5.38144,-1.70876c0.42988,-0.37153 0.82656,-0.7828 1.19641,-1.21413c0.30533,-0.35608 0.51833,-0.78732 0.8211,-1.1441c-1.25518,0.31715 -3.57229,-0.33966 -4.56639,-0.45842c-2.34928,-0.28066 -4.7406,-0.47461 -7.10747,-0.77945z"/><path d="M358.06455,82.45163c-0.74011,0.58215 -1.32227,-0.15797 -1.32227,-0.15797l-0.16591,-0.23411c-1.37529,-2.67699 -0.52097,-5.56342 1.77743,-7.39286c0,0 0.74012,-0.58215 1.32227,0.15797c0.58215,0.74011 -0.15797,1.32226 -0.15797,1.32226c-1.5476,1.19957 -2.30749,3.21971 -1.28169,5.02328l-0.01391,-0.04086c0,0 0.58215,0.74012 -0.15797,1.32227z"/><path d="M362.60543,82.16178c-0.7772,0.53163 -1.30883,-0.24557 -1.30883,-0.24557l-0.67593,-1.15607c-0.27891,-1.98079 0.2341,-3.60834 0.81251,-5.48726c0,0 0.27716,-0.89993 1.17708,-0.62277c0.89993,0.27716 0.62277,1.17708 0.62277,1.17708c-0.48764,1.58271 -1.01378,2.98663 -0.74949,4.65645l0.36747,0.3693c0,0 0.53163,0.7772 -0.24557,1.30883z"/><path d="M369.75426,76.51192c0.12089,0.27064 0.08775,0.54799 0.08775,0.54799l-0.08613,0.68838c-0.26568,0.5425 -0.20193,1.5239 -0.79704,1.62748c-3.44445,0.5995 -1.74843,-3.00355 -0.64843,-3.77267c0,0 0.80661,-0.48586 1.29247,0.32075c0.1333,0.2213 0.16931,0.41847 0.15138,0.58807z"/></g><path d="M377.96305,71.58807c0,11.14166 -9.06711,20.17376 -20.25196,20.17376c-11.18484,0 -20.25195,-9.0321 -20.25195,-20.17376c0,-11.14166 9.06711,-20.17376 20.25195,-20.17376c11.18484,0 20.25196,9.0321 20.25196,20.17376z" fill="none" stroke="#ffe2b1" stroke-width="3"/></g></g></svg>