<svg version="1.1" xmlns="http://www.w3.org/2000/svg" xmlns:xlink="http://www.w3.org/1999/xlink" width="193.15386" height="102.38461" viewBox="0,0,193.15386,102.38461"><g transform="translate(-223.42307,-128.80769)"><g stroke-miterlimit="10"><path d="M228.92308,211.96581c0,-19.12096 0,-55.72193 0,-66.53846c0,-6.62373 6.21233,-11.11966 14.87063,-11.11966c21.6955,0 118.47262,0 153.84615,0c8.37473,0 13.43707,6.40332 13.43707,12.2735c0,11.17764 -0.38462,48.55082 -0.38462,67.30769c0,6.25213 -2.86609,11.80342 -6.89861,11.80342c-16.85999,0 -132.26463,0 -165.76923,0c-5.76171,0 -9.1014,-5.54467 -9.1014,-13.7265z" fill="#00aaff" stroke="#07436b" stroke-width="11"/><text transform="translate(242.76317,176.91062) scale(1.16412,1.16412)" font-size="40" xml:space="preserve" fill="#ffffff" stroke="none" stroke-width="1" font-family="&quot;Audiowide-Regular&quot;, Sans Serif" font-weight="normal" text-anchor="start"><tspan x="0" dy="0">Jugar</tspan></text><text transform="translate(264.24164,206.02198) scale(0.72283,0.72283)" font-size="40" xml:space="preserve" fill="#ffffff" stroke="none" stroke-width="1" font-family="&quot;Audiowide-Regular&quot;, Sans Serif" font-weight="normal" text-anchor="start"><tspan x="0" dy="0">(Start)</tspan></text></g></g></svg>