<svg version="1.1" xmlns="http://www.w3.org/2000/svg" xmlns:xlink="http://www.w3.org/1999/xlink" width="670.57563" height="119.54007" viewBox="0,0,670.57563,119.54007"><defs><linearGradient x1="429.3016" y1="111.91998" x2="429.3016" y2="93.85371" gradientUnits="userSpaceOnUse" id="color-1"><stop offset="0" stop-color="#ffffff" stop-opacity="0"/><stop offset="1" stop-color="#ffffff" stop-opacity="0.76471"/></linearGradient><linearGradient x1="523.07526" y1="53.00293" x2="505.00899" y2="53.00293" gradientUnits="userSpaceOnUse" id="color-2"><stop offset="0" stop-color="#ffffff" stop-opacity="0"/><stop offset="1" stop-color="#ffffff" stop-opacity="0.76471"/></linearGradient><linearGradient x1="332.67955" y1="53.00294" x2="350.74582" y2="53.00294" gradientUnits="userSpaceOnUse" id="color-3"><stop offset="0" stop-color="#ffffff" stop-opacity="0"/><stop offset="1" stop-color="#ffffff" stop-opacity="0.76471"/></linearGradient></defs><g transform="translate(4.43888,7.38791)"><g stroke="none" stroke-width="0" stroke-miterlimit="10"><path d="M504.1637,94.2288c0,0 6.38569,6.52203 2.19194,11.02095c-1.89394,2.03177 -5.67171,5.22449 -9.27366,5.22449c-22.00511,0 -103.84534,1.00274 -132.13688,1.67178c-5.90429,0.13963 -13.88143,-2.13284 -13.88143,-3.68344c0,-3.18737 0,-14.60888 0,-14.60888z" fill="url(#color-1)"/><path d="M505.00899,8.58111c0,0 11.42151,0 14.60888,0c1.55059,0 3.82306,4.52924 3.68343,7.88157c-0.66903,16.06332 -1.67178,60.07008 -1.67178,72.56411c0,2.04511 -2.85939,4.56856 -4.89116,5.6439c-4.49893,2.38112 -11.72938,2.75405 -11.72938,2.75405z" fill="url(#color-2)"/><path d="M350.74582,97.42476c0,0 -7.23046,-0.37293 -11.72938,-2.75405c-2.03177,-1.07534 -4.89116,-3.59879 -4.89116,-5.6439c0,-12.49403 -1.00274,-56.50078 -1.67178,-72.56411c-0.13963,-3.35233 2.13284,-7.88158 3.68344,-7.88158c3.18737,0 14.60888,0 14.60888,0z" fill="url(#color-3)"/><path d="M507.19098,8.58112v88.84364h-156.47588v-88.84364z" fill="#9e9898"/><path d="M666.13675,-7.3879v31.93804h-670.57563v-31.93804z" fill="#9e9898"/></g></g></svg>