<svg version="1.1" xmlns="http://www.w3.org/2000/svg" xmlns:xlink="http://www.w3.org/1999/xlink" width="86.91154" height="159.07915" viewBox="0,0,86.91154,159.07915"><g transform="translate(-196.54423,-100.46043)"><g stroke="none" stroke-miterlimit="10"><path d="" fill="#000000" stroke-width="0.5"/><path d="" fill="#000000" stroke-width="0.5"/><path d="" fill="#000000" stroke-width="0.5"/><path d="M248.08383,253.86232c-2.5,0 -2.5,-2.40941 -2.5,-2.40941l0.02193,-1.39172c0.13016,-0.93348 0.26033,-1.86697 0.39049,-2.80045c2.17918,-8.95576 3.02812,-19.14691 1.47723,-28.32833c-0.68205,-4.03779 -1.89041,-8.02027 -2.83819,-12.01721c-0.06098,0.48221 -0.12889,0.95816 -0.20412,1.42687c-0.82924,5.16615 -3.05999,9.78753 -4.95961,14.62621c-2.71827,6.92396 -5.84201,13.9614 -9.87393,20.28682c-1.64914,2.46887 -3.05525,5.0348 -4.71216,7.49858l-0.82443,2.10079c0,0 -0.89745,2.24881 -3.23081,1.38389c-2.33336,-0.86493 -1.43592,-3.11374 -1.43592,-3.11374l1.03163,-2.55012c1.72121,-2.59968 3.21085,-5.29029 4.93939,-7.88519c3.8631,-6.03854 6.83905,-12.80653 9.42917,-19.42477c1.76794,-4.51744 3.9019,-8.82069 4.69194,-13.637c1.02841,-6.26945 0.59841,-14.0519 -0.11022,-20.42943h-0.21983c0.00196,-0.23755 0.00458,-0.47509 0.00795,-0.71263c-0.05405,-0.0142 -0.10809,-0.02826 -0.16211,-0.04217c-0.00175,-2.69343 -0.0163,-5.39016 -0.02936,-8.08821c-0.04654,-0.08541 -0.08754,-0.18457 -0.12359,-0.29487l0.00001,-0.00001c-0.10809,-0.26559 -0.16866,-0.55417 -0.17164,-0.85602c-0.1583,-1.34779 -0.00647,-3.1563 -0.00011,-3.40116c0.02462,-0.94809 0.13495,-1.85902 0.2742,-2.76213c0.00187,-3.77587 0.03197,-7.55087 0.12948,-11.3196c0.02278,-0.11801 0.0451,-0.23589 0.06694,-0.35369c-0.51667,-3.32543 -1.14762,-6.42078 -0.67241,-10.88787c0.06843,-0.64328 -0.56479,-3.88447 -0.12213,-6.33369c-0.01728,-0.0117 -0.03454,-0.02341 -0.05178,-0.03514c-0.04155,-0.05859 -0.08784,-0.11264 -0.13821,-0.16277c-0.31534,-0.40057 -0.7577,-0.70315 -1.26928,-0.852c-0.75781,-0.578 -1.48197,-1.18247 -2.18165,-1.81106c-0.90394,-0.31627 -1.79877,-0.65244 -2.66193,-1.05913c-6.73859,-3.17501 -10.20615,-9.53175 -12.16242,-16.19262c-1.30381,-4.43935 -2.85804,-10.822 0.97761,-14.76596c5.13676,-5.28182 16.11404,-4.2489 22.83566,-3.78109c5.51735,0.99961 13.29211,2.70885 17.07095,7.10738c1.25509,1.46091 2.57311,4.5602 3.29022,6.22503c3.58663,8.32662 3.23747,22.32648 -6.6979,26.66786c-2.66548,1.16472 -6.15181,1.21646 -9.5181,1.0605l-0.16401,-0.03951l-0.10933,-0.05268l-0.01394,-0.0235l-0.06966,-0.01678l-0.0623,-0.03003l-0.56076,-0.12009l-0.55728,-0.13427h-0.06966l-0.07009,-0.01501l-0.02337,0.01501h-0.46273l-1.25,0.30118l-0.04898,0.0826l-0.09857,0.00527l-0.40089,0.45076l-0.00669,0.00129l-0.01598,0.02419l-0.31651,0.35589c-0.13963,3.98661 -0.60902,7.99521 -0.36919,11.9247c0.38657,6.33359 1.76505,7.95989 0.78971,15.2287c0.00042,3.9202 0.02381,7.84066 0.03258,11.7569c0.08945,0.18535 0.14798,0.41453 0.17499,0.7099c0.01018,0.0883 0.0154,0.17805 0.0154,0.26896c0.00328,0.12186 0.00626,0.24372 0.00896,0.36558c0.04628,0.17528 0.0594,0.28912 0.0594,0.28912c0.02718,0.23814 0.05401,0.47816 0.08045,0.71995c0.06034,0.07262 0.11449,0.14511 0.16278,0.21532c0.12452,0.09214 0.23506,0.19248 0.3323,0.29425c0.03212,0.02443 0.06418,0.04888 0.09617,0.07334h-0.02852c0.34941,0.3923 0.50473,0.7815 0.50473,0.7815c2.09418,5.30564 2.59996,11.09943 3.82287,16.63644c0.99466,4.50355 2.42271,8.9814 3.17763,13.52913c1.61122,9.70623 0.8279,20.51778 -1.49248,29.9869c-0.11731,0.85533 -0.23462,1.71065 -0.35193,2.56598l0.02193,0.75485c0,0 0,2.40941 -2.5,2.40941zM242.09817,138.91466c0.34706,0.22251 0.70215,0.43884 1.066,0.6486c3.5265,-0.12565 8.87827,1.00025 12.12638,-0.4613c5.37614,-2.4191 5.42627,-7.69386 5.42781,-12.49831c0.00148,-4.60376 -0.74514,-9.1664 -3.82411,-12.96865c-1.23326,-1.52297 -1.82291,-1.37402 -3.6431,-2.12499c-3.45219,-1.42431 -6.49402,-2.57887 -10.1894,-3.24456c-4.37502,-0.29729 -8.83834,-0.48888 -13.15641,0.37088c-1.22632,0.24417 -4.20465,0.75457 -5.35173,1.88525c-2.44001,2.40511 -0.58947,7.74519 0.14238,10.1879c0.67978,2.26891 1.5309,4.55588 2.71166,6.62616c1.12636,-0.71983 2.47559,-0.06965 2.47559,-0.06965l1.25175,0.85114c2.0384,2.45636 3.98343,4.83408 6.17807,6.95944c1.10572,0.37759 2.21785,0.74135 3.29491,1.18571c0,0 1.94214,0.80219 1.49022,2.65239z" fill="#000000" stroke-width="0.5"/><path d="" fill="#000000" stroke-width="0.5"/><path d="" fill="#000000" stroke-width="0.5"/><path d="" fill="#000000" stroke-width="0.5"/><path d="" fill="#000000" stroke-width="0.5"/><path d="" fill="#000000" stroke-width="0.5"/><path d="" fill="#000000" stroke-width="0.5"/><path d="" fill="#000000" stroke-width="0.5"/><path d="M219.86541,208.2821c-2.28088,-1.04251 -1.14821,-3.81211 -1.14821,-3.81211l1.1413,-2.7533c4.7083,-9.0859 8.37543,-18.23985 11.55435,-27.99719c2.85842,-8.77359 6.04904,-16.89789 8.06183,-25.92279c0,0 0.65196,-2.92246 3.11372,-2.45689c2.46176,0.46557 1.8098,3.38803 1.8098,3.38803c-2.06435,9.25117 -5.31937,17.59087 -8.24207,26.58149c-3.29286,10.12929 -7.12499,19.63997 -12.00225,29.06879l-0.87494,2.17686c0,0 -1.13266,2.76961 -3.41353,1.7271z" fill="#000000" stroke-width="0.5"/><path d="M207.59343,200.62661c-2.06322,-1.42559 -0.46335,-3.95423 -0.46335,-3.95423l1.60554,-2.51108c6.22575,-8.12168 11.43832,-16.49256 16.2758,-25.54298c4.34976,-8.13794 8.91297,-15.57847 12.47413,-24.11183c0,0 1.15335,-2.76326 3.49564,-1.87405c2.34229,0.88921 1.18894,3.65248 1.18894,3.65248c-3.65152,8.74712 -8.31584,16.38845 -12.76687,24.72881c-5.01476,9.39667 -10.45219,18.08994 -16.90431,26.51968l-1.24241,1.99014c0,0 -1.59989,2.52865 -3.66311,1.10306z" fill="#000000" stroke-width="0.5"/><path d="M196.54423,259.53959v-159.07915h86.91154v159.07915z" fill-opacity="0" fill="#9e9898" stroke-width="0"/></g></g></svg>