<svg version="1.1" xmlns="http://www.w3.org/2000/svg" xmlns:xlink="http://www.w3.org/1999/xlink" width="86.91154" height="159.07915" viewBox="0,0,86.91154,159.07915"><g transform="translate(-276.54423,-100.46044)"><g stroke="none" stroke-width="0" stroke-miterlimit="10"><path d="M276.54423,259.53959v-159.07915h86.91154v159.07915z" fill-opacity="0" fill="#9e9898"/><path d="M324.49354,162.28149c2.65328,0 4.80419,6.40438 4.80419,14.3046c0,7.9002 -2.15091,14.3046 -4.80419,14.3046c-2.65328,0 -4.80417,-6.40438 -4.80417,-14.3046c0,-7.90022 2.15089,-14.3046 4.80417,-14.3046z" fill="#a8c0c5"/><path d="M295.64438,191.17659c-0.13465,-1.46895 -0.73454,-2.66016 1.47747,-3.87286c2.25847,-1.23821 7.3816,-2.48734 12.376,-2.94514c9.88599,-0.90618 19.41086,0.64766 17.29898,4.81063c-1.34872,2.65868 -6.42755,5.03403 -16.31354,5.94019c-5.74938,0.52699 -11.14149,0.11599 -13.52652,-0.90506c-1.716,-0.73463 -1.19852,-1.78557 -1.31239,-3.02779z" fill="#a8c0c5"/><g fill="#a8c0c5"><path d="M293.79748,190.99654c-0.36506,-3.98266 -0.77555,-7.26455 1.04112,-7.43107c1.81664,-0.16652 3.58528,2.92709 3.95034,6.90976c0.36506,3.98266 -0.81169,7.34624 -2.62835,7.51276c-1.81664,0.16652 -1.99805,-3.00876 -2.36312,-6.99143z"/><path d="M293.25685,183.42331c2.42804,-0.22256 3.74551,0.84763 3.85759,2.07037c0.11208,1.22275 -1.76536,2.39438 -4.1934,2.61694c-2.42803,0.22256 -4.48719,-0.58824 -4.59927,-1.811c-0.11208,-1.22275 2.50706,-2.65375 4.93509,-2.87631z"/><path d="M298.06729,195.88878c0.11207,1.22275 -0.9889,2.51459 -3.41694,2.73715c-2.42804,0.22256 -5.26367,-0.70845 -5.37576,-1.93121c-0.11208,-1.22275 1.76536,-2.39438 4.1934,-2.61694c2.42803,-0.22256 4.48719,0.58824 4.59927,1.811z"/></g><path d="M281.12875,173.15529c0,-13.18646 17.40324,-23.87617 38.87124,-23.87617c21.468,0 38.87126,10.68971 38.87126,23.87615c0,13.18644 -22.37746,5.96903 -43.84546,5.96903c-21.468,0 -33.89705,7.21741 -33.89705,-5.96903z" fill="#c3dce2"/><path d="M287.69469,167.1862c0,-1.61822 1.08619,-6.04893 5.91777,-7.7099c2.55321,-0.87771 6.49938,-1.62585 9.9875,-1.56302c3.35816,0.06049 8.57726,-0.03427 10.75645,0.71731c9.2305,3.1835 6.76491,5.259 6.76491,8.55562c0,3.29661 -7.48281,5.96905 -16.71331,5.96905c-9.23052,0 -16.71331,-2.67243 -16.71331,-5.96905z" fill="#000000"/><path d="M313.07002,162.88268c0.888,0 1.60788,1.63431 1.60788,3.65034c0,2.01603 -0.71988,3.65034 -1.60788,3.65034c-0.888,0 -1.60788,-1.63431 -1.60788,-3.65034c0,-2.01603 0.71988,-3.65034 1.60788,-3.65034z" fill="#0091ff"/><path d="M293.12357,163.31725c0.672,0 1.21678,1.34246 1.21678,2.99849c0,1.65602 -0.54478,2.99849 -1.21678,2.99849c-0.672,0 -1.21678,-1.34246 -1.21678,-2.99849c0,-1.65602 0.54478,-2.99849 1.21678,-2.99849z" fill="#ff0000"/><g><path d="M322.72871,151.88959c-0.98287,0.17476 -0.50687,0.10487 -0.99181,0.06885c-1.40565,-0.10438 -3.76221,-0.28303 -4.52131,-0.3394c-0.36617,-0.02719 -0.63857,-0.09795 -1.03479,-0.21569c-0.43726,-0.12992 0.00547,-1.05041 0.04638,-1.60122c0.14692,-1.97845 1.044,-13.08197 1.044,-13.08197l6.54793,0.48626c0,0 -0.8014,11.86232 -0.93461,13.65617c-0.03204,0.43137 0.15697,1.03526 -0.15578,1.02704z" fill="#797979"/><path d="M311.67035,133.16268c6.20862,0 11.24169,1.78162 11.24169,3.97936c0,2.19774 -5.03307,3.97936 -11.24169,3.97936c-6.20862,0 -11.24169,-1.78162 -11.24169,-3.97936c0,-2.19774 5.03307,-3.97936 11.24169,-3.97936z" fill="#c9c9c9"/><path d="M339.16127,137.14205c0,2.19774 -5.03307,3.97936 -11.24169,3.97936c-6.2086,0 -11.24169,-1.78162 -11.24169,-3.97936c0,-2.19774 5.03307,-3.97936 11.24169,-3.97936c6.20862,0 11.24169,1.78162 11.24169,3.97936z" fill="#c9c9c9"/></g><path d="M342.11884,169.17425c2.65328,0 4.80419,6.40438 4.80419,14.3046c0,7.9002 -2.15091,14.3046 -4.80419,14.3046c-2.65328,0 -4.80417,-6.40438 -4.80417,-14.3046c0,-7.90022 2.15089,-14.3046 4.80417,-14.3046z" fill="#c3dce2"/><path d="M314.04124,201.83022c-0.33878,-1.43568 -1.09937,-2.53128 0.92129,-4.04144c2.0631,-1.54191 6.96117,-3.49529 11.84245,-4.6471c9.66209,-2.27993 19.31066,-2.07352 17.80177,2.34391c-0.96362,2.82119 -5.66032,5.88351 -15.3224,8.16342c-5.61916,1.32592 -11.01576,1.6731 -13.52016,0.99566c-1.80188,-0.48741 -1.43647,-1.6004 -1.72296,-2.81448z" fill="#c3dce2"/><g fill="#c3dce2"><path d="M312.18731,201.91021c-0.91849,-3.89246 -1.78394,-7.08468 -0.00843,-7.50364c1.7755,-0.41896 3.95942,2.39688 4.87791,6.28935c0.91849,3.89246 0.22374,7.38756 -1.55178,7.80652c-1.7755,0.41896 -2.39922,-2.69974 -3.31771,-6.59221z"/><path d="M310.59279,194.48702c2.37305,-0.55996 3.82725,0.31545 4.10924,1.51049c0.28199,1.19505 -1.41313,2.61775 -3.78618,3.17771c-2.37304,0.55996 -4.52536,0.04512 -4.80736,-1.14995c-0.28199,-1.19505 2.11126,-2.9783 4.48431,-3.53826z"/><path d="M317.09939,206.15724c0.28198,1.19506 -0.62749,2.62818 -3.00053,3.18814c-2.37305,0.55996 -5.31102,0.03469 -5.59302,-1.16037c-0.28199,-1.19505 1.41313,-2.61775 3.78618,-3.17771c2.37304,-0.55996 4.52536,-0.04512 4.80736,1.14995z"/></g></g></g></svg>