<svg version="1.1" xmlns="http://www.w3.org/2000/svg" xmlns:xlink="http://www.w3.org/1999/xlink" width="198.83334" height="198.83334" viewBox="0,0,198.83334,198.83334"><g transform="translate(-220.58333,-80.58333)"><g stroke-miterlimit="10"><path d="M228.33333,179.99999c0,-50.6261 41.04056,-91.66666 91.66667,-91.66666c50.6261,0 91.66667,41.04056 91.66667,91.66667c0,50.6261 -41.04057,91.66667 -91.66667,91.66667c-50.6261,0 -91.66666,-41.04057 -91.66666,-91.66667z" fill="#9e9898" stroke="#686868" stroke-width="15.5"/><path d="M322.04018,218.23469l45.0379,-40.79649l40.79649,45.0379l-45.0379,40.79649z" fill="#686868" stroke="none" stroke-width="0"/><g fill="#9e9898" stroke="#686868" stroke-width="1"><path d="M388.16859,215.91727c0.70605,-0.63955 1.79687,-0.58565 2.4364,0.12039c0.63955,0.70605 0.58565,1.79687 -0.12039,2.4364c-0.70605,0.63955 -1.79687,0.58565 -2.4364,-0.12039c-0.63955,-0.70605 -0.58565,-1.79687 0.12039,-2.4364z"/><path d="M369.0645,195.01367c0.70605,-0.63955 1.79687,-0.58565 2.4364,0.12039c0.63955,0.70605 0.58565,1.79687 -0.12039,2.4364c-0.70605,0.63955 -1.79687,0.58565 -2.4364,-0.12039c-0.63955,-0.70605 -0.58565,-1.79687 0.12039,-2.4364z"/><path d="M372.58304,240.88974c-1.49917,0.85311 -2.35228,-0.64605 -2.35228,-0.64605l-0.42985,-0.79316c-1.58617,-2.03165 -3.86315,-4.8293 -3.94379,-7.53861c-0.02827,-0.95012 0.06329,-1.81413 0.2574,-2.59755c-5.78593,-1.53958 -8.76956,-7.25303 -8.83625,-13.06548c-0.51568,0.32126 -1.07075,0.60915 -1.66688,0.85971c-2.92952,1.23128 -6.30263,0.0279 -9.16541,-0.69317l-0.94118,-0.60751c0,0 -1.15801,-1.2784 0.12039,-2.4364c0.81867,-0.74157 1.58796,-0.48399 2.03539,-0.20282c2.01307,0.55585 4.72041,1.60758 6.71043,0.7208c4.34244,-1.93503 5.54062,-6.64421 5.03822,-11.03851c0,0 -0.17782,-1.71572 1.53789,-1.89353c1.71572,-0.17782 1.89353,1.53789 1.89353,1.53789c0.33725,3.54198 -0.1909,7.16901 -1.92777,10.0486c0.14383,0.47767 0.05773,0.92225 0.05773,0.92225c-0.97161,4.98227 0.96414,11.98586 6.76515,12.71488c3.64561,-4.16172 11.71753,-4.0907 16.39409,-2.27573c0,0 1.60749,0.62557 0.98193,2.23304c-0.62556,1.60747 -2.23303,0.98191 -2.23303,0.98191c-4.22279,-1.64816 -7.06804,-2.24307 -10.78995,0.56969c-0.28072,0.21216 -0.56884,0.42714 -0.84838,0.65173c-0.23327,0.45354 -0.6651,0.70452 -0.89528,0.81173c-0.6469,0.68911 -1.09926,1.50452 -1.04288,2.57994c0.10078,1.92215 2.08822,4.15893 3.21392,5.58921l0.71287,1.2149c0,0 0.85311,1.49917 -0.64606,2.35229z"/></g><path d="M278.97386,129.59495c17.48291,14.66474 27.66302,31.31268 22.73787,37.1843c-4.92514,5.87161 -23.09045,-1.25663 -40.57334,-15.92133c-8.13309,-6.82207 -14.68575,-14.07335 -18.87247,-20.46924c-4.81305,-7.35272 1.6033,-7.3195 4.23725,-10.45963c2.45436,-2.92602 0.09414,-8.87918 7.40157,-6.02461c7.35625,2.87363 16.29856,8.33374 25.06912,15.69052z" fill="#9e9898" stroke="#686868" stroke-width="4"/><path d="M369.10037,150.27808c0.88524,3.49265 3.30584,5.85681 -0.66056,9.50875c-5.51286,5.07578 -19.80223,11.38384 -35.96717,15.48111c-27.79543,7.04523 -43.91283,5.46344 -50.14433,-0.47933c-9.75743,-9.30519 14.68734,-22.70249 42.4828,-29.74766c14.04224,-3.55922 29.19655,-5.08723 36.53877,-3.88836c7.19113,1.17411 6.70369,4.99548 7.75052,9.12559z" fill="#9e9898" stroke="#686868" stroke-width="4"/><g fill="#9e9898" stroke="#686868" stroke-width="4"><path d="M373.95696,148.01066c2.83824,11.1977 5.39969,20.01981 0.29201,21.31444c-5.10773,1.29465 -11.54918,-6.73337 -14.3874,-17.93103c-2.83824,-11.1977 -0.99846,-21.3247 4.10922,-22.61932c5.10773,-1.29465 7.14789,8.03823 9.98612,19.23588z"/><path d="M368.14173,126.86546c6.82667,-1.73031 15.33663,-0.35349 16.20803,3.08441c0.8714,3.4379 -3.95632,7.62753 -10.78296,9.35784c-6.82667,1.73031 -13.06713,0.34615 -13.93851,-3.09176c-0.87139,-3.43786 1.68682,-7.62019 8.51349,-9.3505z"/><path d="M367.03629,165.44283c-0.8714,-3.4379 3.95634,-7.62754 10.78298,-9.35786c6.82667,-1.73031 13.06712,-0.34613 13.93851,3.09178c0.8714,3.4379 -5.95529,8.70207 -12.78196,10.43241c-6.82667,1.73031 -11.06817,-0.72842 -11.93955,-4.16633z"/></g><path d="M259.74663,156.78429c1.11858,22.79156 -4.1798,41.5723 -11.83433,41.94796c-7.65452,0.37567 -14.76654,-17.79601 -15.8851,-40.58753c-0.46836,-9.54308 0.1883,-18.383 1.67188,-25.46308c2.05964,-9.82914 6.19356,-5.91733 10.64303,-6.13571c4.2302,-0.20762 7.51982,-5.24035 10.4986,3.53047c2.4113,7.09993 4.4055,16.51187 4.90591,26.70788z" fill="#9e9898" stroke="#686868" stroke-width="4"/><path d="M317.89827,244.80132c-1.9612,3.02257 -2.05121,6.40495 -7.42568,5.97594c-7.46992,-0.59628 -21.80709,-6.79492 -35.79648,-15.87181c-24.0546,-15.6076 -33.84479,-28.50817 -33.7183,-37.11817c0.19794,-13.48165 26.63671,-4.64838 50.69129,10.95928c12.15236,7.88497 23.56993,17.96599 27.67887,24.16777c4.02445,6.0741 0.8894,8.31284 -1.42974,11.88708z" fill="#9e9898" stroke="#686868" stroke-width="4"/><g fill="#9e9898" stroke="#686868" stroke-width="4"><path d="M326.93908,250.51989c-6.2877,9.69066 -11.02043,17.56416 -15.44069,14.69611c-4.42032,-2.86807 -2.90647,-13.04891 3.38122,-22.73954c6.2877,-9.69066 14.96822,-15.22143 19.38847,-12.35338c4.42032,2.86807 -1.04135,10.70613 -7.32903,20.39675z"/><path d="M338.50287,231.88619c5.90789,3.8333 10.67968,11.01281 8.74925,13.98802c-1.93044,2.97521 -8.28467,2.27955 -14.19253,-1.55373c-5.90789,-3.8333 -9.13228,-9.3526 -7.20184,-12.32781c1.93041,-2.97518 6.73725,-3.93977 12.64515,-0.10646z"/><path d="M309.44629,257.2862c1.93044,-2.97521 8.28467,-2.27955 14.19253,1.55373c5.90789,3.8333 9.13228,9.3526 7.20184,12.32781c-1.93044,2.97521 -10.43125,1.54294 -16.33916,-2.29034c-5.90789,-3.8333 -6.98567,-8.616 -5.05523,-11.5912z"/></g><path d="M228.33333,179.99999c0,-50.6261 41.04056,-91.66666 91.66667,-91.66666c50.6261,0 91.66667,41.04056 91.66667,91.66667c0,50.6261 -41.04057,91.66667 -91.66667,91.66667c-50.6261,0 -91.66666,-41.04057 -91.66666,-91.66667z" fill="none" stroke="#686868" stroke-width="15.5"/></g></g></svg>