<svg version="1.1" xmlns="http://www.w3.org/2000/svg" xmlns:xlink="http://www.w3.org/1999/xlink" width="86.91154" height="159.07915" viewBox="0,0,86.91154,159.07915"><g transform="translate(-276.54423,-100.46045)"><g stroke="none" stroke-miterlimit="10"><path d="M276.54423,259.53961v-159.07915h86.91154v159.07915z" fill-opacity="0" fill="#9e9898" stroke-width="0"/><path d="M322.06511,168.38881c2.64103,-0.25466 5.39671,5.9137 6.15499,13.77745c0.75828,7.86372 -0.768,14.44501 -3.40903,14.69967c-2.64103,0.25466 -5.39669,-5.9137 -6.15497,-13.77744c-0.75828,-7.86374 0.76797,-14.44501 3.409,-14.69967z" fill="#a8c0c5" stroke-width="0"/><path d="M327.25988,218.88599c-1.46976,0.12546 -2.6647,0.71787 -3.86354,-1.50168c-1.22406,-2.26618 -2.44111,-7.39702 -2.86765,-12.39418c-0.84431,-9.89147 0.7691,-19.40643 4.91878,-17.26854c2.65019,1.36533 4.99371,6.45893 5.838,16.35039c0.49101,5.75256 0.04627,11.142 -0.98968,13.52059c-0.74535,1.71137 -1.79304,1.18732 -3.03594,1.29342z" fill="#a8c0c5" stroke-width="0"/><path d="M327.06828,220.73172c-3.98487,0.34014 -7.26926,0.73008 -7.42441,-1.08759c-0.15515,-1.81765 2.94946,-3.56689 6.93434,-3.90703c3.98487,-0.34014 7.34102,0.85763 7.49617,2.6753c0.15515,1.81765 -3.02121,1.97919 -7.00608,2.31933z" fill="#a8c0c5" stroke-width="0"/><path d="M319.49181,221.22496c-0.20736,-2.42938 0.87105,-3.74013 2.09446,-3.84456c1.22343,-0.10443 2.38329,1.7803 2.59065,4.20969c0.20736,2.42937 -0.61631,4.48343 -1.83974,4.58786c-1.22343,0.10443 -2.63801,-2.52361 -2.84537,-4.953z" fill="#a8c0c5" stroke-width="0"/><path d="M331.98715,216.49261c1.22343,-0.10442 2.50835,1.0046 2.71571,3.43399c0.20736,2.42938 -0.74137,5.25914 -1.96481,5.36357c-1.22343,0.10443 -2.38329,-1.7803 -2.59065,-4.20969c-0.20736,-2.42937 0.61631,-4.48342 1.83974,-4.58785z" fill="#a8c0c5" stroke-width="0"/><path d="M277.26334,183.89638c-1.26566,-13.12558 15.03121,-25.43633 36.4001,-27.49687c21.36888,-2.06054 39.71781,6.90942 40.98348,20.03498c1.26566,13.12556 -21.70123,8.0893 -43.07011,10.14984c-21.36888,2.06054 -33.0478,10.43759 -34.31347,-2.68797z" fill="#c3dce2" stroke-width="0"/><path d="M285.69668,180.60562c-0.32235,-1.58579 -0.14052,-6.14407 4.26337,-8.7342c2.3272,-1.36872 6.04526,-2.88793 9.47599,-3.52119c3.30291,-0.60966 8.39854,-1.74216 10.68377,-1.43974c9.67966,1.28099 7.67692,3.80604 8.3336,7.03659c0.65668,3.23054 -6.14382,7.33999 -15.18933,9.1787c-9.04553,1.83871 -16.9107,0.7104 -17.56739,-2.52016z" fill="#000000" stroke-width="0"/><path d="M320.28134,158.47516c-0.96156,0.26829 -0.49446,0.15304 -0.98062,0.16373c-1.40918,0.03102 -3.77201,0.07938 -4.53301,0.09613c-0.36709,0.00808 -0.64502,-0.03621 -1.05071,-0.11538c-0.44771,-0.08735 -0.09538,-1.04608 -0.10753,-1.59828c-0.04366,-1.98342 -0.21645,-13.12178 -0.21645,-13.12178l6.56437,-0.14446c0,0 0.34087,11.88447 0.38045,13.68283c0.00951,0.43246 0.25561,1.01541 -0.05649,1.03725z" fill="#797979" stroke-width="0"/><path d="M307.4766,140.89611c6.17996,-0.59591 11.36079,0.6944 11.57173,2.88199c0.21094,2.18759 -4.62789,4.44407 -10.80784,5.03999c-6.17996,0.59591 -11.36079,-0.6944 -11.57174,-2.88199c-0.21094,-2.18759 4.62789,-4.44407 10.80785,-5.03999z" fill="#c9c9c9" stroke-width="0"/><path d="M335.22254,142.21848c0.21094,2.18759 -4.62789,4.44407 -10.80784,5.03999c-6.17993,0.59591 -11.36079,-0.6944 -11.57173,-2.88199c-0.21094,-2.18759 4.62789,-4.44407 10.80784,-5.03998c6.17996,-0.59591 11.36079,0.69439 11.57173,2.88198z" fill="#c9c9c9" stroke-width="0"/><path d="M340.27062,173.55803c2.64103,-0.25466 5.39671,5.9137 6.15499,13.77744c0.75828,7.86372 -0.768,14.44501 -3.40903,14.69967c-2.64103,0.25466 -5.39669,-5.9137 -6.15497,-13.77744c-0.75828,-7.86374 0.76798,-14.44501 3.40901,-14.69967z" fill="#c3dce2" stroke-width="0"/><path d="M345.46545,224.05521c-1.46976,0.12546 -2.6647,0.71788 -3.86354,-1.50167c-1.22406,-2.26618 -2.44111,-7.39703 -2.86764,-12.39419c-0.84431,-9.89147 0.7691,-19.40643 4.91877,-17.26854c2.65019,1.36533 4.99372,6.45893 5.83801,16.35039c0.49101,5.75256 0.04627,11.142 -0.98968,13.52059c-0.74535,1.71137 -1.79303,1.18732 -3.03594,1.29342z" fill="#c3dce2" stroke-width="0"/><path d="M345.2738,225.90094c-3.98487,0.34014 -7.26926,0.73007 -7.42441,-1.08759c-0.15515,-1.81765 2.94946,-3.5669 6.93434,-3.90703c3.98487,-0.34014 7.34102,0.85764 7.49617,2.67531c0.15515,1.81765 -3.02121,1.97919 -7.00608,2.31932z" fill="#c3dce2" stroke-width="0"/><path d="M337.69733,226.39419c-0.20736,-2.42938 0.87104,-3.74013 2.09446,-3.84456c1.22343,-0.10443 2.38329,1.7803 2.59066,4.20969c0.20736,2.42937 -0.61631,4.48342 -1.83974,4.58785c-1.22343,0.10443 -2.63801,-2.52361 -2.84538,-4.95299z" fill="#c3dce2" stroke-width="0"/><path d="M350.19271,221.66183c1.22343,-0.10442 2.50835,1.00461 2.71572,3.434c0.20736,2.42938 -0.74137,5.25914 -1.96481,5.36357c-1.22343,0.10443 -2.38329,-1.7803 -2.59066,-4.20969c-0.20736,-2.42937 0.61631,-4.48342 1.83974,-4.58785z" fill="#c3dce2" stroke-width="0"/><path d="M290.07189,181.19747c-0.88388,-0.88388 0,-1.76777 0,-1.76777l0.58182,-0.54749c0.14756,-0.09653 0.36404,-0.24121 0.58903,-0.37479c-0.86935,-0.40153 -1.61684,-1.06826 -2.45928,-1.53602c0,0 -1.0927,-0.60705 -0.48564,-1.69975c0.60705,-1.0927 1.69975,-0.48564 1.69975,-0.48564c2.51278,1.39673 5.99941,2.1134 3.34767,5.29341c-0.33632,0.40332 -0.86985,0.58861 -1.30478,0.88292l-0.2008,0.23513c0,0 -0.88388,0.88388 -1.76777,0z" fill="#ff0000" stroke-width="0.5"/><path d="M308.47316,178.79063c-0.30317,1.21268 -1.51585,0.90951 -1.51585,0.90951l-0.46373,-0.11739c-1.19447,-0.24179 -4.8421,-0.83999 -5.24476,-2.26409c-0.47298,-1.67279 3.05903,-4.62887 3.96816,-5.84221c0,0 0.75,-1 1.75,-0.25c1,0.75 0.25,1.75 0.25,1.75c-0.70367,0.93737 -1.37017,1.90981 -2.20312,2.74264c-0.16425,0.16423 -0.45284,0.43767 -0.72505,0.65169c0.87583,0.13155 2.34104,0.6907 2.69506,0.76052l0.57977,0.14349c0,0 1.21268,0.30317 0.90951,1.51585z" fill="#0091ff" stroke-width="0.5"/></g></g></svg>