<svg version="1.1" xmlns="http://www.w3.org/2000/svg" xmlns:xlink="http://www.w3.org/1999/xlink" width="86.91154" height="160.91872" viewBox="0,0,86.91154,160.91872"><g transform="translate(-201.1363,-98.62091)"><g stroke="none" stroke-miterlimit="10"><path d="" fill="#000000" stroke-width="0.5"/><path d="" fill="#000000" stroke-width="0.5"/><path d="" fill="#000000" stroke-width="0.5"/><path d="" fill="#000000" stroke-width="0.5"/><path d="" fill="#000000" stroke-width="0.5"/><path d="" fill="#000000" stroke-width="0.5"/><path d="" fill="#000000" stroke-width="0.5"/><path d="" fill="#000000" stroke-width="0.5"/><path d="" fill="#000000" stroke-width="0.5"/><path d="M288.04784,238.17278v21.36684h-47.65436" fill-opacity="0" fill="#9e9898" stroke-width="0"/><path d="M228.20364,259.53961h-27.06734v-56.47871" fill-opacity="0" fill="#9e9898" stroke-width="0"/><path d="M201.1363,183.39943v-82.93897h86.91154v125.66828" fill-opacity="0" fill="#9e9898" stroke-width="0"/><path d="M234.25401,170.807c-1.19312,0.54805 -2.65001,0.623 -3.97501,0.93449c-1.27183,-0.18805 -2.60532,-0.20494 -3.8155,-0.56416c-9.25885,-2.74837 -9.83479,-12.11909 -9.84647,-18.67707c-0.00593,-3.32986 -0.36655,-6.89419 0.92864,-10.12487c1.59363,-3.9751 3.66274,-6.51683 3.65736,-10.77232c0,0 -0.80489,0.78037 -0.74327,0.53507c-1.44128,-1.01774 -0.35781,1.62152 -1.47348,2.16768c-0.72079,0.35285 -1.68575,2.22692 -1.90979,2.59824l0.06216,1.86762c0,0 0,2.14592 -2.74249,2.14592c-2.74249,0 -2.74249,-2.14592 -2.74249,-2.14592l0.06217,-2.77619c1.06562,-1.8729 1.96771,-4.33871 4.56455,-5.42289c4.09365,-1.70911 7.14222,-4.39462 9.93234,-1.38066c2.31699,-1.83407 5.14651,-2.85386 8.15185,-4.09531c8.06719,-2.35808 20.66552,-2.53931 25.25936,4.63061c0.33402,0.52134 0.61754,1.06131 0.85782,1.61605c0.39312,-0.97667 0.73097,-1.77312 0.78679,-1.83211c3.99363,-4.22017 7.25536,-1.9485 9.18288,1.77872c1.06961,2.06829 0.93991,4.979 2.17589,6.53763c0,0 1.43733,1.82759 -0.89834,2.95226c-2.33565,1.12466 -3.77299,-0.70291 -3.77299,-0.70291c-1.67362,-2.14913 2.43134,-8.92874 -1.42526,-8.81719c-1.00049,0.02894 -1.89836,3.84539 -1.99613,4.42295c-0.66756,3.94354 2.20545,7.34112 2.72154,11.14032c0.6196,4.56114 0.36719,9.81561 -0.81262,14.28119c-0.67524,2.76449 -0.98724,6.6895 -4.41038,8.45745c-5.07109,2.61906 -14.3501,2.4074 -18.50254,-1.22242c-0.42171,-0.36862 -0.76216,-0.69461 -1.0391,-0.99464c0,5.35332 0,10.70663 0,16.05994c0,4.28361 -0.44297,8.82564 0.1753,13.08293c0.43105,2.96819 1.65968,6.07424 2.46564,9.0072c1.32219,0.61793 1.22669,1.96291 1.22669,1.96291c-0.24595,3.44474 -0.18936,6.88384 -0.18936,10.33316c0,2.16862 -0.46164,4.68697 0.1318,6.81815c0.81831,2.93872 3.95045,5.22554 5.15752,8.12842c2.40566,5.78537 2.29626,11.30644 2.23429,17.31358c-0.28446,0.8042 -0.56892,1.60842 -0.85338,2.41262l-0.89133,1.07935c0,0 -1.93923,1.51739 -3.87847,0c-1.38966,-1.08737 -0.78764,-2.17474 -0.33482,-2.70372c0.17534,-0.46118 0.3507,-0.92236 0.52604,-1.38353c-0.07241,-5.39419 0.08133,-10.20331 -2.02476,-15.40632c-1.25864,-3.10941 -4.34125,-5.30102 -5.2965,-8.53451c-0.34125,-1.15512 -0.25504,-4.32035 -0.25538,-5.45182c-0.0008,-2.68337 -0.04151,-5.36715 0.00248,-8.04936c-0.3215,0.64618 -0.5926,1.30983 -0.77873,2.00446c-1.42956,5.33497 -1.85751,11.28734 -4.37731,16.36201c-1.40397,2.82748 -3.96476,5.36389 -5.17916,8.22659c-1.46996,3.46516 -1.5957,7.33291 -1.61903,10.93512l0.54087,2.06282c0,0 0.53785,2.10425 -2.15138,2.52509c-2.68923,0.42084 -3.22707,-1.6834 -3.22707,-1.6834l-0.62069,-2.48161c-0.02252,-4.19176 0.14291,-8.66498 1.86565,-12.69592c1.26397,-2.95745 3.80864,-5.52843 5.27486,-8.43632c2.45007,-4.85913 2.691,-10.6407 4.14077,-15.75196c0.91939,-3.24137 3.48727,-5.69469 4.5708,-8.86119c-0.7419,-2.39917 -1.55936,-4.85858 -1.90845,-7.23702c-0.64926,-4.42344 -0.21187,-9.12764 -0.21187,-13.57772c0,-4.8687 0,-9.73741 0,-14.60612c-0.75313,0.79602 -1.63846,1.49692 -2.75249,2.00863zM223.16997,159.48435c0.45244,3.84708 1.29554,6.98479 6.85117,7.97006c3.16413,-0.73966 4.05874,-3.33511 5.55472,-5.44216l-0.34513,0.4089c0,0 0,-1.33307 1.34278,-1.89783c-0.04396,-0.00537 -0.08506,-0.01111 -0.12315,-0.01723c-3.69285,-0.59363 -10.28042,-3.64132 -12.47165,-5.98504c-0.80912,-0.86543 -1.40978,-1.92552 -1.84612,-3.05001c0.21289,2.66229 0.71806,5.29809 1.03738,8.01333zM245.87064,160.85021l0.47152,1.38373c0.61921,4.83807 7.32934,6.02199 12.5516,3.80834c1.6081,-0.68165 1.98297,-5.00338 2.17179,-5.78177c1.11207,-4.04933 1.26356,-8.84995 0.73613,-12.98539c-0.03642,-0.28556 -0.08344,-0.56763 -0.13925,-0.84675c-0.00252,3.02598 -0.15491,6.8472 -1.85949,9.17904c-2.77271,3.793 -9.03352,4.31646 -14.16084,4.82098c0.16221,0.24014 0.22855,0.42182 0.22855,0.42182zM244.92223,156.1914c3.14076,-0.23312 8.79245,-0.52625 10.00676,-2.55261c1.4649,-2.44456 1.24568,-6.38415 1.24322,-9.01344c-0.00385,-4.11749 0.78879,-9.09573 -1.45142,-12.97441c-2.87826,-4.98337 -13.04415,-4.1329 -18.10548,-2.64047c-0.63607,0.26435 -4.8357,1.96579 -5.58604,2.43207c-4.63761,2.88197 -4.41508,8.43419 -4.41243,12.57688c0.00163,2.55663 -0.20249,5.7419 1.7994,7.97906c0.5926,0.66223 4.4847,2.30468 4.77103,2.43445c4.16465,1.88755 6.01027,1.87373 10.87739,1.68246c0,0 0.37663,-0.01473 0.85755,0.07601z" fill="#000000" stroke-width="0.5"/><path d="M265.7966,122.68712c0.3656,8.20784 -7.57091,4.06 -20.93358,4.65521c-13.36266,0.59521 -27.0913,5.70808 -27.4569,-2.49976c-0.3656,-8.20784 10.1706,-15.34412 23.53326,-15.93933c13.36266,-0.59521 24.49161,5.57604 24.85721,13.78389z" fill="#c3dce2" stroke-width="0"/><path d="M260.36218,129.2351c-0.54752,4.89178 -2.3232,8.70829 -3.9661,8.5244c-1.6429,-0.18389 -2.53088,-4.29853 -1.98337,-9.1903c0.54752,-4.89178 2.32321,-8.70829 3.96611,-8.5244c1.6429,0.18389 2.53087,4.29852 1.98336,9.1903z" fill="#c3dce2" stroke-width="0"/><path d="M272.00778,127.03519c0.44735,0.63559 1.11715,0.92556 0.59915,1.96686c-0.71995,1.4473 -3.11344,3.81876 -6.05511,5.8892c-5.05816,3.56009 -8.4276,4.48255 -10.14087,3.76498c-2.68269,-1.12357 1.21118,-5.70555 6.26933,-9.26565c2.55539,-1.79856 5.49128,-3.27346 7.06304,-3.59732c1.53942,-0.3172 1.73547,0.49033 2.26446,1.24192z" fill="#c3dce2" stroke-width="0"/><g fill="#c3dce2" stroke-width="0"><path d="M272.81177,126.2043c1.43422,2.03774 2.62974,3.61812 1.70025,4.27232c-0.9295,0.65421 -2.84566,-0.46736 -4.27987,-2.5051c-1.43422,-2.03774 -1.84338,-4.21999 -0.91389,-4.87419c0.9295,-0.65421 2.0593,1.06923 3.49352,3.10697z"/><path d="M270.01164,122.39142c1.2423,-0.87437 3.06307,-1.25229 3.50341,-0.62666c0.44034,0.62563 -0.2098,1.8416 -1.4521,2.71598c-1.2423,0.87437 -2.60634,1.07603 -3.04667,0.45041c-0.44033,-0.62562 -0.24693,-1.66535 0.99537,-2.53972z"/><path d="M272.75971,130.2498c-0.44034,-0.62563 0.2098,-1.8416 1.4521,-2.71598c1.2423,-0.87437 2.60635,-1.07603 3.04668,-0.4504c0.44034,0.62563 -0.52984,2.21206 -1.77214,3.08643c-1.2423,0.87437 -2.2863,0.70557 -2.72663,0.07994z"/></g><path d="M223.28719,120.02974c1.59543,-0.43307 3.9341,3.06684 5.22358,7.81726c1.28948,4.75042 1.04145,8.95248 -0.55397,9.38555c-1.59543,0.43307 -3.93409,-3.06684 -5.22357,-7.81726c-1.28948,-4.75043 -1.04146,-8.95248 0.55396,-9.38555z" fill="#c3dce2" stroke-width="0"/><path d="M210.2643,131.25871c0.2287,-0.89017 0.12621,-1.71482 1.67824,-1.96307c1.58463,-0.25347 4.85251,0.08671 7.8791,0.86429c5.99086,1.53914 11.2545,4.44614 9.14322,6.44656c-1.34835,1.27757 -4.82615,1.60753 -10.81701,0.06838c-3.48409,-0.89512 -6.56206,-2.26581 -7.7477,-3.36456c-0.85305,-0.79053 -0.32926,-1.29882 -0.13585,-2.05161z" fill="#c3dce2" stroke-width="0"/><g fill="#c3dce2" stroke-width="0"><path d="M211.38582,126.62378c1.10088,0.28283 1.49067,2.46862 0.87061,4.8821c-0.62005,2.41347 -2.01515,4.1407 -3.11604,3.85787c-1.10088,-0.28283 -0.54218,-2.18407 0.07788,-4.59756c0.62005,-2.41347 1.06665,-4.42525 2.16754,-4.14242z"/><path d="M212.31736,128.23196c-0.19037,0.74098 -1.53748,1.03521 -3.00885,0.65719c-1.47137,-0.37802 -2.50984,-1.28513 -2.31947,-2.02612c0.19037,-0.74098 2.02702,-1.03204 3.4984,-0.65403c1.47137,0.37802 2.02028,1.28197 1.82992,2.02295z"/><path d="M208.12055,135.42173c-1.47137,-0.37802 -2.9403,-1.51832 -2.74992,-2.2593c0.19037,-0.74098 1.53748,-1.03522 3.00886,-0.6572c1.47137,0.37802 2.50983,1.28514 2.31946,2.02612c-0.19037,0.74098 -1.10702,1.2684 -2.57839,0.89039z"/></g><g stroke-width="0"><path d="M254.06886,119.48147c0.11001,2.46975 -5.40675,4.72158 -12.32205,5.02961c-6.91528,0.30803 -12.61043,-1.4444 -12.72043,-3.91414c-0.11001,-2.46975 -2.02643,-3.9424 4.78261,-6.63543c1.60752,-0.63579 5.52072,-0.73896 8.03455,-0.89634c2.61113,-0.16347 5.59248,0.26533 7.53457,0.83769c3.67514,1.08313 4.63674,4.36627 4.69074,5.5786z" fill="#000000"/><path d="M234.20965,119.12461c0.07882,1.76951 -0.48913,3.23212 -1.26855,3.26684c-0.77942,0.03472 -1.47517,-1.37161 -1.55398,-3.14112c-0.07882,-1.76951 0.48914,-3.23212 1.26856,-3.26684c0.77942,-0.03472 1.47516,1.37161 1.55398,3.14112z" fill="#0091ff"/><path d="M251.36529,118.16936c0.06474,1.45353 -0.36093,2.65314 -0.95076,2.67941c-0.58983,0.02627 -1.12048,-1.13074 -1.18522,-2.58427c-0.06474,-1.45353 0.36093,-2.65314 0.95076,-2.67941c0.58983,-0.02627 1.12048,1.13074 1.18522,2.58427z" fill="#ff0000"/></g><g stroke-width="0"><path d="M239.31327,110.6038c-0.19444,0.01379 -0.09354,-0.36734 -0.12544,-0.63496c-0.13265,-1.11288 -0.96037,-8.47431 -0.96037,-8.47431l4.06225,-0.48421c0,0 0.86624,6.88647 1.01254,8.11387c0.04074,0.34172 0.34183,0.90239 0.07327,0.99539c-0.24336,0.08427 -0.41095,0.13587 -0.63812,0.16295c-0.47094,0.05613 -1.93281,0.23267 -2.80486,0.33662c-0.30085,0.03586 -0.00263,0.06617 -0.61926,-0.01536z" fill="#797979"/><path d="M252.78499,100.80595c0.06093,1.36797 -3.02248,2.61648 -6.88701,2.78862c-3.86453,0.17214 -7.04674,-0.79728 -7.10767,-2.16525c-0.06093,-1.36797 3.02248,-2.61648 6.88701,-2.78862c3.86453,-0.17214 7.04674,0.79728 7.10767,2.16525z" fill="#c9c9c9"/><path d="M235.56306,99.09122c3.86453,-0.17214 7.04674,0.79728 7.10767,2.16525c0.06093,1.36797 -3.02249,2.61648 -6.88701,2.78862c-3.86453,0.17214 -7.04674,-0.79728 -7.10767,-2.16525c-0.06093,-1.36797 3.02248,-2.61648 6.88701,-2.78862z" fill="#c9c9c9"/></g></g></g></svg>