<svg version="1.1" xmlns="http://www.w3.org/2000/svg" xmlns:xlink="http://www.w3.org/1999/xlink" width="79.58288" height="79.58288" viewBox="0,0,79.58288,79.58288"><g transform="translate(-200.20856,-140.20856)"><g stroke-miterlimit="10"><path d="M210.25862,180c0,-16.42571 13.31567,-29.74138 29.74138,-29.74138c16.42571,0 29.74138,13.31567 29.74138,29.74138c0,16.42571 -13.31567,29.74138 -29.74138,29.74138c-16.42571,0 -29.74138,-13.31567 -29.74138,-29.74138z" fill="#fff100" stroke="#a79b1c" stroke-width="2"/><path d="M232.36907,177.24956c-1.07187,0.64312 -1.71499,-0.42874 -1.71499,-0.42874l-0.69915,-1.1654c-0.14324,-0.25189 -0.94591,-2.26399 -1.34173,-3.32619c0.04124,1.47965 -1.10382,4.82444 -1.20721,5.27943c0,0 -0.27703,1.21892 -1.49594,0.94189c-1.21892,-0.27703 -0.94189,-1.49594 -0.94189,-1.49594c0.51897,-2.28319 1.12786,-10.56208 5.26136,-6.67758c1.07719,1.01229 1.14643,2.73332 1.88275,4.01508l0.68557,1.14247c0,0 0.64311,1.07186 -0.42875,1.71498z" fill="#a79b1c" stroke="none" stroke-width="0.5"/><path d="M252.59422,182.25765c-1.11803,0.55901 -1.67705,-0.55902 -1.67705,-0.55902l-0.32664,-0.65487c-1.3752,-2.5332 -2.42571,-5.11797 -3.49332,-7.78717c-0.43894,2.12518 -0.81382,4.2659 -1.49212,6.31662c0,0 -0.39529,1.18586 -1.58114,0.79057c-1.18586,-0.39529 -0.79056,-1.58114 -0.79056,-1.58114c0.91033,-2.7075 1.25402,-5.61126 1.95222,-8.3941l0.04009,-0.05442l-0.01951,-0.0071l0.45162,-1.24193c0.16674,-0.49429 0.63416,-0.85021 1.1847,-0.85021c0.49901,0 0.92971,0.2924 1.13014,0.7152l0.68025,1.3605l-0.25921,0.1296c1.78876,2.92736 2.71296,6.31603 4.39383,9.41057l0.36572,0.72985c0,0 0.55902,1.11804 -0.55901,1.67705z" fill="#a79b1c" stroke="none" stroke-width="0.5"/><path d="M236.9831,185.41512c-1.18832,-0.05095 -2.37229,-0.13403 -3.54889,-0.26371c0,0 -1.24235,-0.13804 -1.10431,-1.38039c0.13804,-1.24236 1.38039,-1.10432 1.38039,-1.10432c5.897,0.66088 12.00867,0.22314 17.9395,0.22314c1.23089,0 5.26486,-0.47367 6.07032,0.44203c1.12401,1.27785 -0.75168,4.13396 -1.29571,4.95905c-2.30481,3.49552 -5.79787,5.10392 -9.79137,5.95853c-1.99393,0.39805 -6.78479,1.65031 -8.55816,-0.03764c-2.10191,-2.00067 -1.72745,-6.15029 -1.09178,-8.79669zM239.65867,185.48164c-0.03276,0.29361 -0.14216,0.50606 -0.28331,0.65977c-0.42636,1.77693 -0.84824,4.83387 0.31045,6.15864c0.80794,0.92375 5.49616,-0.30948 6.443,-0.49922c2.33446,-0.48892 5.14389,-1.25636 6.82422,-3.09973c0.50812,-0.55741 0.96622,-1.16197 1.3858,-1.78874c0.34638,-0.51743 0.55923,-1.11939 0.90213,-1.63734c-1.60452,0.61569 -4.76213,0.11482 -6.09117,0.11482c-3.14079,0 -6.32333,0.12091 -9.49112,0.0918z" fill="#a79b1c" stroke="none" stroke-width="0.5"/><path d="M241.49513,194.13981c-0.88388,0.88388 -1.76776,0 -1.76776,0l-0.25555,-0.28245c-2.23432,-3.31199 -1.56276,-7.25113 1.1787,-10.02444c0,0 0.88389,-0.88388 1.76777,0c0.88388,0.88388 0,1.76776 0,1.76776c-1.851,1.82485 -2.53451,4.60726 -0.89839,6.82302l-0.02477,-0.05166c0,0 0.88388,0.88388 0,1.76776z" fill="#a79b1c" stroke="none" stroke-width="0.5"/><path d="M247.43484,193.04271c-0.94072,0.82313 -1.76385,-0.11759 -1.76385,-0.11759l-1.07299,-1.41738c-0.67954,-2.56697 -0.25963,-4.79303 0.2069,-7.36072c0,0 0.22361,-1.22984 1.45344,-1.00623c1.22984,0.22361 1.00623,1.45344 1.00623,1.45344c-0.39353,2.16296 -0.86597,4.09632 -0.25467,6.25571l0.54252,0.42891c0,0 0.82313,0.94072 -0.11759,1.76385z" fill="#a79b1c" stroke="none" stroke-width="0.5"/><path d="M255.96808,184.46989c0.20196,0.33769 0.20196,0.70849 0.20196,0.70849l-0.00513,0.92092c-0.26477,0.7569 -0.0262,2.04046 -0.79431,2.2707c-4.44574,1.33259 -2.77757,-3.68367 -1.44877,-4.87067c0,0 0.98669,-0.76743 1.75412,0.21926c0.21055,0.27071 0.28906,0.52492 0.29214,0.7513z" fill="#a79b1c" stroke="none" stroke-width="0.5"/><path d="M200.20856,219.79144v-79.58288h79.58288v79.58288z" fill="none" stroke="none" stroke-width="0"/></g></g></svg>