<svg version="1.1" xmlns="http://www.w3.org/2000/svg" xmlns:xlink="http://www.w3.org/1999/xlink" width="51.8506" height="54.50658" viewBox="0,0,51.8506,54.50658"><g transform="translate(-211.70781,-82.03141)"><g stroke="none" stroke-width="0" stroke-miterlimit="10"><g fill="#a8c0c5"><path d="M231.53604,111.33587c-4.07768,2.75715 -8.13394,3.88208 -9.05992,2.5126c-0.92599,-1.36948 1.62897,-4.71478 5.70663,-7.47193c4.07768,-2.75715 8.13394,-3.88208 9.05993,-2.51259c0.92599,1.36948 -1.62896,4.71477 -5.70664,7.47192z"/><path d="M233.90399,127.88876c-0.64386,0.43535 -0.94633,1.09961 -1.97775,0.56219c-1.43355,-0.74695 -3.75972,-3.18449 -5.77465,-6.16445c-3.46464,-5.12402 -4.32377,-8.51015 -3.57421,-10.20967c1.17366,-2.66116 5.68184,1.31792 9.14648,6.44194c1.75034,2.58865 3.16994,5.55168 3.46427,7.12923c0.28828,1.5451 -0.52278,1.72598 -1.28415,2.24078z"/><path d="M234.71967,128.70819c-2.06427,1.39577 -3.66678,2.56144 -4.30344,1.61985c-0.63667,-0.9416 0.52063,-2.8364 2.58489,-4.23216c2.06427,-1.39577 4.2538,-1.76394 4.89046,-0.82235c0.63667,0.9416 -1.10765,2.0389 -3.17191,3.43466z"/><path d="M238.58437,125.98003c0.85093,1.25848 1.19465,3.08601 0.56088,3.51454c-0.63376,0.42852 -1.83734,-0.24429 -2.68827,-1.50276c-0.85093,-1.25848 -1.02698,-2.62606 -0.39321,-3.05458c0.63377,-0.42853 1.66968,-0.21567 2.52061,1.04281z"/><path d="M230.67586,128.58029c0.63377,-0.42853 1.83734,0.24429 2.68827,1.50276c0.85093,1.25848 1.02697,2.62606 0.39321,3.05458c-0.63377,0.42853 -2.20174,-0.57122 -3.05267,-1.8297c-0.85093,-1.25848 -0.66259,-2.29912 -0.02882,-2.72765z"/></g><path d="M263.55841,106.94929c0,8.21598 -7.74408,3.71908 -21.11999,3.71908c-13.37591,0 -27.31847,4.4969 -27.31847,-3.71908c0,-8.21598 10.84332,-14.87634 24.21923,-14.87634c13.37591,0 24.21922,6.66036 24.21922,14.87635z" fill="#c3dce2"/><path d="M259.46741,103.2302c0,2.054 -4.66225,3.71909 -10.41344,3.71909c-5.75118,0 -10.41344,-1.6651 -10.41344,-3.71909c0,-2.054 -1.53622,-3.34717 4.21496,-5.33069c1.35777,-0.46828 4.6096,-0.40924 6.70194,-0.44693c2.17332,-0.03915 4.63203,0.42699 6.22284,0.97386c3.01038,1.03489 3.68714,3.7955 3.68714,4.80375z" fill="#000000"/><path d="M244.6588,102.82322c0,1.25611 -0.44853,2.27439 -1.00181,2.27439c-0.55328,0 -1.00181,-1.01828 -1.00181,-2.27439c0,-1.25611 0.44853,-2.27439 1.00181,-2.27439c0.55328,0 1.00181,1.01828 1.00181,2.27439z" fill="#0091ff"/><path d="M256.84301,102.68784c0,1.03181 -0.33943,1.86825 -0.75813,1.86825c-0.4187,0 -0.75813,-0.83644 -0.75813,-1.86825c0,-1.03181 0.33943,-1.86825 0.75813,-1.86825c0.4187,0 0.75813,0.83644 0.75813,1.86825z" fill="#ff0000"/><g fill="#c3dce2"><path d="M220.63581,115.08443c-3.66225,3.28896 -7.52652,4.95812 -8.63112,3.72816c-1.1046,-1.22996 0.96879,-4.89328 4.63103,-8.18223c3.66225,-3.28896 7.52653,-4.95811 8.63112,-3.72815c1.1046,1.22996 -0.96879,4.89326 -4.63104,8.18223z"/><path d="M225.24555,131.15789c-0.57826,0.51932 -0.78705,1.2187 -1.88227,0.8274c-1.52223,-0.54386 -4.15995,-2.64032 -6.56353,-5.31669c-4.13292,-4.60199 -5.44711,-7.83879 -4.93705,-9.62486c0.79866,-2.79667 5.8087,0.5284 9.94162,5.13039c2.08795,2.32492 3.89948,5.06593 4.40682,6.58841c0.49691,1.49114 -0.2818,1.78126 -0.9656,2.39537z"/><path d="M226.16562,131.85804c-1.85396,1.66499 -3.28198,3.03889 -4.04144,2.19323c-0.75947,-0.84567 0.12779,-2.88095 1.98175,-4.54594c1.85396,-1.66499 3.97256,-2.32918 4.73202,-1.48352c0.75947,0.84567 -0.81837,2.17123 -2.67232,3.83622z"/><path d="M229.62087,128.62694c1.01506,1.13027 1.60551,2.89361 1.03631,3.40479c-0.5692,0.51119 -1.85349,0.00931 -2.86855,-1.12095c-1.01506,-1.13027 -1.37651,-2.46091 -0.80731,-2.9721c0.56919,-0.51118 1.62449,-0.44201 2.63955,0.68825z"/><path d="M222.14233,132.28445c0.5692,-0.51119 1.85349,-0.00931 2.86855,1.12095c1.01506,1.13027 1.37651,2.46091 0.80731,2.9721c-0.5692,0.51119 -2.25917,-0.26471 -3.27423,-1.39497c-1.01506,-1.13027 -0.97082,-2.18689 -0.40162,-2.69808z"/></g><g><path d="M237.639,93.69947c-0.19486,0.00512 -0.0771,-0.37114 -0.09706,-0.63991c-0.083,-1.11768 -0.58232,-8.50865 -0.58232,-8.50865l4.07977,-0.30297c0,0 0.55894,6.91819 0.65048,8.15089c0.02549,0.34319 0.30134,0.91671 0.0289,0.99766c-0.24687,0.07336 -0.41659,0.11745 -0.64474,0.13439c-0.47297,0.03512 -1.94125,0.14643 -2.81706,0.21147c-0.30215,0.02244 -0.00557,0.06599 -0.61796,-0.0429z" fill="#797979"/><path d="M251.53336,84.5108c0,1.36933 -3.13592,2.47939 -7.00428,2.47939c-3.86836,0 -7.00428,-1.11006 -7.00428,-2.47939c0,-1.36933 3.13592,-2.47939 7.00428,-2.47939c3.86836,0 7.00428,1.11006 7.00428,2.47939z" fill="#c9c9c9"/><path d="M234.40479,82.03141c3.86836,0 7.00428,1.11006 7.00428,2.47939c0,1.36933 -3.13593,2.47939 -7.00428,2.47939c-3.86836,0 -7.00428,-1.11006 -7.00428,-2.47939c0,-1.36933 3.13592,-2.47939 7.00428,-2.47939z" fill="#c9c9c9"/></g></g></g></svg>