<svg version="1.1" xmlns="http://www.w3.org/2000/svg" xmlns:xlink="http://www.w3.org/1999/xlink" width="86.91154" height="159.07915" viewBox="0,0,86.91154,159.07915"><g transform="translate(-276.54423,-100.46044)"><g stroke="none" stroke-width="0" stroke-miterlimit="10"><path d="M276.54423,259.53959v-159.07915h86.91154v159.07915z" fill-opacity="0" fill="#9e9898"/><g><g fill="#a8c0c5"><path d="M324.49354,162.28149c2.65328,0 4.80419,6.40438 4.80419,14.3046c0,7.9002 -2.15091,14.3046 -4.80419,14.3046c-2.65328,0 -4.80417,-6.40438 -4.80417,-14.3046c0,-7.90022 2.15089,-14.3046 4.80417,-14.3046z"/><path d="M324.81751,213.04413c-1.47502,-0.01619 -2.7213,0.4588 -3.70157,-1.86557c-1.00089,-2.3732 -1.71986,-7.59717 -1.66479,-12.6122c0.10899,-9.92684 2.62821,-19.24301 6.55353,-16.7167c2.50691,1.6134 4.35072,6.90841 4.24171,16.83524c-0.0634,5.77313 -1.02337,11.095 -2.28284,13.36318c-0.90617,1.63193 -1.89872,1.00974 -3.14607,0.99605z"/><g><path d="M324.44964,214.86295c-3.99912,-0.04391 -7.30577,0.02899 -7.28574,-1.79518c0.02003,-1.82415 3.2782,-3.26733 7.27733,-3.22342c3.99912,0.04391 7.22481,1.55828 7.20478,3.38245c-0.02003,1.82415 -3.19722,1.68007 -7.19635,1.63616z"/><path d="M316.86081,214.62671c0.02677,-2.43807 1.22601,-3.63926 2.4538,-3.62578c1.2278,0.01348 2.20141,2.00084 2.17464,4.43891c-0.02677,2.43806 -1.04379,4.40357 -2.2716,4.39009c-1.2278,-0.01348 -2.38361,-2.76516 -2.35684,-5.20323z"/><path d="M329.75267,211.11553c1.2278,0.01349 2.40035,1.24073 2.37358,3.6788c-0.02677,2.43807 -1.24273,5.1637 -2.47054,5.15022c-1.2278,-0.01348 -2.20141,-2.00084 -2.17464,-4.43891c0.02677,-2.43806 1.04379,-4.40357 2.2716,-4.39009z"/></g></g><path d="M281.12875,173.15528c0,-13.18646 17.40324,-23.87617 38.87124,-23.87617c21.468,0 38.87126,10.68971 38.87126,23.87615c0,13.18644 -22.37746,5.96903 -43.84546,5.96903c-21.468,0 -33.89705,7.21741 -33.89705,-5.96903z" fill="#c3dce2"/><path d="M287.69469,167.1862c0,-1.61822 1.08619,-6.04893 5.91777,-7.7099c2.55321,-0.87771 6.49938,-1.62585 9.9875,-1.56302c3.35816,0.06049 8.57726,-0.03427 10.75645,0.71731c9.2305,3.1835 6.76491,5.259 6.76491,8.55562c0,3.29661 -7.48281,5.96905 -16.71331,5.96905c-9.23052,0 -16.71331,-2.67243 -16.71331,-5.96905z" fill="#000000"/><path d="M313.07002,162.88268c0.888,0 1.60788,1.63431 1.60788,3.65034c0,2.01603 -0.71988,3.65034 -1.60788,3.65034c-0.888,0 -1.60788,-1.63431 -1.60788,-3.65034c0,-2.01603 0.71988,-3.65034 1.60788,-3.65034z" fill="#0091ff"/><path d="M293.12357,163.31725c0.672,0 1.21678,1.34246 1.21678,2.99849c0,1.65602 -0.54478,2.99849 -1.21678,2.99849c-0.672,0 -1.21678,-1.34246 -1.21678,-2.99849c0,-1.65602 0.54478,-2.99849 1.21678,-2.99849z" fill="#ff0000"/><g><path d="M322.72871,151.88959c-0.98287,0.17476 -0.50687,0.10487 -0.99181,0.06885c-1.40565,-0.10438 -3.76221,-0.28303 -4.52131,-0.3394c-0.36617,-0.02719 -0.63857,-0.09795 -1.03479,-0.21569c-0.43726,-0.12992 0.00547,-1.05041 0.04638,-1.60122c0.14692,-1.97845 1.044,-13.08197 1.044,-13.08197l6.54793,0.48626c0,0 -0.8014,11.86232 -0.93461,13.65617c-0.03204,0.43137 0.15697,1.03526 -0.15578,1.02704z" fill="#797979"/><path d="M311.67035,133.16268c6.20862,0 11.24169,1.78162 11.24169,3.97936c0,2.19774 -5.03307,3.97936 -11.24169,3.97936c-6.20862,0 -11.24169,-1.78162 -11.24169,-3.97936c0,-2.19774 5.03307,-3.97936 11.24169,-3.97936z" fill="#c9c9c9"/><path d="M339.16127,137.14205c0,2.19774 -5.03307,3.97936 -11.24169,3.97936c-6.2086,0 -11.24169,-1.78162 -11.24169,-3.97936c0,-2.19774 5.03307,-3.97936 11.24169,-3.97936c6.20862,0 11.24169,1.78162 11.24169,3.97936z" fill="#c9c9c9"/></g><g fill="#c3dce2"><path d="M342.11884,169.17424c2.65328,0 4.80419,6.40438 4.80419,14.3046c0,7.9002 -2.15091,14.3046 -4.80419,14.3046c-2.65328,0 -4.80417,-6.40438 -4.80417,-14.3046c0,-7.90022 2.15089,-14.3046 4.80417,-14.3046z"/><path d="M342.44287,219.93689c-1.47502,-0.01619 -2.7213,0.4588 -3.70157,-1.86557c-1.00089,-2.3732 -1.71986,-7.59717 -1.66479,-12.6122c0.10899,-9.92684 2.62821,-19.24301 6.55353,-16.7167c2.50691,1.6134 4.35072,6.90841 4.24171,16.83524c-0.0634,5.77313 -1.02337,11.095 -2.28284,13.36318c-0.90617,1.63193 -1.89872,1.00974 -3.14607,0.99605z"/><g><path d="M342.07495,221.7557c-3.99912,-0.04391 -7.30577,0.02899 -7.28574,-1.79518c0.02003,-1.82415 3.2782,-3.26733 7.27733,-3.22342c3.99912,0.04391 7.22481,1.55828 7.20478,3.38245c-0.02003,1.82415 -3.19722,1.68007 -7.19635,1.63616z"/><path d="M334.48612,221.51947c0.02677,-2.43807 1.22601,-3.63926 2.4538,-3.62578c1.2278,0.01348 2.20141,2.00084 2.17464,4.43891c-0.02677,2.43806 -1.04379,4.40357 -2.2716,4.39009c-1.2278,-0.01348 -2.38361,-2.76516 -2.35684,-5.20323z"/><path d="M347.37803,218.00829c1.2278,0.01349 2.40035,1.24073 2.37358,3.6788c-0.02677,2.43807 -1.24273,5.1637 -2.47054,5.15022c-1.2278,-0.01348 -2.20141,-2.00084 -2.17464,-4.43891c0.02677,-2.43806 1.04379,-4.40357 2.2716,-4.39009z"/></g></g></g></g></g></svg>