<svg version="1.1" xmlns="http://www.w3.org/2000/svg" xmlns:xlink="http://www.w3.org/1999/xlink" width="79.58288" height="79.58288" viewBox="0,0,79.58288,79.58288"><g transform="translate(-200.20856,-140.20856)"><g stroke-miterlimit="10"><path d="M240.40545,210.19277c-3.1441,0 -6.35378,0.19471 -9.11992,-1.11365c-9.2411,-4.37094 -15.59175,-16.2483 -15.59175,-29.08384c0,-11.67995 5.1224,-23.12877 13.06262,-28.15181c3.3975,-2.14928 7.55929,-2.04568 11.64905,-2.04568c13.64788,0 24.71167,13.51988 24.71167,30.19749c0,16.67761 -11.0638,30.19749 -24.71167,30.19749z" fill="#fff100" stroke="#a79b1c" stroke-width="2"/><path d="M235.36791,209.78734c-11.31357,0 -20.48502,-13.31567 -20.48502,-29.74138c0,-16.42571 9.17146,-29.74138 20.48502,-29.74138c11.31357,0 20.48502,13.31567 20.48502,29.74138c0,16.42571 -9.17146,29.74138 -20.48502,29.74138z" fill="#fff100" stroke="#a79b1c" stroke-width="2"/><g fill="#a79b1c" stroke="none" stroke-width="0.5"><path d="M228.0362,177.29552c-0.73827,0.64312 -1.18123,-0.42874 -1.18123,-0.42874l-0.48156,-1.1654c-0.09866,-0.25189 -0.65152,-2.26399 -0.92414,-3.32619c0.02841,1.47965 -0.76028,4.82444 -0.83149,5.27943c0,0 -0.19081,1.21892 -1.03036,0.94189c-0.83956,-0.27703 -0.64874,-1.49594 -0.64874,-1.49594c0.35745,-2.28319 0.77684,-10.56208 3.62388,-6.67758c0.74193,1.01229 0.78963,2.73332 1.29678,4.01508l0.4722,1.14247c0,0 0.44296,1.07186 -0.29531,1.71498z"/><path d="M241.96671,182.30361c-0.77007,0.55901 -1.15511,-0.55902 -1.15511,-0.55902l-0.22498,-0.65487c-0.94719,-2.5332 -1.67076,-5.11797 -2.4061,-7.78717c-0.30233,2.12518 -0.56054,4.2659 -1.02773,6.31662c0,0 -0.27226,1.18586 -1.08905,0.79057c-0.81679,-0.39529 -0.54452,-1.58114 -0.54452,-1.58114c0.62701,-2.7075 0.86373,-5.61126 1.34463,-8.3941l0.02762,-0.05442l-0.01344,-0.0071l0.31107,-1.24193c0.11484,-0.49429 0.43679,-0.85021 0.81598,-0.85021c0.3437,0 0.64036,0.2924 0.7784,0.7152l0.46854,1.3605l-0.17853,0.1296c1.23205,2.92736 1.86861,6.31603 3.02635,9.41057l0.2519,0.72985c0,0 0.38504,1.11804 -0.38503,1.67705z"/><g><path d="M231.21421,185.46108c-0.81848,-0.05095 -1.63397,-0.13403 -2.44438,-0.26371c0,0 -0.8557,-0.13804 -0.76062,-1.38039c0.09508,-1.24236 0.95077,-1.10432 0.95077,-1.10432c4.06169,0.66088 8.27123,0.22314 12.35622,0.22314c0.8478,0 3.62629,-0.47367 4.18107,0.44203c0.77418,1.27785 -0.51774,4.13396 -0.89245,4.95905c-1.58749,3.49552 -3.99341,5.10392 -6.74401,5.95853c-1.37336,0.39805 -4.67317,1.65031 -5.89462,-0.03764c-1.44774,-2.00067 -1.18982,-6.15029 -0.75199,-8.79669zM233.05707,185.5276c-0.02256,0.29361 -0.09791,0.50606 -0.19514,0.65977c-0.29367,1.77693 -0.58424,4.83387 0.21383,6.15864c0.55649,0.92375 3.7856,-0.30948 4.43775,-0.49922c1.60791,-0.48892 3.54296,-1.25636 4.70033,-3.09973c0.34998,-0.55741 0.66551,-1.16197 0.9545,-1.78874c0.23858,-0.51743 0.38518,-1.11939 0.62136,-1.63734c-1.10515,0.61569 -3.28002,0.11482 -4.19543,0.11482c-2.16329,0 -4.35533,0.12091 -6.53721,0.0918z"/><path d="M234.32197,194.18577c-0.60879,0.88388 -1.21758,0 -1.21758,0l-0.17601,-0.28245c-1.53894,-3.31199 -1.07638,-7.25113 0.81185,-10.02444c0,0 0.60879,-0.88388 1.21759,0c0.60879,0.88388 0,1.76776 0,1.76776c-1.27492,1.82485 -1.7457,4.60726 -0.61878,6.82302l-0.01706,-0.05166c0,0 0.60879,0.88388 0,1.76776z"/><path d="M238.41307,193.08867c-0.64794,0.82313 -1.21489,-0.11759 -1.21489,-0.11759l-0.73905,-1.41738c-0.46805,-2.56697 -0.17882,-4.79303 0.1425,-7.36072c0,0 0.15402,-1.22984 1.00109,-1.00623c0.84708,0.22361 0.69306,1.45344 0.69306,1.45344c-0.27106,2.16296 -0.59645,4.09632 -0.17541,6.25571l0.37367,0.42891c0,0 0.56695,0.94072 -0.08099,1.76385z"/><path d="M244.29052,184.51585c0.1391,0.33769 0.1391,0.70849 0.1391,0.70849l-0.00353,0.92092c-0.18237,0.7569 -0.01805,2.04046 -0.5471,2.2707c-3.0621,1.33259 -1.91311,-3.68367 -0.99787,-4.87067c0,0 0.6796,-0.76743 1.20819,0.21926c0.14502,0.27071 0.19909,0.52492 0.20122,0.7513z"/></g></g><path d="M200.20856,219.79144v-79.58288h79.58288v79.58288z" fill="none" stroke="none" stroke-width="0"/></g></g></svg>