<svg version="1.1" xmlns="http://www.w3.org/2000/svg" xmlns:xlink="http://www.w3.org/1999/xlink" width="680.2234" height="390.84078" viewBox="0,0,680.2234,390.84078"><g transform="translate(14.08665,24.19242)"><g stroke="none" stroke-miterlimit="10"><path d="M666.13675,-7.38792v31.93804h-670.57563v-31.93804z" fill="#9e9898" stroke-width="0"/><path d="M-4.39516,241.48739v-249.61518h31.61844v249.61518z" fill="#9e9898" stroke-width="0"/><path d="M651.53911,116.6798v198.92102h-76.55437v-198.92102z" fill="#9e9898" stroke-width="0"/><path d="M24.575,-23.44242c0,-0.41421 0.33579,-0.75 0.75,-0.75c0.41421,0 0.75,0.33579 0.75,0.75c0,0.41421 -0.33579,0.75 -0.75,0.75c-0.41421,0 -0.75,-0.33579 -0.75,-0.75z" fill="#ffe2b1" stroke-width="0.5"/><path d="" fill="#000000" stroke-width="0.5"/><path d="" fill="#000000" stroke-width="0.5"/><path d="M-14.08665,366.64837v-51.04752h654.08665v51.04752z" fill="#9e9898" stroke-width="0"/><path d="M340.04173,317.98012v-56.44986h80.42133v56.44986z" fill="#9e9898" stroke-width="0"/><path d="M406.82049,321.61586v-102.34498h224.87722v102.34498z" fill="#9e9898" stroke-width="0"/></g></g></svg>