<svg version="1.1" xmlns="http://www.w3.org/2000/svg" xmlns:xlink="http://www.w3.org/1999/xlink" width="204.47368" height="204.47368" viewBox="0,0,204.47368,204.47368"><g transform="translate(-137.76316,-77.76316)"><g stroke="none" stroke-miterlimit="10"><path d="M137.76316,282.23684v-204.47368h204.47368v204.47368z" fill="none" stroke-width="0"/><path d="M279.59602,208.75142c7.10807,24.52608 2.00049,48.90985 -7.3293,46.02702c-2.92359,-0.90337 -7.52635,1.79888 -9.2936,-2.57656c-3.45835,-8.56232 -2.73226,-34.22603 -3.38356,-49.83378c-0.43836,-10.50481 -2.33014,-11.11879 -3.41361,-19.01791c-3.20131,-23.33945 0.01021,-17.49395 9.33215,-19.91469c11.3605,-2.95012 7.8538,23.80536 14.08792,45.31592z" fill="#f1f1f1" stroke-width="0"/><path d="M205.53169,210.12238c7.3557,-21.04403 1.65772,-44.23357 13.02157,-44.23357c11.36385,0 18.38924,-3.45001 14.61199,19.38325c-1.27839,7.72781 -3.51052,8.32847 -4.02774,18.60545c-0.76847,15.26924 0.08825,40.37635 -3.99229,48.75297c-2.0852,4.28054 -7.51603,1.63691 -10.96561,2.52068c-11.00831,2.82031 -17.03478,-21.03463 -8.64791,-45.02878z" fill="#f1f1f1" stroke-width="0"/><path d="M285.71753,138.29984c4.80331,15.27109 -13.46481,39.56619 -30.91525,33.05288c-3.12591,-1.16673 -6.38026,0.2914 -9.75485,0.72395c-24.81545,3.18084 -47.71536,-4.81953 -50.87692,-22.14949c-4.31159,-23.63383 14.33211,-45.68866 39.14756,-45.68866c24.81545,0 48.04847,16.3259 52.39946,34.06132z" fill="#f1f1f1" stroke-width="0"/><path d="M208.16985,171.11074l0.03312,-0.07245c-4.58094,-2.78843 -10.55953,-4.08655 -13.78773,-8.81348c-2.62177,-3.83895 -1.77506,-8.27379 -1.77506,-12.61176c0,-6.22627 0.10003,-12.12913 0.91555,-18.24174c0.34563,-2.59061 0.14138,-5.31865 1.04628,-7.77055c0.13653,-0.36994 3.7254,-6.53629 3.93229,-6.89369c2.42592,-2.46362 4.63502,-5.01757 7.79998,-6.61838c1.54792,-0.78293 7.13582,-2.51464 9.04671,-3.18895c4.24152,-1.49674 8.53201,-3.42374 12.98928,-4.14672c2.8051,-0.45499 6.07348,-0.03228 8.92019,-0.03228c0.62624,0 7.72601,-0.00516 7.92838,0.01873c2.44811,0.28899 4.7304,1.47265 7.17452,1.79363c1.08387,0.14235 2.20894,-0.20006 3.27945,0.02138c4.65024,0.96195 8.94396,4.09109 12.88383,6.5571c7.4059,3.69862 13.60083,8.17939 17.20605,15.96654c1.81665,3.9239 1.55649,8.95857 1.55894,13.11838c0.00173,2.94687 0.39408,6.40501 -0.02416,9.3149c-0.52852,3.67718 -2.43461,6.96357 -3.71318,10.37137c-1.52934,4.07618 -2.98737,7.20445 -5.81025,10.61226c0,0 -1.60046,1.92055 -3.52101,0.32009c-1.92055,-1.60046 -0.3201,-3.52102 -0.3201,-3.52102c2.50286,-2.98297 3.61192,-5.54356 4.95153,-9.11766c1.12572,-3.00348 2.99944,-6.09999 3.46134,-9.35855c0.3814,-2.69063 -0.02582,-5.90438 -0.02416,-8.62139c0.00201,-3.30102 0.38486,-7.93807 -1.13151,-11.09561c-3.257,-6.78208 -8.58145,-10.37571 -15.07927,-13.62833c-3.31236,-2.06733 -7.37252,-5.24018 -11.33016,-5.99831c-0.98159,-0.18803 -2.00782,0.15533 -2.99824,0.02138c-2.44287,-0.33039 -4.72616,-1.50674 -7.17452,-1.79363c-2.42259,-0.28387 -4.8783,0.01874 -7.31746,0.01874c-2.56393,0 -5.6005,-0.46617 -8.11928,-0.03229c-4.15784,0.71622 -8.1505,2.52283 -12.12152,3.92462c-1.2613,0.44524 -7.34555,2.38799 -8.42255,2.91892c-2.45792,1.21169 -4.20833,3.33707 -6.11926,5.21004c-1.06625,1.89546 -2.46474,3.63066 -3.24222,5.66171c-0.78897,2.06109 -0.45585,4.39089 -0.74735,6.57848c-0.78762,5.91075 -0.87808,11.60189 -0.87808,17.63083c0,3.05057 -0.97788,7.13569 0.91539,9.80861c2.70105,3.81333 8.38993,5.05804 12.21988,7.32917l0.10425,0.09241c2.45473,0.03 2.45473,2.49972 2.45473,2.49972c0,6.12823 0,13.15328 0,19.28151c0,2.79934 0.37736,6.05214 -0.01873,8.8252c-1.40291,9.82188 -8.13645,18.32055 -8.48776,28.27002c0.43516,0.68843 0.43517,1.4678 0.43517,1.4678c0,5.16817 -0.85412,11.12605 -0.03229,16.19061c0.21774,1.34181 0.9796,2.5433 1.31062,3.86174c0.40751,1.62311 -0.49464,3.70189 0.57708,4.98719c0.26566,0.3186 0.81708,-0.16413 1.23167,-0.17818c1.42514,-0.04829 2.85191,-0.00713 4.27787,-0.00851c2.98938,-0.0029 5.97984,-0.07993 8.96815,0c1.02676,0.02747 2.9537,0.77005 3.07118,-0.25034c0.49468,-4.29666 -0.19449,-9.29512 -0.17537,-13.66511c1.37564,-6.1904 -0.07657,-12.3475 0.91416,-18.51236c0.14999,-0.93335 0.73514,-1.75905 0.89682,-2.69045c0.45784,-2.63753 -0.03228,-5.89085 -0.03228,-8.56768c0,-3.73049 -0.50244,-7.92363 0.03228,-11.61064c0.38757,-2.67237 1.81385,-5.09191 2.5346,-7.69427c1.02181,-3.68936 0.85692,-7.04004 2.04548,-10.63214c0.86843,-2.62459 2.19928,-4.53954 2.59616,-7.24335l0.67833,-1.60385c0,0 0.87447,-1.74895 2.62342,-1.37994c0.03936,-0.00202 0.06106,-0.00202 0.06106,-0.00202c3.88619,0 7.77239,0 11.65858,0h2.69045c0,0 2.5,0 2.5,2.5c0,2.5 -2.5,2.5 -2.5,2.5c-3.48204,0 -9.12404,0 -13.05534,0c-0.8808,3.15451 -2.77472,5.8362 -3.31363,9.13207c-0.43754,2.67595 -0.45189,5.43422 -1.16237,8.05096c-0.66128,2.43551 -2.07125,4.67416 -2.4213,7.17345c-0.48016,3.42828 0.03228,7.34165 0.03228,10.80973c0,4.26356 -0.21551,7.94822 -0.92909,12.05904c-1.04642,6.02828 0.47701,12.15292 -0.87946,18.25703c0.01973,3.78832 0.12112,7.59895 0.01492,11.3858c-0.03412,1.21689 0.3464,2.55447 -0.1903,3.64715c-2.69602,5.48895 -11.75333,3.34148 -16.65873,3.33692c-1.59545,-0.00148 -7.31068,0.37479 -8.83949,-1.08351c-1.90539,-1.81751 -1.54165,-5.27188 -2.11336,-7.56822c-0.35674,-1.43291 -1.15159,-2.75069 -1.37982,-4.2096c-0.78736,-5.03305 -0.12631,-10.76698 -0.04106,-15.96507c-0.43964,-0.69015 -0.43963,-1.47485 -0.43963,-1.47485c0.08183,-10.81338 7.04599,-19.45499 8.53847,-29.90034c0.36769,-2.57335 -0.01873,-5.62126 -0.01873,-8.21428c0,-5.79013 0,-11.58026 0,-17.37039c-0.10619,-0.08496 -0.16458,-0.14335 -0.16458,-0.14335z" fill="#969696" stroke-width="0.5"/><path d="M276.88444,169.34297v0.89682c0,6.12823 0,12.25646 0,18.38469c0,2.59302 -0.3348,5.64093 -0.01623,8.21428c1.29307,10.44535 7.32676,19.08695 7.39765,29.90033c0,0 0,0.78471 -0.38089,1.47485c0.07386,5.19809 0.64659,10.93202 -0.03557,15.96507c-0.19774,1.45891 -0.88638,2.77669 -1.19546,4.2096c-0.49532,2.29634 -0.18019,5.75071 -1.831,7.56822c-1.32455,1.4583 -6.27617,1.08203 -7.65845,1.08351c-4.25,0.00455 -12.09716,2.15203 -14.43297,-3.33692c-0.46499,-1.09268 -0.13531,-2.43026 -0.16487,-3.64715c-0.092,-3.78685 -0.00417,-7.59748 0.01293,-11.3858c-1.17523,-6.10412 0.14466,-12.22876 -0.76196,-18.25703c-0.61824,-4.11082 -0.80496,-7.79548 -0.80496,-12.05904c0,-3.46808 0.44398,-7.38144 0.02797,-10.80972c-0.30328,-2.49929 -1.52487,-4.73794 -2.0978,-7.17345c-0.61556,-2.61674 -0.62799,-5.37501 -1.00707,-8.05096c-0.52455,-3.70283 -2.53089,-6.63045 -3.10956,-10.32426l-0.1893,-0.18977c0,0 -0.96865,-2.23607 0.96866,-3.35411c1.93731,-1.11803 2.90596,1.11803 2.90596,1.11803l0.58769,1.60385c0.34385,2.70381 1.49689,4.61876 2.2493,7.24335c1.02976,3.5921 0.8869,6.94278 1.77218,10.63214c0.62446,2.60236 1.86018,5.0219 2.19596,7.69427c0.46328,3.687 0.02796,7.88014 0.02796,11.61063c0,2.67683 -0.42463,5.93016 -0.02796,8.56768c0.14008,0.9314 0.64704,1.7571 0.77699,2.69045c0.85836,6.16486 -0.39982,12.32196 0.79202,18.51236c0.01657,4.36999 -0.58052,9.36845 -0.15194,13.66511c0.10179,1.02039 1.77128,0.27781 2.66084,0.25034c2.58904,-0.07993 5.17995,-0.0029 7.76992,0c1.23544,0.00138 2.47157,-0.03978 3.7063,0.00851c0.35919,0.01405 0.83694,0.49679 1.0671,0.17818c0.92852,-1.2853 0.14691,-3.36408 0.49998,-4.98719c0.28679,-1.31844 0.94687,-2.51993 1.13551,-3.86174c0.71202,-5.06456 -0.02797,-11.02244 -0.02797,-16.19061c0,0 0,-0.77937 0.37702,-1.4678c-0.30437,-9.94948 -6.13825,-18.44814 -7.35372,-28.27001c-0.34317,-2.77305 -0.01623,-6.02586 -0.01623,-8.8252c0,-6.12823 0,-13.15328 0,-19.28151c0,0 0,-2.5 2.16598,-2.5c2.16598,0 2.16598,2.5 2.16598,2.5z" fill="#969696" stroke-width="0.5"/><path d="M245.90868,155.04936c0,2.84782 -1.77949,5.15643 -3.9746,5.15643c-2.19511,0 -3.9746,-2.30861 -3.9746,-5.15643c0,-2.84782 1.77949,-5.15643 3.9746,-5.15643c2.19511,0 3.9746,2.30861 3.9746,5.15643z" fill="#969696" stroke-width="0"/><path d="M222.18833,135.80202c0,2.44099 -1.69023,4.4198 -3.77524,4.4198c-2.08501,0 -3.77524,-1.97881 -3.77524,-4.4198c0,-2.44099 1.69023,-4.4198 3.77524,-4.4198c2.08501,0 3.77524,1.97881 3.77524,4.4198z" fill="#969696" stroke-width="0"/><path d="M263.25559,135.70994c0,1.47476 -1.36043,2.67029 -3.03861,2.67029c-1.67818,0 -3.03861,-1.19553 -3.03861,-2.67029c0,-1.47476 1.36043,-2.67029 3.03861,-2.67029c1.67818,0 3.03861,1.19553 3.03861,2.67029z" fill="#969696" stroke-width="0"/></g></g></svg>